ISO-10303-21;
HEADER;
/* Generated by software containing ST-Developer
 * from STEP Tools, Inc. (www.steptools.com) 
 */
/* OPTION: using custom renumber hook */

FILE_DESCRIPTION(
/* description */ ('STEP AP242 Edition 2',
'CAx-IF Rec.Pracs.---Representation and Presentation of Product Manufa
cturing Information (PMI)---4.0---2014-10-13',
'CAx-IF Rec.Pracs.---3D Tessellated Geometry---0.4---2014-09-14','2;1',
'CAx-IF Rec.Pracs.---User Defined Attributes---1.5---2016-08-15'),
/* implementation_level */ '2;1');

FILE_NAME(
/* name */ 'Rotation Bracket',
/* time_stamp */ '2026-08-02T02:26:09Z',
/* author */ (''),
/* organization */ (''),
/* preprocessor_version */ 'ST-DEVELOPER v20',
/* originating_system */ 'ONSHAPE BY PTC INC, 1.218',
/* authorisation */ '  ');

FILE_SCHEMA (('AP242_MANAGED_MODEL_BASED_3D_ENGINEERING_MIM_LF { 1 0 10303 442 3 1 4 }'));
ENDSEC;

DATA;
#10=SHAPE_REPRESENTATION_RELATIONSHIP('','',#631,#11);
#11=ADVANCED_BREP_SHAPE_REPRESENTATION('',(#629),#1065);
#12=CYLINDRICAL_SURFACE('',#678,0.0095);
#13=CYLINDRICAL_SURFACE('',#679,0.0095);
#14=CYLINDRICAL_SURFACE('',#681,0.001);
#15=CYLINDRICAL_SURFACE('',#682,0.001);
#16=CYLINDRICAL_SURFACE('',#683,0.001);
#17=CYLINDRICAL_SURFACE('',#684,0.001);
#18=CYLINDRICAL_SURFACE('',#685,0.001);
#19=CYLINDRICAL_SURFACE('',#686,0.001);
#20=CYLINDRICAL_SURFACE('',#687,0.004);
#21=CYLINDRICAL_SURFACE('',#688,0.001);
#22=CYLINDRICAL_SURFACE('',#689,0.001);
#23=CYLINDRICAL_SURFACE('',#690,0.001);
#24=CYLINDRICAL_SURFACE('',#692,0.001);
#25=CYLINDRICAL_SURFACE('',#694,0.001);
#26=CYLINDRICAL_SURFACE('',#696,0.001);
#27=CYLINDRICAL_SURFACE('',#698,0.001);
#28=CYLINDRICAL_SURFACE('',#700,0.001);
#29=CYLINDRICAL_SURFACE('',#702,0.004);
#30=CYLINDRICAL_SURFACE('',#704,0.001);
#31=CYLINDRICAL_SURFACE('',#706,0.001);
#32=CYLINDRICAL_SURFACE('',#708,0.0012);
#33=CYLINDRICAL_SURFACE('',#709,0.0012);
#34=CYLINDRICAL_SURFACE('',#711,0.0012);
#35=CYLINDRICAL_SURFACE('',#712,0.0012);
#36=LINE('',#922,#60);
#37=LINE('',#926,#61);
#38=LINE('',#930,#62);
#39=LINE('',#950,#63);
#40=LINE('',#955,#64);
#41=LINE('',#959,#65);
#42=LINE('',#963,#66);
#43=LINE('',#968,#67);
#44=LINE('',#972,#68);
#45=LINE('',#974,#69);
#46=LINE('',#975,#70);
#47=LINE('',#976,#71);
#48=LINE('',#978,#72);
#49=LINE('',#983,#73);
#50=LINE('',#985,#74);
#51=LINE('',#986,#75);
#52=LINE('',#987,#76);
#53=LINE('',#989,#77);
#54=LINE('',#993,#78);
#55=LINE('',#994,#79);
#56=LINE('',#1014,#80);
#57=LINE('',#1017,#81);
#58=LINE('',#1018,#82);
#59=LINE('',#1061,#83);
#60=VECTOR('',#737,1.);
#61=VECTOR('',#740,1.);
#62=VECTOR('',#743,1.);
#63=VECTOR('',#764,1.);
#64=VECTOR('',#767,1.);
#65=VECTOR('',#770,1.);
#66=VECTOR('',#775,1.);
#67=VECTOR('',#778,1.);
#68=VECTOR('',#781,1.);
#69=VECTOR('',#782,1.);
#70=VECTOR('',#783,1.);
#71=VECTOR('',#784,1.);
#72=VECTOR('',#787,1.);
#73=VECTOR('',#790,1.);
#74=VECTOR('',#791,1.);
#75=VECTOR('',#792,1.);
#76=VECTOR('',#793,1.);
#77=VECTOR('',#794,1.);
#78=VECTOR('',#799,1.);
#79=VECTOR('',#800,1.);
#80=VECTOR('',#821,1.);
#81=VECTOR('',#826,1.);
#82=VECTOR('',#827,1.);
#83=VECTOR('',#894,1.);
#84=ORIENTED_EDGE('',*,*,#228,.T.);
#85=ORIENTED_EDGE('',*,*,#229,.T.);
#86=ORIENTED_EDGE('',*,*,#230,.T.);
#87=ORIENTED_EDGE('',*,*,#231,.T.);
#88=ORIENTED_EDGE('',*,*,#232,.T.);
#89=ORIENTED_EDGE('',*,*,#233,.T.);
#90=ORIENTED_EDGE('',*,*,#234,.T.);
#91=ORIENTED_EDGE('',*,*,#235,.T.);
#92=ORIENTED_EDGE('',*,*,#236,.T.);
#93=ORIENTED_EDGE('',*,*,#237,.F.);
#94=ORIENTED_EDGE('',*,*,#238,.T.);
#95=ORIENTED_EDGE('',*,*,#239,.T.);
#96=ORIENTED_EDGE('',*,*,#240,.T.);
#97=ORIENTED_EDGE('',*,*,#241,.T.);
#98=ORIENTED_EDGE('',*,*,#242,.F.);
#99=ORIENTED_EDGE('',*,*,#243,.F.);
#100=ORIENTED_EDGE('',*,*,#244,.F.);
#101=ORIENTED_EDGE('',*,*,#245,.F.);
#102=ORIENTED_EDGE('',*,*,#246,.F.);
#103=ORIENTED_EDGE('',*,*,#247,.F.);
#104=ORIENTED_EDGE('',*,*,#248,.F.);
#105=ORIENTED_EDGE('',*,*,#249,.F.);
#106=ORIENTED_EDGE('',*,*,#250,.F.);
#107=ORIENTED_EDGE('',*,*,#251,.F.);
#108=ORIENTED_EDGE('',*,*,#252,.F.);
#109=ORIENTED_EDGE('',*,*,#253,.T.);
#110=ORIENTED_EDGE('',*,*,#254,.T.);
#111=ORIENTED_EDGE('',*,*,#255,.T.);
#112=ORIENTED_EDGE('',*,*,#256,.F.);
#113=ORIENTED_EDGE('',*,*,#257,.T.);
#114=ORIENTED_EDGE('',*,*,#258,.T.);
#115=ORIENTED_EDGE('',*,*,#259,.T.);
#116=ORIENTED_EDGE('',*,*,#260,.T.);
#117=ORIENTED_EDGE('',*,*,#261,.T.);
#118=ORIENTED_EDGE('',*,*,#262,.F.);
#119=ORIENTED_EDGE('',*,*,#263,.F.);
#120=ORIENTED_EDGE('',*,*,#252,.T.);
#121=ORIENTED_EDGE('',*,*,#264,.T.);
#122=ORIENTED_EDGE('',*,*,#238,.F.);
#123=ORIENTED_EDGE('',*,*,#265,.F.);
#124=ORIENTED_EDGE('',*,*,#266,.F.);
#125=ORIENTED_EDGE('',*,*,#267,.T.);
#126=ORIENTED_EDGE('',*,*,#268,.F.);
#127=ORIENTED_EDGE('',*,*,#269,.T.);
#128=ORIENTED_EDGE('',*,*,#242,.T.);
#129=ORIENTED_EDGE('',*,*,#270,.T.);
#130=ORIENTED_EDGE('',*,*,#254,.F.);
#131=ORIENTED_EDGE('',*,*,#271,.T.);
#132=ORIENTED_EDGE('',*,*,#272,.T.);
#133=ORIENTED_EDGE('',*,*,#273,.T.);
#134=ORIENTED_EDGE('',*,*,#240,.F.);
#135=ORIENTED_EDGE('',*,*,#274,.T.);
#136=ORIENTED_EDGE('',*,*,#256,.T.);
#137=ORIENTED_EDGE('',*,*,#275,.T.);
#138=ORIENTED_EDGE('',*,*,#276,.F.);
#139=ORIENTED_EDGE('',*,*,#277,.F.);
#140=ORIENTED_EDGE('',*,*,#278,.F.);
#141=ORIENTED_EDGE('',*,*,#279,.F.);
#142=ORIENTED_EDGE('',*,*,#280,.F.);
#143=ORIENTED_EDGE('',*,*,#281,.F.);
#144=ORIENTED_EDGE('',*,*,#282,.F.);
#145=ORIENTED_EDGE('',*,*,#283,.F.);
#146=ORIENTED_EDGE('',*,*,#284,.F.);
#147=ORIENTED_EDGE('',*,*,#262,.T.);
#148=ORIENTED_EDGE('',*,*,#285,.T.);
#149=ORIENTED_EDGE('',*,*,#272,.F.);
#150=ORIENTED_EDGE('',*,*,#286,.T.);
#151=ORIENTED_EDGE('',*,*,#260,.F.);
#152=ORIENTED_EDGE('',*,*,#287,.T.);
#153=ORIENTED_EDGE('',*,*,#266,.T.);
#154=ORIENTED_EDGE('',*,*,#288,.T.);
#155=ORIENTED_EDGE('',*,*,#253,.F.);
#156=ORIENTED_EDGE('',*,*,#263,.T.);
#157=ORIENTED_EDGE('',*,*,#286,.F.);
#158=ORIENTED_EDGE('',*,*,#271,.F.);
#159=ORIENTED_EDGE('',*,*,#269,.F.);
#160=ORIENTED_EDGE('',*,*,#289,.F.);
#161=ORIENTED_EDGE('',*,*,#265,.T.);
#162=ORIENTED_EDGE('',*,*,#237,.T.);
#163=ORIENTED_EDGE('',*,*,#251,.T.);
#164=ORIENTED_EDGE('',*,*,#284,.T.);
#165=ORIENTED_EDGE('',*,*,#250,.T.);
#166=ORIENTED_EDGE('',*,*,#283,.T.);
#167=ORIENTED_EDGE('',*,*,#249,.T.);
#168=ORIENTED_EDGE('',*,*,#282,.T.);
#169=ORIENTED_EDGE('',*,*,#248,.T.);
#170=ORIENTED_EDGE('',*,*,#281,.T.);
#171=ORIENTED_EDGE('',*,*,#247,.T.);
#172=ORIENTED_EDGE('',*,*,#280,.T.);
#173=ORIENTED_EDGE('',*,*,#246,.T.);
#174=ORIENTED_EDGE('',*,*,#279,.T.);
#175=ORIENTED_EDGE('',*,*,#245,.T.);
#176=ORIENTED_EDGE('',*,*,#278,.T.);
#177=ORIENTED_EDGE('',*,*,#244,.T.);
#178=ORIENTED_EDGE('',*,*,#277,.T.);
#179=ORIENTED_EDGE('',*,*,#243,.T.);
#180=ORIENTED_EDGE('',*,*,#276,.T.);
#181=ORIENTED_EDGE('',*,*,#232,.F.);
#182=ORIENTED_EDGE('',*,*,#290,.T.);
#183=ORIENTED_EDGE('',*,*,#233,.F.);
#184=ORIENTED_EDGE('',*,*,#291,.T.);
#185=ORIENTED_EDGE('',*,*,#234,.F.);
#186=ORIENTED_EDGE('',*,*,#292,.T.);
#187=ORIENTED_EDGE('',*,*,#235,.F.);
#188=ORIENTED_EDGE('',*,*,#293,.T.);
#189=ORIENTED_EDGE('',*,*,#236,.F.);
#190=ORIENTED_EDGE('',*,*,#294,.T.);
#191=ORIENTED_EDGE('',*,*,#231,.F.);
#192=ORIENTED_EDGE('',*,*,#295,.T.);
#193=ORIENTED_EDGE('',*,*,#230,.F.);
#194=ORIENTED_EDGE('',*,*,#296,.T.);
#195=ORIENTED_EDGE('',*,*,#229,.F.);
#196=ORIENTED_EDGE('',*,*,#297,.T.);
#197=ORIENTED_EDGE('',*,*,#228,.F.);
#198=ORIENTED_EDGE('',*,*,#298,.T.);
#199=ORIENTED_EDGE('',*,*,#239,.F.);
#200=ORIENTED_EDGE('',*,*,#264,.F.);
#201=ORIENTED_EDGE('',*,*,#257,.F.);
#202=ORIENTED_EDGE('',*,*,#274,.F.);
#203=ORIENTED_EDGE('',*,*,#241,.F.);
#204=ORIENTED_EDGE('',*,*,#275,.F.);
#205=ORIENTED_EDGE('',*,*,#255,.F.);
#206=ORIENTED_EDGE('',*,*,#270,.F.);
#207=ORIENTED_EDGE('',*,*,#298,.F.);
#208=ORIENTED_EDGE('',*,*,#297,.F.);
#209=ORIENTED_EDGE('',*,*,#296,.F.);
#210=ORIENTED_EDGE('',*,*,#295,.F.);
#211=ORIENTED_EDGE('',*,*,#294,.F.);
#212=ORIENTED_EDGE('',*,*,#293,.F.);
#213=ORIENTED_EDGE('',*,*,#292,.F.);
#214=ORIENTED_EDGE('',*,*,#291,.F.);
#215=ORIENTED_EDGE('',*,*,#290,.F.);
#216=ORIENTED_EDGE('',*,*,#268,.T.);
#217=ORIENTED_EDGE('',*,*,#299,.T.);
#218=ORIENTED_EDGE('',*,*,#258,.F.);
#219=ORIENTED_EDGE('',*,*,#289,.T.);
#220=ORIENTED_EDGE('',*,*,#259,.F.);
#221=ORIENTED_EDGE('',*,*,#299,.F.);
#222=ORIENTED_EDGE('',*,*,#267,.F.);
#223=ORIENTED_EDGE('',*,*,#287,.F.);
#224=ORIENTED_EDGE('',*,*,#261,.F.);
#225=ORIENTED_EDGE('',*,*,#288,.F.);
#226=ORIENTED_EDGE('',*,*,#273,.F.);
#227=ORIENTED_EDGE('',*,*,#285,.F.);
#228=EDGE_CURVE('',#300,#300,#360,.T.);
#229=EDGE_CURVE('',#301,#301,#361,.T.);
#230=EDGE_CURVE('',#302,#302,#362,.T.);
#231=EDGE_CURVE('',#303,#303,#363,.T.);
#232=EDGE_CURVE('',#304,#304,#364,.T.);
#233=EDGE_CURVE('',#305,#305,#365,.T.);
#234=EDGE_CURVE('',#306,#306,#366,.T.);
#235=EDGE_CURVE('',#307,#307,#367,.T.);
#236=EDGE_CURVE('',#308,#308,#368,.T.);
#237=EDGE_CURVE('',#309,#310,#369,.T.);
#238=EDGE_CURVE('',#309,#311,#36,.T.);
#239=EDGE_CURVE('',#311,#312,#370,.T.);
#240=EDGE_CURVE('',#312,#313,#37,.T.);
#241=EDGE_CURVE('',#313,#314,#371,.T.);
#242=EDGE_CURVE('',#310,#314,#38,.T.);
#243=EDGE_CURVE('',#315,#315,#372,.T.);
#244=EDGE_CURVE('',#316,#316,#373,.T.);
#245=EDGE_CURVE('',#317,#317,#374,.T.);
#246=EDGE_CURVE('',#318,#318,#375,.T.);
#247=EDGE_CURVE('',#319,#319,#376,.T.);
#248=EDGE_CURVE('',#320,#320,#377,.T.);
#249=EDGE_CURVE('',#321,#321,#378,.T.);
#250=EDGE_CURVE('',#322,#322,#379,.T.);
#251=EDGE_CURVE('',#323,#323,#380,.T.);
#252=EDGE_CURVE('',#324,#325,#39,.T.);
#253=EDGE_CURVE('',#324,#326,#381,.T.);
#254=EDGE_CURVE('',#326,#327,#40,.T.);
#255=EDGE_CURVE('',#327,#328,#382,.F.);
#256=EDGE_CURVE('',#329,#328,#41,.T.);
#257=EDGE_CURVE('',#329,#325,#383,.F.);
#258=EDGE_CURVE('',#330,#331,#42,.T.);
#259=EDGE_CURVE('',#331,#332,#384,.F.);
#260=EDGE_CURVE('',#332,#333,#43,.T.);
#261=EDGE_CURVE('',#333,#334,#385,.F.);
#262=EDGE_CURVE('',#335,#334,#44,.T.);
#263=EDGE_CURVE('',#324,#335,#45,.T.);
#264=EDGE_CURVE('',#325,#311,#46,.F.);
#265=EDGE_CURVE('',#330,#309,#47,.T.);
#266=EDGE_CURVE('',#336,#337,#48,.T.);
#267=EDGE_CURVE('',#336,#338,#386,.T.);
#268=EDGE_CURVE('',#339,#338,#49,.T.);
#269=EDGE_CURVE('',#339,#310,#50,.T.);
#270=EDGE_CURVE('',#314,#327,#51,.T.);
#271=EDGE_CURVE('',#326,#340,#52,.T.);
#272=EDGE_CURVE('',#340,#341,#53,.T.);
#273=EDGE_CURVE('',#341,#337,#387,.T.);
#274=EDGE_CURVE('',#312,#329,#54,.T.);
#275=EDGE_CURVE('',#328,#313,#55,.F.);
#276=EDGE_CURVE('',#342,#342,#388,.T.);
#277=EDGE_CURVE('',#343,#343,#389,.T.);
#278=EDGE_CURVE('',#344,#344,#390,.T.);
#279=EDGE_CURVE('',#345,#345,#391,.T.);
#280=EDGE_CURVE('',#346,#346,#392,.T.);
#281=EDGE_CURVE('',#347,#347,#393,.T.);
#282=EDGE_CURVE('',#348,#348,#394,.T.);
#283=EDGE_CURVE('',#349,#349,#395,.T.);
#284=EDGE_CURVE('',#350,#350,#396,.T.);
#285=EDGE_CURVE('',#334,#341,#56,.T.);
#286=EDGE_CURVE('',#340,#335,#397,.T.);
#287=EDGE_CURVE('',#332,#336,#57,.T.);
#288=EDGE_CURVE('',#337,#333,#58,.F.);
#289=EDGE_CURVE('',#330,#339,#398,.T.);
#290=EDGE_CURVE('',#351,#351,#399,.T.);
#291=EDGE_CURVE('',#352,#352,#400,.T.);
#292=EDGE_CURVE('',#353,#353,#401,.T.);
#293=EDGE_CURVE('',#354,#354,#402,.T.);
#294=EDGE_CURVE('',#355,#355,#403,.T.);
#295=EDGE_CURVE('',#356,#356,#404,.T.);
#296=EDGE_CURVE('',#357,#357,#405,.T.);
#297=EDGE_CURVE('',#358,#358,#406,.T.);
#298=EDGE_CURVE('',#359,#359,#407,.T.);
#299=EDGE_CURVE('',#338,#331,#59,.F.);
#300=VERTEX_POINT('',#902);
#301=VERTEX_POINT('',#904);
#302=VERTEX_POINT('',#906);
#303=VERTEX_POINT('',#908);
#304=VERTEX_POINT('',#910);
#305=VERTEX_POINT('',#912);
#306=VERTEX_POINT('',#914);
#307=VERTEX_POINT('',#916);
#308=VERTEX_POINT('',#918);
#309=VERTEX_POINT('',#920);
#310=VERTEX_POINT('',#921);
#311=VERTEX_POINT('',#923);
#312=VERTEX_POINT('',#925);
#313=VERTEX_POINT('',#927);
#314=VERTEX_POINT('',#929);
#315=VERTEX_POINT('',#933);
#316=VERTEX_POINT('',#935);
#317=VERTEX_POINT('',#937);
#318=VERTEX_POINT('',#939);
#319=VERTEX_POINT('',#941);
#320=VERTEX_POINT('',#943);
#321=VERTEX_POINT('',#945);
#322=VERTEX_POINT('',#947);
#323=VERTEX_POINT('',#949);
#324=VERTEX_POINT('',#951);
#325=VERTEX_POINT('',#952);
#326=VERTEX_POINT('',#954);
#327=VERTEX_POINT('',#956);
#328=VERTEX_POINT('',#958);
#329=VERTEX_POINT('',#960);
#330=VERTEX_POINT('',#964);
#331=VERTEX_POINT('',#965);
#332=VERTEX_POINT('',#967);
#333=VERTEX_POINT('',#969);
#334=VERTEX_POINT('',#971);
#335=VERTEX_POINT('',#973);
#336=VERTEX_POINT('',#979);
#337=VERTEX_POINT('',#980);
#338=VERTEX_POINT('',#982);
#339=VERTEX_POINT('',#984);
#340=VERTEX_POINT('',#988);
#341=VERTEX_POINT('',#990);
#342=VERTEX_POINT('',#997);
#343=VERTEX_POINT('',#999);
#344=VERTEX_POINT('',#1001);
#345=VERTEX_POINT('',#1003);
#346=VERTEX_POINT('',#1005);
#347=VERTEX_POINT('',#1007);
#348=VERTEX_POINT('',#1009);
#349=VERTEX_POINT('',#1011);
#350=VERTEX_POINT('',#1013);
#351=VERTEX_POINT('',#1033);
#352=VERTEX_POINT('',#1036);
#353=VERTEX_POINT('',#1039);
#354=VERTEX_POINT('',#1042);
#355=VERTEX_POINT('',#1045);
#356=VERTEX_POINT('',#1048);
#357=VERTEX_POINT('',#1051);
#358=VERTEX_POINT('',#1054);
#359=VERTEX_POINT('',#1057);
#360=CIRCLE('',#634,0.001);
#361=CIRCLE('',#635,0.001);
#362=CIRCLE('',#636,0.004);
#363=CIRCLE('',#637,0.001);
#364=CIRCLE('',#638,0.001);
#365=CIRCLE('',#639,0.001);
#366=CIRCLE('',#640,0.001);
#367=CIRCLE('',#641,0.001);
#368=CIRCLE('',#642,0.001);
#369=CIRCLE('',#643,0.0095);
#370=CIRCLE('',#644,0.0012);
#371=CIRCLE('',#645,0.0012);
#372=CIRCLE('',#647,0.001);
#373=CIRCLE('',#648,0.001);
#374=CIRCLE('',#649,0.004);
#375=CIRCLE('',#650,0.001);
#376=CIRCLE('',#651,0.001);
#377=CIRCLE('',#652,0.001);
#378=CIRCLE('',#653,0.001);
#379=CIRCLE('',#654,0.001);
#380=CIRCLE('',#655,0.001);
#381=CIRCLE('',#656,0.0095);
#382=CIRCLE('',#657,0.0012);
#383=CIRCLE('',#658,0.0012);
#384=CIRCLE('',#660,0.0012);
#385=CIRCLE('',#661,0.0012);
#386=CIRCLE('',#663,0.0012);
#387=CIRCLE('',#664,0.0012);
#388=CIRCLE('',#667,0.001);
#389=CIRCLE('',#668,0.001);
#390=CIRCLE('',#669,0.004);
#391=CIRCLE('',#670,0.001);
#392=CIRCLE('',#671,0.001);
#393=CIRCLE('',#672,0.001);
#394=CIRCLE('',#673,0.001);
#395=CIRCLE('',#674,0.001);
#396=CIRCLE('',#675,0.001);
#397=CIRCLE('',#676,0.0095);
#398=CIRCLE('',#680,0.0095);
#399=CIRCLE('',#691,0.001);
#400=CIRCLE('',#693,0.001);
#401=CIRCLE('',#695,0.001);
#402=CIRCLE('',#697,0.001);
#403=CIRCLE('',#699,0.001);
#404=CIRCLE('',#701,0.001);
#405=CIRCLE('',#703,0.004);
#406=CIRCLE('',#705,0.001);
#407=CIRCLE('',#707,0.001);
#408=EDGE_LOOP('',(#84));
#409=EDGE_LOOP('',(#85));
#410=EDGE_LOOP('',(#86));
#411=EDGE_LOOP('',(#87));
#412=EDGE_LOOP('',(#88));
#413=EDGE_LOOP('',(#89));
#414=EDGE_LOOP('',(#90));
#415=EDGE_LOOP('',(#91));
#416=EDGE_LOOP('',(#92));
#417=EDGE_LOOP('',(#93,#94,#95,#96,#97,#98));
#418=EDGE_LOOP('',(#99));
#419=EDGE_LOOP('',(#100));
#420=EDGE_LOOP('',(#101));
#421=EDGE_LOOP('',(#102));
#422=EDGE_LOOP('',(#103));
#423=EDGE_LOOP('',(#104));
#424=EDGE_LOOP('',(#105));
#425=EDGE_LOOP('',(#106));
#426=EDGE_LOOP('',(#107));
#427=EDGE_LOOP('',(#108,#109,#110,#111,#112,#113));
#428=EDGE_LOOP('',(#114,#115,#116,#117,#118,#119,#120,#121,#122,#123));
#429=EDGE_LOOP('',(#124,#125,#126,#127,#128,#129,#130,#131,#132,#133));
#430=EDGE_LOOP('',(#134,#135,#136,#137));
#431=EDGE_LOOP('',(#138));
#432=EDGE_LOOP('',(#139));
#433=EDGE_LOOP('',(#140));
#434=EDGE_LOOP('',(#141));
#435=EDGE_LOOP('',(#142));
#436=EDGE_LOOP('',(#143));
#437=EDGE_LOOP('',(#144));
#438=EDGE_LOOP('',(#145));
#439=EDGE_LOOP('',(#146));
#440=EDGE_LOOP('',(#147,#148,#149,#150));
#441=EDGE_LOOP('',(#151,#152,#153,#154));
#442=EDGE_LOOP('',(#155,#156,#157,#158));
#443=EDGE_LOOP('',(#159,#160,#161,#162));
#444=EDGE_LOOP('',(#163));
#445=EDGE_LOOP('',(#164));
#446=EDGE_LOOP('',(#165));
#447=EDGE_LOOP('',(#166));
#448=EDGE_LOOP('',(#167));
#449=EDGE_LOOP('',(#168));
#450=EDGE_LOOP('',(#169));
#451=EDGE_LOOP('',(#170));
#452=EDGE_LOOP('',(#171));
#453=EDGE_LOOP('',(#172));
#454=EDGE_LOOP('',(#173));
#455=EDGE_LOOP('',(#174));
#456=EDGE_LOOP('',(#175));
#457=EDGE_LOOP('',(#176));
#458=EDGE_LOOP('',(#177));
#459=EDGE_LOOP('',(#178));
#460=EDGE_LOOP('',(#179));
#461=EDGE_LOOP('',(#180));
#462=EDGE_LOOP('',(#181));
#463=EDGE_LOOP('',(#182));
#464=EDGE_LOOP('',(#183));
#465=EDGE_LOOP('',(#184));
#466=EDGE_LOOP('',(#185));
#467=EDGE_LOOP('',(#186));
#468=EDGE_LOOP('',(#187));
#469=EDGE_LOOP('',(#188));
#470=EDGE_LOOP('',(#189));
#471=EDGE_LOOP('',(#190));
#472=EDGE_LOOP('',(#191));
#473=EDGE_LOOP('',(#192));
#474=EDGE_LOOP('',(#193));
#475=EDGE_LOOP('',(#194));
#476=EDGE_LOOP('',(#195));
#477=EDGE_LOOP('',(#196));
#478=EDGE_LOOP('',(#197));
#479=EDGE_LOOP('',(#198));
#480=EDGE_LOOP('',(#199,#200,#201,#202));
#481=EDGE_LOOP('',(#203,#204,#205,#206));
#482=EDGE_LOOP('',(#207));
#483=EDGE_LOOP('',(#208));
#484=EDGE_LOOP('',(#209));
#485=EDGE_LOOP('',(#210));
#486=EDGE_LOOP('',(#211));
#487=EDGE_LOOP('',(#212));
#488=EDGE_LOOP('',(#213));
#489=EDGE_LOOP('',(#214));
#490=EDGE_LOOP('',(#215));
#491=EDGE_LOOP('',(#216,#217,#218,#219));
#492=EDGE_LOOP('',(#220,#221,#222,#223));
#493=EDGE_LOOP('',(#224,#225,#226,#227));
#494=FACE_BOUND('',#408,.T.);
#495=FACE_BOUND('',#409,.T.);
#496=FACE_BOUND('',#410,.T.);
#497=FACE_BOUND('',#411,.T.);
#498=FACE_BOUND('',#412,.T.);
#499=FACE_BOUND('',#413,.T.);
#500=FACE_BOUND('',#414,.T.);
#501=FACE_BOUND('',#415,.T.);
#502=FACE_BOUND('',#416,.T.);
#503=FACE_BOUND('',#417,.T.);
#504=FACE_BOUND('',#418,.T.);
#505=FACE_BOUND('',#419,.T.);
#506=FACE_BOUND('',#420,.T.);
#507=FACE_BOUND('',#421,.T.);
#508=FACE_BOUND('',#422,.T.);
#509=FACE_BOUND('',#423,.T.);
#510=FACE_BOUND('',#424,.T.);
#511=FACE_BOUND('',#425,.T.);
#512=FACE_BOUND('',#426,.T.);
#513=FACE_BOUND('',#427,.T.);
#514=FACE_BOUND('',#428,.T.);
#515=FACE_BOUND('',#429,.T.);
#516=FACE_BOUND('',#430,.T.);
#517=FACE_BOUND('',#431,.T.);
#518=FACE_BOUND('',#432,.T.);
#519=FACE_BOUND('',#433,.T.);
#520=FACE_BOUND('',#434,.T.);
#521=FACE_BOUND('',#435,.T.);
#522=FACE_BOUND('',#436,.T.);
#523=FACE_BOUND('',#437,.T.);
#524=FACE_BOUND('',#438,.T.);
#525=FACE_BOUND('',#439,.T.);
#526=FACE_BOUND('',#440,.T.);
#527=FACE_BOUND('',#441,.T.);
#528=FACE_BOUND('',#442,.T.);
#529=FACE_BOUND('',#443,.T.);
#530=FACE_BOUND('',#444,.T.);
#531=FACE_BOUND('',#445,.T.);
#532=FACE_BOUND('',#446,.T.);
#533=FACE_BOUND('',#447,.T.);
#534=FACE_BOUND('',#448,.T.);
#535=FACE_BOUND('',#449,.T.);
#536=FACE_BOUND('',#450,.T.);
#537=FACE_BOUND('',#451,.T.);
#538=FACE_BOUND('',#452,.T.);
#539=FACE_BOUND('',#453,.T.);
#540=FACE_BOUND('',#454,.T.);
#541=FACE_BOUND('',#455,.T.);
#542=FACE_BOUND('',#456,.T.);
#543=FACE_BOUND('',#457,.T.);
#544=FACE_BOUND('',#458,.T.);
#545=FACE_BOUND('',#459,.T.);
#546=FACE_BOUND('',#460,.T.);
#547=FACE_BOUND('',#461,.T.);
#548=FACE_BOUND('',#462,.T.);
#549=FACE_BOUND('',#463,.T.);
#550=FACE_BOUND('',#464,.T.);
#551=FACE_BOUND('',#465,.T.);
#552=FACE_BOUND('',#466,.T.);
#553=FACE_BOUND('',#467,.T.);
#554=FACE_BOUND('',#468,.T.);
#555=FACE_BOUND('',#469,.T.);
#556=FACE_BOUND('',#470,.T.);
#557=FACE_BOUND('',#471,.T.);
#558=FACE_BOUND('',#472,.T.);
#559=FACE_BOUND('',#473,.T.);
#560=FACE_BOUND('',#474,.T.);
#561=FACE_BOUND('',#475,.T.);
#562=FACE_BOUND('',#476,.T.);
#563=FACE_BOUND('',#477,.T.);
#564=FACE_BOUND('',#478,.T.);
#565=FACE_BOUND('',#479,.T.);
#566=FACE_BOUND('',#480,.T.);
#567=FACE_BOUND('',#481,.T.);
#568=FACE_BOUND('',#482,.T.);
#569=FACE_BOUND('',#483,.T.);
#570=FACE_BOUND('',#484,.T.);
#571=FACE_BOUND('',#485,.T.);
#572=FACE_BOUND('',#486,.T.);
#573=FACE_BOUND('',#487,.T.);
#574=FACE_BOUND('',#488,.T.);
#575=FACE_BOUND('',#489,.T.);
#576=FACE_BOUND('',#490,.T.);
#577=FACE_BOUND('',#491,.T.);
#578=FACE_BOUND('',#492,.T.);
#579=FACE_BOUND('',#493,.T.);
#580=PLANE('',#633);
#581=PLANE('',#646);
#582=PLANE('',#659);
#583=PLANE('',#662);
#584=PLANE('',#665);
#585=PLANE('',#666);
#586=PLANE('',#677);
#587=PLANE('',#710);
#588=ADVANCED_FACE('',(#494,#495,#496,#497,#498,#499,#500,#501,#502,#503),
#580,.F.);
#589=ADVANCED_FACE('',(#504,#505,#506,#507,#508,#509,#510,#511,#512,#513),
#581,.T.);
#590=ADVANCED_FACE('',(#514),#582,.F.);
#591=ADVANCED_FACE('',(#515),#583,.T.);
#592=ADVANCED_FACE('',(#516),#584,.T.);
#593=ADVANCED_FACE('',(#517,#518,#519,#520,#521,#522,#523,#524,#525,#526),
#585,.F.);
#594=ADVANCED_FACE('',(#527),#586,.F.);
#595=ADVANCED_FACE('',(#528),#12,.T.);
#596=ADVANCED_FACE('',(#529),#13,.T.);
#597=ADVANCED_FACE('',(#530,#531),#14,.F.);
#598=ADVANCED_FACE('',(#532,#533),#15,.F.);
#599=ADVANCED_FACE('',(#534,#535),#16,.F.);
#600=ADVANCED_FACE('',(#536,#537),#17,.F.);
#601=ADVANCED_FACE('',(#538,#539),#18,.F.);
#602=ADVANCED_FACE('',(#540,#541),#19,.F.);
#603=ADVANCED_FACE('',(#542,#543),#20,.F.);
#604=ADVANCED_FACE('',(#544,#545),#21,.F.);
#605=ADVANCED_FACE('',(#546,#547),#22,.F.);
#606=ADVANCED_FACE('',(#548,#549),#23,.F.);
#607=ADVANCED_FACE('',(#550,#551),#24,.F.);
#608=ADVANCED_FACE('',(#552,#553),#25,.F.);
#609=ADVANCED_FACE('',(#554,#555),#26,.F.);
#610=ADVANCED_FACE('',(#556,#557),#27,.F.);
#611=ADVANCED_FACE('',(#558,#559),#28,.F.);
#612=ADVANCED_FACE('',(#560,#561),#29,.F.);
#613=ADVANCED_FACE('',(#562,#563),#30,.F.);
#614=ADVANCED_FACE('',(#564,#565),#31,.F.);
#615=ADVANCED_FACE('',(#566),#32,.T.);
#616=ADVANCED_FACE('',(#567),#33,.T.);
#617=ADVANCED_FACE('',(#568,#569,#570,#571,#572,#573,#574,#575,#576,#577),
#587,.T.);
#618=ADVANCED_FACE('',(#578),#34,.T.);
#619=ADVANCED_FACE('',(#579),#35,.T.);
#620=CLOSED_SHELL('',(#588,#589,#590,#591,#592,#593,#594,#595,#596,#597,
#598,#599,#600,#601,#602,#603,#604,#605,#606,#607,#608,#609,#610,#611,#612,
#613,#614,#615,#616,#617,#618,#619));
#621=STYLED_ITEM('',(#622),#629);
#622=PRESENTATION_STYLE_ASSIGNMENT((#623));
#623=SURFACE_STYLE_USAGE(.BOTH.,#624);
#624=SURFACE_SIDE_STYLE('',(#625));
#625=SURFACE_STYLE_FILL_AREA(#626);
#626=FILL_AREA_STYLE('',(#627));
#627=FILL_AREA_STYLE_COLOUR('',#628);
#628=COLOUR_RGB('',0.615686274509804,0.811764705882353,0.929411764705882);
#629=MANIFOLD_SOLID_BREP('Part 1',#620);
#630=SHAPE_DEFINITION_REPRESENTATION(#1070,#631);
#631=SHAPE_REPRESENTATION('Part 1',(#632),#1065);
#632=AXIS2_PLACEMENT_3D('',#899,#713,#714);
#633=AXIS2_PLACEMENT_3D('',#900,#715,#716);
#634=AXIS2_PLACEMENT_3D('',#901,#717,#718);
#635=AXIS2_PLACEMENT_3D('',#903,#719,#720);
#636=AXIS2_PLACEMENT_3D('',#905,#721,#722);
#637=AXIS2_PLACEMENT_3D('',#907,#723,#724);
#638=AXIS2_PLACEMENT_3D('',#909,#725,#726);
#639=AXIS2_PLACEMENT_3D('',#911,#727,#728);
#640=AXIS2_PLACEMENT_3D('',#913,#729,#730);
#641=AXIS2_PLACEMENT_3D('',#915,#731,#732);
#642=AXIS2_PLACEMENT_3D('',#917,#733,#734);
#643=AXIS2_PLACEMENT_3D('',#919,#735,#736);
#644=AXIS2_PLACEMENT_3D('',#924,#738,#739);
#645=AXIS2_PLACEMENT_3D('',#928,#741,#742);
#646=AXIS2_PLACEMENT_3D('',#931,#744,#745);
#647=AXIS2_PLACEMENT_3D('',#932,#746,#747);
#648=AXIS2_PLACEMENT_3D('',#934,#748,#749);
#649=AXIS2_PLACEMENT_3D('',#936,#750,#751);
#650=AXIS2_PLACEMENT_3D('',#938,#752,#753);
#651=AXIS2_PLACEMENT_3D('',#940,#754,#755);
#652=AXIS2_PLACEMENT_3D('',#942,#756,#757);
#653=AXIS2_PLACEMENT_3D('',#944,#758,#759);
#654=AXIS2_PLACEMENT_3D('',#946,#760,#761);
#655=AXIS2_PLACEMENT_3D('',#948,#762,#763);
#656=AXIS2_PLACEMENT_3D('',#953,#765,#766);
#657=AXIS2_PLACEMENT_3D('',#957,#768,#769);
#658=AXIS2_PLACEMENT_3D('',#961,#771,#772);
#659=AXIS2_PLACEMENT_3D('',#962,#773,#774);
#660=AXIS2_PLACEMENT_3D('',#966,#776,#777);
#661=AXIS2_PLACEMENT_3D('',#970,#779,#780);
#662=AXIS2_PLACEMENT_3D('',#977,#785,#786);
#663=AXIS2_PLACEMENT_3D('',#981,#788,#789);
#664=AXIS2_PLACEMENT_3D('',#991,#795,#796);
#665=AXIS2_PLACEMENT_3D('',#992,#797,#798);
#666=AXIS2_PLACEMENT_3D('',#995,#801,#802);
#667=AXIS2_PLACEMENT_3D('',#996,#803,#804);
#668=AXIS2_PLACEMENT_3D('',#998,#805,#806);
#669=AXIS2_PLACEMENT_3D('',#1000,#807,#808);
#670=AXIS2_PLACEMENT_3D('',#1002,#809,#810);
#671=AXIS2_PLACEMENT_3D('',#1004,#811,#812);
#672=AXIS2_PLACEMENT_3D('',#1006,#813,#814);
#673=AXIS2_PLACEMENT_3D('',#1008,#815,#816);
#674=AXIS2_PLACEMENT_3D('',#1010,#817,#818);
#675=AXIS2_PLACEMENT_3D('',#1012,#819,#820);
#676=AXIS2_PLACEMENT_3D('',#1015,#822,#823);
#677=AXIS2_PLACEMENT_3D('',#1016,#824,#825);
#678=AXIS2_PLACEMENT_3D('',#1019,#828,#829);
#679=AXIS2_PLACEMENT_3D('',#1020,#830,#831);
#680=AXIS2_PLACEMENT_3D('',#1021,#832,#833);
#681=AXIS2_PLACEMENT_3D('',#1022,#834,#835);
#682=AXIS2_PLACEMENT_3D('',#1023,#836,#837);
#683=AXIS2_PLACEMENT_3D('',#1024,#838,#839);
#684=AXIS2_PLACEMENT_3D('',#1025,#840,#841);
#685=AXIS2_PLACEMENT_3D('',#1026,#842,#843);
#686=AXIS2_PLACEMENT_3D('',#1027,#844,#845);
#687=AXIS2_PLACEMENT_3D('',#1028,#846,#847);
#688=AXIS2_PLACEMENT_3D('',#1029,#848,#849);
#689=AXIS2_PLACEMENT_3D('',#1030,#850,#851);
#690=AXIS2_PLACEMENT_3D('',#1031,#852,#853);
#691=AXIS2_PLACEMENT_3D('',#1032,#854,#855);
#692=AXIS2_PLACEMENT_3D('',#1034,#856,#857);
#693=AXIS2_PLACEMENT_3D('',#1035,#858,#859);
#694=AXIS2_PLACEMENT_3D('',#1037,#860,#861);
#695=AXIS2_PLACEMENT_3D('',#1038,#862,#863);
#696=AXIS2_PLACEMENT_3D('',#1040,#864,#865);
#697=AXIS2_PLACEMENT_3D('',#1041,#866,#867);
#698=AXIS2_PLACEMENT_3D('',#1043,#868,#869);
#699=AXIS2_PLACEMENT_3D('',#1044,#870,#871);
#700=AXIS2_PLACEMENT_3D('',#1046,#872,#873);
#701=AXIS2_PLACEMENT_3D('',#1047,#874,#875);
#702=AXIS2_PLACEMENT_3D('',#1049,#876,#877);
#703=AXIS2_PLACEMENT_3D('',#1050,#878,#879);
#704=AXIS2_PLACEMENT_3D('',#1052,#880,#881);
#705=AXIS2_PLACEMENT_3D('',#1053,#882,#883);
#706=AXIS2_PLACEMENT_3D('',#1055,#884,#885);
#707=AXIS2_PLACEMENT_3D('',#1056,#886,#887);
#708=AXIS2_PLACEMENT_3D('',#1058,#888,#889);
#709=AXIS2_PLACEMENT_3D('',#1059,#890,#891);
#710=AXIS2_PLACEMENT_3D('',#1060,#892,#893);
#711=AXIS2_PLACEMENT_3D('',#1062,#895,#896);
#712=AXIS2_PLACEMENT_3D('',#1063,#897,#898);
#713=DIRECTION('',(0.,0.,1.));
#714=DIRECTION('',(1.,0.,0.));
#715=DIRECTION('',(1.,-1.82602471155453E-16,0.));
#716=DIRECTION('',(1.82602471155453E-16,1.,0.));
#717=DIRECTION('',(1.,-1.82602471155453E-16,0.));
#718=DIRECTION('',(1.82602471155453E-16,1.,0.));
#719=DIRECTION('',(1.,-1.82602471155453E-16,0.));
#720=DIRECTION('',(1.82602471155453E-16,1.,0.));
#721=DIRECTION('',(1.,-1.82602471155453E-16,0.));
#722=DIRECTION('',(1.82602471155453E-16,1.,0.));
#723=DIRECTION('',(1.,-1.82602471155453E-16,0.));
#724=DIRECTION('',(1.82602471155453E-16,1.,0.));
#725=DIRECTION('',(1.,-1.82602471155453E-16,0.));
#726=DIRECTION('',(1.82602471155453E-16,1.,0.));
#727=DIRECTION('',(1.,-1.82602471155453E-16,0.));
#728=DIRECTION('',(1.82602471155453E-16,1.,0.));
#729=DIRECTION('',(1.,-1.82602471155453E-16,0.));
#730=DIRECTION('',(1.82602471155453E-16,1.,0.));
#731=DIRECTION('',(1.,-1.82602471155453E-16,0.));
#732=DIRECTION('',(1.82602471155453E-16,1.,0.));
#733=DIRECTION('',(1.,-1.82602471155453E-16,0.));
#734=DIRECTION('',(1.82602471155453E-16,1.,0.));
#735=DIRECTION('',(1.,-1.82602471155453E-16,0.));
#736=DIRECTION('',(1.82602471155453E-16,1.,0.));
#737=DIRECTION('',(0.,0.,-1.));
#738=DIRECTION('',(1.,-1.82602471155453E-16,0.));
#739=DIRECTION('',(1.82602471155453E-16,1.,0.));
#740=DIRECTION('',(-1.82602471155453E-16,-1.,0.));
#741=DIRECTION('',(1.,-1.82602471155453E-16,0.));
#742=DIRECTION('',(1.82602471155453E-16,1.,0.));
#743=DIRECTION('',(0.,0.,-1.));
#744=DIRECTION('',(1.,0.,0.));
#745=DIRECTION('',(0.,0.,-1.));
#746=DIRECTION('',(1.,0.,0.));
#747=DIRECTION('',(0.,0.,-1.));
#748=DIRECTION('',(1.,0.,0.));
#749=DIRECTION('',(0.,0.,-1.));
#750=DIRECTION('',(1.,0.,0.));
#751=DIRECTION('',(0.,0.,-1.));
#752=DIRECTION('',(1.,0.,0.));
#753=DIRECTION('',(0.,0.,-1.));
#754=DIRECTION('',(1.,0.,0.));
#755=DIRECTION('',(0.,0.,-1.));
#756=DIRECTION('',(1.,0.,0.));
#757=DIRECTION('',(0.,0.,-1.));
#758=DIRECTION('',(1.,0.,0.));
#759=DIRECTION('',(0.,0.,-1.));
#760=DIRECTION('',(1.,0.,0.));
#761=DIRECTION('',(0.,0.,-1.));
#762=DIRECTION('',(1.,0.,0.));
#763=DIRECTION('',(0.,0.,-1.));
#764=DIRECTION('',(0.,0.,-1.));
#765=DIRECTION('',(1.,0.,0.));
#766=DIRECTION('',(0.,0.,-1.));
#767=DIRECTION('',(0.,0.,-1.));
#768=DIRECTION('',(1.,0.,0.));
#769=DIRECTION('',(0.,0.,-1.));
#770=DIRECTION('',(0.,-1.,0.));
#771=DIRECTION('',(1.,0.,0.));
#772=DIRECTION('',(0.,0.,-1.));
#773=DIRECTION('',(0.,-1.,0.));
#774=DIRECTION('',(0.,0.,-1.));
#775=DIRECTION('',(0.,0.,-1.));
#776=DIRECTION('',(0.,-1.,0.));
#777=DIRECTION('',(0.,0.,-1.));
#778=DIRECTION('',(-1.,0.,0.));
#779=DIRECTION('',(0.,-1.,0.));
#780=DIRECTION('',(0.,0.,-1.));
#781=DIRECTION('',(0.,0.,-1.));
#782=DIRECTION('',(-1.,0.,0.));
#783=DIRECTION('',(-1.,0.,0.));
#784=DIRECTION('',(-1.,0.,0.));
#785=DIRECTION('',(0.,-1.,0.));
#786=DIRECTION('',(0.,0.,-1.));
#787=DIRECTION('',(-1.,0.,0.));
#788=DIRECTION('',(0.,-1.,0.));
#789=DIRECTION('',(0.,0.,-1.));
#790=DIRECTION('',(0.,0.,-1.));
#791=DIRECTION('',(-1.,0.,0.));
#792=DIRECTION('',(-1.,0.,0.));
#793=DIRECTION('',(-1.,0.,0.));
#794=DIRECTION('',(0.,0.,-1.));
#795=DIRECTION('',(0.,-1.,0.));
#796=DIRECTION('',(0.,0.,-1.));
#797=DIRECTION('',(0.,0.,1.));
#798=DIRECTION('',(1.,0.,0.));
#799=DIRECTION('',(-1.,0.,0.));
#800=DIRECTION('',(-1.,0.,0.));
#801=DIRECTION('',(1.,0.,0.));
#802=DIRECTION('',(0.,0.,-1.));
#803=DIRECTION('',(-1.,0.,0.));
#804=DIRECTION('',(0.,0.,1.));
#805=DIRECTION('',(-1.,0.,0.));
#806=DIRECTION('',(0.,0.,1.));
#807=DIRECTION('',(-1.,0.,0.));
#808=DIRECTION('',(0.,0.,1.));
#809=DIRECTION('',(-1.,0.,0.));
#810=DIRECTION('',(0.,0.,1.));
#811=DIRECTION('',(-1.,0.,0.));
#812=DIRECTION('',(0.,0.,1.));
#813=DIRECTION('',(-1.,0.,0.));
#814=DIRECTION('',(0.,0.,1.));
#815=DIRECTION('',(-1.,0.,0.));
#816=DIRECTION('',(0.,0.,1.));
#817=DIRECTION('',(-1.,0.,0.));
#818=DIRECTION('',(0.,0.,1.));
#819=DIRECTION('',(-1.,0.,0.));
#820=DIRECTION('',(0.,0.,1.));
#821=DIRECTION('',(0.,-1.,0.));
#822=DIRECTION('',(-1.,0.,0.));
#823=DIRECTION('',(0.,0.,1.));
#824=DIRECTION('',(0.,0.,1.));
#825=DIRECTION('',(1.,0.,0.));
#826=DIRECTION('',(0.,-1.,0.));
#827=DIRECTION('',(0.,-1.,0.));
#828=DIRECTION('',(-1.,0.,0.));
#829=DIRECTION('',(0.,0.,1.));
#830=DIRECTION('',(-1.,0.,0.));
#831=DIRECTION('',(0.,0.,1.));
#832=DIRECTION('',(1.,0.,0.));
#833=DIRECTION('',(0.,0.,-1.));
#834=DIRECTION('',(-1.,0.,0.));
#835=DIRECTION('',(0.,0.,1.));
#836=DIRECTION('',(-1.,0.,0.));
#837=DIRECTION('',(0.,0.,1.));
#838=DIRECTION('',(-1.,0.,0.));
#839=DIRECTION('',(0.,0.,1.));
#840=DIRECTION('',(-1.,0.,0.));
#841=DIRECTION('',(0.,0.,1.));
#842=DIRECTION('',(-1.,0.,0.));
#843=DIRECTION('',(0.,0.,1.));
#844=DIRECTION('',(-1.,0.,0.));
#845=DIRECTION('',(0.,0.,1.));
#846=DIRECTION('',(-1.,0.,0.));
#847=DIRECTION('',(0.,0.,1.));
#848=DIRECTION('',(-1.,0.,0.));
#849=DIRECTION('',(0.,0.,1.));
#850=DIRECTION('',(-1.,0.,0.));
#851=DIRECTION('',(0.,0.,1.));
#852=DIRECTION('',(-1.,0.,0.));
#853=DIRECTION('',(0.,0.,1.));
#854=DIRECTION('',(1.,0.,0.));
#855=DIRECTION('',(0.,0.,-1.));
#856=DIRECTION('',(-1.,0.,0.));
#857=DIRECTION('',(0.,0.,1.));
#858=DIRECTION('',(1.,0.,0.));
#859=DIRECTION('',(0.,0.,-1.));
#860=DIRECTION('',(-1.,0.,0.));
#861=DIRECTION('',(0.,0.,1.));
#862=DIRECTION('',(1.,0.,0.));
#863=DIRECTION('',(0.,0.,-1.));
#864=DIRECTION('',(-1.,0.,0.));
#865=DIRECTION('',(0.,0.,1.));
#866=DIRECTION('',(1.,0.,0.));
#867=DIRECTION('',(0.,0.,-1.));
#868=DIRECTION('',(-1.,0.,0.));
#869=DIRECTION('',(0.,0.,1.));
#870=DIRECTION('',(1.,0.,0.));
#871=DIRECTION('',(0.,0.,-1.));
#872=DIRECTION('',(-1.,0.,0.));
#873=DIRECTION('',(0.,0.,1.));
#874=DIRECTION('',(1.,0.,0.));
#875=DIRECTION('',(0.,0.,-1.));
#876=DIRECTION('',(-1.,0.,0.));
#877=DIRECTION('',(0.,0.,1.));
#878=DIRECTION('',(1.,0.,0.));
#879=DIRECTION('',(0.,0.,-1.));
#880=DIRECTION('',(-1.,0.,0.));
#881=DIRECTION('',(0.,0.,1.));
#882=DIRECTION('',(1.,0.,0.));
#883=DIRECTION('',(0.,0.,-1.));
#884=DIRECTION('',(-1.,0.,0.));
#885=DIRECTION('',(0.,0.,1.));
#886=DIRECTION('',(1.,0.,0.));
#887=DIRECTION('',(0.,0.,-1.));
#888=DIRECTION('',(1.,0.,0.));
#889=DIRECTION('',(0.,0.,-1.));
#890=DIRECTION('',(-1.,0.,0.));
#891=DIRECTION('',(0.,0.,1.));
#892=DIRECTION('',(1.,0.,0.));
#893=DIRECTION('',(0.,0.,-1.));
#894=DIRECTION('',(0.,-1.,0.));
#895=DIRECTION('',(0.,1.,0.));
#896=DIRECTION('',(0.,0.,1.));
#897=DIRECTION('',(0.,-1.,0.));
#898=DIRECTION('',(0.,0.,-1.));
#899=CARTESIAN_POINT('',(0.,0.,0.));
#900=CARTESIAN_POINT('',(0.01825,-1.7347234759768E-18,0.0345));
#901=CARTESIAN_POINT('',(0.01825,0.007,0.025));
#902=CARTESIAN_POINT('',(0.01825,0.008,0.025));
#903=CARTESIAN_POINT('',(0.01825,0.00494974746830583,0.0200502525316941));
#904=CARTESIAN_POINT('',(0.01825,0.00594974746830583,0.0200502525316941));
#905=CARTESIAN_POINT('',(0.01825,0.,0.025));
#906=CARTESIAN_POINT('',(0.01825,0.004,0.025));
#907=CARTESIAN_POINT('',(0.01825,-6.61363325216158E-18,0.032));
#908=CARTESIAN_POINT('',(0.01825,0.000999999999999993,0.032));
#909=CARTESIAN_POINT('',(0.01825,4.5240261819397E-18,0.018));
#910=CARTESIAN_POINT('',(0.01825,0.001,0.018));
#911=CARTESIAN_POINT('',(0.01825,-0.00494974746830582,0.0200502525316941));
#912=CARTESIAN_POINT('',(0.01825,-0.00394974746830582,0.0200502525316941));
#913=CARTESIAN_POINT('',(0.01825,-0.007,0.025));
#914=CARTESIAN_POINT('',(0.01825,-0.006,0.025));
#915=CARTESIAN_POINT('',(0.01825,-0.00494974746830584,0.0299497474683059));
#916=CARTESIAN_POINT('',(0.01825,-0.00394974746830584,0.0299497474683059));
#917=CARTESIAN_POINT('',(0.01825,0.00494974746830583,0.0299497474683059));
#918=CARTESIAN_POINT('',(0.01825,0.00594974746830583,0.0299497474683059));
#919=CARTESIAN_POINT('',(0.01825,0.,0.025));
#920=CARTESIAN_POINT('',(0.01825,0.0095,0.025));
#921=CARTESIAN_POINT('',(0.01825,-0.0095,0.025));
#922=CARTESIAN_POINT('',(0.01825,0.0095,0.0345));
#923=CARTESIAN_POINT('',(0.01825,0.0095,0.0008));
#924=CARTESIAN_POINT('',(0.01825,0.0083,0.0008));
#925=CARTESIAN_POINT('',(0.01825,0.0083,0.002));
#926=CARTESIAN_POINT('',(0.01825,-1.7347234759768E-18,0.002));
#927=CARTESIAN_POINT('',(0.01825,-0.0083,0.002));
#928=CARTESIAN_POINT('',(0.01825,-0.0083,0.0008));
#929=CARTESIAN_POINT('',(0.01825,-0.0095,0.0008));
#930=CARTESIAN_POINT('',(0.01825,-0.0095,0.0345));
#931=CARTESIAN_POINT('',(-0.01825,-1.7347234759768E-18,0.0345));
#932=CARTESIAN_POINT('',(-0.01825,0.007,0.025));
#933=CARTESIAN_POINT('',(-0.01825,0.007,0.024));
#934=CARTESIAN_POINT('',(-0.01825,0.00494974746830583,0.0200502525316941));
#935=CARTESIAN_POINT('',(-0.01825,0.00494974746830583,0.0190502525316941));
#936=CARTESIAN_POINT('',(-0.01825,0.,0.025));
#937=CARTESIAN_POINT('',(-0.01825,0.,0.021));
#938=CARTESIAN_POINT('',(-0.01825,-6.61363325216158E-18,0.032));
#939=CARTESIAN_POINT('',(-0.01825,-6.61363325216158E-18,0.031));
#940=CARTESIAN_POINT('',(-0.01825,0.00494974746830583,0.0299497474683059));
#941=CARTESIAN_POINT('',(-0.01825,0.00494974746830583,0.0289497474683059));
#942=CARTESIAN_POINT('',(-0.01825,-0.00494974746830584,0.0299497474683059));
#943=CARTESIAN_POINT('',(-0.01825,-0.00494974746830584,0.0289497474683059));
#944=CARTESIAN_POINT('',(-0.01825,-0.007,0.025));
#945=CARTESIAN_POINT('',(-0.01825,-0.007,0.024));
#946=CARTESIAN_POINT('',(-0.01825,-0.00494974746830582,0.0200502525316941));
#947=CARTESIAN_POINT('',(-0.01825,-0.00494974746830582,0.0190502525316941));
#948=CARTESIAN_POINT('',(-0.01825,4.5240261819397E-18,0.018));
#949=CARTESIAN_POINT('',(-0.01825,4.5240261819397E-18,0.017));
#950=CARTESIAN_POINT('',(-0.01825,0.0095,0.0345));
#951=CARTESIAN_POINT('',(-0.01825,0.0095,0.025));
#952=CARTESIAN_POINT('',(-0.01825,0.0095,0.0008));
#953=CARTESIAN_POINT('',(-0.01825,0.,0.025));
#954=CARTESIAN_POINT('',(-0.01825,-0.0095,0.025));
#955=CARTESIAN_POINT('',(-0.01825,-0.0095,0.0345));
#956=CARTESIAN_POINT('',(-0.01825,-0.0095,0.0008));
#957=CARTESIAN_POINT('',(-0.01825,-0.0083,0.0008));
#958=CARTESIAN_POINT('',(-0.01825,-0.0083,0.002));
#959=CARTESIAN_POINT('',(-0.01825,-1.7347234759768E-18,0.002));
#960=CARTESIAN_POINT('',(-0.01825,0.0083,0.002));
#961=CARTESIAN_POINT('',(-0.01825,0.0083,0.0008));
#962=CARTESIAN_POINT('',(-0.01925,0.0095,0.002));
#963=CARTESIAN_POINT('',(0.02175,0.0095,0.002));
#964=CARTESIAN_POINT('',(0.02175,0.0095,0.025));
#965=CARTESIAN_POINT('',(0.02175,0.0095,0.0012));
#966=CARTESIAN_POINT('',(0.02055,0.0095,0.0012));
#967=CARTESIAN_POINT('',(0.02055,0.0095,0.));
#968=CARTESIAN_POINT('',(-0.01925,0.0095,0.));
#969=CARTESIAN_POINT('',(-0.01905,0.0095,0.));
#970=CARTESIAN_POINT('',(-0.01905,0.0095,0.0012));
#971=CARTESIAN_POINT('',(-0.02025,0.0095,0.0012));
#972=CARTESIAN_POINT('',(-0.02025,0.0095,0.002));
#973=CARTESIAN_POINT('',(-0.02025,0.0095,0.025));
#974=CARTESIAN_POINT('',(0.02975,0.0095,0.025));
#975=CARTESIAN_POINT('',(0.01825,0.0095,0.0008));
#976=CARTESIAN_POINT('',(0.02975,0.0095,0.025));
#977=CARTESIAN_POINT('',(-0.01925,-0.0095,0.002));
#978=CARTESIAN_POINT('',(-0.01925,-0.0095,0.));
#979=CARTESIAN_POINT('',(0.02055,-0.0095,0.));
#980=CARTESIAN_POINT('',(-0.01905,-0.0095,0.));
#981=CARTESIAN_POINT('',(0.02055,-0.0095,0.0012));
#982=CARTESIAN_POINT('',(0.02175,-0.0095,0.0012));
#983=CARTESIAN_POINT('',(0.02175,-0.0095,0.002));
#984=CARTESIAN_POINT('',(0.02175,-0.0095,0.025));
#985=CARTESIAN_POINT('',(0.02975,-0.0095,0.025));
#986=CARTESIAN_POINT('',(-0.01925,-0.0095,0.0008));
#987=CARTESIAN_POINT('',(0.02975,-0.0095,0.025));
#988=CARTESIAN_POINT('',(-0.02025,-0.0095,0.025));
#989=CARTESIAN_POINT('',(-0.02025,-0.0095,0.002));
#990=CARTESIAN_POINT('',(-0.02025,-0.0095,0.0012));
#991=CARTESIAN_POINT('',(-0.01905,-0.0095,0.0012));
#992=CARTESIAN_POINT('',(0.,0.,0.002));
#993=CARTESIAN_POINT('',(-0.01825,0.0083,0.002));
#994=CARTESIAN_POINT('',(0.,-0.0083,0.002));
#995=CARTESIAN_POINT('',(-0.02025,0.,0.002));
#996=CARTESIAN_POINT('',(-0.02025,0.007,0.025));
#997=CARTESIAN_POINT('',(-0.02025,0.007,0.026));
#998=CARTESIAN_POINT('',(-0.02025,0.00494974746830583,0.0200502525316941));
#999=CARTESIAN_POINT('',(-0.02025,0.00494974746830583,0.0210502525316941));
#1000=CARTESIAN_POINT('',(-0.02025,0.,0.025));
#1001=CARTESIAN_POINT('',(-0.02025,0.,0.029));
#1002=CARTESIAN_POINT('',(-0.02025,-6.61363325216158E-18,0.032));
#1003=CARTESIAN_POINT('',(-0.02025,-6.61363325216158E-18,0.033));
#1004=CARTESIAN_POINT('',(-0.02025,0.00494974746830583,0.0299497474683059));
#1005=CARTESIAN_POINT('',(-0.02025,0.00494974746830583,0.0309497474683059));
#1006=CARTESIAN_POINT('',(-0.02025,-0.00494974746830584,0.0299497474683059));
#1007=CARTESIAN_POINT('',(-0.02025,-0.00494974746830584,0.0309497474683059));
#1008=CARTESIAN_POINT('',(-0.02025,-0.007,0.025));
#1009=CARTESIAN_POINT('',(-0.02025,-0.007,0.026));
#1010=CARTESIAN_POINT('',(-0.02025,-0.00494974746830582,0.0200502525316941));
#1011=CARTESIAN_POINT('',(-0.02025,-0.00494974746830582,0.0210502525316941));
#1012=CARTESIAN_POINT('',(-0.02025,4.5240261819397E-18,0.018));
#1013=CARTESIAN_POINT('',(-0.02025,4.5240261819397E-18,0.019));
#1014=CARTESIAN_POINT('',(-0.02025,0.,0.0012));
#1015=CARTESIAN_POINT('',(-0.02025,0.,0.025));
#1016=CARTESIAN_POINT('',(0.,0.,0.));
#1017=CARTESIAN_POINT('',(0.02055,-0.0095,0.));
#1018=CARTESIAN_POINT('',(-0.01905,0.,0.));
#1019=CARTESIAN_POINT('',(0.02975,0.,0.025));
#1020=CARTESIAN_POINT('',(0.02975,0.,0.025));
#1021=CARTESIAN_POINT('',(0.02175,0.,0.025));
#1022=CARTESIAN_POINT('',(0.02975,4.5240261819397E-18,0.018));
#1023=CARTESIAN_POINT('',(0.02975,-0.00494974746830582,0.0200502525316941));
#1024=CARTESIAN_POINT('',(0.02975,-0.007,0.025));
#1025=CARTESIAN_POINT('',(0.02975,-0.00494974746830584,0.0299497474683059));
#1026=CARTESIAN_POINT('',(0.02975,0.00494974746830583,0.0299497474683059));
#1027=CARTESIAN_POINT('',(0.02975,-6.61363325216158E-18,0.032));
#1028=CARTESIAN_POINT('',(0.02975,0.,0.025));
#1029=CARTESIAN_POINT('',(0.02975,0.00494974746830583,0.0200502525316941));
#1030=CARTESIAN_POINT('',(0.02975,0.007,0.025));
#1031=CARTESIAN_POINT('',(0.02975,4.5240261819397E-18,0.018));
#1032=CARTESIAN_POINT('',(0.02175,4.5240261819397E-18,0.018));
#1033=CARTESIAN_POINT('',(0.02175,4.5240261819397E-18,0.017));
#1034=CARTESIAN_POINT('',(0.02975,-0.00494974746830582,0.0200502525316941));
#1035=CARTESIAN_POINT('',(0.02175,-0.00494974746830582,0.0200502525316941));
#1036=CARTESIAN_POINT('',(0.02175,-0.00494974746830582,0.0190502525316941));
#1037=CARTESIAN_POINT('',(0.02975,-0.007,0.025));
#1038=CARTESIAN_POINT('',(0.02175,-0.007,0.025));
#1039=CARTESIAN_POINT('',(0.02175,-0.007,0.024));
#1040=CARTESIAN_POINT('',(0.02975,-0.00494974746830584,0.0299497474683059));
#1041=CARTESIAN_POINT('',(0.02175,-0.00494974746830584,0.0299497474683059));
#1042=CARTESIAN_POINT('',(0.02175,-0.00494974746830584,0.0289497474683059));
#1043=CARTESIAN_POINT('',(0.02975,0.00494974746830583,0.0299497474683059));
#1044=CARTESIAN_POINT('',(0.02175,0.00494974746830583,0.0299497474683059));
#1045=CARTESIAN_POINT('',(0.02175,0.00494974746830583,0.0289497474683059));
#1046=CARTESIAN_POINT('',(0.02975,-6.61363325216158E-18,0.032));
#1047=CARTESIAN_POINT('',(0.02175,-6.61363325216158E-18,0.032));
#1048=CARTESIAN_POINT('',(0.02175,-6.61363325216158E-18,0.031));
#1049=CARTESIAN_POINT('',(0.02975,0.,0.025));
#1050=CARTESIAN_POINT('',(0.02175,0.,0.025));
#1051=CARTESIAN_POINT('',(0.02175,0.,0.021));
#1052=CARTESIAN_POINT('',(0.02975,0.00494974746830583,0.0200502525316941));
#1053=CARTESIAN_POINT('',(0.02175,0.00494974746830583,0.0200502525316941));
#1054=CARTESIAN_POINT('',(0.02175,0.00494974746830583,0.0190502525316941));
#1055=CARTESIAN_POINT('',(0.02975,0.007,0.025));
#1056=CARTESIAN_POINT('',(0.02175,0.007,0.025));
#1057=CARTESIAN_POINT('',(0.02175,0.007,0.024));
#1058=CARTESIAN_POINT('',(0.,0.0083,0.0008));
#1059=CARTESIAN_POINT('',(-0.01925,-0.0083,0.0008));
#1060=CARTESIAN_POINT('',(0.02175,0.,0.002));
#1061=CARTESIAN_POINT('',(0.02175,0.0095,0.0012));
#1062=CARTESIAN_POINT('',(0.02055,0.,0.0012));
#1063=CARTESIAN_POINT('',(-0.01905,0.,0.0012));
#1064=MECHANICAL_DESIGN_GEOMETRIC_PRESENTATION_REPRESENTATION('',(#621),
#1065);
#1065=(
GEOMETRIC_REPRESENTATION_CONTEXT(3)
GLOBAL_UNCERTAINTY_ASSIGNED_CONTEXT((#1066))
GLOBAL_UNIT_ASSIGNED_CONTEXT((#1069,#1068,#1067))
REPRESENTATION_CONTEXT('Part 1','TOP_LEVEL_ASSEMBLY_PART')
);
#1066=UNCERTAINTY_MEASURE_WITH_UNIT(LENGTH_MEASURE(1.E-8),#1069,
'DISTANCE_ACCURACY_VALUE','Maximum Tolerance applied to model');
#1067=(
NAMED_UNIT(*)
SI_UNIT($,.STERADIAN.)
SOLID_ANGLE_UNIT()
);
#1068=(
NAMED_UNIT(*)
PLANE_ANGLE_UNIT()
SI_UNIT($,.RADIAN.)
);
#1069=(
LENGTH_UNIT()
NAMED_UNIT(*)
SI_UNIT($,.METRE.)
);
#1070=PRODUCT_DEFINITION_SHAPE('','',#1071);
#1071=PRODUCT_DEFINITION('','',#1073,#1072);
#1072=PRODUCT_DEFINITION_CONTEXT('',#1079,'design');
#1073=PRODUCT_DEFINITION_FORMATION_WITH_SPECIFIED_SOURCE('','',#1075,
 .NOT_KNOWN.);
#1074=PRODUCT_RELATED_PRODUCT_CATEGORY('','',(#1075));
#1075=PRODUCT('Part 1','Part 1','Part 1',(#1077));
#1076=PRODUCT_CATEGORY('','');
#1077=PRODUCT_CONTEXT('',#1079,'mechanical');
#1078=APPLICATION_PROTOCOL_DEFINITION('international standard',
'ap242_managed_model_based_3d_engineering',2020,#1079);
#1079=APPLICATION_CONTEXT('managed model based 3d engineering');
ENDSEC;
END-ISO-10303-21;
