ISO-10303-21;
HEADER;
/* Generated by software containing ST-Developer
 * from STEP Tools, Inc. (www.steptools.com) 
 */
/* OPTION: using custom renumber hook */

FILE_DESCRIPTION(
/* description */ ('STEP AP242 Edition 2',
'CAx-IF Rec.Pracs.---Representation and Presentation of Product Manufa
cturing Information (PMI)---4.0---2014-10-13',
'CAx-IF Rec.Pracs.---3D Tessellated Geometry---0.4---2014-09-14','2;1',
'CAx-IF Rec.Pracs.---User Defined Attributes---1.5---2016-08-15'),
/* implementation_level */ '2;1');

FILE_NAME(
/* name */ 'Rotation Plate',
/* time_stamp */ '2026-08-02T02:26:15Z',
/* author */ (''),
/* organization */ (''),
/* preprocessor_version */ 'ST-DEVELOPER v20',
/* originating_system */ 'ONSHAPE BY PTC INC, 1.218',
/* authorisation */ '  ');

FILE_SCHEMA (('AP242_MANAGED_MODEL_BASED_3D_ENGINEERING_MIM_LF { 1 0 10303 442 3 1 4 }'));
ENDSEC;

DATA;
#10=SHAPE_REPRESENTATION_RELATIONSHIP('','',#813,#11);
#11=ADVANCED_BREP_SHAPE_REPRESENTATION('',(#811),#1351);
#12=ELLIPSE('',#883,0.00141421356237309,0.001);
#13=ELLIPSE('',#884,0.00141421356237309,0.001);
#14=ELLIPSE('',#886,0.00141421356237309,0.001);
#15=ELLIPSE('',#888,0.00141421356237309,0.001);
#16=LINE('',#1158,#72);
#17=LINE('',#1161,#73);
#18=LINE('',#1163,#74);
#19=LINE('',#1165,#75);
#20=LINE('',#1167,#76);
#21=LINE('',#1169,#77);
#22=LINE('',#1171,#78);
#23=LINE('',#1173,#79);
#24=LINE('',#1177,#80);
#25=LINE('',#1180,#81);
#26=LINE('',#1182,#82);
#27=LINE('',#1184,#83);
#28=LINE('',#1186,#84);
#29=LINE('',#1188,#85);
#30=LINE('',#1190,#86);
#31=LINE('',#1192,#87);
#32=LINE('',#1194,#88);
#33=LINE('',#1196,#89);
#34=LINE('',#1198,#90);
#35=LINE('',#1200,#91);
#36=LINE('',#1250,#92);
#37=LINE('',#1252,#93);
#38=LINE('',#1254,#94);
#39=LINE('',#1256,#95);
#40=LINE('',#1258,#96);
#41=LINE('',#1260,#97);
#42=LINE('',#1262,#98);
#43=LINE('',#1264,#99);
#44=LINE('',#1266,#100);
#45=LINE('',#1268,#101);
#46=LINE('',#1270,#102);
#47=LINE('',#1272,#103);
#48=LINE('',#1274,#104);
#49=LINE('',#1276,#105);
#50=LINE('',#1278,#106);
#51=LINE('',#1280,#107);
#52=LINE('',#1282,#108);
#53=LINE('',#1284,#109);
#54=LINE('',#1286,#110);
#55=LINE('',#1288,#111);
#56=LINE('',#1290,#112);
#57=LINE('',#1292,#113);
#58=LINE('',#1294,#114);
#59=LINE('',#1296,#115);
#60=LINE('',#1298,#116);
#61=LINE('',#1300,#117);
#62=LINE('',#1303,#118);
#63=LINE('',#1305,#119);
#64=LINE('',#1308,#120);
#65=LINE('',#1310,#121);
#66=LINE('',#1314,#122);
#67=LINE('',#1316,#123);
#68=LINE('',#1318,#124);
#69=LINE('',#1321,#125);
#70=LINE('',#1323,#126);
#71=LINE('',#1325,#127);
#72=VECTOR('',#932,1.);
#73=VECTOR('',#933,1.);
#74=VECTOR('',#934,1.);
#75=VECTOR('',#935,1.);
#76=VECTOR('',#936,1.);
#77=VECTOR('',#937,1.);
#78=VECTOR('',#938,1.);
#79=VECTOR('',#939,1.);
#80=VECTOR('',#944,1.);
#81=VECTOR('',#945,1.);
#82=VECTOR('',#946,1.);
#83=VECTOR('',#947,1.);
#84=VECTOR('',#948,1.);
#85=VECTOR('',#949,1.);
#86=VECTOR('',#950,1.);
#87=VECTOR('',#951,1.);
#88=VECTOR('',#952,1.);
#89=VECTOR('',#953,1.);
#90=VECTOR('',#954,1.);
#91=VECTOR('',#955,1.);
#92=VECTOR('',#1018,1.);
#93=VECTOR('',#1019,1.);
#94=VECTOR('',#1020,1.);
#95=VECTOR('',#1023,1.);
#96=VECTOR('',#1024,1.);
#97=VECTOR('',#1027,1.);
#98=VECTOR('',#1028,1.);
#99=VECTOR('',#1031,1.);
#100=VECTOR('',#1032,1.);
#101=VECTOR('',#1035,1.);
#102=VECTOR('',#1036,1.);
#103=VECTOR('',#1039,1.);
#104=VECTOR('',#1040,1.);
#105=VECTOR('',#1043,1.);
#106=VECTOR('',#1044,1.);
#107=VECTOR('',#1047,1.);
#108=VECTOR('',#1048,1.);
#109=VECTOR('',#1051,1.);
#110=VECTOR('',#1052,1.);
#111=VECTOR('',#1055,1.);
#112=VECTOR('',#1056,1.);
#113=VECTOR('',#1059,1.);
#114=VECTOR('',#1060,1.);
#115=VECTOR('',#1063,1.);
#116=VECTOR('',#1064,1.);
#117=VECTOR('',#1065,1.);
#118=VECTOR('',#1070,1.);
#119=VECTOR('',#1071,1.);
#120=VECTOR('',#1076,1.);
#121=VECTOR('',#1077,1.);
#122=VECTOR('',#1084,1.);
#123=VECTOR('',#1087,1.);
#124=VECTOR('',#1090,1.);
#125=VECTOR('',#1091,1.);
#126=VECTOR('',#1092,1.);
#127=VECTOR('',#1093,1.);
#128=PLANE('',#827);
#129=PLANE('',#829);
#130=PLANE('',#857);
#131=PLANE('',#860);
#132=PLANE('',#861);
#133=PLANE('',#862);
#134=PLANE('',#863);
#135=PLANE('',#864);
#136=PLANE('',#865);
#137=PLANE('',#866);
#138=PLANE('',#867);
#139=PLANE('',#868);
#140=PLANE('',#869);
#141=PLANE('',#870);
#142=PLANE('',#871);
#143=PLANE('',#872);
#144=PLANE('',#873);
#145=PLANE('',#876);
#146=PLANE('',#877);
#147=PLANE('',#880);
#148=PLANE('',#881);
#149=PLANE('',#890);
#150=PLANE('',#893);
#151=PLANE('',#896);
#152=PLANE('',#899);
#153=ORIENTED_EDGE('',*,*,#345,.T.);
#154=ORIENTED_EDGE('',*,*,#346,.F.);
#155=ORIENTED_EDGE('',*,*,#347,.T.);
#156=ORIENTED_EDGE('',*,*,#348,.F.);
#157=ORIENTED_EDGE('',*,*,#349,.F.);
#158=ORIENTED_EDGE('',*,*,#350,.F.);
#159=ORIENTED_EDGE('',*,*,#351,.F.);
#160=ORIENTED_EDGE('',*,*,#352,.F.);
#161=ORIENTED_EDGE('',*,*,#353,.T.);
#162=ORIENTED_EDGE('',*,*,#354,.F.);
#163=ORIENTED_EDGE('',*,*,#355,.T.);
#164=ORIENTED_EDGE('',*,*,#356,.T.);
#165=ORIENTED_EDGE('',*,*,#357,.T.);
#166=ORIENTED_EDGE('',*,*,#358,.T.);
#167=ORIENTED_EDGE('',*,*,#359,.F.);
#168=ORIENTED_EDGE('',*,*,#360,.F.);
#169=ORIENTED_EDGE('',*,*,#361,.F.);
#170=ORIENTED_EDGE('',*,*,#362,.F.);
#171=ORIENTED_EDGE('',*,*,#363,.F.);
#172=ORIENTED_EDGE('',*,*,#364,.T.);
#173=ORIENTED_EDGE('',*,*,#365,.T.);
#174=ORIENTED_EDGE('',*,*,#366,.F.);
#175=ORIENTED_EDGE('',*,*,#367,.T.);
#176=ORIENTED_EDGE('',*,*,#368,.T.);
#177=ORIENTED_EDGE('',*,*,#369,.F.);
#178=ORIENTED_EDGE('',*,*,#370,.F.);
#179=ORIENTED_EDGE('',*,*,#371,.F.);
#180=ORIENTED_EDGE('',*,*,#372,.T.);
#181=ORIENTED_EDGE('',*,*,#373,.T.);
#182=ORIENTED_EDGE('',*,*,#374,.F.);
#183=ORIENTED_EDGE('',*,*,#375,.F.);
#184=ORIENTED_EDGE('',*,*,#376,.T.);
#185=ORIENTED_EDGE('',*,*,#377,.F.);
#186=ORIENTED_EDGE('',*,*,#378,.T.);
#187=ORIENTED_EDGE('',*,*,#379,.F.);
#188=ORIENTED_EDGE('',*,*,#380,.T.);
#189=ORIENTED_EDGE('',*,*,#381,.F.);
#190=ORIENTED_EDGE('',*,*,#382,.T.);
#191=ORIENTED_EDGE('',*,*,#383,.F.);
#192=ORIENTED_EDGE('',*,*,#384,.T.);
#193=ORIENTED_EDGE('',*,*,#385,.F.);
#194=ORIENTED_EDGE('',*,*,#386,.T.);
#195=ORIENTED_EDGE('',*,*,#387,.F.);
#196=ORIENTED_EDGE('',*,*,#388,.T.);
#197=ORIENTED_EDGE('',*,*,#389,.F.);
#198=ORIENTED_EDGE('',*,*,#390,.T.);
#199=ORIENTED_EDGE('',*,*,#353,.F.);
#200=ORIENTED_EDGE('',*,*,#391,.T.);
#201=ORIENTED_EDGE('',*,*,#391,.F.);
#202=ORIENTED_EDGE('',*,*,#387,.T.);
#203=ORIENTED_EDGE('',*,*,#385,.T.);
#204=ORIENTED_EDGE('',*,*,#383,.T.);
#205=ORIENTED_EDGE('',*,*,#381,.T.);
#206=ORIENTED_EDGE('',*,*,#379,.T.);
#207=ORIENTED_EDGE('',*,*,#377,.T.);
#208=ORIENTED_EDGE('',*,*,#375,.T.);
#209=ORIENTED_EDGE('',*,*,#389,.T.);
#210=ORIENTED_EDGE('',*,*,#392,.F.);
#211=ORIENTED_EDGE('',*,*,#362,.T.);
#212=ORIENTED_EDGE('',*,*,#388,.F.);
#213=ORIENTED_EDGE('',*,*,#386,.F.);
#214=ORIENTED_EDGE('',*,*,#384,.F.);
#215=ORIENTED_EDGE('',*,*,#382,.F.);
#216=ORIENTED_EDGE('',*,*,#380,.F.);
#217=ORIENTED_EDGE('',*,*,#378,.F.);
#218=ORIENTED_EDGE('',*,*,#376,.F.);
#219=ORIENTED_EDGE('',*,*,#390,.F.);
#220=ORIENTED_EDGE('',*,*,#392,.T.);
#221=ORIENTED_EDGE('',*,*,#347,.F.);
#222=ORIENTED_EDGE('',*,*,#364,.F.);
#223=ORIENTED_EDGE('',*,*,#393,.F.);
#224=ORIENTED_EDGE('',*,*,#394,.T.);
#225=ORIENTED_EDGE('',*,*,#395,.T.);
#226=ORIENTED_EDGE('',*,*,#363,.T.);
#227=ORIENTED_EDGE('',*,*,#396,.F.);
#228=ORIENTED_EDGE('',*,*,#397,.F.);
#229=ORIENTED_EDGE('',*,*,#393,.T.);
#230=ORIENTED_EDGE('',*,*,#374,.T.);
#231=ORIENTED_EDGE('',*,*,#398,.F.);
#232=ORIENTED_EDGE('',*,*,#399,.F.);
#233=ORIENTED_EDGE('',*,*,#396,.T.);
#234=ORIENTED_EDGE('',*,*,#373,.F.);
#235=ORIENTED_EDGE('',*,*,#400,.F.);
#236=ORIENTED_EDGE('',*,*,#401,.T.);
#237=ORIENTED_EDGE('',*,*,#398,.T.);
#238=ORIENTED_EDGE('',*,*,#345,.F.);
#239=ORIENTED_EDGE('',*,*,#372,.F.);
#240=ORIENTED_EDGE('',*,*,#402,.F.);
#241=ORIENTED_EDGE('',*,*,#403,.T.);
#242=ORIENTED_EDGE('',*,*,#400,.T.);
#243=ORIENTED_EDGE('',*,*,#371,.T.);
#244=ORIENTED_EDGE('',*,*,#404,.F.);
#245=ORIENTED_EDGE('',*,*,#405,.F.);
#246=ORIENTED_EDGE('',*,*,#402,.T.);
#247=ORIENTED_EDGE('',*,*,#349,.T.);
#248=ORIENTED_EDGE('',*,*,#370,.T.);
#249=ORIENTED_EDGE('',*,*,#406,.F.);
#250=ORIENTED_EDGE('',*,*,#407,.F.);
#251=ORIENTED_EDGE('',*,*,#404,.T.);
#252=ORIENTED_EDGE('',*,*,#369,.T.);
#253=ORIENTED_EDGE('',*,*,#408,.F.);
#254=ORIENTED_EDGE('',*,*,#409,.F.);
#255=ORIENTED_EDGE('',*,*,#406,.T.);
#256=ORIENTED_EDGE('',*,*,#368,.F.);
#257=ORIENTED_EDGE('',*,*,#410,.F.);
#258=ORIENTED_EDGE('',*,*,#411,.T.);
#259=ORIENTED_EDGE('',*,*,#408,.T.);
#260=ORIENTED_EDGE('',*,*,#367,.F.);
#261=ORIENTED_EDGE('',*,*,#412,.F.);
#262=ORIENTED_EDGE('',*,*,#413,.T.);
#263=ORIENTED_EDGE('',*,*,#410,.T.);
#264=ORIENTED_EDGE('',*,*,#351,.T.);
#265=ORIENTED_EDGE('',*,*,#366,.T.);
#266=ORIENTED_EDGE('',*,*,#414,.F.);
#267=ORIENTED_EDGE('',*,*,#415,.F.);
#268=ORIENTED_EDGE('',*,*,#412,.T.);
#269=ORIENTED_EDGE('',*,*,#416,.F.);
#270=ORIENTED_EDGE('',*,*,#417,.T.);
#271=ORIENTED_EDGE('',*,*,#418,.T.);
#272=ORIENTED_EDGE('',*,*,#355,.F.);
#273=ORIENTED_EDGE('',*,*,#361,.T.);
#274=ORIENTED_EDGE('',*,*,#419,.F.);
#275=ORIENTED_EDGE('',*,*,#360,.T.);
#276=ORIENTED_EDGE('',*,*,#420,.F.);
#277=ORIENTED_EDGE('',*,*,#421,.T.);
#278=ORIENTED_EDGE('',*,*,#416,.T.);
#279=ORIENTED_EDGE('',*,*,#354,.T.);
#280=ORIENTED_EDGE('',*,*,#422,.F.);
#281=ORIENTED_EDGE('',*,*,#423,.F.);
#282=ORIENTED_EDGE('',*,*,#424,.T.);
#283=ORIENTED_EDGE('',*,*,#420,.T.);
#284=ORIENTED_EDGE('',*,*,#359,.T.);
#285=ORIENTED_EDGE('',*,*,#358,.F.);
#286=ORIENTED_EDGE('',*,*,#425,.F.);
#287=ORIENTED_EDGE('',*,*,#357,.F.);
#288=ORIENTED_EDGE('',*,*,#426,.F.);
#289=ORIENTED_EDGE('',*,*,#356,.F.);
#290=ORIENTED_EDGE('',*,*,#418,.F.);
#291=ORIENTED_EDGE('',*,*,#427,.T.);
#292=ORIENTED_EDGE('',*,*,#423,.T.);
#293=ORIENTED_EDGE('',*,*,#365,.F.);
#294=ORIENTED_EDGE('',*,*,#395,.F.);
#295=ORIENTED_EDGE('',*,*,#428,.T.);
#296=ORIENTED_EDGE('',*,*,#414,.T.);
#297=ORIENTED_EDGE('',*,*,#429,.T.);
#298=ORIENTED_EDGE('',*,*,#430,.T.);
#299=ORIENTED_EDGE('',*,*,#431,.T.);
#300=ORIENTED_EDGE('',*,*,#432,.T.);
#301=ORIENTED_EDGE('',*,*,#394,.F.);
#302=ORIENTED_EDGE('',*,*,#397,.T.);
#303=ORIENTED_EDGE('',*,*,#399,.T.);
#304=ORIENTED_EDGE('',*,*,#401,.F.);
#305=ORIENTED_EDGE('',*,*,#403,.F.);
#306=ORIENTED_EDGE('',*,*,#405,.T.);
#307=ORIENTED_EDGE('',*,*,#407,.T.);
#308=ORIENTED_EDGE('',*,*,#409,.T.);
#309=ORIENTED_EDGE('',*,*,#411,.F.);
#310=ORIENTED_EDGE('',*,*,#413,.F.);
#311=ORIENTED_EDGE('',*,*,#415,.T.);
#312=ORIENTED_EDGE('',*,*,#428,.F.);
#313=ORIENTED_EDGE('',*,*,#433,.F.);
#314=ORIENTED_EDGE('',*,*,#427,.F.);
#315=ORIENTED_EDGE('',*,*,#434,.F.);
#316=ORIENTED_EDGE('',*,*,#431,.F.);
#317=ORIENTED_EDGE('',*,*,#434,.T.);
#318=ORIENTED_EDGE('',*,*,#417,.F.);
#319=ORIENTED_EDGE('',*,*,#435,.F.);
#320=ORIENTED_EDGE('',*,*,#432,.F.);
#321=ORIENTED_EDGE('',*,*,#433,.T.);
#322=ORIENTED_EDGE('',*,*,#430,.F.);
#323=ORIENTED_EDGE('',*,*,#436,.F.);
#324=ORIENTED_EDGE('',*,*,#424,.F.);
#325=ORIENTED_EDGE('',*,*,#435,.T.);
#326=ORIENTED_EDGE('',*,*,#421,.F.);
#327=ORIENTED_EDGE('',*,*,#436,.T.);
#328=ORIENTED_EDGE('',*,*,#429,.F.);
#329=ORIENTED_EDGE('',*,*,#437,.T.);
#330=ORIENTED_EDGE('',*,*,#352,.T.);
#331=ORIENTED_EDGE('',*,*,#437,.F.);
#332=ORIENTED_EDGE('',*,*,#425,.T.);
#333=ORIENTED_EDGE('',*,*,#438,.T.);
#334=ORIENTED_EDGE('',*,*,#350,.T.);
#335=ORIENTED_EDGE('',*,*,#438,.F.);
#336=ORIENTED_EDGE('',*,*,#426,.T.);
#337=ORIENTED_EDGE('',*,*,#439,.T.);
#338=ORIENTED_EDGE('',*,*,#348,.T.);
#339=ORIENTED_EDGE('',*,*,#439,.F.);
#340=ORIENTED_EDGE('',*,*,#419,.T.);
#341=ORIENTED_EDGE('',*,*,#440,.T.);
#342=ORIENTED_EDGE('',*,*,#346,.T.);
#343=ORIENTED_EDGE('',*,*,#440,.F.);
#344=ORIENTED_EDGE('',*,*,#422,.T.);
#345=EDGE_CURVE('',#441,#441,#513,.T.);
#346=EDGE_CURVE('',#442,#442,#514,.F.);
#347=EDGE_CURVE('',#443,#443,#515,.T.);
#348=EDGE_CURVE('',#444,#444,#516,.F.);
#349=EDGE_CURVE('',#445,#445,#517,.T.);
#350=EDGE_CURVE('',#446,#446,#518,.F.);
#351=EDGE_CURVE('',#447,#447,#519,.T.);
#352=EDGE_CURVE('',#448,#448,#520,.F.);
#353=EDGE_CURVE('',#449,#449,#521,.T.);
#354=EDGE_CURVE('',#450,#451,#16,.T.);
#355=EDGE_CURVE('',#450,#452,#17,.T.);
#356=EDGE_CURVE('',#452,#453,#18,.T.);
#357=EDGE_CURVE('',#453,#454,#19,.T.);
#358=EDGE_CURVE('',#454,#455,#20,.T.);
#359=EDGE_CURVE('',#456,#455,#21,.T.);
#360=EDGE_CURVE('',#457,#456,#22,.T.);
#361=EDGE_CURVE('',#451,#457,#23,.T.);
#362=EDGE_CURVE('',#458,#458,#522,.T.);
#363=EDGE_CURVE('',#459,#460,#24,.T.);
#364=EDGE_CURVE('',#459,#461,#25,.T.);
#365=EDGE_CURVE('',#461,#462,#26,.T.);
#366=EDGE_CURVE('',#463,#462,#27,.T.);
#367=EDGE_CURVE('',#463,#464,#28,.T.);
#368=EDGE_CURVE('',#464,#465,#29,.T.);
#369=EDGE_CURVE('',#466,#465,#30,.T.);
#370=EDGE_CURVE('',#467,#466,#31,.T.);
#371=EDGE_CURVE('',#468,#467,#32,.T.);
#372=EDGE_CURVE('',#468,#469,#33,.T.);
#373=EDGE_CURVE('',#469,#470,#34,.T.);
#374=EDGE_CURVE('',#460,#470,#35,.T.);
#375=EDGE_CURVE('',#471,#471,#523,.T.);
#376=EDGE_CURVE('',#472,#472,#524,.T.);
#377=EDGE_CURVE('',#473,#473,#525,.T.);
#378=EDGE_CURVE('',#474,#474,#526,.T.);
#379=EDGE_CURVE('',#475,#475,#527,.T.);
#380=EDGE_CURVE('',#476,#476,#528,.T.);
#381=EDGE_CURVE('',#477,#477,#529,.T.);
#382=EDGE_CURVE('',#478,#478,#530,.T.);
#383=EDGE_CURVE('',#479,#479,#531,.T.);
#384=EDGE_CURVE('',#480,#480,#532,.T.);
#385=EDGE_CURVE('',#481,#481,#533,.T.);
#386=EDGE_CURVE('',#482,#482,#534,.T.);
#387=EDGE_CURVE('',#483,#483,#535,.T.);
#388=EDGE_CURVE('',#484,#484,#536,.T.);
#389=EDGE_CURVE('',#485,#485,#537,.T.);
#390=EDGE_CURVE('',#486,#486,#538,.T.);
#391=EDGE_CURVE('',#487,#487,#539,.T.);
#392=EDGE_CURVE('',#488,#488,#540,.T.);
#393=EDGE_CURVE('',#489,#459,#36,.T.);
#394=EDGE_CURVE('',#489,#490,#37,.T.);
#395=EDGE_CURVE('',#490,#461,#38,.T.);
#396=EDGE_CURVE('',#491,#460,#39,.T.);
#397=EDGE_CURVE('',#489,#491,#40,.T.);
#398=EDGE_CURVE('',#492,#470,#41,.T.);
#399=EDGE_CURVE('',#491,#492,#42,.T.);
#400=EDGE_CURVE('',#493,#469,#43,.T.);
#401=EDGE_CURVE('',#493,#492,#44,.T.);
#402=EDGE_CURVE('',#494,#468,#45,.T.);
#403=EDGE_CURVE('',#494,#493,#46,.T.);
#404=EDGE_CURVE('',#495,#467,#47,.T.);
#405=EDGE_CURVE('',#494,#495,#48,.T.);
#406=EDGE_CURVE('',#496,#466,#49,.T.);
#407=EDGE_CURVE('',#495,#496,#50,.T.);
#408=EDGE_CURVE('',#497,#465,#51,.T.);
#409=EDGE_CURVE('',#496,#497,#52,.T.);
#410=EDGE_CURVE('',#498,#464,#53,.T.);
#411=EDGE_CURVE('',#498,#497,#54,.T.);
#412=EDGE_CURVE('',#499,#463,#55,.T.);
#413=EDGE_CURVE('',#499,#498,#56,.T.);
#414=EDGE_CURVE('',#500,#462,#57,.T.);
#415=EDGE_CURVE('',#499,#500,#58,.T.);
#416=EDGE_CURVE('',#501,#450,#59,.T.);
#417=EDGE_CURVE('',#501,#502,#60,.T.);
#418=EDGE_CURVE('',#502,#452,#61,.T.);
#419=EDGE_CURVE('',#457,#457,#541,.T.);
#420=EDGE_CURVE('',#503,#456,#62,.T.);
#421=EDGE_CURVE('',#503,#501,#63,.F.);
#422=EDGE_CURVE('',#451,#451,#542,.T.);
#423=EDGE_CURVE('',#504,#455,#64,.T.);
#424=EDGE_CURVE('',#504,#503,#65,.F.);
#425=EDGE_CURVE('',#454,#454,#543,.T.);
#426=EDGE_CURVE('',#453,#453,#544,.T.);
#427=EDGE_CURVE('',#502,#504,#66,.T.);
#428=EDGE_CURVE('',#490,#500,#67,.T.);
#429=EDGE_CURVE('',#505,#506,#68,.T.);
#430=EDGE_CURVE('',#506,#507,#69,.T.);
#431=EDGE_CURVE('',#507,#508,#70,.F.);
#432=EDGE_CURVE('',#508,#505,#71,.F.);
#433=EDGE_CURVE('',#504,#507,#12,.T.);
#434=EDGE_CURVE('',#508,#502,#13,.F.);
#435=EDGE_CURVE('',#505,#501,#14,.F.);
#436=EDGE_CURVE('',#503,#506,#15,.T.);
#437=EDGE_CURVE('',#509,#509,#545,.T.);
#438=EDGE_CURVE('',#510,#510,#546,.T.);
#439=EDGE_CURVE('',#511,#511,#547,.T.);
#440=EDGE_CURVE('',#512,#512,#548,.T.);
#441=VERTEX_POINT('',#1137);
#442=VERTEX_POINT('',#1139);
#443=VERTEX_POINT('',#1142);
#444=VERTEX_POINT('',#1144);
#445=VERTEX_POINT('',#1147);
#446=VERTEX_POINT('',#1149);
#447=VERTEX_POINT('',#1152);
#448=VERTEX_POINT('',#1154);
#449=VERTEX_POINT('',#1157);
#450=VERTEX_POINT('',#1159);
#451=VERTEX_POINT('',#1160);
#452=VERTEX_POINT('',#1162);
#453=VERTEX_POINT('',#1164);
#454=VERTEX_POINT('',#1166);
#455=VERTEX_POINT('',#1168);
#456=VERTEX_POINT('',#1170);
#457=VERTEX_POINT('',#1172);
#458=VERTEX_POINT('',#1176);
#459=VERTEX_POINT('',#1178);
#460=VERTEX_POINT('',#1179);
#461=VERTEX_POINT('',#1181);
#462=VERTEX_POINT('',#1183);
#463=VERTEX_POINT('',#1185);
#464=VERTEX_POINT('',#1187);
#465=VERTEX_POINT('',#1189);
#466=VERTEX_POINT('',#1191);
#467=VERTEX_POINT('',#1193);
#468=VERTEX_POINT('',#1195);
#469=VERTEX_POINT('',#1197);
#470=VERTEX_POINT('',#1199);
#471=VERTEX_POINT('',#1203);
#472=VERTEX_POINT('',#1205);
#473=VERTEX_POINT('',#1208);
#474=VERTEX_POINT('',#1210);
#475=VERTEX_POINT('',#1213);
#476=VERTEX_POINT('',#1215);
#477=VERTEX_POINT('',#1218);
#478=VERTEX_POINT('',#1220);
#479=VERTEX_POINT('',#1223);
#480=VERTEX_POINT('',#1225);
#481=VERTEX_POINT('',#1228);
#482=VERTEX_POINT('',#1230);
#483=VERTEX_POINT('',#1233);
#484=VERTEX_POINT('',#1235);
#485=VERTEX_POINT('',#1238);
#486=VERTEX_POINT('',#1240);
#487=VERTEX_POINT('',#1243);
#488=VERTEX_POINT('',#1247);
#489=VERTEX_POINT('',#1251);
#490=VERTEX_POINT('',#1253);
#491=VERTEX_POINT('',#1257);
#492=VERTEX_POINT('',#1261);
#493=VERTEX_POINT('',#1265);
#494=VERTEX_POINT('',#1269);
#495=VERTEX_POINT('',#1273);
#496=VERTEX_POINT('',#1277);
#497=VERTEX_POINT('',#1281);
#498=VERTEX_POINT('',#1285);
#499=VERTEX_POINT('',#1289);
#500=VERTEX_POINT('',#1293);
#501=VERTEX_POINT('',#1297);
#502=VERTEX_POINT('',#1299);
#503=VERTEX_POINT('',#1304);
#504=VERTEX_POINT('',#1309);
#505=VERTEX_POINT('',#1319);
#506=VERTEX_POINT('',#1320);
#507=VERTEX_POINT('',#1322);
#508=VERTEX_POINT('',#1324);
#509=VERTEX_POINT('',#1336);
#510=VERTEX_POINT('',#1340);
#511=VERTEX_POINT('',#1344);
#512=VERTEX_POINT('',#1348);
#513=CIRCLE('',#816,0.001);
#514=CIRCLE('',#817,0.001);
#515=CIRCLE('',#819,0.001);
#516=CIRCLE('',#820,0.001);
#517=CIRCLE('',#822,0.001);
#518=CIRCLE('',#823,0.001);
#519=CIRCLE('',#825,0.001);
#520=CIRCLE('',#826,0.001);
#521=CIRCLE('',#828,0.0435);
#522=CIRCLE('',#830,0.01);
#523=CIRCLE('',#832,0.001);
#524=CIRCLE('',#833,0.001);
#525=CIRCLE('',#835,0.001);
#526=CIRCLE('',#836,0.001);
#527=CIRCLE('',#838,0.001);
#528=CIRCLE('',#839,0.001);
#529=CIRCLE('',#841,0.001);
#530=CIRCLE('',#842,0.001);
#531=CIRCLE('',#844,0.001);
#532=CIRCLE('',#845,0.001);
#533=CIRCLE('',#847,0.001);
#534=CIRCLE('',#848,0.001);
#535=CIRCLE('',#850,0.001);
#536=CIRCLE('',#851,0.001);
#537=CIRCLE('',#853,0.001);
#538=CIRCLE('',#854,0.001);
#539=CIRCLE('',#856,0.0435);
#540=CIRCLE('',#859,0.01);
#541=CIRCLE('',#874,0.002);
#542=CIRCLE('',#875,0.002);
#543=CIRCLE('',#878,0.002);
#544=CIRCLE('',#879,0.002);
#545=CIRCLE('',#891,0.002);
#546=CIRCLE('',#894,0.002);
#547=CIRCLE('',#897,0.002);
#548=CIRCLE('',#900,0.002);
#549=EDGE_LOOP('',(#153));
#550=EDGE_LOOP('',(#154));
#551=EDGE_LOOP('',(#155));
#552=EDGE_LOOP('',(#156));
#553=EDGE_LOOP('',(#157));
#554=EDGE_LOOP('',(#158));
#555=EDGE_LOOP('',(#159));
#556=EDGE_LOOP('',(#160));
#557=EDGE_LOOP('',(#161));
#558=EDGE_LOOP('',(#162,#163,#164,#165,#166,#167,#168,#169));
#559=EDGE_LOOP('',(#170));
#560=EDGE_LOOP('',(#171,#172,#173,#174,#175,#176,#177,#178,#179,#180,#181,
#182));
#561=EDGE_LOOP('',(#183));
#562=EDGE_LOOP('',(#184));
#563=EDGE_LOOP('',(#185));
#564=EDGE_LOOP('',(#186));
#565=EDGE_LOOP('',(#187));
#566=EDGE_LOOP('',(#188));
#567=EDGE_LOOP('',(#189));
#568=EDGE_LOOP('',(#190));
#569=EDGE_LOOP('',(#191));
#570=EDGE_LOOP('',(#192));
#571=EDGE_LOOP('',(#193));
#572=EDGE_LOOP('',(#194));
#573=EDGE_LOOP('',(#195));
#574=EDGE_LOOP('',(#196));
#575=EDGE_LOOP('',(#197));
#576=EDGE_LOOP('',(#198));
#577=EDGE_LOOP('',(#199));
#578=EDGE_LOOP('',(#200));
#579=EDGE_LOOP('',(#201));
#580=EDGE_LOOP('',(#202));
#581=EDGE_LOOP('',(#203));
#582=EDGE_LOOP('',(#204));
#583=EDGE_LOOP('',(#205));
#584=EDGE_LOOP('',(#206));
#585=EDGE_LOOP('',(#207));
#586=EDGE_LOOP('',(#208));
#587=EDGE_LOOP('',(#209));
#588=EDGE_LOOP('',(#210));
#589=EDGE_LOOP('',(#211));
#590=EDGE_LOOP('',(#212));
#591=EDGE_LOOP('',(#213));
#592=EDGE_LOOP('',(#214));
#593=EDGE_LOOP('',(#215));
#594=EDGE_LOOP('',(#216));
#595=EDGE_LOOP('',(#217));
#596=EDGE_LOOP('',(#218));
#597=EDGE_LOOP('',(#219));
#598=EDGE_LOOP('',(#220));
#599=EDGE_LOOP('',(#221));
#600=EDGE_LOOP('',(#222,#223,#224,#225));
#601=EDGE_LOOP('',(#226,#227,#228,#229));
#602=EDGE_LOOP('',(#230,#231,#232,#233));
#603=EDGE_LOOP('',(#234,#235,#236,#237));
#604=EDGE_LOOP('',(#238));
#605=EDGE_LOOP('',(#239,#240,#241,#242));
#606=EDGE_LOOP('',(#243,#244,#245,#246));
#607=EDGE_LOOP('',(#247));
#608=EDGE_LOOP('',(#248,#249,#250,#251));
#609=EDGE_LOOP('',(#252,#253,#254,#255));
#610=EDGE_LOOP('',(#256,#257,#258,#259));
#611=EDGE_LOOP('',(#260,#261,#262,#263));
#612=EDGE_LOOP('',(#264));
#613=EDGE_LOOP('',(#265,#266,#267,#268));
#614=EDGE_LOOP('',(#269,#270,#271,#272));
#615=EDGE_LOOP('',(#273,#274,#275,#276,#277,#278,#279,#280));
#616=EDGE_LOOP('',(#281,#282,#283,#284));
#617=EDGE_LOOP('',(#285,#286,#287,#288,#289,#290,#291,#292));
#618=EDGE_LOOP('',(#293,#294,#295,#296));
#619=EDGE_LOOP('',(#297,#298,#299,#300));
#620=EDGE_LOOP('',(#301,#302,#303,#304,#305,#306,#307,#308,#309,#310,#311,
#312));
#621=EDGE_LOOP('',(#313,#314,#315,#316));
#622=EDGE_LOOP('',(#317,#318,#319,#320));
#623=EDGE_LOOP('',(#321,#322,#323,#324));
#624=EDGE_LOOP('',(#325,#326,#327,#328));
#625=EDGE_LOOP('',(#329));
#626=EDGE_LOOP('',(#330));
#627=EDGE_LOOP('',(#331));
#628=EDGE_LOOP('',(#332));
#629=EDGE_LOOP('',(#333));
#630=EDGE_LOOP('',(#334));
#631=EDGE_LOOP('',(#335));
#632=EDGE_LOOP('',(#336));
#633=EDGE_LOOP('',(#337));
#634=EDGE_LOOP('',(#338));
#635=EDGE_LOOP('',(#339));
#636=EDGE_LOOP('',(#340));
#637=EDGE_LOOP('',(#341));
#638=EDGE_LOOP('',(#342));
#639=EDGE_LOOP('',(#343));
#640=EDGE_LOOP('',(#344));
#641=FACE_BOUND('',#549,.T.);
#642=FACE_BOUND('',#550,.T.);
#643=FACE_BOUND('',#551,.T.);
#644=FACE_BOUND('',#552,.T.);
#645=FACE_BOUND('',#553,.T.);
#646=FACE_BOUND('',#554,.T.);
#647=FACE_BOUND('',#555,.T.);
#648=FACE_BOUND('',#556,.T.);
#649=FACE_BOUND('',#557,.T.);
#650=FACE_BOUND('',#558,.T.);
#651=FACE_BOUND('',#559,.T.);
#652=FACE_BOUND('',#560,.T.);
#653=FACE_BOUND('',#561,.T.);
#654=FACE_BOUND('',#562,.T.);
#655=FACE_BOUND('',#563,.T.);
#656=FACE_BOUND('',#564,.T.);
#657=FACE_BOUND('',#565,.T.);
#658=FACE_BOUND('',#566,.T.);
#659=FACE_BOUND('',#567,.T.);
#660=FACE_BOUND('',#568,.T.);
#661=FACE_BOUND('',#569,.T.);
#662=FACE_BOUND('',#570,.T.);
#663=FACE_BOUND('',#571,.T.);
#664=FACE_BOUND('',#572,.T.);
#665=FACE_BOUND('',#573,.T.);
#666=FACE_BOUND('',#574,.T.);
#667=FACE_BOUND('',#575,.T.);
#668=FACE_BOUND('',#576,.T.);
#669=FACE_BOUND('',#577,.T.);
#670=FACE_BOUND('',#578,.T.);
#671=FACE_BOUND('',#579,.T.);
#672=FACE_BOUND('',#580,.T.);
#673=FACE_BOUND('',#581,.T.);
#674=FACE_BOUND('',#582,.T.);
#675=FACE_BOUND('',#583,.T.);
#676=FACE_BOUND('',#584,.T.);
#677=FACE_BOUND('',#585,.T.);
#678=FACE_BOUND('',#586,.T.);
#679=FACE_BOUND('',#587,.T.);
#680=FACE_BOUND('',#588,.T.);
#681=FACE_BOUND('',#589,.T.);
#682=FACE_BOUND('',#590,.T.);
#683=FACE_BOUND('',#591,.T.);
#684=FACE_BOUND('',#592,.T.);
#685=FACE_BOUND('',#593,.T.);
#686=FACE_BOUND('',#594,.T.);
#687=FACE_BOUND('',#595,.T.);
#688=FACE_BOUND('',#596,.T.);
#689=FACE_BOUND('',#597,.T.);
#690=FACE_BOUND('',#598,.T.);
#691=FACE_BOUND('',#599,.T.);
#692=FACE_BOUND('',#600,.T.);
#693=FACE_BOUND('',#601,.T.);
#694=FACE_BOUND('',#602,.T.);
#695=FACE_BOUND('',#603,.T.);
#696=FACE_BOUND('',#604,.T.);
#697=FACE_BOUND('',#605,.T.);
#698=FACE_BOUND('',#606,.T.);
#699=FACE_BOUND('',#607,.T.);
#700=FACE_BOUND('',#608,.T.);
#701=FACE_BOUND('',#609,.T.);
#702=FACE_BOUND('',#610,.T.);
#703=FACE_BOUND('',#611,.T.);
#704=FACE_BOUND('',#612,.T.);
#705=FACE_BOUND('',#613,.T.);
#706=FACE_BOUND('',#614,.T.);
#707=FACE_BOUND('',#615,.T.);
#708=FACE_BOUND('',#616,.T.);
#709=FACE_BOUND('',#617,.T.);
#710=FACE_BOUND('',#618,.T.);
#711=FACE_BOUND('',#619,.T.);
#712=FACE_BOUND('',#620,.T.);
#713=FACE_BOUND('',#621,.T.);
#714=FACE_BOUND('',#622,.T.);
#715=FACE_BOUND('',#623,.T.);
#716=FACE_BOUND('',#624,.T.);
#717=FACE_BOUND('',#625,.T.);
#718=FACE_BOUND('',#626,.T.);
#719=FACE_BOUND('',#627,.T.);
#720=FACE_BOUND('',#628,.T.);
#721=FACE_BOUND('',#629,.T.);
#722=FACE_BOUND('',#630,.T.);
#723=FACE_BOUND('',#631,.T.);
#724=FACE_BOUND('',#632,.T.);
#725=FACE_BOUND('',#633,.T.);
#726=FACE_BOUND('',#634,.T.);
#727=FACE_BOUND('',#635,.T.);
#728=FACE_BOUND('',#636,.T.);
#729=FACE_BOUND('',#637,.T.);
#730=FACE_BOUND('',#638,.T.);
#731=FACE_BOUND('',#639,.T.);
#732=FACE_BOUND('',#640,.T.);
#733=CYLINDRICAL_SURFACE('',#815,0.001);
#734=CYLINDRICAL_SURFACE('',#818,0.001);
#735=CYLINDRICAL_SURFACE('',#821,0.001);
#736=CYLINDRICAL_SURFACE('',#824,0.001);
#737=CYLINDRICAL_SURFACE('',#831,0.001);
#738=CYLINDRICAL_SURFACE('',#834,0.001);
#739=CYLINDRICAL_SURFACE('',#837,0.001);
#740=CYLINDRICAL_SURFACE('',#840,0.001);
#741=CYLINDRICAL_SURFACE('',#843,0.001);
#742=CYLINDRICAL_SURFACE('',#846,0.001);
#743=CYLINDRICAL_SURFACE('',#849,0.001);
#744=CYLINDRICAL_SURFACE('',#852,0.001);
#745=CYLINDRICAL_SURFACE('',#855,0.0435);
#746=CYLINDRICAL_SURFACE('',#858,0.01);
#747=CYLINDRICAL_SURFACE('',#882,0.001);
#748=CYLINDRICAL_SURFACE('',#885,0.001);
#749=CYLINDRICAL_SURFACE('',#887,0.001);
#750=CYLINDRICAL_SURFACE('',#889,0.001);
#751=CYLINDRICAL_SURFACE('',#892,0.002);
#752=CYLINDRICAL_SURFACE('',#895,0.002);
#753=CYLINDRICAL_SURFACE('',#898,0.002);
#754=CYLINDRICAL_SURFACE('',#901,0.002);
#755=ADVANCED_FACE('',(#641,#642),#733,.F.);
#756=ADVANCED_FACE('',(#643,#644),#734,.F.);
#757=ADVANCED_FACE('',(#645,#646),#735,.F.);
#758=ADVANCED_FACE('',(#647,#648),#736,.F.);
#759=ADVANCED_FACE('',(#649,#650),#128,.T.);
#760=ADVANCED_FACE('',(#651,#652),#129,.T.);
#761=ADVANCED_FACE('',(#653,#654),#737,.F.);
#762=ADVANCED_FACE('',(#655,#656),#738,.F.);
#763=ADVANCED_FACE('',(#657,#658),#739,.F.);
#764=ADVANCED_FACE('',(#659,#660),#740,.F.);
#765=ADVANCED_FACE('',(#661,#662),#741,.F.);
#766=ADVANCED_FACE('',(#663,#664),#742,.F.);
#767=ADVANCED_FACE('',(#665,#666),#743,.F.);
#768=ADVANCED_FACE('',(#667,#668),#744,.F.);
#769=ADVANCED_FACE('',(#669,#670),#745,.T.);
#770=ADVANCED_FACE('',(#671,#672,#673,#674,#675,#676,#677,#678,#679),#130,
 .F.);
#771=ADVANCED_FACE('',(#680,#681),#746,.F.);
#772=ADVANCED_FACE('',(#682,#683,#684,#685,#686,#687,#688,#689,#690),#131,
 .T.);
#773=ADVANCED_FACE('',(#691,#692),#132,.T.);
#774=ADVANCED_FACE('',(#693),#133,.F.);
#775=ADVANCED_FACE('',(#694),#134,.F.);
#776=ADVANCED_FACE('',(#695),#135,.T.);
#777=ADVANCED_FACE('',(#696,#697),#136,.T.);
#778=ADVANCED_FACE('',(#698),#137,.F.);
#779=ADVANCED_FACE('',(#699,#700),#138,.F.);
#780=ADVANCED_FACE('',(#701),#139,.F.);
#781=ADVANCED_FACE('',(#702),#140,.T.);
#782=ADVANCED_FACE('',(#703),#141,.T.);
#783=ADVANCED_FACE('',(#704,#705),#142,.F.);
#784=ADVANCED_FACE('',(#706),#143,.T.);
#785=ADVANCED_FACE('',(#707),#144,.F.);
#786=ADVANCED_FACE('',(#708),#145,.F.);
#787=ADVANCED_FACE('',(#709),#146,.T.);
#788=ADVANCED_FACE('',(#710),#147,.T.);
#789=ADVANCED_FACE('',(#711,#712),#148,.T.);
#790=ADVANCED_FACE('',(#713),#747,.T.);
#791=ADVANCED_FACE('',(#714),#748,.T.);
#792=ADVANCED_FACE('',(#715),#749,.T.);
#793=ADVANCED_FACE('',(#716),#750,.T.);
#794=ADVANCED_FACE('',(#717,#718),#149,.T.);
#795=ADVANCED_FACE('',(#719,#720),#751,.F.);
#796=ADVANCED_FACE('',(#721,#722),#150,.T.);
#797=ADVANCED_FACE('',(#723,#724),#752,.F.);
#798=ADVANCED_FACE('',(#725,#726),#151,.T.);
#799=ADVANCED_FACE('',(#727,#728),#753,.F.);
#800=ADVANCED_FACE('',(#729,#730),#152,.T.);
#801=ADVANCED_FACE('',(#731,#732),#754,.F.);
#802=CLOSED_SHELL('',(#755,#756,#757,#758,#759,#760,#761,#762,#763,#764,
#765,#766,#767,#768,#769,#770,#771,#772,#773,#774,#775,#776,#777,#778,#779,
#780,#781,#782,#783,#784,#785,#786,#787,#788,#789,#790,#791,#792,#793,#794,
#795,#796,#797,#798,#799,#800,#801));
#803=STYLED_ITEM('',(#804),#811);
#804=PRESENTATION_STYLE_ASSIGNMENT((#805));
#805=SURFACE_STYLE_USAGE(.BOTH.,#806);
#806=SURFACE_SIDE_STYLE('',(#807));
#807=SURFACE_STYLE_FILL_AREA(#808);
#808=FILL_AREA_STYLE('',(#809));
#809=FILL_AREA_STYLE_COLOUR('',#810);
#810=COLOUR_RGB('',0.615686274509804,0.811764705882353,0.929411764705882);
#811=MANIFOLD_SOLID_BREP('Part 1',#802);
#812=SHAPE_DEFINITION_REPRESENTATION(#1356,#813);
#813=SHAPE_REPRESENTATION('Part 1',(#814),#1351);
#814=AXIS2_PLACEMENT_3D('',#1134,#902,#903);
#815=AXIS2_PLACEMENT_3D('',#1135,#904,#905);
#816=AXIS2_PLACEMENT_3D('',#1136,#906,#907);
#817=AXIS2_PLACEMENT_3D('',#1138,#908,#909);
#818=AXIS2_PLACEMENT_3D('',#1140,#910,#911);
#819=AXIS2_PLACEMENT_3D('',#1141,#912,#913);
#820=AXIS2_PLACEMENT_3D('',#1143,#914,#915);
#821=AXIS2_PLACEMENT_3D('',#1145,#916,#917);
#822=AXIS2_PLACEMENT_3D('',#1146,#918,#919);
#823=AXIS2_PLACEMENT_3D('',#1148,#920,#921);
#824=AXIS2_PLACEMENT_3D('',#1150,#922,#923);
#825=AXIS2_PLACEMENT_3D('',#1151,#924,#925);
#826=AXIS2_PLACEMENT_3D('',#1153,#926,#927);
#827=AXIS2_PLACEMENT_3D('',#1155,#928,#929);
#828=AXIS2_PLACEMENT_3D('',#1156,#930,#931);
#829=AXIS2_PLACEMENT_3D('',#1174,#940,#941);
#830=AXIS2_PLACEMENT_3D('',#1175,#942,#943);
#831=AXIS2_PLACEMENT_3D('',#1201,#956,#957);
#832=AXIS2_PLACEMENT_3D('',#1202,#958,#959);
#833=AXIS2_PLACEMENT_3D('',#1204,#960,#961);
#834=AXIS2_PLACEMENT_3D('',#1206,#962,#963);
#835=AXIS2_PLACEMENT_3D('',#1207,#964,#965);
#836=AXIS2_PLACEMENT_3D('',#1209,#966,#967);
#837=AXIS2_PLACEMENT_3D('',#1211,#968,#969);
#838=AXIS2_PLACEMENT_3D('',#1212,#970,#971);
#839=AXIS2_PLACEMENT_3D('',#1214,#972,#973);
#840=AXIS2_PLACEMENT_3D('',#1216,#974,#975);
#841=AXIS2_PLACEMENT_3D('',#1217,#976,#977);
#842=AXIS2_PLACEMENT_3D('',#1219,#978,#979);
#843=AXIS2_PLACEMENT_3D('',#1221,#980,#981);
#844=AXIS2_PLACEMENT_3D('',#1222,#982,#983);
#845=AXIS2_PLACEMENT_3D('',#1224,#984,#985);
#846=AXIS2_PLACEMENT_3D('',#1226,#986,#987);
#847=AXIS2_PLACEMENT_3D('',#1227,#988,#989);
#848=AXIS2_PLACEMENT_3D('',#1229,#990,#991);
#849=AXIS2_PLACEMENT_3D('',#1231,#992,#993);
#850=AXIS2_PLACEMENT_3D('',#1232,#994,#995);
#851=AXIS2_PLACEMENT_3D('',#1234,#996,#997);
#852=AXIS2_PLACEMENT_3D('',#1236,#998,#999);
#853=AXIS2_PLACEMENT_3D('',#1237,#1000,#1001);
#854=AXIS2_PLACEMENT_3D('',#1239,#1002,#1003);
#855=AXIS2_PLACEMENT_3D('',#1241,#1004,#1005);
#856=AXIS2_PLACEMENT_3D('',#1242,#1006,#1007);
#857=AXIS2_PLACEMENT_3D('',#1244,#1008,#1009);
#858=AXIS2_PLACEMENT_3D('',#1245,#1010,#1011);
#859=AXIS2_PLACEMENT_3D('',#1246,#1012,#1013);
#860=AXIS2_PLACEMENT_3D('',#1248,#1014,#1015);
#861=AXIS2_PLACEMENT_3D('',#1249,#1016,#1017);
#862=AXIS2_PLACEMENT_3D('',#1255,#1021,#1022);
#863=AXIS2_PLACEMENT_3D('',#1259,#1025,#1026);
#864=AXIS2_PLACEMENT_3D('',#1263,#1029,#1030);
#865=AXIS2_PLACEMENT_3D('',#1267,#1033,#1034);
#866=AXIS2_PLACEMENT_3D('',#1271,#1037,#1038);
#867=AXIS2_PLACEMENT_3D('',#1275,#1041,#1042);
#868=AXIS2_PLACEMENT_3D('',#1279,#1045,#1046);
#869=AXIS2_PLACEMENT_3D('',#1283,#1049,#1050);
#870=AXIS2_PLACEMENT_3D('',#1287,#1053,#1054);
#871=AXIS2_PLACEMENT_3D('',#1291,#1057,#1058);
#872=AXIS2_PLACEMENT_3D('',#1295,#1061,#1062);
#873=AXIS2_PLACEMENT_3D('',#1301,#1066,#1067);
#874=AXIS2_PLACEMENT_3D('',#1302,#1068,#1069);
#875=AXIS2_PLACEMENT_3D('',#1306,#1072,#1073);
#876=AXIS2_PLACEMENT_3D('',#1307,#1074,#1075);
#877=AXIS2_PLACEMENT_3D('',#1311,#1078,#1079);
#878=AXIS2_PLACEMENT_3D('',#1312,#1080,#1081);
#879=AXIS2_PLACEMENT_3D('',#1313,#1082,#1083);
#880=AXIS2_PLACEMENT_3D('',#1315,#1085,#1086);
#881=AXIS2_PLACEMENT_3D('',#1317,#1088,#1089);
#882=AXIS2_PLACEMENT_3D('',#1326,#1094,#1095);
#883=AXIS2_PLACEMENT_3D('',#1327,#1096,#1097);
#884=AXIS2_PLACEMENT_3D('',#1328,#1098,#1099);
#885=AXIS2_PLACEMENT_3D('',#1329,#1100,#1101);
#886=AXIS2_PLACEMENT_3D('',#1330,#1102,#1103);
#887=AXIS2_PLACEMENT_3D('',#1331,#1104,#1105);
#888=AXIS2_PLACEMENT_3D('',#1332,#1106,#1107);
#889=AXIS2_PLACEMENT_3D('',#1333,#1108,#1109);
#890=AXIS2_PLACEMENT_3D('',#1334,#1110,#1111);
#891=AXIS2_PLACEMENT_3D('',#1335,#1112,#1113);
#892=AXIS2_PLACEMENT_3D('',#1337,#1114,#1115);
#893=AXIS2_PLACEMENT_3D('',#1338,#1116,#1117);
#894=AXIS2_PLACEMENT_3D('',#1339,#1118,#1119);
#895=AXIS2_PLACEMENT_3D('',#1341,#1120,#1121);
#896=AXIS2_PLACEMENT_3D('',#1342,#1122,#1123);
#897=AXIS2_PLACEMENT_3D('',#1343,#1124,#1125);
#898=AXIS2_PLACEMENT_3D('',#1345,#1126,#1127);
#899=AXIS2_PLACEMENT_3D('',#1346,#1128,#1129);
#900=AXIS2_PLACEMENT_3D('',#1347,#1130,#1131);
#901=AXIS2_PLACEMENT_3D('',#1349,#1132,#1133);
#902=DIRECTION('',(0.,0.,1.));
#903=DIRECTION('',(1.,0.,0.));
#904=DIRECTION('',(0.,-1.,0.));
#905=DIRECTION('',(0.,0.,-1.));
#906=DIRECTION('',(0.,-1.,0.));
#907=DIRECTION('',(0.,0.,-1.));
#908=DIRECTION('',(0.,1.,0.));
#909=DIRECTION('',(0.,0.,1.));
#910=DIRECTION('',(0.,-1.,0.));
#911=DIRECTION('',(0.,0.,-1.));
#912=DIRECTION('',(0.,-1.,0.));
#913=DIRECTION('',(0.,0.,-1.));
#914=DIRECTION('',(0.,1.,0.));
#915=DIRECTION('',(0.,0.,1.));
#916=DIRECTION('',(0.,-1.,0.));
#917=DIRECTION('',(0.,0.,-1.));
#918=DIRECTION('',(0.,-1.,0.));
#919=DIRECTION('',(0.,0.,-1.));
#920=DIRECTION('',(0.,-1.,0.));
#921=DIRECTION('',(0.,0.,-1.));
#922=DIRECTION('',(0.,-1.,0.));
#923=DIRECTION('',(0.,0.,-1.));
#924=DIRECTION('',(0.,-1.,0.));
#925=DIRECTION('',(0.,0.,-1.));
#926=DIRECTION('',(0.,-1.,0.));
#927=DIRECTION('',(0.,0.,-1.));
#928=DIRECTION('',(0.,0.,1.));
#929=DIRECTION('',(1.,0.,0.));
#930=DIRECTION('',(0.,0.,1.));
#931=DIRECTION('',(1.,0.,0.));
#932=DIRECTION('',(-1.,0.,0.));
#933=DIRECTION('',(-1.90106682298828E-16,-1.,0.));
#934=DIRECTION('',(-1.,0.,0.));
#935=DIRECTION('',(-1.,0.,0.));
#936=DIRECTION('',(-1.,0.,0.));
#937=DIRECTION('',(-1.90106682298828E-16,-1.,0.));
#938=DIRECTION('',(-1.,0.,0.));
#939=DIRECTION('',(-1.,0.,0.));
#940=DIRECTION('',(0.,0.,1.));
#941=DIRECTION('',(1.,0.,0.));
#942=DIRECTION('',(0.,0.,1.));
#943=DIRECTION('',(1.,0.,0.));
#944=DIRECTION('',(0.,1.,0.));
#945=DIRECTION('',(-1.,0.,0.));
#946=DIRECTION('',(-3.06127672231202E-16,-1.,0.));
#947=DIRECTION('',(-1.,0.,0.));
#948=DIRECTION('',(0.,-1.,0.));
#949=DIRECTION('',(1.,0.,0.));
#950=DIRECTION('',(0.,-1.,0.));
#951=DIRECTION('',(-1.,0.,0.));
#952=DIRECTION('',(3.06127672231202E-16,-1.,0.));
#953=DIRECTION('',(-1.,0.,0.));
#954=DIRECTION('',(0.,1.,0.));
#955=DIRECTION('',(1.,0.,0.));
#956=DIRECTION('',(0.,0.,-1.));
#957=DIRECTION('',(-1.,0.,0.));
#958=DIRECTION('',(0.,0.,1.));
#959=DIRECTION('',(1.,0.,0.));
#960=DIRECTION('',(0.,0.,1.));
#961=DIRECTION('',(1.,0.,0.));
#962=DIRECTION('',(0.,0.,-1.));
#963=DIRECTION('',(-1.,0.,0.));
#964=DIRECTION('',(0.,0.,1.));
#965=DIRECTION('',(1.,0.,0.));
#966=DIRECTION('',(0.,0.,1.));
#967=DIRECTION('',(1.,0.,0.));
#968=DIRECTION('',(0.,0.,-1.));
#969=DIRECTION('',(-1.,0.,0.));
#970=DIRECTION('',(0.,0.,1.));
#971=DIRECTION('',(1.,0.,0.));
#972=DIRECTION('',(0.,0.,1.));
#973=DIRECTION('',(1.,0.,0.));
#974=DIRECTION('',(0.,0.,-1.));
#975=DIRECTION('',(-1.,0.,0.));
#976=DIRECTION('',(0.,0.,1.));
#977=DIRECTION('',(1.,0.,0.));
#978=DIRECTION('',(0.,0.,1.));
#979=DIRECTION('',(1.,0.,0.));
#980=DIRECTION('',(0.,0.,-1.));
#981=DIRECTION('',(-1.,0.,0.));
#982=DIRECTION('',(0.,0.,1.));
#983=DIRECTION('',(1.,0.,0.));
#984=DIRECTION('',(0.,0.,1.));
#985=DIRECTION('',(1.,0.,0.));
#986=DIRECTION('',(0.,0.,-1.));
#987=DIRECTION('',(-1.,0.,0.));
#988=DIRECTION('',(0.,0.,1.));
#989=DIRECTION('',(1.,0.,0.));
#990=DIRECTION('',(0.,0.,1.));
#991=DIRECTION('',(1.,0.,0.));
#992=DIRECTION('',(0.,0.,-1.));
#993=DIRECTION('',(-1.,0.,0.));
#994=DIRECTION('',(0.,0.,1.));
#995=DIRECTION('',(1.,0.,0.));
#996=DIRECTION('',(0.,0.,1.));
#997=DIRECTION('',(1.,0.,0.));
#998=DIRECTION('',(0.,0.,-1.));
#999=DIRECTION('',(-1.,0.,0.));
#1000=DIRECTION('',(0.,0.,1.));
#1001=DIRECTION('',(1.,0.,0.));
#1002=DIRECTION('',(0.,0.,1.));
#1003=DIRECTION('',(1.,0.,0.));
#1004=DIRECTION('',(0.,0.,-1.));
#1005=DIRECTION('',(-1.,0.,0.));
#1006=DIRECTION('',(0.,0.,1.));
#1007=DIRECTION('',(1.,0.,0.));
#1008=DIRECTION('',(0.,0.,1.));
#1009=DIRECTION('',(1.,0.,0.));
#1010=DIRECTION('',(0.,0.,1.));
#1011=DIRECTION('',(1.,0.,0.));
#1012=DIRECTION('',(0.,0.,1.));
#1013=DIRECTION('',(1.,0.,0.));
#1014=DIRECTION('',(0.,0.,1.));
#1015=DIRECTION('',(1.,0.,0.));
#1016=DIRECTION('',(0.,-1.,0.));
#1017=DIRECTION('',(0.,0.,-1.));
#1018=DIRECTION('',(0.,0.,-1.));
#1019=DIRECTION('',(-1.,0.,0.));
#1020=DIRECTION('',(0.,0.,-1.));
#1021=DIRECTION('',(-1.,0.,0.));
#1022=DIRECTION('',(0.,0.,1.));
#1023=DIRECTION('',(0.,0.,-1.));
#1024=DIRECTION('',(0.,1.,0.));
#1025=DIRECTION('',(0.,1.,0.));
#1026=DIRECTION('',(0.,0.,1.));
#1027=DIRECTION('',(0.,0.,-1.));
#1028=DIRECTION('',(1.,0.,0.));
#1029=DIRECTION('',(-1.,0.,0.));
#1030=DIRECTION('',(0.,0.,1.));
#1031=DIRECTION('',(0.,0.,-1.));
#1032=DIRECTION('',(0.,1.,0.));
#1033=DIRECTION('',(0.,-1.,0.));
#1034=DIRECTION('',(0.,0.,-1.));
#1035=DIRECTION('',(0.,0.,-1.));
#1036=DIRECTION('',(-1.,0.,0.));
#1037=DIRECTION('',(1.,3.06127672231202E-16,0.));
#1038=DIRECTION('',(-3.06127672231202E-16,1.,0.));
#1039=DIRECTION('',(0.,0.,-1.));
#1040=DIRECTION('',(3.06127672231202E-16,-1.,0.));
#1041=DIRECTION('',(0.,-1.,0.));
#1042=DIRECTION('',(0.,0.,-1.));
#1043=DIRECTION('',(0.,0.,-1.));
#1044=DIRECTION('',(-1.,0.,0.));
#1045=DIRECTION('',(1.,0.,0.));
#1046=DIRECTION('',(0.,0.,-1.));
#1047=DIRECTION('',(0.,0.,-1.));
#1048=DIRECTION('',(0.,-1.,0.));
#1049=DIRECTION('',(0.,1.,0.));
#1050=DIRECTION('',(0.,0.,1.));
#1051=DIRECTION('',(0.,0.,-1.));
#1052=DIRECTION('',(1.,0.,0.));
#1053=DIRECTION('',(1.,0.,0.));
#1054=DIRECTION('',(0.,0.,-1.));
#1055=DIRECTION('',(0.,0.,-1.));
#1056=DIRECTION('',(0.,-1.,0.));
#1057=DIRECTION('',(0.,-1.,0.));
#1058=DIRECTION('',(0.,0.,-1.));
#1059=DIRECTION('',(0.,0.,-1.));
#1060=DIRECTION('',(-1.,0.,0.));
#1061=DIRECTION('',(1.,-1.90106682298828E-16,0.));
#1062=DIRECTION('',(1.90106682298828E-16,1.,0.));
#1063=DIRECTION('',(0.,0.,-1.));
#1064=DIRECTION('',(-1.90106682298828E-16,-1.,0.));
#1065=DIRECTION('',(0.,0.,-1.));
#1066=DIRECTION('',(0.,-1.,0.));
#1067=DIRECTION('',(0.,0.,-1.));
#1068=DIRECTION('',(0.,1.,0.));
#1069=DIRECTION('',(0.,0.,1.));
#1070=DIRECTION('',(0.,0.,-1.));
#1071=DIRECTION('',(-1.,0.,0.));
#1072=DIRECTION('',(0.,1.,0.));
#1073=DIRECTION('',(0.,0.,1.));
#1074=DIRECTION('',(1.,-1.90106682298828E-16,0.));
#1075=DIRECTION('',(1.90106682298828E-16,1.,0.));
#1076=DIRECTION('',(0.,0.,-1.));
#1077=DIRECTION('',(-1.90106682298828E-16,-1.,0.));
#1078=DIRECTION('',(0.,-1.,0.));
#1079=DIRECTION('',(0.,0.,-1.));
#1080=DIRECTION('',(0.,-1.,0.));
#1081=DIRECTION('',(0.,0.,-1.));
#1082=DIRECTION('',(0.,-1.,0.));
#1083=DIRECTION('',(0.,0.,-1.));
#1084=DIRECTION('',(-1.,0.,0.));
#1085=DIRECTION('',(1.,-3.06127672231202E-16,0.));
#1086=DIRECTION('',(3.06127672231202E-16,1.,0.));
#1087=DIRECTION('',(-3.06127672231202E-16,-1.,0.));
#1088=DIRECTION('',(0.,0.,1.));
#1089=DIRECTION('',(1.,0.,0.));
#1090=DIRECTION('',(-1.,0.,0.));
#1091=DIRECTION('',(-1.90106682298828E-16,-1.,0.));
#1092=DIRECTION('',(-1.,0.,0.));
#1093=DIRECTION('',(-1.90106682298828E-16,-1.,0.));
#1094=DIRECTION('',(-1.,0.,0.));
#1095=DIRECTION('',(0.,0.,1.));
#1096=DIRECTION('',(-0.707106781186548,0.707106781186548,0.));
#1097=DIRECTION('',(0.707106781186548,0.707106781186548,0.));
#1098=DIRECTION('',(-0.707106781186548,-0.707106781186548,0.));
#1099=DIRECTION('',(0.707106781186548,-0.707106781186548,0.));
#1100=DIRECTION('',(-1.90106682298828E-16,-1.,0.));
#1101=DIRECTION('',(1.,-1.90106682298828E-16,0.));
#1102=DIRECTION('',(0.707106781186548,-0.707106781186548,0.));
#1103=DIRECTION('',(-0.707106781186548,-0.707106781186548,0.));
#1104=DIRECTION('',(1.90106682298828E-16,1.,0.));
#1105=DIRECTION('',(-1.,1.90106682298828E-16,0.));
#1106=DIRECTION('',(0.707106781186548,0.707106781186548,0.));
#1107=DIRECTION('',(-0.707106781186548,0.707106781186548,0.));
#1108=DIRECTION('',(1.,0.,0.));
#1109=DIRECTION('',(0.,0.,-1.));
#1110=DIRECTION('',(0.,-1.,0.));
#1111=DIRECTION('',(1.,0.,0.));
#1112=DIRECTION('',(0.,-1.,0.));
#1113=DIRECTION('',(0.,0.,-1.));
#1114=DIRECTION('',(0.,-1.,0.));
#1115=DIRECTION('',(0.,0.,-1.));
#1116=DIRECTION('',(0.,-1.,0.));
#1117=DIRECTION('',(1.,0.,0.));
#1118=DIRECTION('',(0.,-1.,0.));
#1119=DIRECTION('',(0.,0.,-1.));
#1120=DIRECTION('',(0.,-1.,0.));
#1121=DIRECTION('',(0.,0.,-1.));
#1122=DIRECTION('',(0.,1.,0.));
#1123=DIRECTION('',(-1.,0.,0.));
#1124=DIRECTION('',(0.,1.,0.));
#1125=DIRECTION('',(0.,0.,1.));
#1126=DIRECTION('',(0.,1.,0.));
#1127=DIRECTION('',(0.,0.,1.));
#1128=DIRECTION('',(0.,1.,0.));
#1129=DIRECTION('',(-1.,0.,0.));
#1130=DIRECTION('',(0.,1.,0.));
#1131=DIRECTION('',(0.,0.,1.));
#1132=DIRECTION('',(0.,1.,0.));
#1133=DIRECTION('',(0.,0.,1.));
#1134=CARTESIAN_POINT('',(0.,0.,0.));
#1135=CARTESIAN_POINT('',(0.01025,0.0635,0.0042));
#1136=CARTESIAN_POINT('',(0.01025,0.034,0.0042));
#1137=CARTESIAN_POINT('',(0.01025,0.034,0.0032));
#1138=CARTESIAN_POINT('',(0.01025,0.0355,0.0042));
#1139=CARTESIAN_POINT('',(0.01025,0.0355,0.0052));
#1140=CARTESIAN_POINT('',(-0.01025,0.0635,0.0042));
#1141=CARTESIAN_POINT('',(-0.01025,0.034,0.0042));
#1142=CARTESIAN_POINT('',(-0.01025,0.034,0.0032));
#1143=CARTESIAN_POINT('',(-0.01025,0.0355,0.0042));
#1144=CARTESIAN_POINT('',(-0.01025,0.0355,0.0052));
#1145=CARTESIAN_POINT('',(0.01025,0.0635,0.0042));
#1146=CARTESIAN_POINT('',(0.01025,-0.034,0.0042));
#1147=CARTESIAN_POINT('',(0.01025,-0.034,0.0032));
#1148=CARTESIAN_POINT('',(0.01025,-0.0355,0.0042));
#1149=CARTESIAN_POINT('',(0.01025,-0.0355,0.0032));
#1150=CARTESIAN_POINT('',(-0.01025,0.0635,0.0042));
#1151=CARTESIAN_POINT('',(-0.01025,-0.034,0.0042));
#1152=CARTESIAN_POINT('',(-0.01025,-0.034,0.0032));
#1153=CARTESIAN_POINT('',(-0.01025,-0.0355,0.0042));
#1154=CARTESIAN_POINT('',(-0.01025,-0.0355,0.0032));
#1155=CARTESIAN_POINT('',(0.,0.,0.0022));
#1156=CARTESIAN_POINT('',(0.,2.6636067881455E-18,0.0022));
#1157=CARTESIAN_POINT('',(0.0435,2.6636067881455E-18,0.0022));
#1158=CARTESIAN_POINT('',(6.93889390390723E-18,0.0365,0.0022));
#1159=CARTESIAN_POINT('',(0.01475,0.0365,0.0022));
#1160=CARTESIAN_POINT('',(0.01025,0.0365,0.0022));
#1161=CARTESIAN_POINT('',(0.01475,0.,0.0022));
#1162=CARTESIAN_POINT('',(0.01475,-0.0365,0.0022));
#1163=CARTESIAN_POINT('',(-5.20417042793042E-18,-0.0365,0.0022));
#1164=CARTESIAN_POINT('',(0.01025,-0.0365,0.0022));
#1165=CARTESIAN_POINT('',(-5.20417042793042E-18,-0.0365,0.0022));
#1166=CARTESIAN_POINT('',(-0.01025,-0.0365,0.0022));
#1167=CARTESIAN_POINT('',(-5.20417042793042E-18,-0.0365,0.0022));
#1168=CARTESIAN_POINT('',(-0.01475,-0.0365,0.0022));
#1169=CARTESIAN_POINT('',(-0.01475,0.,0.0022));
#1170=CARTESIAN_POINT('',(-0.01475,0.0365,0.0022));
#1171=CARTESIAN_POINT('',(6.93889390390723E-18,0.0365,0.0022));
#1172=CARTESIAN_POINT('',(-0.01025,0.0365,0.0022));
#1173=CARTESIAN_POINT('',(6.93889390390723E-18,0.0365,0.0022));
#1174=CARTESIAN_POINT('',(0.,0.,0.0022));
#1175=CARTESIAN_POINT('',(0.,6.12323399573677E-19,0.0022));
#1176=CARTESIAN_POINT('',(0.01,6.12323399573677E-19,0.0022));
#1177=CARTESIAN_POINT('',(-0.00725,0.0345,0.0022));
#1178=CARTESIAN_POINT('',(-0.00725,0.034,0.0022));
#1179=CARTESIAN_POINT('',(-0.00725,0.035,0.0022));
#1180=CARTESIAN_POINT('',(-0.009875,0.034,0.0022));
#1181=CARTESIAN_POINT('',(-0.0125,0.034,0.0022));
#1182=CARTESIAN_POINT('',(-0.0125,6.93889390390723E-18,0.0022));
#1183=CARTESIAN_POINT('',(-0.0125,-0.034,0.0022));
#1184=CARTESIAN_POINT('',(-0.009875,-0.034,0.0022));
#1185=CARTESIAN_POINT('',(-0.00725,-0.034,0.0022));
#1186=CARTESIAN_POINT('',(-0.00725,-0.0345,0.0022));
#1187=CARTESIAN_POINT('',(-0.00725,-0.035,0.0022));
#1188=CARTESIAN_POINT('',(-8.67361737988404E-19,-0.035,0.0022));
#1189=CARTESIAN_POINT('',(0.00725,-0.035,0.0022));
#1190=CARTESIAN_POINT('',(0.00725,-0.0345,0.0022));
#1191=CARTESIAN_POINT('',(0.00725,-0.034,0.0022));
#1192=CARTESIAN_POINT('',(0.009875,-0.034,0.0022));
#1193=CARTESIAN_POINT('',(0.0125,-0.034,0.0022));
#1194=CARTESIAN_POINT('',(0.0125,6.93889390390723E-18,0.0022));
#1195=CARTESIAN_POINT('',(0.0125,0.034,0.0022));
#1196=CARTESIAN_POINT('',(0.009875,0.034,0.0022));
#1197=CARTESIAN_POINT('',(0.00725,0.034,0.0022));
#1198=CARTESIAN_POINT('',(0.00725,0.0345,0.0022));
#1199=CARTESIAN_POINT('',(0.00725,0.035,0.0022));
#1200=CARTESIAN_POINT('',(-8.67361737988404E-19,0.035,0.0022));
#1201=CARTESIAN_POINT('',(-7.96579922051629E-19,-0.007,0.0022));
#1202=CARTESIAN_POINT('',(-7.96579922051629E-19,-0.007,0.));
#1203=CARTESIAN_POINT('',(0.000999999999999999,-0.007,0.));
#1204=CARTESIAN_POINT('',(-7.96579922051629E-19,-0.007,0.001));
#1205=CARTESIAN_POINT('',(0.000999999999999999,-0.007,0.001));
#1206=CARTESIAN_POINT('',(0.00494974746830583,-0.00494974746830583,0.0022));
#1207=CARTESIAN_POINT('',(0.00494974746830583,-0.00494974746830583,0.));
#1208=CARTESIAN_POINT('',(0.00594974746830583,-0.00494974746830583,0.));
#1209=CARTESIAN_POINT('',(0.00494974746830583,-0.00494974746830583,0.001));
#1210=CARTESIAN_POINT('',(0.00594974746830583,-0.00494974746830583,0.001));
#1211=CARTESIAN_POINT('',(0.007,1.21972744404619E-18,0.0022));
#1212=CARTESIAN_POINT('',(0.007,1.21972744404619E-18,0.));
#1213=CARTESIAN_POINT('',(0.008,1.21972744404619E-18,0.));
#1214=CARTESIAN_POINT('',(0.007,1.21972744404619E-18,0.001));
#1215=CARTESIAN_POINT('',(0.008,1.21972744404619E-18,0.001));
#1216=CARTESIAN_POINT('',(0.00494974746830583,0.00494974746830583,0.0022));
#1217=CARTESIAN_POINT('',(0.00494974746830583,0.00494974746830583,0.));
#1218=CARTESIAN_POINT('',(0.00594974746830583,0.00494974746830583,0.));
#1219=CARTESIAN_POINT('',(0.00494974746830583,0.00494974746830583,0.001));
#1220=CARTESIAN_POINT('',(0.00594974746830583,0.00494974746830583,0.001));
#1221=CARTESIAN_POINT('',(1.11931332915097E-19,0.007,0.0022));
#1222=CARTESIAN_POINT('',(1.11931332915097E-19,0.007,0.));
#1223=CARTESIAN_POINT('',(0.001,0.007,0.));
#1224=CARTESIAN_POINT('',(1.11931332915097E-19,0.007,0.001));
#1225=CARTESIAN_POINT('',(0.001,0.007,0.001));
#1226=CARTESIAN_POINT('',(-0.00494974746830583,0.00494974746830583,0.0022));
#1227=CARTESIAN_POINT('',(-0.00494974746830583,0.00494974746830583,0.));
#1228=CARTESIAN_POINT('',(-0.00394974746830583,0.00494974746830583,0.));
#1229=CARTESIAN_POINT('',(-0.00494974746830583,0.00494974746830583,0.001));
#1230=CARTESIAN_POINT('',(-0.00394974746830583,0.00494974746830583,0.001));
#1231=CARTESIAN_POINT('',(-0.007,1.15442448581643E-19,0.0022));
#1232=CARTESIAN_POINT('',(-0.007,1.15442448581643E-19,0.));
#1233=CARTESIAN_POINT('',(-0.006,1.15442448581643E-19,0.));
#1234=CARTESIAN_POINT('',(-0.007,1.15442448581643E-19,0.001));
#1235=CARTESIAN_POINT('',(-0.006,1.15442448581643E-19,0.001));
#1236=CARTESIAN_POINT('',(-0.00494974746830583,-0.00494974746830583,0.0022));
#1237=CARTESIAN_POINT('',(-0.00494974746830583,-0.00494974746830583,0.));
#1238=CARTESIAN_POINT('',(-0.00394974746830583,-0.00494974746830583,0.));
#1239=CARTESIAN_POINT('',(-0.00494974746830583,-0.00494974746830583,0.001));
#1240=CARTESIAN_POINT('',(-0.00394974746830583,-0.00494974746830583,0.001));
#1241=CARTESIAN_POINT('',(0.,2.6636067881455E-18,0.0022));
#1242=CARTESIAN_POINT('',(0.,2.6636067881455E-18,0.));
#1243=CARTESIAN_POINT('',(0.0435,2.6636067881455E-18,0.));
#1244=CARTESIAN_POINT('',(0.,0.,0.));
#1245=CARTESIAN_POINT('',(0.,6.12323399573677E-19,0.001));
#1246=CARTESIAN_POINT('',(0.,6.12323399573677E-19,0.001));
#1247=CARTESIAN_POINT('',(0.01,6.12323399573677E-19,0.001));
#1248=CARTESIAN_POINT('',(0.,0.,0.001));
#1249=CARTESIAN_POINT('',(-0.009875,0.034,0.0122));
#1250=CARTESIAN_POINT('',(-0.00725,0.034,0.0122));
#1251=CARTESIAN_POINT('',(-0.00725,0.034,0.0122));
#1252=CARTESIAN_POINT('',(-0.009875,0.034,0.0122));
#1253=CARTESIAN_POINT('',(-0.0125,0.034,0.0122));
#1254=CARTESIAN_POINT('',(-0.0125,0.034,0.0122));
#1255=CARTESIAN_POINT('',(-0.00725,0.0345,0.0122));
#1256=CARTESIAN_POINT('',(-0.00725,0.035,0.0122));
#1257=CARTESIAN_POINT('',(-0.00725,0.035,0.0122));
#1258=CARTESIAN_POINT('',(-0.00725,0.0345,0.0122));
#1259=CARTESIAN_POINT('',(-8.67361737988404E-19,0.035,0.0122));
#1260=CARTESIAN_POINT('',(0.00725,0.035,0.0122));
#1261=CARTESIAN_POINT('',(0.00725,0.035,0.0122));
#1262=CARTESIAN_POINT('',(-8.67361737988404E-19,0.035,0.0122));
#1263=CARTESIAN_POINT('',(0.00725,0.0345,0.0122));
#1264=CARTESIAN_POINT('',(0.00725,0.034,0.0122));
#1265=CARTESIAN_POINT('',(0.00725,0.034,0.0122));
#1266=CARTESIAN_POINT('',(0.00725,0.0345,0.0122));
#1267=CARTESIAN_POINT('',(0.009875,0.034,0.0122));
#1268=CARTESIAN_POINT('',(0.0125,0.034,0.0122));
#1269=CARTESIAN_POINT('',(0.0125,0.034,0.0122));
#1270=CARTESIAN_POINT('',(0.009875,0.034,0.0122));
#1271=CARTESIAN_POINT('',(0.0125,6.93889390390723E-18,0.0122));
#1272=CARTESIAN_POINT('',(0.0125,-0.034,0.0122));
#1273=CARTESIAN_POINT('',(0.0125,-0.034,0.0122));
#1274=CARTESIAN_POINT('',(0.0125,6.93889390390723E-18,0.0122));
#1275=CARTESIAN_POINT('',(0.009875,-0.034,0.0122));
#1276=CARTESIAN_POINT('',(0.00725,-0.034,0.0122));
#1277=CARTESIAN_POINT('',(0.00725,-0.034,0.0122));
#1278=CARTESIAN_POINT('',(0.009875,-0.034,0.0122));
#1279=CARTESIAN_POINT('',(0.00725,-0.0345,0.0122));
#1280=CARTESIAN_POINT('',(0.00725,-0.035,0.0122));
#1281=CARTESIAN_POINT('',(0.00725,-0.035,0.0122));
#1282=CARTESIAN_POINT('',(0.00725,-0.0345,0.0122));
#1283=CARTESIAN_POINT('',(-8.67361737988404E-19,-0.035,0.0122));
#1284=CARTESIAN_POINT('',(-0.00725,-0.035,0.0122));
#1285=CARTESIAN_POINT('',(-0.00725,-0.035,0.0122));
#1286=CARTESIAN_POINT('',(-8.67361737988404E-19,-0.035,0.0122));
#1287=CARTESIAN_POINT('',(-0.00725,-0.0345,0.0122));
#1288=CARTESIAN_POINT('',(-0.00725,-0.034,0.0122));
#1289=CARTESIAN_POINT('',(-0.00725,-0.034,0.0122));
#1290=CARTESIAN_POINT('',(-0.00725,-0.0345,0.0122));
#1291=CARTESIAN_POINT('',(-0.009875,-0.034,0.0122));
#1292=CARTESIAN_POINT('',(-0.0125,-0.034,0.0122));
#1293=CARTESIAN_POINT('',(-0.0125,-0.034,0.0122));
#1294=CARTESIAN_POINT('',(-0.009875,-0.034,0.0122));
#1295=CARTESIAN_POINT('',(0.01475,0.,0.0122));
#1296=CARTESIAN_POINT('',(0.01475,0.0365,0.0122));
#1297=CARTESIAN_POINT('',(0.01475,0.0365,0.0112));
#1298=CARTESIAN_POINT('',(0.01475,0.,0.0112));
#1299=CARTESIAN_POINT('',(0.01475,-0.0365,0.0112));
#1300=CARTESIAN_POINT('',(0.01475,-0.0365,0.0122));
#1301=CARTESIAN_POINT('',(6.93889390390723E-18,0.0365,0.0122));
#1302=CARTESIAN_POINT('',(-0.01025,0.0365,0.0042));
#1303=CARTESIAN_POINT('',(-0.01475,0.0365,0.0122));
#1304=CARTESIAN_POINT('',(-0.01475,0.0365,0.0112));
#1305=CARTESIAN_POINT('',(0.01475,0.0365,0.0112));
#1306=CARTESIAN_POINT('',(0.01025,0.0365,0.0042));
#1307=CARTESIAN_POINT('',(-0.01475,0.,0.0122));
#1308=CARTESIAN_POINT('',(-0.01475,-0.0365,0.0122));
#1309=CARTESIAN_POINT('',(-0.01475,-0.0365,0.0112));
#1310=CARTESIAN_POINT('',(-0.01475,0.0365,0.0112));
#1311=CARTESIAN_POINT('',(-5.20417042793042E-18,-0.0365,0.0122));
#1312=CARTESIAN_POINT('',(-0.01025,-0.0365,0.0042));
#1313=CARTESIAN_POINT('',(0.01025,-0.0365,0.0042));
#1314=CARTESIAN_POINT('',(-5.20417042793042E-18,-0.0365,0.0112));
#1315=CARTESIAN_POINT('',(-0.0125,6.93889390390723E-18,0.0122));
#1316=CARTESIAN_POINT('',(-0.0125,6.93889390390723E-18,0.0122));
#1317=CARTESIAN_POINT('',(0.,0.,0.0122));
#1318=CARTESIAN_POINT('',(-0.01475,0.0355,0.0122));
#1319=CARTESIAN_POINT('',(0.01375,0.0355,0.0122));
#1320=CARTESIAN_POINT('',(-0.01375,0.0355,0.0122));
#1321=CARTESIAN_POINT('',(-0.01375,-0.0365,0.0122));
#1322=CARTESIAN_POINT('',(-0.01375,-0.0355,0.0122));
#1323=CARTESIAN_POINT('',(0.,-0.0355,0.0122));
#1324=CARTESIAN_POINT('',(0.01375,-0.0355,0.0122));
#1325=CARTESIAN_POINT('',(0.01375,-2.61396688160889E-18,0.0122));
#1326=CARTESIAN_POINT('',(-5.20417042793042E-18,-0.0355,0.0112));
#1327=CARTESIAN_POINT('',(-0.01375,-0.0355,0.0112));
#1328=CARTESIAN_POINT('',(0.01375,-0.0355,0.0112));
#1329=CARTESIAN_POINT('',(0.01375,1.90106682298828E-19,0.0112));
#1330=CARTESIAN_POINT('',(0.01375,0.0355,0.0112));
#1331=CARTESIAN_POINT('',(-0.01375,2.61396688160889E-18,0.0112));
#1332=CARTESIAN_POINT('',(-0.01375,0.0355,0.0112));
#1333=CARTESIAN_POINT('',(0.,0.0355,0.0112));
#1334=CARTESIAN_POINT('',(-6.93889390390723E-18,-0.0355,0.0067));
#1335=CARTESIAN_POINT('',(-0.01025,-0.0355,0.0042));
#1336=CARTESIAN_POINT('',(-0.01025,-0.0355,0.0022));
#1337=CARTESIAN_POINT('',(-0.01025,-0.0355,0.0042));
#1338=CARTESIAN_POINT('',(-6.93889390390723E-18,-0.0355,0.0067));
#1339=CARTESIAN_POINT('',(0.01025,-0.0355,0.0042));
#1340=CARTESIAN_POINT('',(0.01025,-0.0355,0.0022));
#1341=CARTESIAN_POINT('',(0.01025,-0.0355,0.0042));
#1342=CARTESIAN_POINT('',(6.93889390390723E-18,0.0355,0.0067));
#1343=CARTESIAN_POINT('',(-0.01025,0.0355,0.0042));
#1344=CARTESIAN_POINT('',(-0.01025,0.0355,0.0062));
#1345=CARTESIAN_POINT('',(-0.01025,0.0355,0.0042));
#1346=CARTESIAN_POINT('',(6.93889390390723E-18,0.0355,0.0067));
#1347=CARTESIAN_POINT('',(0.01025,0.0355,0.0042));
#1348=CARTESIAN_POINT('',(0.01025,0.0355,0.0062));
#1349=CARTESIAN_POINT('',(0.01025,0.0355,0.0042));
#1350=MECHANICAL_DESIGN_GEOMETRIC_PRESENTATION_REPRESENTATION('',(#803),
#1351);
#1351=(
GEOMETRIC_REPRESENTATION_CONTEXT(3)
GLOBAL_UNCERTAINTY_ASSIGNED_CONTEXT((#1352))
GLOBAL_UNIT_ASSIGNED_CONTEXT((#1355,#1354,#1353))
REPRESENTATION_CONTEXT('Part 1','TOP_LEVEL_ASSEMBLY_PART')
);
#1352=UNCERTAINTY_MEASURE_WITH_UNIT(LENGTH_MEASURE(1.E-8),#1355,
'DISTANCE_ACCURACY_VALUE','Maximum Tolerance applied to model');
#1353=(
NAMED_UNIT(*)
SI_UNIT($,.STERADIAN.)
SOLID_ANGLE_UNIT()
);
#1354=(
NAMED_UNIT(*)
PLANE_ANGLE_UNIT()
SI_UNIT($,.RADIAN.)
);
#1355=(
LENGTH_UNIT()
NAMED_UNIT(*)
SI_UNIT($,.METRE.)
);
#1356=PRODUCT_DEFINITION_SHAPE('','',#1357);
#1357=PRODUCT_DEFINITION('','',#1359,#1358);
#1358=PRODUCT_DEFINITION_CONTEXT('',#1365,'design');
#1359=PRODUCT_DEFINITION_FORMATION_WITH_SPECIFIED_SOURCE('','',#1361,
 .NOT_KNOWN.);
#1360=PRODUCT_RELATED_PRODUCT_CATEGORY('','',(#1361));
#1361=PRODUCT('Part 1','Part 1','Part 1',(#1363));
#1362=PRODUCT_CATEGORY('','');
#1363=PRODUCT_CONTEXT('',#1365,'mechanical');
#1364=APPLICATION_PROTOCOL_DEFINITION('international standard',
'ap242_managed_model_based_3d_engineering',2020,#1365);
#1365=APPLICATION_CONTEXT('managed model based 3d engineering');
ENDSEC;
END-ISO-10303-21;
