ISO-10303-21;
HEADER;
/* Generated by software containing ST-Developer
 * from STEP Tools, Inc. (www.steptools.com) 
 */
/* OPTION: using custom renumber hook */

FILE_DESCRIPTION(
/* description */ ('STEP AP242 Edition 2',
'CAx-IF Rec.Pracs.---Representation and Presentation of Product Manufa
cturing Information (PMI)---4.0---2014-10-13',
'CAx-IF Rec.Pracs.---3D Tessellated Geometry---0.4---2014-09-14','2;1',
'CAx-IF Rec.Pracs.---User Defined Attributes---1.5---2016-08-15'),
/* implementation_level */ '2;1');

FILE_NAME(
/* name */ 'Mounting Bracket',
/* time_stamp */ '2026-08-02T02:26:03Z',
/* author */ (''),
/* organization */ (''),
/* preprocessor_version */ 'ST-DEVELOPER v20',
/* originating_system */ 'ONSHAPE BY PTC INC, 1.218',
/* authorisation */ '  ');

FILE_SCHEMA (('AP242_MANAGED_MODEL_BASED_3D_ENGINEERING_MIM_LF { 1 0 10303 442 3 1 4 }'));
ENDSEC;

DATA;
#10=SHAPE_REPRESENTATION_RELATIONSHIP('','',#965,#11);
#11=ADVANCED_BREP_SHAPE_REPRESENTATION('',(#963),#1597);
#12=LINE('',#1353,#96);
#13=LINE('',#1356,#97);
#14=LINE('',#1358,#98);
#15=LINE('',#1360,#99);
#16=LINE('',#1364,#100);
#17=LINE('',#1366,#101);
#18=LINE('',#1368,#102);
#19=LINE('',#1371,#103);
#20=LINE('',#1373,#104);
#21=LINE('',#1375,#105);
#22=LINE('',#1377,#106);
#23=LINE('',#1380,#107);
#24=LINE('',#1382,#108);
#25=LINE('',#1384,#109);
#26=LINE('',#1386,#110);
#27=LINE('',#1388,#111);
#28=LINE('',#1398,#112);
#29=LINE('',#1401,#113);
#30=LINE('',#1403,#114);
#31=LINE('',#1406,#115);
#32=LINE('',#1410,#116);
#33=LINE('',#1414,#117);
#34=LINE('',#1418,#118);
#35=LINE('',#1420,#119);
#36=LINE('',#1424,#120);
#37=LINE('',#1426,#121);
#38=LINE('',#1428,#122);
#39=LINE('',#1430,#123);
#40=LINE('',#1434,#124);
#41=LINE('',#1438,#125);
#42=LINE('',#1440,#126);
#43=LINE('',#1442,#127);
#44=LINE('',#1444,#128);
#45=LINE('',#1446,#129);
#46=LINE('',#1448,#130);
#47=LINE('',#1450,#131);
#48=LINE('',#1452,#132);
#49=LINE('',#1454,#133);
#50=LINE('',#1466,#134);
#51=LINE('',#1467,#135);
#52=LINE('',#1473,#136);
#53=LINE('',#1474,#137);
#54=LINE('',#1477,#138);
#55=LINE('',#1479,#139);
#56=LINE('',#1481,#140);
#57=LINE('',#1485,#141);
#58=LINE('',#1486,#142);
#59=LINE('',#1493,#143);
#60=LINE('',#1494,#144);
#61=LINE('',#1497,#145);
#62=LINE('',#1500,#146);
#63=LINE('',#1503,#147);
#64=LINE('',#1504,#148);
#65=LINE('',#1506,#149);
#66=LINE('',#1508,#150);
#67=LINE('',#1511,#151);
#68=LINE('',#1513,#152);
#69=LINE('',#1515,#153);
#70=LINE('',#1517,#154);
#71=LINE('',#1520,#155);
#72=LINE('',#1522,#156);
#73=LINE('',#1523,#157);
#74=LINE('',#1525,#158);
#75=LINE('',#1527,#159);
#76=LINE('',#1529,#160);
#77=LINE('',#1531,#161);
#78=LINE('',#1533,#162);
#79=LINE('',#1535,#163);
#80=LINE('',#1537,#164);
#81=LINE('',#1539,#165);
#82=LINE('',#1543,#166);
#83=LINE('',#1545,#167);
#84=LINE('',#1547,#168);
#85=LINE('',#1548,#169);
#86=LINE('',#1550,#170);
#87=LINE('',#1552,#171);
#88=LINE('',#1554,#172);
#89=LINE('',#1556,#173);
#90=LINE('',#1559,#174);
#91=LINE('',#1560,#175);
#92=LINE('',#1562,#176);
#93=LINE('',#1565,#177);
#94=LINE('',#1576,#178);
#95=LINE('',#1578,#179);
#96=VECTOR('',#1089,1.);
#97=VECTOR('',#1090,1.);
#98=VECTOR('',#1091,1.);
#99=VECTOR('',#1092,1.);
#100=VECTOR('',#1095,1.);
#101=VECTOR('',#1096,1.);
#102=VECTOR('',#1099,1.);
#103=VECTOR('',#1100,1.);
#104=VECTOR('',#1101,1.);
#105=VECTOR('',#1102,1.);
#106=VECTOR('',#1105,1.);
#107=VECTOR('',#1106,1.);
#108=VECTOR('',#1107,1.);
#109=VECTOR('',#1108,1.);
#110=VECTOR('',#1109,1.);
#111=VECTOR('',#1110,1.);
#112=VECTOR('',#1121,1.);
#113=VECTOR('',#1122,1.);
#114=VECTOR('',#1123,1.);
#115=VECTOR('',#1126,1.);
#116=VECTOR('',#1129,1.);
#117=VECTOR('',#1132,1.);
#118=VECTOR('',#1135,1.);
#119=VECTOR('',#1138,1.);
#120=VECTOR('',#1141,1.);
#121=VECTOR('',#1142,1.);
#122=VECTOR('',#1143,1.);
#123=VECTOR('',#1144,1.);
#124=VECTOR('',#1147,1.);
#125=VECTOR('',#1150,1.);
#126=VECTOR('',#1151,1.);
#127=VECTOR('',#1152,1.);
#128=VECTOR('',#1153,1.);
#129=VECTOR('',#1154,1.);
#130=VECTOR('',#1155,1.);
#131=VECTOR('',#1156,1.);
#132=VECTOR('',#1157,1.);
#133=VECTOR('',#1158,1.);
#134=VECTOR('',#1171,1.);
#135=VECTOR('',#1172,1.);
#136=VECTOR('',#1179,1.);
#137=VECTOR('',#1180,1.);
#138=VECTOR('',#1183,1.);
#139=VECTOR('',#1184,1.);
#140=VECTOR('',#1185,1.);
#141=VECTOR('',#1190,1.);
#142=VECTOR('',#1191,1.);
#143=VECTOR('',#1202,1.);
#144=VECTOR('',#1203,1.);
#145=VECTOR('',#1206,1.);
#146=VECTOR('',#1211,1.);
#147=VECTOR('',#1212,1.);
#148=VECTOR('',#1213,1.);
#149=VECTOR('',#1216,1.);
#150=VECTOR('',#1217,1.);
#151=VECTOR('',#1222,1.);
#152=VECTOR('',#1223,1.);
#153=VECTOR('',#1224,1.);
#154=VECTOR('',#1225,1.);
#155=VECTOR('',#1230,1.);
#156=VECTOR('',#1231,1.);
#157=VECTOR('',#1232,1.);
#158=VECTOR('',#1233,1.);
#159=VECTOR('',#1236,1.);
#160=VECTOR('',#1237,1.);
#161=VECTOR('',#1238,1.);
#162=VECTOR('',#1241,1.);
#163=VECTOR('',#1242,1.);
#164=VECTOR('',#1245,1.);
#165=VECTOR('',#1246,1.);
#166=VECTOR('',#1251,1.);
#167=VECTOR('',#1252,1.);
#168=VECTOR('',#1255,1.);
#169=VECTOR('',#1256,1.);
#170=VECTOR('',#1259,1.);
#171=VECTOR('',#1260,1.);
#172=VECTOR('',#1261,1.);
#173=VECTOR('',#1264,1.);
#174=VECTOR('',#1269,1.);
#175=VECTOR('',#1270,1.);
#176=VECTOR('',#1273,1.);
#177=VECTOR('',#1278,1.);
#178=VECTOR('',#1299,1.);
#179=VECTOR('',#1302,1.);
#180=PLANE('',#979);
#181=PLANE('',#982);
#182=PLANE('',#983);
#183=PLANE('',#984);
#184=PLANE('',#993);
#185=PLANE('',#1002);
#186=PLANE('',#1003);
#187=PLANE('',#1008);
#188=PLANE('',#1012);
#189=PLANE('',#1016);
#190=PLANE('',#1017);
#191=PLANE('',#1018);
#192=PLANE('',#1021);
#193=PLANE('',#1022);
#194=PLANE('',#1023);
#195=PLANE('',#1024);
#196=PLANE('',#1025);
#197=PLANE('',#1027);
#198=PLANE('',#1028);
#199=PLANE('',#1029);
#200=PLANE('',#1031);
#201=PLANE('',#1032);
#202=PLANE('',#1033);
#203=PLANE('',#1034);
#204=PLANE('',#1039);
#205=PLANE('',#1044);
#206=PLANE('',#1045);
#207=PLANE('',#1046);
#208=PLANE('',#1049);
#209=PLANE('',#1052);
#210=PLANE('',#1055);
#211=PLANE('',#1056);
#212=ORIENTED_EDGE('',*,*,#460,.T.);
#213=ORIENTED_EDGE('',*,*,#461,.F.);
#214=ORIENTED_EDGE('',*,*,#462,.T.);
#215=ORIENTED_EDGE('',*,*,#463,.T.);
#216=ORIENTED_EDGE('',*,*,#464,.T.);
#217=ORIENTED_EDGE('',*,*,#465,.T.);
#218=ORIENTED_EDGE('',*,*,#466,.F.);
#219=ORIENTED_EDGE('',*,*,#467,.T.);
#220=ORIENTED_EDGE('',*,*,#468,.F.);
#221=ORIENTED_EDGE('',*,*,#469,.F.);
#222=ORIENTED_EDGE('',*,*,#470,.T.);
#223=ORIENTED_EDGE('',*,*,#471,.T.);
#224=ORIENTED_EDGE('',*,*,#472,.T.);
#225=ORIENTED_EDGE('',*,*,#473,.T.);
#226=ORIENTED_EDGE('',*,*,#474,.T.);
#227=ORIENTED_EDGE('',*,*,#475,.T.);
#228=ORIENTED_EDGE('',*,*,#476,.F.);
#229=ORIENTED_EDGE('',*,*,#477,.T.);
#230=ORIENTED_EDGE('',*,*,#478,.F.);
#231=ORIENTED_EDGE('',*,*,#479,.F.);
#232=ORIENTED_EDGE('',*,*,#480,.T.);
#233=ORIENTED_EDGE('',*,*,#481,.T.);
#234=ORIENTED_EDGE('',*,*,#482,.F.);
#235=ORIENTED_EDGE('',*,*,#483,.T.);
#236=ORIENTED_EDGE('',*,*,#484,.F.);
#237=ORIENTED_EDGE('',*,*,#485,.T.);
#238=ORIENTED_EDGE('',*,*,#486,.T.);
#239=ORIENTED_EDGE('',*,*,#487,.T.);
#240=ORIENTED_EDGE('',*,*,#488,.T.);
#241=ORIENTED_EDGE('',*,*,#489,.T.);
#242=ORIENTED_EDGE('',*,*,#490,.F.);
#243=ORIENTED_EDGE('',*,*,#491,.T.);
#244=ORIENTED_EDGE('',*,*,#492,.T.);
#245=ORIENTED_EDGE('',*,*,#469,.T.);
#246=ORIENTED_EDGE('',*,*,#493,.T.);
#247=ORIENTED_EDGE('',*,*,#494,.F.);
#248=ORIENTED_EDGE('',*,*,#495,.T.);
#249=ORIENTED_EDGE('',*,*,#496,.F.);
#250=ORIENTED_EDGE('',*,*,#497,.T.);
#251=ORIENTED_EDGE('',*,*,#498,.T.);
#252=ORIENTED_EDGE('',*,*,#499,.T.);
#253=ORIENTED_EDGE('',*,*,#500,.T.);
#254=ORIENTED_EDGE('',*,*,#501,.T.);
#255=ORIENTED_EDGE('',*,*,#502,.T.);
#256=ORIENTED_EDGE('',*,*,#474,.F.);
#257=ORIENTED_EDGE('',*,*,#503,.T.);
#258=ORIENTED_EDGE('',*,*,#504,.T.);
#259=ORIENTED_EDGE('',*,*,#505,.T.);
#260=ORIENTED_EDGE('',*,*,#506,.F.);
#261=ORIENTED_EDGE('',*,*,#507,.T.);
#262=ORIENTED_EDGE('',*,*,#508,.F.);
#263=ORIENTED_EDGE('',*,*,#509,.T.);
#264=ORIENTED_EDGE('',*,*,#510,.T.);
#265=ORIENTED_EDGE('',*,*,#511,.T.);
#266=ORIENTED_EDGE('',*,*,#512,.F.);
#267=ORIENTED_EDGE('',*,*,#513,.F.);
#268=ORIENTED_EDGE('',*,*,#514,.T.);
#269=ORIENTED_EDGE('',*,*,#515,.T.);
#270=ORIENTED_EDGE('',*,*,#516,.T.);
#271=ORIENTED_EDGE('',*,*,#517,.T.);
#272=ORIENTED_EDGE('',*,*,#518,.T.);
#273=ORIENTED_EDGE('',*,*,#519,.T.);
#274=ORIENTED_EDGE('',*,*,#520,.F.);
#275=ORIENTED_EDGE('',*,*,#521,.F.);
#276=ORIENTED_EDGE('',*,*,#522,.F.);
#277=ORIENTED_EDGE('',*,*,#523,.F.);
#278=ORIENTED_EDGE('',*,*,#508,.T.);
#279=ORIENTED_EDGE('',*,*,#524,.T.);
#280=ORIENTED_EDGE('',*,*,#498,.F.);
#281=ORIENTED_EDGE('',*,*,#525,.T.);
#282=ORIENTED_EDGE('',*,*,#526,.F.);
#283=ORIENTED_EDGE('',*,*,#527,.F.);
#284=ORIENTED_EDGE('',*,*,#510,.F.);
#285=ORIENTED_EDGE('',*,*,#528,.T.);
#286=ORIENTED_EDGE('',*,*,#496,.T.);
#287=ORIENTED_EDGE('',*,*,#529,.T.);
#288=ORIENTED_EDGE('',*,*,#518,.F.);
#289=ORIENTED_EDGE('',*,*,#530,.T.);
#290=ORIENTED_EDGE('',*,*,#531,.F.);
#291=ORIENTED_EDGE('',*,*,#532,.F.);
#292=ORIENTED_EDGE('',*,*,#533,.T.);
#293=ORIENTED_EDGE('',*,*,#534,.T.);
#294=ORIENTED_EDGE('',*,*,#494,.T.);
#295=ORIENTED_EDGE('',*,*,#535,.T.);
#296=ORIENTED_EDGE('',*,*,#501,.F.);
#297=ORIENTED_EDGE('',*,*,#536,.T.);
#298=ORIENTED_EDGE('',*,*,#522,.T.);
#299=ORIENTED_EDGE('',*,*,#487,.F.);
#300=ORIENTED_EDGE('',*,*,#521,.T.);
#301=ORIENTED_EDGE('',*,*,#488,.F.);
#302=ORIENTED_EDGE('',*,*,#520,.T.);
#303=ORIENTED_EDGE('',*,*,#489,.F.);
#304=ORIENTED_EDGE('',*,*,#537,.F.);
#305=ORIENTED_EDGE('',*,*,#538,.F.);
#306=ORIENTED_EDGE('',*,*,#500,.F.);
#307=ORIENTED_EDGE('',*,*,#539,.T.);
#308=ORIENTED_EDGE('',*,*,#506,.T.);
#309=ORIENTED_EDGE('',*,*,#540,.T.);
#310=ORIENTED_EDGE('',*,*,#541,.F.);
#311=ORIENTED_EDGE('',*,*,#482,.T.);
#312=ORIENTED_EDGE('',*,*,#523,.T.);
#313=ORIENTED_EDGE('',*,*,#486,.F.);
#314=ORIENTED_EDGE('',*,*,#542,.T.);
#315=ORIENTED_EDGE('',*,*,#543,.T.);
#316=ORIENTED_EDGE('',*,*,#472,.F.);
#317=ORIENTED_EDGE('',*,*,#544,.T.);
#318=ORIENTED_EDGE('',*,*,#541,.T.);
#319=ORIENTED_EDGE('',*,*,#545,.T.);
#320=ORIENTED_EDGE('',*,*,#546,.F.);
#321=ORIENTED_EDGE('',*,*,#483,.F.);
#322=ORIENTED_EDGE('',*,*,#462,.F.);
#323=ORIENTED_EDGE('',*,*,#460,.F.);
#324=ORIENTED_EDGE('',*,*,#504,.F.);
#325=ORIENTED_EDGE('',*,*,#547,.T.);
#326=ORIENTED_EDGE('',*,*,#542,.F.);
#327=ORIENTED_EDGE('',*,*,#548,.T.);
#328=ORIENTED_EDGE('',*,*,#549,.T.);
#329=ORIENTED_EDGE('',*,*,#550,.T.);
#330=ORIENTED_EDGE('',*,*,#551,.F.);
#331=ORIENTED_EDGE('',*,*,#484,.T.);
#332=ORIENTED_EDGE('',*,*,#546,.T.);
#333=ORIENTED_EDGE('',*,*,#552,.T.);
#334=ORIENTED_EDGE('',*,*,#553,.F.);
#335=ORIENTED_EDGE('',*,*,#550,.F.);
#336=ORIENTED_EDGE('',*,*,#554,.T.);
#337=ORIENTED_EDGE('',*,*,#477,.F.);
#338=ORIENTED_EDGE('',*,*,#555,.F.);
#339=ORIENTED_EDGE('',*,*,#556,.F.);
#340=ORIENTED_EDGE('',*,*,#515,.F.);
#341=ORIENTED_EDGE('',*,*,#557,.F.);
#342=ORIENTED_EDGE('',*,*,#558,.T.);
#343=ORIENTED_EDGE('',*,*,#559,.T.);
#344=ORIENTED_EDGE('',*,*,#514,.F.);
#345=ORIENTED_EDGE('',*,*,#560,.F.);
#346=ORIENTED_EDGE('',*,*,#561,.T.);
#347=ORIENTED_EDGE('',*,*,#557,.T.);
#348=ORIENTED_EDGE('',*,*,#513,.T.);
#349=ORIENTED_EDGE('',*,*,#562,.F.);
#350=ORIENTED_EDGE('',*,*,#563,.F.);
#351=ORIENTED_EDGE('',*,*,#560,.T.);
#352=ORIENTED_EDGE('',*,*,#466,.T.);
#353=ORIENTED_EDGE('',*,*,#512,.T.);
#354=ORIENTED_EDGE('',*,*,#564,.T.);
#355=ORIENTED_EDGE('',*,*,#565,.F.);
#356=ORIENTED_EDGE('',*,*,#566,.F.);
#357=ORIENTED_EDGE('',*,*,#562,.T.);
#358=ORIENTED_EDGE('',*,*,#565,.T.);
#359=ORIENTED_EDGE('',*,*,#567,.T.);
#360=ORIENTED_EDGE('',*,*,#533,.F.);
#361=ORIENTED_EDGE('',*,*,#568,.T.);
#362=ORIENTED_EDGE('',*,*,#531,.T.);
#363=ORIENTED_EDGE('',*,*,#569,.T.);
#364=ORIENTED_EDGE('',*,*,#570,.F.);
#365=ORIENTED_EDGE('',*,*,#571,.F.);
#366=ORIENTED_EDGE('',*,*,#464,.F.);
#367=ORIENTED_EDGE('',*,*,#516,.F.);
#368=ORIENTED_EDGE('',*,*,#559,.F.);
#369=ORIENTED_EDGE('',*,*,#572,.T.);
#370=ORIENTED_EDGE('',*,*,#570,.T.);
#371=ORIENTED_EDGE('',*,*,#573,.T.);
#372=ORIENTED_EDGE('',*,*,#556,.T.);
#373=ORIENTED_EDGE('',*,*,#574,.T.);
#374=ORIENTED_EDGE('',*,*,#480,.F.);
#375=ORIENTED_EDGE('',*,*,#575,.T.);
#376=ORIENTED_EDGE('',*,*,#554,.F.);
#377=ORIENTED_EDGE('',*,*,#549,.F.);
#378=ORIENTED_EDGE('',*,*,#576,.T.);
#379=ORIENTED_EDGE('',*,*,#478,.T.);
#380=ORIENTED_EDGE('',*,*,#553,.T.);
#381=ORIENTED_EDGE('',*,*,#575,.F.);
#382=ORIENTED_EDGE('',*,*,#485,.F.);
#383=ORIENTED_EDGE('',*,*,#551,.T.);
#384=ORIENTED_EDGE('',*,*,#577,.F.);
#385=ORIENTED_EDGE('',*,*,#479,.T.);
#386=ORIENTED_EDGE('',*,*,#576,.F.);
#387=ORIENTED_EDGE('',*,*,#548,.F.);
#388=ORIENTED_EDGE('',*,*,#544,.F.);
#389=ORIENTED_EDGE('',*,*,#471,.F.);
#390=ORIENTED_EDGE('',*,*,#540,.F.);
#391=ORIENTED_EDGE('',*,*,#505,.F.);
#392=ORIENTED_EDGE('',*,*,#552,.F.);
#393=ORIENTED_EDGE('',*,*,#545,.F.);
#394=ORIENTED_EDGE('',*,*,#534,.F.);
#395=ORIENTED_EDGE('',*,*,#567,.F.);
#396=ORIENTED_EDGE('',*,*,#564,.F.);
#397=ORIENTED_EDGE('',*,*,#511,.F.);
#398=ORIENTED_EDGE('',*,*,#473,.F.);
#399=ORIENTED_EDGE('',*,*,#543,.F.);
#400=ORIENTED_EDGE('',*,*,#547,.F.);
#401=ORIENTED_EDGE('',*,*,#503,.F.);
#402=ORIENTED_EDGE('',*,*,#530,.F.);
#403=ORIENTED_EDGE('',*,*,#517,.F.);
#404=ORIENTED_EDGE('',*,*,#573,.F.);
#405=ORIENTED_EDGE('',*,*,#569,.F.);
#406=ORIENTED_EDGE('',*,*,#558,.F.);
#407=ORIENTED_EDGE('',*,*,#561,.F.);
#408=ORIENTED_EDGE('',*,*,#563,.T.);
#409=ORIENTED_EDGE('',*,*,#566,.T.);
#410=ORIENTED_EDGE('',*,*,#568,.F.);
#411=ORIENTED_EDGE('',*,*,#532,.T.);
#412=ORIENTED_EDGE('',*,*,#571,.T.);
#413=ORIENTED_EDGE('',*,*,#572,.F.);
#414=ORIENTED_EDGE('',*,*,#502,.F.);
#415=ORIENTED_EDGE('',*,*,#535,.F.);
#416=ORIENTED_EDGE('',*,*,#493,.F.);
#417=ORIENTED_EDGE('',*,*,#475,.F.);
#418=ORIENTED_EDGE('',*,*,#507,.F.);
#419=ORIENTED_EDGE('',*,*,#539,.F.);
#420=ORIENTED_EDGE('',*,*,#499,.F.);
#421=ORIENTED_EDGE('',*,*,#524,.F.);
#422=ORIENTED_EDGE('',*,*,#509,.F.);
#423=ORIENTED_EDGE('',*,*,#525,.F.);
#424=ORIENTED_EDGE('',*,*,#497,.F.);
#425=ORIENTED_EDGE('',*,*,#528,.F.);
#426=ORIENTED_EDGE('',*,*,#519,.F.);
#427=ORIENTED_EDGE('',*,*,#529,.F.);
#428=ORIENTED_EDGE('',*,*,#495,.F.);
#429=ORIENTED_EDGE('',*,*,#536,.F.);
#430=ORIENTED_EDGE('',*,*,#490,.T.);
#431=ORIENTED_EDGE('',*,*,#538,.T.);
#432=ORIENTED_EDGE('',*,*,#481,.F.);
#433=ORIENTED_EDGE('',*,*,#574,.F.);
#434=ORIENTED_EDGE('',*,*,#578,.F.);
#435=ORIENTED_EDGE('',*,*,#555,.T.);
#436=ORIENTED_EDGE('',*,*,#579,.F.);
#437=ORIENTED_EDGE('',*,*,#491,.F.);
#438=ORIENTED_EDGE('',*,*,#578,.T.);
#439=ORIENTED_EDGE('',*,*,#579,.T.);
#440=ORIENTED_EDGE('',*,*,#476,.T.);
#441=ORIENTED_EDGE('',*,*,#577,.T.);
#442=ORIENTED_EDGE('',*,*,#470,.F.);
#443=ORIENTED_EDGE('',*,*,#492,.F.);
#444=ORIENTED_EDGE('',*,*,#580,.F.);
#445=ORIENTED_EDGE('',*,*,#526,.T.);
#446=ORIENTED_EDGE('',*,*,#467,.F.);
#447=ORIENTED_EDGE('',*,*,#580,.T.);
#448=ORIENTED_EDGE('',*,*,#581,.F.);
#449=ORIENTED_EDGE('',*,*,#527,.T.);
#450=ORIENTED_EDGE('',*,*,#465,.F.);
#451=ORIENTED_EDGE('',*,*,#581,.T.);
#452=ORIENTED_EDGE('',*,*,#582,.F.);
#453=ORIENTED_EDGE('',*,*,#537,.T.);
#454=ORIENTED_EDGE('',*,*,#463,.F.);
#455=ORIENTED_EDGE('',*,*,#582,.T.);
#456=ORIENTED_EDGE('',*,*,#583,.T.);
#457=ORIENTED_EDGE('',*,*,#461,.T.);
#458=ORIENTED_EDGE('',*,*,#583,.F.);
#459=ORIENTED_EDGE('',*,*,#468,.T.);
#460=EDGE_CURVE('',#584,#584,#674,.T.);
#461=EDGE_CURVE('',#585,#585,#675,.F.);
#462=EDGE_CURVE('',#586,#586,#676,.T.);
#463=EDGE_CURVE('',#587,#587,#677,.T.);
#464=EDGE_CURVE('',#588,#588,#678,.T.);
#465=EDGE_CURVE('',#589,#589,#679,.T.);
#466=EDGE_CURVE('',#590,#590,#680,.T.);
#467=EDGE_CURVE('',#591,#591,#681,.T.);
#468=EDGE_CURVE('',#592,#592,#682,.T.);
#469=EDGE_CURVE('',#593,#594,#12,.T.);
#470=EDGE_CURVE('',#593,#595,#13,.T.);
#471=EDGE_CURVE('',#595,#596,#14,.T.);
#472=EDGE_CURVE('',#596,#597,#15,.T.);
#473=EDGE_CURVE('',#597,#598,#683,.F.);
#474=EDGE_CURVE('',#598,#599,#16,.T.);
#475=EDGE_CURVE('',#599,#594,#17,.T.);
#476=EDGE_CURVE('',#600,#601,#18,.T.);
#477=EDGE_CURVE('',#600,#602,#19,.T.);
#478=EDGE_CURVE('',#603,#602,#20,.T.);
#479=EDGE_CURVE('',#601,#603,#21,.T.);
#480=EDGE_CURVE('',#604,#605,#22,.T.);
#481=EDGE_CURVE('',#605,#606,#23,.T.);
#482=EDGE_CURVE('',#607,#606,#24,.T.);
#483=EDGE_CURVE('',#607,#608,#25,.T.);
#484=EDGE_CURVE('',#609,#608,#26,.T.);
#485=EDGE_CURVE('',#609,#604,#27,.T.);
#486=EDGE_CURVE('',#610,#610,#684,.T.);
#487=EDGE_CURVE('',#611,#611,#685,.T.);
#488=EDGE_CURVE('',#612,#612,#686,.T.);
#489=EDGE_CURVE('',#613,#613,#687,.T.);
#490=EDGE_CURVE('',#614,#615,#28,.T.);
#491=EDGE_CURVE('',#614,#616,#29,.T.);
#492=EDGE_CURVE('',#616,#593,#30,.T.);
#493=EDGE_CURVE('',#594,#617,#688,.F.);
#494=EDGE_CURVE('',#618,#617,#31,.T.);
#495=EDGE_CURVE('',#618,#619,#689,.F.);
#496=EDGE_CURVE('',#620,#619,#32,.T.);
#497=EDGE_CURVE('',#620,#621,#690,.F.);
#498=EDGE_CURVE('',#621,#622,#33,.T.);
#499=EDGE_CURVE('',#622,#623,#691,.F.);
#500=EDGE_CURVE('',#623,#615,#34,.T.);
#501=EDGE_CURVE('',#624,#625,#35,.T.);
#502=EDGE_CURVE('',#625,#599,#692,.T.);
#503=EDGE_CURVE('',#598,#626,#36,.T.);
#504=EDGE_CURVE('',#626,#627,#37,.T.);
#505=EDGE_CURVE('',#627,#628,#38,.F.);
#506=EDGE_CURVE('',#629,#628,#39,.T.);
#507=EDGE_CURVE('',#629,#630,#693,.T.);
#508=EDGE_CURVE('',#631,#630,#40,.T.);
#509=EDGE_CURVE('',#631,#632,#694,.T.);
#510=EDGE_CURVE('',#632,#633,#41,.T.);
#511=EDGE_CURVE('',#633,#634,#42,.T.);
#512=EDGE_CURVE('',#635,#634,#43,.T.);
#513=EDGE_CURVE('',#636,#635,#44,.T.);
#514=EDGE_CURVE('',#636,#637,#45,.T.);
#515=EDGE_CURVE('',#637,#638,#46,.T.);
#516=EDGE_CURVE('',#638,#639,#47,.T.);
#517=EDGE_CURVE('',#639,#640,#48,.F.);
#518=EDGE_CURVE('',#640,#641,#49,.T.);
#519=EDGE_CURVE('',#641,#624,#695,.T.);
#520=EDGE_CURVE('',#642,#642,#696,.T.);
#521=EDGE_CURVE('',#643,#643,#697,.T.);
#522=EDGE_CURVE('',#644,#644,#698,.T.);
#523=EDGE_CURVE('',#645,#645,#699,.T.);
#524=EDGE_CURVE('',#630,#622,#50,.T.);
#525=EDGE_CURVE('',#621,#631,#51,.F.);
#526=EDGE_CURVE('',#646,#646,#700,.T.);
#527=EDGE_CURVE('',#647,#647,#701,.T.);
#528=EDGE_CURVE('',#632,#620,#52,.T.);
#529=EDGE_CURVE('',#619,#641,#53,.F.);
#530=EDGE_CURVE('',#640,#648,#702,.T.);
#531=EDGE_CURVE('',#649,#648,#54,.T.);
#532=EDGE_CURVE('',#650,#649,#55,.T.);
#533=EDGE_CURVE('',#650,#651,#56,.T.);
#534=EDGE_CURVE('',#651,#633,#703,.T.);
#535=EDGE_CURVE('',#617,#625,#57,.F.);
#536=EDGE_CURVE('',#624,#618,#58,.T.);
#537=EDGE_CURVE('',#652,#652,#704,.T.);
#538=EDGE_CURVE('',#615,#606,#59,.T.);
#539=EDGE_CURVE('',#623,#629,#60,.F.);
#540=EDGE_CURVE('',#628,#653,#705,.F.);
#541=EDGE_CURVE('',#607,#653,#61,.T.);
#542=EDGE_CURVE('',#654,#655,#62,.T.);
#543=EDGE_CURVE('',#655,#597,#63,.F.);
#544=EDGE_CURVE('',#596,#654,#64,.T.);
#545=EDGE_CURVE('',#653,#656,#65,.T.);
#546=EDGE_CURVE('',#608,#656,#66,.T.);
#547=EDGE_CURVE('',#626,#655,#706,.F.);
#548=EDGE_CURVE('',#654,#657,#67,.T.);
#549=EDGE_CURVE('',#657,#658,#68,.T.);
#550=EDGE_CURVE('',#658,#659,#69,.T.);
#551=EDGE_CURVE('',#609,#659,#70,.T.);
#552=EDGE_CURVE('',#656,#627,#707,.F.);
#553=EDGE_CURVE('',#659,#660,#71,.T.);
#554=EDGE_CURVE('',#658,#602,#72,.T.);
#555=EDGE_CURVE('',#661,#600,#73,.T.);
#556=EDGE_CURVE('',#660,#661,#74,.T.);
#557=EDGE_CURVE('',#662,#637,#75,.T.);
#558=EDGE_CURVE('',#662,#663,#76,.T.);
#559=EDGE_CURVE('',#663,#638,#77,.T.);
#560=EDGE_CURVE('',#664,#636,#78,.T.);
#561=EDGE_CURVE('',#664,#662,#79,.T.);
#562=EDGE_CURVE('',#665,#635,#80,.T.);
#563=EDGE_CURVE('',#664,#665,#81,.T.);
#564=EDGE_CURVE('',#634,#666,#708,.T.);
#565=EDGE_CURVE('',#667,#666,#82,.T.);
#566=EDGE_CURVE('',#665,#667,#83,.T.);
#567=EDGE_CURVE('',#666,#651,#84,.F.);
#568=EDGE_CURVE('',#650,#667,#85,.T.);
#569=EDGE_CURVE('',#648,#668,#86,.T.);
#570=EDGE_CURVE('',#669,#668,#87,.T.);
#571=EDGE_CURVE('',#649,#669,#88,.T.);
#572=EDGE_CURVE('',#663,#669,#89,.T.);
#573=EDGE_CURVE('',#668,#639,#709,.F.);
#574=EDGE_CURVE('',#661,#605,#90,.T.);
#575=EDGE_CURVE('',#604,#660,#91,.T.);
#576=EDGE_CURVE('',#657,#603,#92,.T.);
#577=EDGE_CURVE('',#601,#595,#93,.T.);
#578=EDGE_CURVE('',#614,#661,#94,.T.);
#579=EDGE_CURVE('',#616,#600,#95,.T.);
#580=EDGE_CURVE('',#670,#670,#710,.T.);
#581=EDGE_CURVE('',#671,#671,#711,.T.);
#582=EDGE_CURVE('',#672,#672,#712,.T.);
#583=EDGE_CURVE('',#673,#673,#713,.T.);
#584=VERTEX_POINT('',#1332);
#585=VERTEX_POINT('',#1334);
#586=VERTEX_POINT('',#1337);
#587=VERTEX_POINT('',#1339);
#588=VERTEX_POINT('',#1342);
#589=VERTEX_POINT('',#1344);
#590=VERTEX_POINT('',#1347);
#591=VERTEX_POINT('',#1349);
#592=VERTEX_POINT('',#1352);
#593=VERTEX_POINT('',#1354);
#594=VERTEX_POINT('',#1355);
#595=VERTEX_POINT('',#1357);
#596=VERTEX_POINT('',#1359);
#597=VERTEX_POINT('',#1361);
#598=VERTEX_POINT('',#1363);
#599=VERTEX_POINT('',#1365);
#600=VERTEX_POINT('',#1369);
#601=VERTEX_POINT('',#1370);
#602=VERTEX_POINT('',#1372);
#603=VERTEX_POINT('',#1374);
#604=VERTEX_POINT('',#1378);
#605=VERTEX_POINT('',#1379);
#606=VERTEX_POINT('',#1381);
#607=VERTEX_POINT('',#1383);
#608=VERTEX_POINT('',#1385);
#609=VERTEX_POINT('',#1387);
#610=VERTEX_POINT('',#1391);
#611=VERTEX_POINT('',#1393);
#612=VERTEX_POINT('',#1395);
#613=VERTEX_POINT('',#1397);
#614=VERTEX_POINT('',#1399);
#615=VERTEX_POINT('',#1400);
#616=VERTEX_POINT('',#1402);
#617=VERTEX_POINT('',#1405);
#618=VERTEX_POINT('',#1407);
#619=VERTEX_POINT('',#1409);
#620=VERTEX_POINT('',#1411);
#621=VERTEX_POINT('',#1413);
#622=VERTEX_POINT('',#1415);
#623=VERTEX_POINT('',#1417);
#624=VERTEX_POINT('',#1421);
#625=VERTEX_POINT('',#1422);
#626=VERTEX_POINT('',#1425);
#627=VERTEX_POINT('',#1427);
#628=VERTEX_POINT('',#1429);
#629=VERTEX_POINT('',#1431);
#630=VERTEX_POINT('',#1433);
#631=VERTEX_POINT('',#1435);
#632=VERTEX_POINT('',#1437);
#633=VERTEX_POINT('',#1439);
#634=VERTEX_POINT('',#1441);
#635=VERTEX_POINT('',#1443);
#636=VERTEX_POINT('',#1445);
#637=VERTEX_POINT('',#1447);
#638=VERTEX_POINT('',#1449);
#639=VERTEX_POINT('',#1451);
#640=VERTEX_POINT('',#1453);
#641=VERTEX_POINT('',#1455);
#642=VERTEX_POINT('',#1458);
#643=VERTEX_POINT('',#1460);
#644=VERTEX_POINT('',#1462);
#645=VERTEX_POINT('',#1464);
#646=VERTEX_POINT('',#1470);
#647=VERTEX_POINT('',#1472);
#648=VERTEX_POINT('',#1476);
#649=VERTEX_POINT('',#1478);
#650=VERTEX_POINT('',#1480);
#651=VERTEX_POINT('',#1482);
#652=VERTEX_POINT('',#1492);
#653=VERTEX_POINT('',#1496);
#654=VERTEX_POINT('',#1501);
#655=VERTEX_POINT('',#1502);
#656=VERTEX_POINT('',#1507);
#657=VERTEX_POINT('',#1512);
#658=VERTEX_POINT('',#1514);
#659=VERTEX_POINT('',#1516);
#660=VERTEX_POINT('',#1521);
#661=VERTEX_POINT('',#1524);
#662=VERTEX_POINT('',#1528);
#663=VERTEX_POINT('',#1530);
#664=VERTEX_POINT('',#1534);
#665=VERTEX_POINT('',#1538);
#666=VERTEX_POINT('',#1542);
#667=VERTEX_POINT('',#1544);
#668=VERTEX_POINT('',#1551);
#669=VERTEX_POINT('',#1553);
#670=VERTEX_POINT('',#1582);
#671=VERTEX_POINT('',#1586);
#672=VERTEX_POINT('',#1590);
#673=VERTEX_POINT('',#1594);
#674=CIRCLE('',#968,0.001);
#675=CIRCLE('',#969,0.001);
#676=CIRCLE('',#971,0.001);
#677=CIRCLE('',#972,0.001);
#678=CIRCLE('',#974,0.001);
#679=CIRCLE('',#975,0.001);
#680=CIRCLE('',#977,0.001);
#681=CIRCLE('',#978,0.001);
#682=CIRCLE('',#980,0.002);
#683=CIRCLE('',#981,0.0012);
#684=CIRCLE('',#985,0.0015);
#685=CIRCLE('',#986,0.0015);
#686=CIRCLE('',#987,0.0015);
#687=CIRCLE('',#988,0.0015);
#688=CIRCLE('',#989,0.0012);
#689=CIRCLE('',#990,0.0012);
#690=CIRCLE('',#991,0.0012);
#691=CIRCLE('',#992,0.0012);
#692=CIRCLE('',#994,0.0012);
#693=CIRCLE('',#995,0.0012);
#694=CIRCLE('',#996,0.0012);
#695=CIRCLE('',#997,0.0012);
#696=CIRCLE('',#998,0.0015);
#697=CIRCLE('',#999,0.0015);
#698=CIRCLE('',#1000,0.0015);
#699=CIRCLE('',#1001,0.0015);
#700=CIRCLE('',#1004,0.002);
#701=CIRCLE('',#1005,0.002);
#702=CIRCLE('',#1006,0.0012);
#703=CIRCLE('',#1007,0.0012);
#704=CIRCLE('',#1013,0.002);
#705=CIRCLE('',#1014,0.0012);
#706=CIRCLE('',#1019,0.0012);
#707=CIRCLE('',#1020,0.0012);
#708=CIRCLE('',#1026,0.0012);
#709=CIRCLE('',#1030,0.0012);
#710=CIRCLE('',#1048,0.002);
#711=CIRCLE('',#1051,0.002);
#712=CIRCLE('',#1054,0.002);
#713=CIRCLE('',#1057,0.002);
#714=EDGE_LOOP('',(#212));
#715=EDGE_LOOP('',(#213));
#716=EDGE_LOOP('',(#214));
#717=EDGE_LOOP('',(#215));
#718=EDGE_LOOP('',(#216));
#719=EDGE_LOOP('',(#217));
#720=EDGE_LOOP('',(#218));
#721=EDGE_LOOP('',(#219));
#722=EDGE_LOOP('',(#220));
#723=EDGE_LOOP('',(#221,#222,#223,#224,#225,#226,#227));
#724=EDGE_LOOP('',(#228,#229,#230,#231));
#725=EDGE_LOOP('',(#232,#233,#234,#235,#236,#237));
#726=EDGE_LOOP('',(#238));
#727=EDGE_LOOP('',(#239));
#728=EDGE_LOOP('',(#240));
#729=EDGE_LOOP('',(#241));
#730=EDGE_LOOP('',(#242,#243,#244,#245,#246,#247,#248,#249,#250,#251,#252,
#253));
#731=EDGE_LOOP('',(#254,#255,#256,#257,#258,#259,#260,#261,#262,#263,#264,
#265,#266,#267,#268,#269,#270,#271,#272,#273));
#732=EDGE_LOOP('',(#274));
#733=EDGE_LOOP('',(#275));
#734=EDGE_LOOP('',(#276));
#735=EDGE_LOOP('',(#277));
#736=EDGE_LOOP('',(#278,#279,#280,#281));
#737=EDGE_LOOP('',(#282));
#738=EDGE_LOOP('',(#283));
#739=EDGE_LOOP('',(#284,#285,#286,#287,#288,#289,#290,#291,#292,#293));
#740=EDGE_LOOP('',(#294,#295,#296,#297));
#741=EDGE_LOOP('',(#298));
#742=EDGE_LOOP('',(#299));
#743=EDGE_LOOP('',(#300));
#744=EDGE_LOOP('',(#301));
#745=EDGE_LOOP('',(#302));
#746=EDGE_LOOP('',(#303));
#747=EDGE_LOOP('',(#304));
#748=EDGE_LOOP('',(#305,#306,#307,#308,#309,#310,#311));
#749=EDGE_LOOP('',(#312));
#750=EDGE_LOOP('',(#313));
#751=EDGE_LOOP('',(#314,#315,#316,#317));
#752=EDGE_LOOP('',(#318,#319,#320,#321));
#753=EDGE_LOOP('',(#322));
#754=EDGE_LOOP('',(#323));
#755=EDGE_LOOP('',(#324,#325,#326,#327,#328,#329,#330,#331,#332,#333));
#756=EDGE_LOOP('',(#334,#335,#336,#337,#338,#339));
#757=EDGE_LOOP('',(#340,#341,#342,#343));
#758=EDGE_LOOP('',(#344,#345,#346,#347));
#759=EDGE_LOOP('',(#348,#349,#350,#351));
#760=EDGE_LOOP('',(#352));
#761=EDGE_LOOP('',(#353,#354,#355,#356,#357));
#762=EDGE_LOOP('',(#358,#359,#360,#361));
#763=EDGE_LOOP('',(#362,#363,#364,#365));
#764=EDGE_LOOP('',(#366));
#765=EDGE_LOOP('',(#367,#368,#369,#370,#371));
#766=EDGE_LOOP('',(#372,#373,#374,#375));
#767=EDGE_LOOP('',(#376,#377,#378,#379));
#768=EDGE_LOOP('',(#380,#381,#382,#383));
#769=EDGE_LOOP('',(#384,#385,#386,#387,#388,#389));
#770=EDGE_LOOP('',(#390,#391,#392,#393));
#771=EDGE_LOOP('',(#394,#395,#396,#397));
#772=EDGE_LOOP('',(#398,#399,#400,#401));
#773=EDGE_LOOP('',(#402,#403,#404,#405));
#774=EDGE_LOOP('',(#406,#407,#408,#409,#410,#411,#412,#413));
#775=EDGE_LOOP('',(#414,#415,#416,#417));
#776=EDGE_LOOP('',(#418,#419,#420,#421));
#777=EDGE_LOOP('',(#422,#423,#424,#425));
#778=EDGE_LOOP('',(#426,#427,#428,#429));
#779=EDGE_LOOP('',(#430,#431,#432,#433,#434));
#780=EDGE_LOOP('',(#435,#436,#437,#438));
#781=EDGE_LOOP('',(#439,#440,#441,#442,#443));
#782=EDGE_LOOP('',(#444));
#783=EDGE_LOOP('',(#445));
#784=EDGE_LOOP('',(#446));
#785=EDGE_LOOP('',(#447));
#786=EDGE_LOOP('',(#448));
#787=EDGE_LOOP('',(#449));
#788=EDGE_LOOP('',(#450));
#789=EDGE_LOOP('',(#451));
#790=EDGE_LOOP('',(#452));
#791=EDGE_LOOP('',(#453));
#792=EDGE_LOOP('',(#454));
#793=EDGE_LOOP('',(#455));
#794=EDGE_LOOP('',(#456));
#795=EDGE_LOOP('',(#457));
#796=EDGE_LOOP('',(#458));
#797=EDGE_LOOP('',(#459));
#798=FACE_BOUND('',#714,.T.);
#799=FACE_BOUND('',#715,.T.);
#800=FACE_BOUND('',#716,.T.);
#801=FACE_BOUND('',#717,.T.);
#802=FACE_BOUND('',#718,.T.);
#803=FACE_BOUND('',#719,.T.);
#804=FACE_BOUND('',#720,.T.);
#805=FACE_BOUND('',#721,.T.);
#806=FACE_BOUND('',#722,.T.);
#807=FACE_BOUND('',#723,.T.);
#808=FACE_BOUND('',#724,.T.);
#809=FACE_BOUND('',#725,.T.);
#810=FACE_BOUND('',#726,.T.);
#811=FACE_BOUND('',#727,.T.);
#812=FACE_BOUND('',#728,.T.);
#813=FACE_BOUND('',#729,.T.);
#814=FACE_BOUND('',#730,.T.);
#815=FACE_BOUND('',#731,.T.);
#816=FACE_BOUND('',#732,.T.);
#817=FACE_BOUND('',#733,.T.);
#818=FACE_BOUND('',#734,.T.);
#819=FACE_BOUND('',#735,.T.);
#820=FACE_BOUND('',#736,.T.);
#821=FACE_BOUND('',#737,.T.);
#822=FACE_BOUND('',#738,.T.);
#823=FACE_BOUND('',#739,.T.);
#824=FACE_BOUND('',#740,.T.);
#825=FACE_BOUND('',#741,.T.);
#826=FACE_BOUND('',#742,.T.);
#827=FACE_BOUND('',#743,.T.);
#828=FACE_BOUND('',#744,.T.);
#829=FACE_BOUND('',#745,.T.);
#830=FACE_BOUND('',#746,.T.);
#831=FACE_BOUND('',#747,.T.);
#832=FACE_BOUND('',#748,.T.);
#833=FACE_BOUND('',#749,.T.);
#834=FACE_BOUND('',#750,.T.);
#835=FACE_BOUND('',#751,.T.);
#836=FACE_BOUND('',#752,.T.);
#837=FACE_BOUND('',#753,.T.);
#838=FACE_BOUND('',#754,.T.);
#839=FACE_BOUND('',#755,.T.);
#840=FACE_BOUND('',#756,.T.);
#841=FACE_BOUND('',#757,.T.);
#842=FACE_BOUND('',#758,.T.);
#843=FACE_BOUND('',#759,.T.);
#844=FACE_BOUND('',#760,.T.);
#845=FACE_BOUND('',#761,.T.);
#846=FACE_BOUND('',#762,.T.);
#847=FACE_BOUND('',#763,.T.);
#848=FACE_BOUND('',#764,.T.);
#849=FACE_BOUND('',#765,.T.);
#850=FACE_BOUND('',#766,.T.);
#851=FACE_BOUND('',#767,.T.);
#852=FACE_BOUND('',#768,.T.);
#853=FACE_BOUND('',#769,.T.);
#854=FACE_BOUND('',#770,.T.);
#855=FACE_BOUND('',#771,.T.);
#856=FACE_BOUND('',#772,.T.);
#857=FACE_BOUND('',#773,.T.);
#858=FACE_BOUND('',#774,.T.);
#859=FACE_BOUND('',#775,.T.);
#860=FACE_BOUND('',#776,.T.);
#861=FACE_BOUND('',#777,.T.);
#862=FACE_BOUND('',#778,.T.);
#863=FACE_BOUND('',#779,.T.);
#864=FACE_BOUND('',#780,.T.);
#865=FACE_BOUND('',#781,.T.);
#866=FACE_BOUND('',#782,.T.);
#867=FACE_BOUND('',#783,.T.);
#868=FACE_BOUND('',#784,.T.);
#869=FACE_BOUND('',#785,.T.);
#870=FACE_BOUND('',#786,.T.);
#871=FACE_BOUND('',#787,.T.);
#872=FACE_BOUND('',#788,.T.);
#873=FACE_BOUND('',#789,.T.);
#874=FACE_BOUND('',#790,.T.);
#875=FACE_BOUND('',#791,.T.);
#876=FACE_BOUND('',#792,.T.);
#877=FACE_BOUND('',#793,.T.);
#878=FACE_BOUND('',#794,.T.);
#879=FACE_BOUND('',#795,.T.);
#880=FACE_BOUND('',#796,.T.);
#881=FACE_BOUND('',#797,.T.);
#882=CYLINDRICAL_SURFACE('',#967,0.001);
#883=CYLINDRICAL_SURFACE('',#970,0.001);
#884=CYLINDRICAL_SURFACE('',#973,0.001);
#885=CYLINDRICAL_SURFACE('',#976,0.001);
#886=CYLINDRICAL_SURFACE('',#1009,0.0015);
#887=CYLINDRICAL_SURFACE('',#1010,0.0015);
#888=CYLINDRICAL_SURFACE('',#1011,0.0015);
#889=CYLINDRICAL_SURFACE('',#1015,0.0015);
#890=CYLINDRICAL_SURFACE('',#1035,0.0012);
#891=CYLINDRICAL_SURFACE('',#1036,0.0012);
#892=CYLINDRICAL_SURFACE('',#1037,0.0012);
#893=CYLINDRICAL_SURFACE('',#1038,0.0012);
#894=CYLINDRICAL_SURFACE('',#1040,0.0012);
#895=CYLINDRICAL_SURFACE('',#1041,0.0012);
#896=CYLINDRICAL_SURFACE('',#1042,0.0012);
#897=CYLINDRICAL_SURFACE('',#1043,0.0012);
#898=CYLINDRICAL_SURFACE('',#1047,0.002);
#899=CYLINDRICAL_SURFACE('',#1050,0.002);
#900=CYLINDRICAL_SURFACE('',#1053,0.002);
#901=CYLINDRICAL_SURFACE('',#1058,0.002);
#902=ADVANCED_FACE('',(#798,#799),#882,.F.);
#903=ADVANCED_FACE('',(#800,#801),#883,.F.);
#904=ADVANCED_FACE('',(#802,#803),#884,.F.);
#905=ADVANCED_FACE('',(#804,#805),#885,.F.);
#906=ADVANCED_FACE('',(#806,#807),#180,.T.);
#907=ADVANCED_FACE('',(#808),#181,.F.);
#908=ADVANCED_FACE('',(#809),#182,.T.);
#909=ADVANCED_FACE('',(#810,#811,#812,#813,#814),#183,.F.);
#910=ADVANCED_FACE('',(#815,#816,#817,#818,#819),#184,.T.);
#911=ADVANCED_FACE('',(#820),#185,.T.);
#912=ADVANCED_FACE('',(#821,#822,#823),#186,.F.);
#913=ADVANCED_FACE('',(#824),#187,.F.);
#914=ADVANCED_FACE('',(#825,#826),#886,.F.);
#915=ADVANCED_FACE('',(#827,#828),#887,.F.);
#916=ADVANCED_FACE('',(#829,#830),#888,.F.);
#917=ADVANCED_FACE('',(#831,#832),#188,.T.);
#918=ADVANCED_FACE('',(#833,#834),#889,.F.);
#919=ADVANCED_FACE('',(#835),#189,.T.);
#920=ADVANCED_FACE('',(#836),#190,.F.);
#921=ADVANCED_FACE('',(#837,#838,#839),#191,.T.);
#922=ADVANCED_FACE('',(#840),#192,.T.);
#923=ADVANCED_FACE('',(#841),#193,.T.);
#924=ADVANCED_FACE('',(#842),#194,.T.);
#925=ADVANCED_FACE('',(#843),#195,.F.);
#926=ADVANCED_FACE('',(#844,#845),#196,.F.);
#927=ADVANCED_FACE('',(#846),#197,.T.);
#928=ADVANCED_FACE('',(#847),#198,.F.);
#929=ADVANCED_FACE('',(#848,#849),#199,.T.);
#930=ADVANCED_FACE('',(#850),#200,.F.);
#931=ADVANCED_FACE('',(#851),#201,.T.);
#932=ADVANCED_FACE('',(#852),#202,.F.);
#933=ADVANCED_FACE('',(#853),#203,.T.);
#934=ADVANCED_FACE('',(#854),#890,.F.);
#935=ADVANCED_FACE('',(#855),#891,.F.);
#936=ADVANCED_FACE('',(#856),#892,.F.);
#937=ADVANCED_FACE('',(#857),#893,.F.);
#938=ADVANCED_FACE('',(#858),#204,.T.);
#939=ADVANCED_FACE('',(#859),#894,.T.);
#940=ADVANCED_FACE('',(#860),#895,.T.);
#941=ADVANCED_FACE('',(#861),#896,.T.);
#942=ADVANCED_FACE('',(#862),#897,.T.);
#943=ADVANCED_FACE('',(#863),#205,.T.);
#944=ADVANCED_FACE('',(#864),#206,.F.);
#945=ADVANCED_FACE('',(#865),#207,.F.);
#946=ADVANCED_FACE('',(#866,#867),#898,.F.);
#947=ADVANCED_FACE('',(#868,#869),#208,.T.);
#948=ADVANCED_FACE('',(#870,#871),#899,.F.);
#949=ADVANCED_FACE('',(#872,#873),#209,.T.);
#950=ADVANCED_FACE('',(#874,#875),#900,.F.);
#951=ADVANCED_FACE('',(#876,#877),#210,.T.);
#952=ADVANCED_FACE('',(#878,#879),#211,.T.);
#953=ADVANCED_FACE('',(#880,#881),#901,.F.);
#954=CLOSED_SHELL('',(#902,#903,#904,#905,#906,#907,#908,#909,#910,#911,
#912,#913,#914,#915,#916,#917,#918,#919,#920,#921,#922,#923,#924,#925,#926,
#927,#928,#929,#930,#931,#932,#933,#934,#935,#936,#937,#938,#939,#940,#941,
#942,#943,#944,#945,#946,#947,#948,#949,#950,#951,#952,#953));
#955=STYLED_ITEM('',(#956),#963);
#956=PRESENTATION_STYLE_ASSIGNMENT((#957));
#957=SURFACE_STYLE_USAGE(.BOTH.,#958);
#958=SURFACE_SIDE_STYLE('',(#959));
#959=SURFACE_STYLE_FILL_AREA(#960);
#960=FILL_AREA_STYLE('',(#961));
#961=FILL_AREA_STYLE_COLOUR('',#962);
#962=COLOUR_RGB('',0.615686274509804,0.811764705882353,0.929411764705882);
#963=MANIFOLD_SOLID_BREP('Part 1',#954);
#964=SHAPE_DEFINITION_REPRESENTATION(#1602,#965);
#965=SHAPE_REPRESENTATION('Part 1',(#966),#1597);
#966=AXIS2_PLACEMENT_3D('',#1329,#1059,#1060);
#967=AXIS2_PLACEMENT_3D('',#1330,#1061,#1062);
#968=AXIS2_PLACEMENT_3D('',#1331,#1063,#1064);
#969=AXIS2_PLACEMENT_3D('',#1333,#1065,#1066);
#970=AXIS2_PLACEMENT_3D('',#1335,#1067,#1068);
#971=AXIS2_PLACEMENT_3D('',#1336,#1069,#1070);
#972=AXIS2_PLACEMENT_3D('',#1338,#1071,#1072);
#973=AXIS2_PLACEMENT_3D('',#1340,#1073,#1074);
#974=AXIS2_PLACEMENT_3D('',#1341,#1075,#1076);
#975=AXIS2_PLACEMENT_3D('',#1343,#1077,#1078);
#976=AXIS2_PLACEMENT_3D('',#1345,#1079,#1080);
#977=AXIS2_PLACEMENT_3D('',#1346,#1081,#1082);
#978=AXIS2_PLACEMENT_3D('',#1348,#1083,#1084);
#979=AXIS2_PLACEMENT_3D('',#1350,#1085,#1086);
#980=AXIS2_PLACEMENT_3D('',#1351,#1087,#1088);
#981=AXIS2_PLACEMENT_3D('',#1362,#1093,#1094);
#982=AXIS2_PLACEMENT_3D('',#1367,#1097,#1098);
#983=AXIS2_PLACEMENT_3D('',#1376,#1103,#1104);
#984=AXIS2_PLACEMENT_3D('',#1389,#1111,#1112);
#985=AXIS2_PLACEMENT_3D('',#1390,#1113,#1114);
#986=AXIS2_PLACEMENT_3D('',#1392,#1115,#1116);
#987=AXIS2_PLACEMENT_3D('',#1394,#1117,#1118);
#988=AXIS2_PLACEMENT_3D('',#1396,#1119,#1120);
#989=AXIS2_PLACEMENT_3D('',#1404,#1124,#1125);
#990=AXIS2_PLACEMENT_3D('',#1408,#1127,#1128);
#991=AXIS2_PLACEMENT_3D('',#1412,#1130,#1131);
#992=AXIS2_PLACEMENT_3D('',#1416,#1133,#1134);
#993=AXIS2_PLACEMENT_3D('',#1419,#1136,#1137);
#994=AXIS2_PLACEMENT_3D('',#1423,#1139,#1140);
#995=AXIS2_PLACEMENT_3D('',#1432,#1145,#1146);
#996=AXIS2_PLACEMENT_3D('',#1436,#1148,#1149);
#997=AXIS2_PLACEMENT_3D('',#1456,#1159,#1160);
#998=AXIS2_PLACEMENT_3D('',#1457,#1161,#1162);
#999=AXIS2_PLACEMENT_3D('',#1459,#1163,#1164);
#1000=AXIS2_PLACEMENT_3D('',#1461,#1165,#1166);
#1001=AXIS2_PLACEMENT_3D('',#1463,#1167,#1168);
#1002=AXIS2_PLACEMENT_3D('',#1465,#1169,#1170);
#1003=AXIS2_PLACEMENT_3D('',#1468,#1173,#1174);
#1004=AXIS2_PLACEMENT_3D('',#1469,#1175,#1176);
#1005=AXIS2_PLACEMENT_3D('',#1471,#1177,#1178);
#1006=AXIS2_PLACEMENT_3D('',#1475,#1181,#1182);
#1007=AXIS2_PLACEMENT_3D('',#1483,#1186,#1187);
#1008=AXIS2_PLACEMENT_3D('',#1484,#1188,#1189);
#1009=AXIS2_PLACEMENT_3D('',#1487,#1192,#1193);
#1010=AXIS2_PLACEMENT_3D('',#1488,#1194,#1195);
#1011=AXIS2_PLACEMENT_3D('',#1489,#1196,#1197);
#1012=AXIS2_PLACEMENT_3D('',#1490,#1198,#1199);
#1013=AXIS2_PLACEMENT_3D('',#1491,#1200,#1201);
#1014=AXIS2_PLACEMENT_3D('',#1495,#1204,#1205);
#1015=AXIS2_PLACEMENT_3D('',#1498,#1207,#1208);
#1016=AXIS2_PLACEMENT_3D('',#1499,#1209,#1210);
#1017=AXIS2_PLACEMENT_3D('',#1505,#1214,#1215);
#1018=AXIS2_PLACEMENT_3D('',#1509,#1218,#1219);
#1019=AXIS2_PLACEMENT_3D('',#1510,#1220,#1221);
#1020=AXIS2_PLACEMENT_3D('',#1518,#1226,#1227);
#1021=AXIS2_PLACEMENT_3D('',#1519,#1228,#1229);
#1022=AXIS2_PLACEMENT_3D('',#1526,#1234,#1235);
#1023=AXIS2_PLACEMENT_3D('',#1532,#1239,#1240);
#1024=AXIS2_PLACEMENT_3D('',#1536,#1243,#1244);
#1025=AXIS2_PLACEMENT_3D('',#1540,#1247,#1248);
#1026=AXIS2_PLACEMENT_3D('',#1541,#1249,#1250);
#1027=AXIS2_PLACEMENT_3D('',#1546,#1253,#1254);
#1028=AXIS2_PLACEMENT_3D('',#1549,#1257,#1258);
#1029=AXIS2_PLACEMENT_3D('',#1555,#1262,#1263);
#1030=AXIS2_PLACEMENT_3D('',#1557,#1265,#1266);
#1031=AXIS2_PLACEMENT_3D('',#1558,#1267,#1268);
#1032=AXIS2_PLACEMENT_3D('',#1561,#1271,#1272);
#1033=AXIS2_PLACEMENT_3D('',#1563,#1274,#1275);
#1034=AXIS2_PLACEMENT_3D('',#1564,#1276,#1277);
#1035=AXIS2_PLACEMENT_3D('',#1566,#1279,#1280);
#1036=AXIS2_PLACEMENT_3D('',#1567,#1281,#1282);
#1037=AXIS2_PLACEMENT_3D('',#1568,#1283,#1284);
#1038=AXIS2_PLACEMENT_3D('',#1569,#1285,#1286);
#1039=AXIS2_PLACEMENT_3D('',#1570,#1287,#1288);
#1040=AXIS2_PLACEMENT_3D('',#1571,#1289,#1290);
#1041=AXIS2_PLACEMENT_3D('',#1572,#1291,#1292);
#1042=AXIS2_PLACEMENT_3D('',#1573,#1293,#1294);
#1043=AXIS2_PLACEMENT_3D('',#1574,#1295,#1296);
#1044=AXIS2_PLACEMENT_3D('',#1575,#1297,#1298);
#1045=AXIS2_PLACEMENT_3D('',#1577,#1300,#1301);
#1046=AXIS2_PLACEMENT_3D('',#1579,#1303,#1304);
#1047=AXIS2_PLACEMENT_3D('',#1580,#1305,#1306);
#1048=AXIS2_PLACEMENT_3D('',#1581,#1307,#1308);
#1049=AXIS2_PLACEMENT_3D('',#1583,#1309,#1310);
#1050=AXIS2_PLACEMENT_3D('',#1584,#1311,#1312);
#1051=AXIS2_PLACEMENT_3D('',#1585,#1313,#1314);
#1052=AXIS2_PLACEMENT_3D('',#1587,#1315,#1316);
#1053=AXIS2_PLACEMENT_3D('',#1588,#1317,#1318);
#1054=AXIS2_PLACEMENT_3D('',#1589,#1319,#1320);
#1055=AXIS2_PLACEMENT_3D('',#1591,#1321,#1322);
#1056=AXIS2_PLACEMENT_3D('',#1592,#1323,#1324);
#1057=AXIS2_PLACEMENT_3D('',#1593,#1325,#1326);
#1058=AXIS2_PLACEMENT_3D('',#1595,#1327,#1328);
#1059=DIRECTION('',(0.,0.,1.));
#1060=DIRECTION('',(1.,0.,0.));
#1061=DIRECTION('',(0.,1.,0.));
#1062=DIRECTION('',(0.,0.,1.));
#1063=DIRECTION('',(0.,1.,0.));
#1064=DIRECTION('',(0.,0.,1.));
#1065=DIRECTION('',(0.,-1.,0.));
#1066=DIRECTION('',(0.,0.,-1.));
#1067=DIRECTION('',(0.,1.,0.));
#1068=DIRECTION('',(0.,0.,1.));
#1069=DIRECTION('',(0.,1.,0.));
#1070=DIRECTION('',(0.,0.,1.));
#1071=DIRECTION('',(0.,-1.,0.));
#1072=DIRECTION('',(0.,0.,-1.));
#1073=DIRECTION('',(0.,1.,0.));
#1074=DIRECTION('',(0.,0.,1.));
#1075=DIRECTION('',(0.,-1.,0.));
#1076=DIRECTION('',(0.,0.,-1.));
#1077=DIRECTION('',(0.,1.,0.));
#1078=DIRECTION('',(0.,0.,1.));
#1079=DIRECTION('',(0.,1.,0.));
#1080=DIRECTION('',(0.,0.,1.));
#1081=DIRECTION('',(0.,1.,0.));
#1082=DIRECTION('',(0.,0.,1.));
#1083=DIRECTION('',(0.,1.,0.));
#1084=DIRECTION('',(0.,0.,1.));
#1085=DIRECTION('',(0.,-1.,0.));
#1086=DIRECTION('',(0.,0.,-1.));
#1087=DIRECTION('',(0.,-1.,0.));
#1088=DIRECTION('',(0.,0.,-1.));
#1089=DIRECTION('',(-1.,0.,0.));
#1090=DIRECTION('',(0.,0.,1.));
#1091=DIRECTION('',(-1.,0.,0.));
#1092=DIRECTION('',(0.,0.,-1.));
#1093=DIRECTION('',(0.,-1.,0.));
#1094=DIRECTION('',(0.,0.,-1.));
#1095=DIRECTION('',(-1.,0.,0.));
#1096=DIRECTION('',(0.,0.,-1.));
#1097=DIRECTION('',(0.,-1.,0.));
#1098=DIRECTION('',(0.,0.,-1.));
#1099=DIRECTION('',(0.,0.,1.));
#1100=DIRECTION('',(-1.,0.,0.));
#1101=DIRECTION('',(0.,0.,-1.));
#1102=DIRECTION('',(-1.,0.,0.));
#1103=DIRECTION('',(0.,0.,1.));
#1104=DIRECTION('',(1.,0.,0.));
#1105=DIRECTION('',(-1.,0.,0.));
#1106=DIRECTION('',(4.33680868994202E-16,-1.,0.));
#1107=DIRECTION('',(-1.,0.,0.));
#1108=DIRECTION('',(0.,1.,0.));
#1109=DIRECTION('',(1.,0.,0.));
#1110=DIRECTION('',(0.,-1.,0.));
#1111=DIRECTION('',(0.,0.,1.));
#1112=DIRECTION('',(1.,0.,0.));
#1113=DIRECTION('',(0.,0.,1.));
#1114=DIRECTION('',(1.,0.,0.));
#1115=DIRECTION('',(0.,0.,1.));
#1116=DIRECTION('',(1.,0.,0.));
#1117=DIRECTION('',(0.,0.,1.));
#1118=DIRECTION('',(1.,0.,0.));
#1119=DIRECTION('',(0.,0.,1.));
#1120=DIRECTION('',(1.,0.,0.));
#1121=DIRECTION('',(4.33680868994202E-16,-1.,0.));
#1122=DIRECTION('',(-1.,0.,0.));
#1123=DIRECTION('',(4.33680868994202E-16,-1.,0.));
#1124=DIRECTION('',(0.,0.,1.));
#1125=DIRECTION('',(1.,0.,0.));
#1126=DIRECTION('',(-8.67361737988404E-17,-1.,0.));
#1127=DIRECTION('',(0.,0.,1.));
#1128=DIRECTION('',(1.,0.,0.));
#1129=DIRECTION('',(-1.,0.,0.));
#1130=DIRECTION('',(0.,0.,1.));
#1131=DIRECTION('',(1.,0.,0.));
#1132=DIRECTION('',(-8.67361737988404E-17,-1.,0.));
#1133=DIRECTION('',(0.,0.,1.));
#1134=DIRECTION('',(1.,0.,0.));
#1135=DIRECTION('',(-1.,0.,0.));
#1136=DIRECTION('',(0.,0.,1.));
#1137=DIRECTION('',(1.,0.,0.));
#1138=DIRECTION('',(-8.67361737988404E-17,-1.,0.));
#1139=DIRECTION('',(0.,0.,1.));
#1140=DIRECTION('',(1.,0.,0.));
#1141=DIRECTION('',(0.,1.,0.));
#1142=DIRECTION('',(1.,0.,0.));
#1143=DIRECTION('',(0.,1.,0.));
#1144=DIRECTION('',(-1.,0.,0.));
#1145=DIRECTION('',(0.,0.,1.));
#1146=DIRECTION('',(1.,0.,0.));
#1147=DIRECTION('',(-8.67361737988404E-17,-1.,0.));
#1148=DIRECTION('',(0.,0.,1.));
#1149=DIRECTION('',(1.,0.,0.));
#1150=DIRECTION('',(-1.,0.,0.));
#1151=DIRECTION('',(0.,-1.,0.));
#1152=DIRECTION('',(1.,0.,0.));
#1153=DIRECTION('',(0.,-1.,0.));
#1154=DIRECTION('',(-1.,0.,0.));
#1155=DIRECTION('',(0.,-1.,0.));
#1156=DIRECTION('',(-1.,0.,0.));
#1157=DIRECTION('',(0.,-1.,0.));
#1158=DIRECTION('',(-1.,0.,0.));
#1159=DIRECTION('',(0.,0.,1.));
#1160=DIRECTION('',(1.,0.,0.));
#1161=DIRECTION('',(0.,0.,1.));
#1162=DIRECTION('',(1.,0.,0.));
#1163=DIRECTION('',(0.,0.,1.));
#1164=DIRECTION('',(1.,0.,0.));
#1165=DIRECTION('',(0.,0.,1.));
#1166=DIRECTION('',(1.,0.,0.));
#1167=DIRECTION('',(0.,0.,1.));
#1168=DIRECTION('',(1.,0.,0.));
#1169=DIRECTION('',(1.,-8.67361737988404E-17,0.));
#1170=DIRECTION('',(8.67361737988404E-17,1.,0.));
#1171=DIRECTION('',(0.,0.,-1.));
#1172=DIRECTION('',(0.,0.,-1.));
#1173=DIRECTION('',(0.,-1.,0.));
#1174=DIRECTION('',(0.,0.,-1.));
#1175=DIRECTION('',(0.,1.,0.));
#1176=DIRECTION('',(0.,0.,1.));
#1177=DIRECTION('',(0.,1.,0.));
#1178=DIRECTION('',(0.,0.,1.));
#1179=DIRECTION('',(0.,0.,-1.));
#1180=DIRECTION('',(0.,0.,-1.));
#1181=DIRECTION('',(0.,-1.,0.));
#1182=DIRECTION('',(0.,0.,-1.));
#1183=DIRECTION('',(0.,0.,-1.));
#1184=DIRECTION('',(-1.,0.,0.));
#1185=DIRECTION('',(0.,0.,-1.));
#1186=DIRECTION('',(0.,-1.,0.));
#1187=DIRECTION('',(0.,0.,-1.));
#1188=DIRECTION('',(1.,-8.67361737988404E-17,0.));
#1189=DIRECTION('',(8.67361737988404E-17,1.,0.));
#1190=DIRECTION('',(0.,0.,-1.));
#1191=DIRECTION('',(0.,0.,-1.));
#1192=DIRECTION('',(0.,0.,-1.));
#1193=DIRECTION('',(-1.,0.,0.));
#1194=DIRECTION('',(0.,0.,-1.));
#1195=DIRECTION('',(-1.,0.,0.));
#1196=DIRECTION('',(0.,0.,-1.));
#1197=DIRECTION('',(-1.,0.,0.));
#1198=DIRECTION('',(0.,-1.,0.));
#1199=DIRECTION('',(0.,0.,-1.));
#1200=DIRECTION('',(0.,-1.,0.));
#1201=DIRECTION('',(0.,0.,-1.));
#1202=DIRECTION('',(0.,0.,1.));
#1203=DIRECTION('',(0.,0.,-1.));
#1204=DIRECTION('',(0.,-1.,0.));
#1205=DIRECTION('',(0.,0.,-1.));
#1206=DIRECTION('',(0.,0.,-1.));
#1207=DIRECTION('',(0.,0.,-1.));
#1208=DIRECTION('',(-1.,0.,0.));
#1209=DIRECTION('',(-1.,0.,0.));
#1210=DIRECTION('',(0.,0.,1.));
#1211=DIRECTION('',(0.,0.,-1.));
#1212=DIRECTION('',(0.,1.,0.));
#1213=DIRECTION('',(0.,1.,0.));
#1214=DIRECTION('',(-1.,0.,0.));
#1215=DIRECTION('',(0.,0.,1.));
#1216=DIRECTION('',(0.,1.,0.));
#1217=DIRECTION('',(0.,0.,-1.));
#1218=DIRECTION('',(0.,1.,0.));
#1219=DIRECTION('',(0.,0.,1.));
#1220=DIRECTION('',(0.,1.,0.));
#1221=DIRECTION('',(0.,0.,1.));
#1222=DIRECTION('',(1.,0.,0.));
#1223=DIRECTION('',(0.,0.,-1.));
#1224=DIRECTION('',(1.,0.,0.));
#1225=DIRECTION('',(0.,0.,-1.));
#1226=DIRECTION('',(0.,1.,0.));
#1227=DIRECTION('',(0.,0.,1.));
#1228=DIRECTION('',(0.,0.,1.));
#1229=DIRECTION('',(1.,0.,0.));
#1230=DIRECTION('',(0.,-1.,0.));
#1231=DIRECTION('',(0.,-1.,0.));
#1232=DIRECTION('',(-1.,0.,0.));
#1233=DIRECTION('',(-1.,0.,0.));
#1234=DIRECTION('',(1.,0.,0.));
#1235=DIRECTION('',(0.,0.,-1.));
#1236=DIRECTION('',(0.,0.,-1.));
#1237=DIRECTION('',(0.,-1.,0.));
#1238=DIRECTION('',(0.,0.,-1.));
#1239=DIRECTION('',(0.,-1.,0.));
#1240=DIRECTION('',(0.,0.,-1.));
#1241=DIRECTION('',(0.,0.,-1.));
#1242=DIRECTION('',(-1.,0.,0.));
#1243=DIRECTION('',(1.,0.,0.));
#1244=DIRECTION('',(0.,0.,-1.));
#1245=DIRECTION('',(0.,0.,-1.));
#1246=DIRECTION('',(0.,-1.,0.));
#1247=DIRECTION('',(0.,1.,0.));
#1248=DIRECTION('',(0.,0.,1.));
#1249=DIRECTION('',(0.,1.,0.));
#1250=DIRECTION('',(0.,0.,1.));
#1251=DIRECTION('',(0.,0.,-1.));
#1252=DIRECTION('',(1.,0.,0.));
#1253=DIRECTION('',(1.,0.,0.));
#1254=DIRECTION('',(0.,0.,-1.));
#1255=DIRECTION('',(0.,-1.,0.));
#1256=DIRECTION('',(0.,-1.,0.));
#1257=DIRECTION('',(1.,0.,0.));
#1258=DIRECTION('',(0.,0.,-1.));
#1259=DIRECTION('',(0.,-1.,0.));
#1260=DIRECTION('',(0.,0.,-1.));
#1261=DIRECTION('',(0.,-1.,0.));
#1262=DIRECTION('',(0.,-1.,0.));
#1263=DIRECTION('',(0.,0.,-1.));
#1264=DIRECTION('',(-1.,0.,0.));
#1265=DIRECTION('',(0.,-1.,0.));
#1266=DIRECTION('',(0.,0.,-1.));
#1267=DIRECTION('',(0.,-1.,0.));
#1268=DIRECTION('',(0.,0.,-1.));
#1269=DIRECTION('',(0.,0.,1.));
#1270=DIRECTION('',(0.,0.,-1.));
#1271=DIRECTION('',(1.,0.,0.));
#1272=DIRECTION('',(0.,0.,-1.));
#1273=DIRECTION('',(0.,-1.,0.));
#1274=DIRECTION('',(1.,0.,0.));
#1275=DIRECTION('',(0.,0.,-1.));
#1276=DIRECTION('',(0.,0.,1.));
#1277=DIRECTION('',(1.,0.,0.));
#1278=DIRECTION('',(4.33680868994202E-16,-1.,0.));
#1279=DIRECTION('',(0.,1.,0.));
#1280=DIRECTION('',(0.,0.,1.));
#1281=DIRECTION('',(0.,1.,0.));
#1282=DIRECTION('',(0.,0.,1.));
#1283=DIRECTION('',(0.,-1.,0.));
#1284=DIRECTION('',(0.,0.,-1.));
#1285=DIRECTION('',(0.,-1.,0.));
#1286=DIRECTION('',(0.,0.,-1.));
#1287=DIRECTION('',(0.,0.,1.));
#1288=DIRECTION('',(1.,0.,0.));
#1289=DIRECTION('',(0.,0.,1.));
#1290=DIRECTION('',(1.,0.,0.));
#1291=DIRECTION('',(0.,0.,-1.));
#1292=DIRECTION('',(-1.,0.,0.));
#1293=DIRECTION('',(0.,0.,1.));
#1294=DIRECTION('',(1.,0.,0.));
#1295=DIRECTION('',(0.,0.,-1.));
#1296=DIRECTION('',(-1.,0.,0.));
#1297=DIRECTION('',(-1.,-4.33680868994202E-16,0.));
#1298=DIRECTION('',(4.33680868994202E-16,-1.,0.));
#1299=DIRECTION('',(0.,0.,1.));
#1300=DIRECTION('',(0.,1.,0.));
#1301=DIRECTION('',(0.,0.,1.));
#1302=DIRECTION('',(0.,0.,1.));
#1303=DIRECTION('',(-1.,-4.33680868994202E-16,0.));
#1304=DIRECTION('',(4.33680868994202E-16,-1.,0.));
#1305=DIRECTION('',(0.,1.,0.));
#1306=DIRECTION('',(0.,0.,1.));
#1307=DIRECTION('',(0.,1.,0.));
#1308=DIRECTION('',(0.,0.,1.));
#1309=DIRECTION('',(0.,1.,0.));
#1310=DIRECTION('',(-1.,0.,0.));
#1311=DIRECTION('',(0.,1.,0.));
#1312=DIRECTION('',(0.,0.,1.));
#1313=DIRECTION('',(0.,1.,0.));
#1314=DIRECTION('',(0.,0.,1.));
#1315=DIRECTION('',(0.,1.,0.));
#1316=DIRECTION('',(-1.,0.,0.));
#1317=DIRECTION('',(0.,-1.,0.));
#1318=DIRECTION('',(0.,0.,-1.));
#1319=DIRECTION('',(0.,-1.,0.));
#1320=DIRECTION('',(0.,0.,-1.));
#1321=DIRECTION('',(0.,-1.,0.));
#1322=DIRECTION('',(1.,0.,0.));
#1323=DIRECTION('',(0.,-1.,0.));
#1324=DIRECTION('',(1.,0.,0.));
#1325=DIRECTION('',(0.,-1.,0.));
#1326=DIRECTION('',(0.,0.,-1.));
#1327=DIRECTION('',(0.,-1.,0.));
#1328=DIRECTION('',(0.,0.,-1.));
#1329=CARTESIAN_POINT('',(0.,0.,0.));
#1330=CARTESIAN_POINT('',(-0.01,-0.03,0.005));
#1331=CARTESIAN_POINT('',(-0.01,-0.016,0.005));
#1332=CARTESIAN_POINT('',(-0.01,-0.016,0.006));
#1333=CARTESIAN_POINT('',(-0.01,-0.0187,0.005));
#1334=CARTESIAN_POINT('',(-0.01,-0.0187,0.004));
#1335=CARTESIAN_POINT('',(0.01,-0.03,0.005));
#1336=CARTESIAN_POINT('',(0.01,-0.016,0.005));
#1337=CARTESIAN_POINT('',(0.01,-0.016,0.006));
#1338=CARTESIAN_POINT('',(0.01,-0.0187,0.005));
#1339=CARTESIAN_POINT('',(0.01,-0.0187,0.004));
#1340=CARTESIAN_POINT('',(-0.01,-0.03,0.005));
#1341=CARTESIAN_POINT('',(-0.01,0.017,0.005));
#1342=CARTESIAN_POINT('',(-0.01,0.017,0.004));
#1343=CARTESIAN_POINT('',(-0.01,0.0187,0.005));
#1344=CARTESIAN_POINT('',(-0.01,0.0187,0.006));
#1345=CARTESIAN_POINT('',(0.01,-0.03,0.005));
#1346=CARTESIAN_POINT('',(0.01,0.017,0.005));
#1347=CARTESIAN_POINT('',(0.01,0.017,0.006));
#1348=CARTESIAN_POINT('',(0.01,0.0187,0.005));
#1349=CARTESIAN_POINT('',(0.01,0.0187,0.006));
#1350=CARTESIAN_POINT('',(-3.46944695195361E-18,-0.02,0.003));
#1351=CARTESIAN_POINT('',(-0.01,-0.02,0.005));
#1352=CARTESIAN_POINT('',(-0.01,-0.02,0.003));
#1353=CARTESIAN_POINT('',(-3.46944695195361E-18,-0.02,0.));
#1354=CARTESIAN_POINT('',(-0.0035,-0.02,0.));
#1355=CARTESIAN_POINT('',(-0.0228,-0.02,0.));
#1356=CARTESIAN_POINT('',(-0.0035,-0.02,-0.007));
#1357=CARTESIAN_POINT('',(-0.0035,-0.02,0.018));
#1358=CARTESIAN_POINT('',(-3.46944695195361E-18,-0.02,0.018));
#1359=CARTESIAN_POINT('',(-0.013,-0.02,0.018));
#1360=CARTESIAN_POINT('',(-0.013,-0.02,0.008));
#1361=CARTESIAN_POINT('',(-0.013,-0.02,0.0042));
#1362=CARTESIAN_POINT('',(-0.0142,-0.02,0.0042));
#1363=CARTESIAN_POINT('',(-0.0142,-0.02,0.003));
#1364=CARTESIAN_POINT('',(-3.46944695195361E-18,-0.02,0.003));
#1365=CARTESIAN_POINT('',(-0.0228,-0.02,0.003));
#1366=CARTESIAN_POINT('',(-0.0228,-0.02,0.));
#1367=CARTESIAN_POINT('',(0.,-0.018,0.018));
#1368=CARTESIAN_POINT('',(-0.0035,-0.018,-0.007));
#1369=CARTESIAN_POINT('',(-0.0035,-0.018,0.008));
#1370=CARTESIAN_POINT('',(-0.0035,-0.018,0.018));
#1371=CARTESIAN_POINT('',(0.,-0.018,0.008));
#1372=CARTESIAN_POINT('',(-0.0095,-0.018,0.008));
#1373=CARTESIAN_POINT('',(-0.0095,-0.018,0.018));
#1374=CARTESIAN_POINT('',(-0.0095,-0.018,0.018));
#1375=CARTESIAN_POINT('',(0.,-0.018,0.018));
#1376=CARTESIAN_POINT('',(0.,-0.018,0.018));
#1377=CARTESIAN_POINT('',(0.,-0.018,0.018));
#1378=CARTESIAN_POINT('',(0.0095,-0.018,0.018));
#1379=CARTESIAN_POINT('',(0.0035,-0.018,0.018));
#1380=CARTESIAN_POINT('',(0.0035,-0.019,0.018));
#1381=CARTESIAN_POINT('',(0.0035,-0.02,0.018));
#1382=CARTESIAN_POINT('',(-3.46944695195361E-18,-0.02,0.018));
#1383=CARTESIAN_POINT('',(0.013,-0.02,0.018));
#1384=CARTESIAN_POINT('',(0.013,-0.018,0.018));
#1385=CARTESIAN_POINT('',(0.013,-0.016,0.018));
#1386=CARTESIAN_POINT('',(0.,-0.016,0.018));
#1387=CARTESIAN_POINT('',(0.0095,-0.016,0.018));
#1388=CARTESIAN_POINT('',(0.0095,-0.017,0.018));
#1389=CARTESIAN_POINT('',(0.,0.,0.));
#1390=CARTESIAN_POINT('',(-0.018,-0.011,0.));
#1391=CARTESIAN_POINT('',(-0.0165,-0.011,0.));
#1392=CARTESIAN_POINT('',(-0.018,0.011,0.));
#1393=CARTESIAN_POINT('',(-0.0165,0.011,0.));
#1394=CARTESIAN_POINT('',(0.018,0.011,0.));
#1395=CARTESIAN_POINT('',(0.0195,0.011,0.));
#1396=CARTESIAN_POINT('',(0.018,-0.011,0.));
#1397=CARTESIAN_POINT('',(0.0195,-0.011,0.));
#1398=CARTESIAN_POINT('',(0.0035,1.5178830414797E-18,0.));
#1399=CARTESIAN_POINT('',(0.0035,-0.018,0.));
#1400=CARTESIAN_POINT('',(0.0035,-0.02,0.));
#1401=CARTESIAN_POINT('',(0.,-0.018,0.));
#1402=CARTESIAN_POINT('',(-0.0035,-0.018,0.));
#1403=CARTESIAN_POINT('',(-0.0035,-1.51788304147971E-18,0.));
#1404=CARTESIAN_POINT('',(-0.0228,-0.0188,0.));
#1405=CARTESIAN_POINT('',(-0.024,-0.0188,0.));
#1406=CARTESIAN_POINT('',(-0.024,0.,0.));
#1407=CARTESIAN_POINT('',(-0.024,0.0188,0.));
#1408=CARTESIAN_POINT('',(-0.0228,0.0188,0.));
#1409=CARTESIAN_POINT('',(-0.0228,0.02,0.));
#1410=CARTESIAN_POINT('',(0.,0.02,0.));
#1411=CARTESIAN_POINT('',(0.0228,0.02,0.));
#1412=CARTESIAN_POINT('',(0.0228,0.0188,0.));
#1413=CARTESIAN_POINT('',(0.024,0.0188,0.));
#1414=CARTESIAN_POINT('',(0.024,-1.7347234759768E-18,0.));
#1415=CARTESIAN_POINT('',(0.024,-0.0188,0.));
#1416=CARTESIAN_POINT('',(0.0228,-0.0188,0.));
#1417=CARTESIAN_POINT('',(0.0228,-0.02,0.));
#1418=CARTESIAN_POINT('',(-3.46944695195361E-18,-0.02,0.));
#1419=CARTESIAN_POINT('',(0.,0.,0.003));
#1420=CARTESIAN_POINT('',(-0.024,0.,0.003));
#1421=CARTESIAN_POINT('',(-0.024,0.0188,0.003));
#1422=CARTESIAN_POINT('',(-0.024,-0.0188,0.003));
#1423=CARTESIAN_POINT('',(-0.0228,-0.0188,0.003));
#1424=CARTESIAN_POINT('',(-0.0142,-0.016,0.003));
#1425=CARTESIAN_POINT('',(-0.0142,-0.016,0.003));
#1426=CARTESIAN_POINT('',(0.,-0.016,0.003));
#1427=CARTESIAN_POINT('',(0.0142,-0.016,0.003));
#1428=CARTESIAN_POINT('',(0.0142,0.,0.003));
#1429=CARTESIAN_POINT('',(0.0142,-0.02,0.003));
#1430=CARTESIAN_POINT('',(-3.46944695195361E-18,-0.02,0.003));
#1431=CARTESIAN_POINT('',(0.0228,-0.02,0.003));
#1432=CARTESIAN_POINT('',(0.0228,-0.0188,0.003));
#1433=CARTESIAN_POINT('',(0.024,-0.0188,0.003));
#1434=CARTESIAN_POINT('',(0.024,-1.7347234759768E-18,0.003));
#1435=CARTESIAN_POINT('',(0.024,0.0188,0.003));
#1436=CARTESIAN_POINT('',(0.0228,0.0188,0.003));
#1437=CARTESIAN_POINT('',(0.0228,0.02,0.003));
#1438=CARTESIAN_POINT('',(0.,0.02,0.003));
#1439=CARTESIAN_POINT('',(0.0142,0.02,0.003));
#1440=CARTESIAN_POINT('',(0.0142,0.017,0.003));
#1441=CARTESIAN_POINT('',(0.0142,0.017,0.003));
#1442=CARTESIAN_POINT('',(0.01,0.017,0.003));
#1443=CARTESIAN_POINT('',(0.007,0.017,0.003));
#1444=CARTESIAN_POINT('',(0.007,0.0175,0.003));
#1445=CARTESIAN_POINT('',(0.007,0.018,0.003));
#1446=CARTESIAN_POINT('',(0.,0.018,0.003));
#1447=CARTESIAN_POINT('',(-0.007,0.018,0.003));
#1448=CARTESIAN_POINT('',(-0.007,0.0175,0.003));
#1449=CARTESIAN_POINT('',(-0.007,0.017,0.003));
#1450=CARTESIAN_POINT('',(-0.01,0.017,0.003));
#1451=CARTESIAN_POINT('',(-0.0142,0.017,0.003));
#1452=CARTESIAN_POINT('',(-0.0142,0.,0.003));
#1453=CARTESIAN_POINT('',(-0.0142,0.02,0.003));
#1454=CARTESIAN_POINT('',(0.,0.02,0.003));
#1455=CARTESIAN_POINT('',(-0.0228,0.02,0.003));
#1456=CARTESIAN_POINT('',(-0.0228,0.0188,0.003));
#1457=CARTESIAN_POINT('',(0.018,-0.011,0.003));
#1458=CARTESIAN_POINT('',(0.0195,-0.011,0.003));
#1459=CARTESIAN_POINT('',(0.018,0.011,0.003));
#1460=CARTESIAN_POINT('',(0.0195,0.011,0.003));
#1461=CARTESIAN_POINT('',(-0.018,0.011,0.003));
#1462=CARTESIAN_POINT('',(-0.0165,0.011,0.003));
#1463=CARTESIAN_POINT('',(-0.018,-0.011,0.003));
#1464=CARTESIAN_POINT('',(-0.0165,-0.011,0.003));
#1465=CARTESIAN_POINT('',(0.024,-1.7347234759768E-18,0.003));
#1466=CARTESIAN_POINT('',(0.024,-0.0188,0.003));
#1467=CARTESIAN_POINT('',(0.024,0.0188,0.003));
#1468=CARTESIAN_POINT('',(0.,0.02,0.003));
#1469=CARTESIAN_POINT('',(0.01,0.02,0.005));
#1470=CARTESIAN_POINT('',(0.01,0.02,0.007));
#1471=CARTESIAN_POINT('',(-0.01,0.02,0.005));
#1472=CARTESIAN_POINT('',(-0.01,0.02,0.007));
#1473=CARTESIAN_POINT('',(0.0228,0.02,0.));
#1474=CARTESIAN_POINT('',(-0.0228,0.02,0.003));
#1475=CARTESIAN_POINT('',(-0.0142,0.02,0.0042));
#1476=CARTESIAN_POINT('',(-0.013,0.02,0.0042));
#1477=CARTESIAN_POINT('',(-0.013,0.02,0.008));
#1478=CARTESIAN_POINT('',(-0.013,0.02,0.018));
#1479=CARTESIAN_POINT('',(0.,0.02,0.018));
#1480=CARTESIAN_POINT('',(0.013,0.02,0.018));
#1481=CARTESIAN_POINT('',(0.013,0.02,0.008));
#1482=CARTESIAN_POINT('',(0.013,0.02,0.0042));
#1483=CARTESIAN_POINT('',(0.0142,0.02,0.0042));
#1484=CARTESIAN_POINT('',(-0.024,0.,0.003));
#1485=CARTESIAN_POINT('',(-0.024,-0.0188,0.003));
#1486=CARTESIAN_POINT('',(-0.024,0.0188,0.003));
#1487=CARTESIAN_POINT('',(-0.018,0.011,0.003));
#1488=CARTESIAN_POINT('',(0.018,0.011,0.003));
#1489=CARTESIAN_POINT('',(0.018,-0.011,0.003));
#1490=CARTESIAN_POINT('',(-3.46944695195361E-18,-0.02,0.003));
#1491=CARTESIAN_POINT('',(0.01,-0.02,0.005));
#1492=CARTESIAN_POINT('',(0.01,-0.02,0.003));
#1493=CARTESIAN_POINT('',(0.0035,-0.02,-0.007));
#1494=CARTESIAN_POINT('',(0.0228,-0.02,0.003));
#1495=CARTESIAN_POINT('',(0.0142,-0.02,0.0042));
#1496=CARTESIAN_POINT('',(0.013,-0.02,0.0042));
#1497=CARTESIAN_POINT('',(0.013,-0.02,0.008));
#1498=CARTESIAN_POINT('',(-0.018,-0.011,0.003));
#1499=CARTESIAN_POINT('',(-0.013,-0.018,0.008));
#1500=CARTESIAN_POINT('',(-0.013,-0.016,0.008));
#1501=CARTESIAN_POINT('',(-0.013,-0.016,0.018));
#1502=CARTESIAN_POINT('',(-0.013,-0.016,0.0042));
#1503=CARTESIAN_POINT('',(-0.013,-0.02,0.0042));
#1504=CARTESIAN_POINT('',(-0.013,-0.018,0.018));
#1505=CARTESIAN_POINT('',(0.013,-0.018,0.008));
#1506=CARTESIAN_POINT('',(0.013,-0.018,0.0042));
#1507=CARTESIAN_POINT('',(0.013,-0.016,0.0042));
#1508=CARTESIAN_POINT('',(0.013,-0.016,0.008));
#1509=CARTESIAN_POINT('',(0.,-0.016,0.008));
#1510=CARTESIAN_POINT('',(-0.0142,-0.016,0.0042));
#1511=CARTESIAN_POINT('',(0.,-0.016,0.018));
#1512=CARTESIAN_POINT('',(-0.0095,-0.016,0.018));
#1513=CARTESIAN_POINT('',(-0.0095,-0.016,0.018));
#1514=CARTESIAN_POINT('',(-0.0095,-0.016,0.008));
#1515=CARTESIAN_POINT('',(0.,-0.016,0.008));
#1516=CARTESIAN_POINT('',(0.0095,-0.016,0.008));
#1517=CARTESIAN_POINT('',(0.0095,-0.016,0.018));
#1518=CARTESIAN_POINT('',(0.0142,-0.016,0.0042));
#1519=CARTESIAN_POINT('',(0.,0.,0.008));
#1520=CARTESIAN_POINT('',(0.0095,-0.017,0.008));
#1521=CARTESIAN_POINT('',(0.0095,-0.018,0.008));
#1522=CARTESIAN_POINT('',(-0.0095,-0.017,0.008));
#1523=CARTESIAN_POINT('',(0.,-0.018,0.008));
#1524=CARTESIAN_POINT('',(0.0035,-0.018,0.008));
#1525=CARTESIAN_POINT('',(0.,-0.018,0.008));
#1526=CARTESIAN_POINT('',(-0.007,0.0175,0.008));
#1527=CARTESIAN_POINT('',(-0.007,0.018,0.008));
#1528=CARTESIAN_POINT('',(-0.007,0.018,0.018));
#1529=CARTESIAN_POINT('',(-0.007,0.0175,0.018));
#1530=CARTESIAN_POINT('',(-0.007,0.017,0.018));
#1531=CARTESIAN_POINT('',(-0.007,0.017,0.008));
#1532=CARTESIAN_POINT('',(0.,0.018,0.008));
#1533=CARTESIAN_POINT('',(0.007,0.018,0.008));
#1534=CARTESIAN_POINT('',(0.007,0.018,0.018));
#1535=CARTESIAN_POINT('',(0.,0.018,0.018));
#1536=CARTESIAN_POINT('',(0.007,0.0175,0.008));
#1537=CARTESIAN_POINT('',(0.007,0.017,0.008));
#1538=CARTESIAN_POINT('',(0.007,0.017,0.018));
#1539=CARTESIAN_POINT('',(0.007,0.0175,0.018));
#1540=CARTESIAN_POINT('',(0.01,0.017,0.008));
#1541=CARTESIAN_POINT('',(0.0142,0.017,0.0042));
#1542=CARTESIAN_POINT('',(0.013,0.017,0.0042));
#1543=CARTESIAN_POINT('',(0.013,0.017,0.008));
#1544=CARTESIAN_POINT('',(0.013,0.017,0.018));
#1545=CARTESIAN_POINT('',(0.01,0.017,0.018));
#1546=CARTESIAN_POINT('',(0.013,0.0185,0.008));
#1547=CARTESIAN_POINT('',(0.013,0.02,0.0042));
#1548=CARTESIAN_POINT('',(0.013,0.0185,0.018));
#1549=CARTESIAN_POINT('',(-0.013,0.0185,0.008));
#1550=CARTESIAN_POINT('',(-0.013,0.0185,0.0042));
#1551=CARTESIAN_POINT('',(-0.013,0.017,0.0042));
#1552=CARTESIAN_POINT('',(-0.013,0.017,0.008));
#1553=CARTESIAN_POINT('',(-0.013,0.017,0.018));
#1554=CARTESIAN_POINT('',(-0.013,0.0185,0.018));
#1555=CARTESIAN_POINT('',(-0.01,0.017,0.008));
#1556=CARTESIAN_POINT('',(-0.01,0.017,0.018));
#1557=CARTESIAN_POINT('',(-0.0142,0.017,0.0042));
#1558=CARTESIAN_POINT('',(0.,-0.018,0.018));
#1559=CARTESIAN_POINT('',(0.0035,-0.018,-0.007));
#1560=CARTESIAN_POINT('',(0.0095,-0.018,0.018));
#1561=CARTESIAN_POINT('',(-0.0095,-0.017,0.018));
#1562=CARTESIAN_POINT('',(-0.0095,-0.017,0.018));
#1563=CARTESIAN_POINT('',(0.0095,-0.017,0.018));
#1564=CARTESIAN_POINT('',(0.,-0.018,0.018));
#1565=CARTESIAN_POINT('',(-0.0035,-0.019,0.018));
#1566=CARTESIAN_POINT('',(0.0142,-0.018,0.0042));
#1567=CARTESIAN_POINT('',(0.0142,0.,0.0042));
#1568=CARTESIAN_POINT('',(-0.0142,0.,0.0042));
#1569=CARTESIAN_POINT('',(-0.0142,0.0185,0.0042));
#1570=CARTESIAN_POINT('',(0.,0.,0.018));
#1571=CARTESIAN_POINT('',(-0.0228,-0.0188,0.003));
#1572=CARTESIAN_POINT('',(0.0228,-0.0188,0.003));
#1573=CARTESIAN_POINT('',(0.0228,0.0188,0.003));
#1574=CARTESIAN_POINT('',(-0.0228,0.0188,0.003));
#1575=CARTESIAN_POINT('',(0.0035,-0.019,-0.007));
#1576=CARTESIAN_POINT('',(0.0035,-0.018,-0.007));
#1577=CARTESIAN_POINT('',(0.,-0.018,-0.007));
#1578=CARTESIAN_POINT('',(-0.0035,-0.018,-0.007));
#1579=CARTESIAN_POINT('',(-0.0035,-0.019,-0.007));
#1580=CARTESIAN_POINT('',(0.01,0.0187,0.005));
#1581=CARTESIAN_POINT('',(0.01,0.0187,0.005));
#1582=CARTESIAN_POINT('',(0.01,0.0187,0.007));
#1583=CARTESIAN_POINT('',(0.,0.0187,0.009));
#1584=CARTESIAN_POINT('',(-0.01,0.0187,0.005));
#1585=CARTESIAN_POINT('',(-0.01,0.0187,0.005));
#1586=CARTESIAN_POINT('',(-0.01,0.0187,0.007));
#1587=CARTESIAN_POINT('',(0.,0.0187,0.009));
#1588=CARTESIAN_POINT('',(0.01,-0.0187,0.005));
#1589=CARTESIAN_POINT('',(0.01,-0.0187,0.005));
#1590=CARTESIAN_POINT('',(0.01,-0.0187,0.003));
#1591=CARTESIAN_POINT('',(0.0054,-0.0187,0.009));
#1592=CARTESIAN_POINT('',(0.0054,-0.0187,0.009));
#1593=CARTESIAN_POINT('',(-0.01,-0.0187,0.005));
#1594=CARTESIAN_POINT('',(-0.01,-0.0187,0.003));
#1595=CARTESIAN_POINT('',(-0.01,-0.0187,0.005));
#1596=MECHANICAL_DESIGN_GEOMETRIC_PRESENTATION_REPRESENTATION('',(#955),
#1597);
#1597=(
GEOMETRIC_REPRESENTATION_CONTEXT(3)
GLOBAL_UNCERTAINTY_ASSIGNED_CONTEXT((#1598))
GLOBAL_UNIT_ASSIGNED_CONTEXT((#1601,#1600,#1599))
REPRESENTATION_CONTEXT('Part 1','TOP_LEVEL_ASSEMBLY_PART')
);
#1598=UNCERTAINTY_MEASURE_WITH_UNIT(LENGTH_MEASURE(1.E-8),#1601,
'DISTANCE_ACCURACY_VALUE','Maximum Tolerance applied to model');
#1599=(
NAMED_UNIT(*)
SI_UNIT($,.STERADIAN.)
SOLID_ANGLE_UNIT()
);
#1600=(
NAMED_UNIT(*)
PLANE_ANGLE_UNIT()
SI_UNIT($,.RADIAN.)
);
#1601=(
LENGTH_UNIT()
NAMED_UNIT(*)
SI_UNIT($,.METRE.)
);
#1602=PRODUCT_DEFINITION_SHAPE('','',#1603);
#1603=PRODUCT_DEFINITION('','',#1605,#1604);
#1604=PRODUCT_DEFINITION_CONTEXT('',#1611,'design');
#1605=PRODUCT_DEFINITION_FORMATION_WITH_SPECIFIED_SOURCE('','',#1607,
 .NOT_KNOWN.);
#1606=PRODUCT_RELATED_PRODUCT_CATEGORY('','',(#1607));
#1607=PRODUCT('Part 1','Part 1','Part 1',(#1609));
#1608=PRODUCT_CATEGORY('','');
#1609=PRODUCT_CONTEXT('',#1611,'mechanical');
#1610=APPLICATION_PROTOCOL_DEFINITION('international standard',
'ap242_managed_model_based_3d_engineering',2020,#1611);
#1611=APPLICATION_CONTEXT('managed model based 3d engineering');
ENDSEC;
END-ISO-10303-21;
