ISO-10303-21;
HEADER;
/* Generated by software containing ST-Developer
 * from STEP Tools, Inc. (www.steptools.com) 
 */
/* OPTION: using custom renumber hook */

FILE_DESCRIPTION(
/* description */ ('STEP AP242 Edition 2',
'CAx-IF Rec.Pracs.---Representation and Presentation of Product Manufa
cturing Information (PMI)---4.0---2014-10-13',
'CAx-IF Rec.Pracs.---3D Tessellated Geometry---0.4---2014-09-14','2;1',
'CAx-IF Rec.Pracs.---User Defined Attributes---1.5---2016-08-15'),
/* implementation_level */ '2;1');

FILE_NAME(
/* name */ 'Base Plate',
/* time_stamp */ '2026-08-02T02:26:22Z',
/* author */ (''),
/* organization */ (''),
/* preprocessor_version */ 'ST-DEVELOPER v20',
/* originating_system */ 'ONSHAPE BY PTC INC, 1.218',
/* authorisation */ '  ');

FILE_SCHEMA (('AP242_MANAGED_MODEL_BASED_3D_ENGINEERING_MIM_LF { 1 0 10303 442 3 1 4 }'));
ENDSEC;

DATA;
#10=SHAPE_REPRESENTATION_RELATIONSHIP('','',#785,#11);
#11=ADVANCED_BREP_SHAPE_REPRESENTATION('',(#783),#1291);
#12=CYLINDRICAL_SURFACE('',#823,0.0023);
#13=CYLINDRICAL_SURFACE('',#826,0.0023);
#14=CYLINDRICAL_SURFACE('',#829,0.0023);
#15=CYLINDRICAL_SURFACE('',#832,0.0023);
#16=CYLINDRICAL_SURFACE('',#842,0.002);
#17=CYLINDRICAL_SURFACE('',#843,0.002);
#18=CYLINDRICAL_SURFACE('',#844,0.002);
#19=CYLINDRICAL_SURFACE('',#845,0.002);
#20=CYLINDRICAL_SURFACE('',#850,0.01);
#21=CYLINDRICAL_SURFACE('',#851,0.01);
#22=CYLINDRICAL_SURFACE('',#852,0.01);
#23=CYLINDRICAL_SURFACE('',#853,0.01);
#24=CIRCLE('',#789,0.0023);
#25=CIRCLE('',#790,0.0023);
#26=CIRCLE('',#791,0.0023);
#27=CIRCLE('',#792,0.0023);
#28=CIRCLE('',#795,0.002);
#29=CIRCLE('',#796,0.002);
#30=CIRCLE('',#797,0.002);
#31=CIRCLE('',#798,0.002);
#32=CIRCLE('',#799,0.01);
#33=CIRCLE('',#800,0.01);
#34=CIRCLE('',#801,0.01);
#35=CIRCLE('',#802,0.01);
#36=CIRCLE('',#810,0.01);
#37=CIRCLE('',#811,0.01);
#38=CIRCLE('',#812,0.01);
#39=CIRCLE('',#813,0.01);
#40=CIRCLE('',#814,0.002);
#41=CIRCLE('',#815,0.002);
#42=CIRCLE('',#816,0.002);
#43=CIRCLE('',#817,0.002);
#44=CIRCLE('',#824,0.0023);
#45=CIRCLE('',#827,0.0023);
#46=CIRCLE('',#830,0.0023);
#47=CIRCLE('',#833,0.0023);
#48=ORIENTED_EDGE('',*,*,#256,.T.);
#49=ORIENTED_EDGE('',*,*,#257,.T.);
#50=ORIENTED_EDGE('',*,*,#258,.F.);
#51=ORIENTED_EDGE('',*,*,#259,.T.);
#52=ORIENTED_EDGE('',*,*,#260,.F.);
#53=ORIENTED_EDGE('',*,*,#261,.F.);
#54=ORIENTED_EDGE('',*,*,#262,.F.);
#55=ORIENTED_EDGE('',*,*,#263,.F.);
#56=ORIENTED_EDGE('',*,*,#264,.F.);
#57=ORIENTED_EDGE('',*,*,#265,.F.);
#58=ORIENTED_EDGE('',*,*,#266,.T.);
#59=ORIENTED_EDGE('',*,*,#267,.T.);
#60=ORIENTED_EDGE('',*,*,#268,.T.);
#61=ORIENTED_EDGE('',*,*,#269,.T.);
#62=ORIENTED_EDGE('',*,*,#270,.F.);
#63=ORIENTED_EDGE('',*,*,#271,.F.);
#64=ORIENTED_EDGE('',*,*,#258,.T.);
#65=ORIENTED_EDGE('',*,*,#272,.F.);
#66=ORIENTED_EDGE('',*,*,#273,.F.);
#67=ORIENTED_EDGE('',*,*,#256,.F.);
#68=ORIENTED_EDGE('',*,*,#274,.T.);
#69=ORIENTED_EDGE('',*,*,#275,.F.);
#70=ORIENTED_EDGE('',*,*,#276,.T.);
#71=ORIENTED_EDGE('',*,*,#277,.F.);
#72=ORIENTED_EDGE('',*,*,#278,.T.);
#73=ORIENTED_EDGE('',*,*,#279,.F.);
#74=ORIENTED_EDGE('',*,*,#280,.F.);
#75=ORIENTED_EDGE('',*,*,#281,.T.);
#76=ORIENTED_EDGE('',*,*,#282,.T.);
#77=ORIENTED_EDGE('',*,*,#283,.F.);
#78=ORIENTED_EDGE('',*,*,#284,.F.);
#79=ORIENTED_EDGE('',*,*,#285,.T.);
#80=ORIENTED_EDGE('',*,*,#286,.F.);
#81=ORIENTED_EDGE('',*,*,#287,.T.);
#82=ORIENTED_EDGE('',*,*,#288,.F.);
#83=ORIENTED_EDGE('',*,*,#289,.T.);
#84=ORIENTED_EDGE('',*,*,#290,.T.);
#85=ORIENTED_EDGE('',*,*,#291,.T.);
#86=ORIENTED_EDGE('',*,*,#292,.T.);
#87=ORIENTED_EDGE('',*,*,#293,.T.);
#88=ORIENTED_EDGE('',*,*,#294,.F.);
#89=ORIENTED_EDGE('',*,*,#295,.T.);
#90=ORIENTED_EDGE('',*,*,#296,.F.);
#91=ORIENTED_EDGE('',*,*,#297,.T.);
#92=ORIENTED_EDGE('',*,*,#298,.T.);
#93=ORIENTED_EDGE('',*,*,#299,.T.);
#94=ORIENTED_EDGE('',*,*,#300,.F.);
#95=ORIENTED_EDGE('',*,*,#301,.T.);
#96=ORIENTED_EDGE('',*,*,#275,.T.);
#97=ORIENTED_EDGE('',*,*,#302,.T.);
#98=ORIENTED_EDGE('',*,*,#303,.T.);
#99=ORIENTED_EDGE('',*,*,#304,.F.);
#100=ORIENTED_EDGE('',*,*,#270,.T.);
#101=ORIENTED_EDGE('',*,*,#305,.T.);
#102=ORIENTED_EDGE('',*,*,#296,.T.);
#103=ORIENTED_EDGE('',*,*,#306,.T.);
#104=ORIENTED_EDGE('',*,*,#307,.F.);
#105=ORIENTED_EDGE('',*,*,#308,.T.);
#106=ORIENTED_EDGE('',*,*,#309,.T.);
#107=ORIENTED_EDGE('',*,*,#310,.T.);
#108=ORIENTED_EDGE('',*,*,#298,.F.);
#109=ORIENTED_EDGE('',*,*,#311,.T.);
#110=ORIENTED_EDGE('',*,*,#286,.T.);
#111=ORIENTED_EDGE('',*,*,#312,.T.);
#112=ORIENTED_EDGE('',*,*,#313,.F.);
#113=ORIENTED_EDGE('',*,*,#314,.T.);
#114=ORIENTED_EDGE('',*,*,#315,.F.);
#115=ORIENTED_EDGE('',*,*,#316,.T.);
#116=ORIENTED_EDGE('',*,*,#288,.T.);
#117=ORIENTED_EDGE('',*,*,#317,.T.);
#118=ORIENTED_EDGE('',*,*,#318,.T.);
#119=ORIENTED_EDGE('',*,*,#319,.T.);
#120=ORIENTED_EDGE('',*,*,#290,.F.);
#121=ORIENTED_EDGE('',*,*,#320,.T.);
#122=ORIENTED_EDGE('',*,*,#294,.T.);
#123=ORIENTED_EDGE('',*,*,#321,.T.);
#124=ORIENTED_EDGE('',*,*,#322,.F.);
#125=ORIENTED_EDGE('',*,*,#323,.T.);
#126=ORIENTED_EDGE('',*,*,#322,.T.);
#127=ORIENTED_EDGE('',*,*,#324,.T.);
#128=ORIENTED_EDGE('',*,*,#325,.F.);
#129=ORIENTED_EDGE('',*,*,#326,.T.);
#130=ORIENTED_EDGE('',*,*,#309,.F.);
#131=ORIENTED_EDGE('',*,*,#327,.T.);
#132=ORIENTED_EDGE('',*,*,#307,.T.);
#133=ORIENTED_EDGE('',*,*,#328,.T.);
#134=ORIENTED_EDGE('',*,*,#315,.T.);
#135=ORIENTED_EDGE('',*,*,#329,.T.);
#136=ORIENTED_EDGE('',*,*,#313,.T.);
#137=ORIENTED_EDGE('',*,*,#330,.T.);
#138=ORIENTED_EDGE('',*,*,#331,.T.);
#139=ORIENTED_EDGE('',*,*,#332,.T.);
#140=ORIENTED_EDGE('',*,*,#318,.F.);
#141=ORIENTED_EDGE('',*,*,#333,.T.);
#142=ORIENTED_EDGE('',*,*,#304,.T.);
#143=ORIENTED_EDGE('',*,*,#334,.F.);
#144=ORIENTED_EDGE('',*,*,#259,.F.);
#145=ORIENTED_EDGE('',*,*,#271,.T.);
#146=ORIENTED_EDGE('',*,*,#303,.F.);
#147=ORIENTED_EDGE('',*,*,#335,.T.);
#148=ORIENTED_EDGE('',*,*,#260,.T.);
#149=ORIENTED_EDGE('',*,*,#334,.T.);
#150=ORIENTED_EDGE('',*,*,#300,.T.);
#151=ORIENTED_EDGE('',*,*,#336,.F.);
#152=ORIENTED_EDGE('',*,*,#337,.F.);
#153=ORIENTED_EDGE('',*,*,#338,.T.);
#154=ORIENTED_EDGE('',*,*,#305,.F.);
#155=ORIENTED_EDGE('',*,*,#269,.F.);
#156=ORIENTED_EDGE('',*,*,#339,.T.);
#157=ORIENTED_EDGE('',*,*,#336,.T.);
#158=ORIENTED_EDGE('',*,*,#340,.F.);
#159=ORIENTED_EDGE('',*,*,#277,.T.);
#160=ORIENTED_EDGE('',*,*,#341,.T.);
#161=ORIENTED_EDGE('',*,*,#337,.T.);
#162=ORIENTED_EDGE('',*,*,#339,.F.);
#163=ORIENTED_EDGE('',*,*,#268,.F.);
#164=ORIENTED_EDGE('',*,*,#342,.F.);
#165=ORIENTED_EDGE('',*,*,#265,.T.);
#166=ORIENTED_EDGE('',*,*,#342,.T.);
#167=ORIENTED_EDGE('',*,*,#343,.F.);
#168=ORIENTED_EDGE('',*,*,#264,.T.);
#169=ORIENTED_EDGE('',*,*,#343,.T.);
#170=ORIENTED_EDGE('',*,*,#344,.F.);
#171=ORIENTED_EDGE('',*,*,#263,.T.);
#172=ORIENTED_EDGE('',*,*,#344,.T.);
#173=ORIENTED_EDGE('',*,*,#345,.F.);
#174=ORIENTED_EDGE('',*,*,#262,.T.);
#175=ORIENTED_EDGE('',*,*,#345,.T.);
#176=ORIENTED_EDGE('',*,*,#276,.F.);
#177=ORIENTED_EDGE('',*,*,#301,.F.);
#178=ORIENTED_EDGE('',*,*,#338,.F.);
#179=ORIENTED_EDGE('',*,*,#341,.F.);
#180=ORIENTED_EDGE('',*,*,#274,.F.);
#181=ORIENTED_EDGE('',*,*,#261,.T.);
#182=ORIENTED_EDGE('',*,*,#335,.F.);
#183=ORIENTED_EDGE('',*,*,#302,.F.);
#184=ORIENTED_EDGE('',*,*,#273,.T.);
#185=ORIENTED_EDGE('',*,*,#346,.T.);
#186=ORIENTED_EDGE('',*,*,#272,.T.);
#187=ORIENTED_EDGE('',*,*,#257,.F.);
#188=ORIENTED_EDGE('',*,*,#340,.T.);
#189=ORIENTED_EDGE('',*,*,#267,.F.);
#190=ORIENTED_EDGE('',*,*,#347,.F.);
#191=ORIENTED_EDGE('',*,*,#278,.F.);
#192=ORIENTED_EDGE('',*,*,#279,.T.);
#193=ORIENTED_EDGE('',*,*,#347,.T.);
#194=ORIENTED_EDGE('',*,*,#266,.F.);
#195=ORIENTED_EDGE('',*,*,#346,.F.);
#196=ORIENTED_EDGE('',*,*,#284,.T.);
#197=ORIENTED_EDGE('',*,*,#348,.T.);
#198=ORIENTED_EDGE('',*,*,#349,.F.);
#199=ORIENTED_EDGE('',*,*,#350,.T.);
#200=ORIENTED_EDGE('',*,*,#280,.T.);
#201=ORIENTED_EDGE('',*,*,#351,.T.);
#202=ORIENTED_EDGE('',*,*,#331,.F.);
#203=ORIENTED_EDGE('',*,*,#352,.T.);
#204=ORIENTED_EDGE('',*,*,#325,.T.);
#205=ORIENTED_EDGE('',*,*,#353,.T.);
#206=ORIENTED_EDGE('',*,*,#292,.F.);
#207=ORIENTED_EDGE('',*,*,#354,.T.);
#208=ORIENTED_EDGE('',*,*,#291,.F.);
#209=ORIENTED_EDGE('',*,*,#319,.F.);
#210=ORIENTED_EDGE('',*,*,#332,.F.);
#211=ORIENTED_EDGE('',*,*,#351,.F.);
#212=ORIENTED_EDGE('',*,*,#285,.F.);
#213=ORIENTED_EDGE('',*,*,#352,.F.);
#214=ORIENTED_EDGE('',*,*,#330,.F.);
#215=ORIENTED_EDGE('',*,*,#312,.F.);
#216=ORIENTED_EDGE('',*,*,#289,.F.);
#217=ORIENTED_EDGE('',*,*,#316,.F.);
#218=ORIENTED_EDGE('',*,*,#333,.F.);
#219=ORIENTED_EDGE('',*,*,#320,.F.);
#220=ORIENTED_EDGE('',*,*,#287,.F.);
#221=ORIENTED_EDGE('',*,*,#314,.F.);
#222=ORIENTED_EDGE('',*,*,#329,.F.);
#223=ORIENTED_EDGE('',*,*,#317,.F.);
#224=ORIENTED_EDGE('',*,*,#349,.T.);
#225=ORIENTED_EDGE('',*,*,#355,.T.);
#226=ORIENTED_EDGE('',*,*,#356,.T.);
#227=ORIENTED_EDGE('',*,*,#357,.T.);
#228=ORIENTED_EDGE('',*,*,#356,.F.);
#229=ORIENTED_EDGE('',*,*,#358,.T.);
#230=ORIENTED_EDGE('',*,*,#282,.F.);
#231=ORIENTED_EDGE('',*,*,#359,.T.);
#232=ORIENTED_EDGE('',*,*,#348,.F.);
#233=ORIENTED_EDGE('',*,*,#283,.T.);
#234=ORIENTED_EDGE('',*,*,#358,.F.);
#235=ORIENTED_EDGE('',*,*,#355,.F.);
#236=ORIENTED_EDGE('',*,*,#350,.F.);
#237=ORIENTED_EDGE('',*,*,#357,.F.);
#238=ORIENTED_EDGE('',*,*,#359,.F.);
#239=ORIENTED_EDGE('',*,*,#281,.F.);
#240=ORIENTED_EDGE('',*,*,#293,.F.);
#241=ORIENTED_EDGE('',*,*,#353,.F.);
#242=ORIENTED_EDGE('',*,*,#324,.F.);
#243=ORIENTED_EDGE('',*,*,#321,.F.);
#244=ORIENTED_EDGE('',*,*,#299,.F.);
#245=ORIENTED_EDGE('',*,*,#310,.F.);
#246=ORIENTED_EDGE('',*,*,#326,.F.);
#247=ORIENTED_EDGE('',*,*,#354,.F.);
#248=ORIENTED_EDGE('',*,*,#295,.F.);
#249=ORIENTED_EDGE('',*,*,#323,.F.);
#250=ORIENTED_EDGE('',*,*,#328,.F.);
#251=ORIENTED_EDGE('',*,*,#306,.F.);
#252=ORIENTED_EDGE('',*,*,#297,.F.);
#253=ORIENTED_EDGE('',*,*,#308,.F.);
#254=ORIENTED_EDGE('',*,*,#327,.F.);
#255=ORIENTED_EDGE('',*,*,#311,.F.);
#256=EDGE_CURVE('',#360,#361,#432,.T.);
#257=EDGE_CURVE('',#361,#362,#433,.T.);
#258=EDGE_CURVE('',#363,#362,#434,.T.);
#259=EDGE_CURVE('',#363,#364,#435,.T.);
#260=EDGE_CURVE('',#365,#364,#436,.T.);
#261=EDGE_CURVE('',#360,#365,#437,.T.);
#262=EDGE_CURVE('',#366,#366,#24,.T.);
#263=EDGE_CURVE('',#367,#367,#25,.T.);
#264=EDGE_CURVE('',#368,#368,#26,.T.);
#265=EDGE_CURVE('',#369,#369,#27,.T.);
#266=EDGE_CURVE('',#370,#371,#438,.T.);
#267=EDGE_CURVE('',#371,#372,#439,.T.);
#268=EDGE_CURVE('',#372,#373,#440,.T.);
#269=EDGE_CURVE('',#373,#374,#441,.T.);
#270=EDGE_CURVE('',#375,#374,#442,.T.);
#271=EDGE_CURVE('',#363,#375,#443,.T.);
#272=EDGE_CURVE('',#370,#362,#444,.T.);
#273=EDGE_CURVE('',#361,#376,#445,.T.);
#274=EDGE_CURVE('',#360,#377,#446,.F.);
#275=EDGE_CURVE('',#378,#377,#447,.T.);
#276=EDGE_CURVE('',#378,#379,#448,.T.);
#277=EDGE_CURVE('',#380,#379,#449,.T.);
#278=EDGE_CURVE('',#380,#381,#450,.T.);
#279=EDGE_CURVE('',#376,#381,#451,.T.);
#280=EDGE_CURVE('',#382,#383,#452,.T.);
#281=EDGE_CURVE('',#382,#384,#453,.T.);
#282=EDGE_CURVE('',#384,#385,#454,.T.);
#283=EDGE_CURVE('',#386,#385,#455,.T.);
#284=EDGE_CURVE('',#387,#386,#456,.T.);
#285=EDGE_CURVE('',#387,#388,#28,.F.);
#286=EDGE_CURVE('',#389,#388,#457,.T.);
#287=EDGE_CURVE('',#389,#390,#29,.F.);
#288=EDGE_CURVE('',#391,#390,#458,.T.);
#289=EDGE_CURVE('',#391,#392,#30,.F.);
#290=EDGE_CURVE('',#392,#393,#459,.T.);
#291=EDGE_CURVE('',#393,#383,#31,.F.);
#292=EDGE_CURVE('',#394,#395,#460,.T.);
#293=EDGE_CURVE('',#395,#396,#32,.T.);
#294=EDGE_CURVE('',#397,#396,#461,.T.);
#295=EDGE_CURVE('',#397,#398,#33,.T.);
#296=EDGE_CURVE('',#399,#398,#462,.T.);
#297=EDGE_CURVE('',#399,#400,#34,.T.);
#298=EDGE_CURVE('',#400,#401,#463,.T.);
#299=EDGE_CURVE('',#401,#394,#35,.T.);
#300=EDGE_CURVE('',#402,#403,#464,.T.);
#301=EDGE_CURVE('',#402,#378,#465,.T.);
#302=EDGE_CURVE('',#377,#404,#466,.T.);
#303=EDGE_CURVE('',#404,#405,#467,.T.);
#304=EDGE_CURVE('',#375,#405,#468,.T.);
#305=EDGE_CURVE('',#374,#403,#469,.T.);
#306=EDGE_CURVE('',#398,#406,#470,.T.);
#307=EDGE_CURVE('',#407,#406,#471,.T.);
#308=EDGE_CURVE('',#407,#399,#472,.F.);
#309=EDGE_CURVE('',#408,#409,#473,.T.);
#310=EDGE_CURVE('',#409,#401,#474,.F.);
#311=EDGE_CURVE('',#400,#408,#475,.T.);
#312=EDGE_CURVE('',#388,#410,#476,.T.);
#313=EDGE_CURVE('',#411,#410,#477,.T.);
#314=EDGE_CURVE('',#411,#389,#478,.F.);
#315=EDGE_CURVE('',#412,#413,#479,.T.);
#316=EDGE_CURVE('',#412,#391,#480,.F.);
#317=EDGE_CURVE('',#390,#413,#481,.T.);
#318=EDGE_CURVE('',#414,#415,#482,.T.);
#319=EDGE_CURVE('',#415,#393,#483,.F.);
#320=EDGE_CURVE('',#392,#414,#484,.T.);
#321=EDGE_CURVE('',#396,#416,#485,.T.);
#322=EDGE_CURVE('',#417,#416,#486,.T.);
#323=EDGE_CURVE('',#417,#397,#487,.F.);
#324=EDGE_CURVE('',#416,#418,#36,.F.);
#325=EDGE_CURVE('',#419,#418,#488,.T.);
#326=EDGE_CURVE('',#419,#409,#37,.F.);
#327=EDGE_CURVE('',#408,#407,#38,.F.);
#328=EDGE_CURVE('',#406,#417,#39,.F.);
#329=EDGE_CURVE('',#413,#411,#40,.T.);
#330=EDGE_CURVE('',#410,#420,#41,.T.);
#331=EDGE_CURVE('',#420,#421,#489,.T.);
#332=EDGE_CURVE('',#421,#415,#42,.T.);
#333=EDGE_CURVE('',#414,#412,#43,.T.);
#334=EDGE_CURVE('',#364,#405,#490,.T.);
#335=EDGE_CURVE('',#404,#365,#491,.F.);
#336=EDGE_CURVE('',#422,#403,#492,.T.);
#337=EDGE_CURVE('',#423,#422,#493,.T.);
#338=EDGE_CURVE('',#423,#402,#494,.T.);
#339=EDGE_CURVE('',#373,#422,#495,.T.);
#340=EDGE_CURVE('',#380,#372,#496,.T.);
#341=EDGE_CURVE('',#379,#423,#497,.T.);
#342=EDGE_CURVE('',#424,#424,#44,.T.);
#343=EDGE_CURVE('',#425,#425,#45,.T.);
#344=EDGE_CURVE('',#426,#426,#46,.T.);
#345=EDGE_CURVE('',#427,#427,#47,.T.);
#346=EDGE_CURVE('',#376,#370,#498,.T.);
#347=EDGE_CURVE('',#381,#371,#499,.T.);
#348=EDGE_CURVE('',#386,#428,#500,.T.);
#349=EDGE_CURVE('',#429,#428,#501,.T.);
#350=EDGE_CURVE('',#429,#382,#502,.F.);
#351=EDGE_CURVE('',#383,#421,#503,.T.);
#352=EDGE_CURVE('',#420,#387,#504,.F.);
#353=EDGE_CURVE('',#418,#395,#505,.F.);
#354=EDGE_CURVE('',#394,#419,#506,.T.);
#355=EDGE_CURVE('',#428,#430,#507,.T.);
#356=EDGE_CURVE('',#430,#431,#508,.T.);
#357=EDGE_CURVE('',#431,#429,#509,.T.);
#358=EDGE_CURVE('',#430,#385,#510,.F.);
#359=EDGE_CURVE('',#384,#431,#511,.T.);
#360=VERTEX_POINT('',#1073);
#361=VERTEX_POINT('',#1074);
#362=VERTEX_POINT('',#1076);
#363=VERTEX_POINT('',#1078);
#364=VERTEX_POINT('',#1080);
#365=VERTEX_POINT('',#1082);
#366=VERTEX_POINT('',#1086);
#367=VERTEX_POINT('',#1088);
#368=VERTEX_POINT('',#1090);
#369=VERTEX_POINT('',#1092);
#370=VERTEX_POINT('',#1094);
#371=VERTEX_POINT('',#1095);
#372=VERTEX_POINT('',#1097);
#373=VERTEX_POINT('',#1099);
#374=VERTEX_POINT('',#1101);
#375=VERTEX_POINT('',#1103);
#376=VERTEX_POINT('',#1108);
#377=VERTEX_POINT('',#1110);
#378=VERTEX_POINT('',#1112);
#379=VERTEX_POINT('',#1114);
#380=VERTEX_POINT('',#1116);
#381=VERTEX_POINT('',#1118);
#382=VERTEX_POINT('',#1122);
#383=VERTEX_POINT('',#1123);
#384=VERTEX_POINT('',#1125);
#385=VERTEX_POINT('',#1127);
#386=VERTEX_POINT('',#1129);
#387=VERTEX_POINT('',#1131);
#388=VERTEX_POINT('',#1133);
#389=VERTEX_POINT('',#1135);
#390=VERTEX_POINT('',#1137);
#391=VERTEX_POINT('',#1139);
#392=VERTEX_POINT('',#1141);
#393=VERTEX_POINT('',#1143);
#394=VERTEX_POINT('',#1146);
#395=VERTEX_POINT('',#1147);
#396=VERTEX_POINT('',#1149);
#397=VERTEX_POINT('',#1151);
#398=VERTEX_POINT('',#1153);
#399=VERTEX_POINT('',#1155);
#400=VERTEX_POINT('',#1157);
#401=VERTEX_POINT('',#1159);
#402=VERTEX_POINT('',#1162);
#403=VERTEX_POINT('',#1163);
#404=VERTEX_POINT('',#1166);
#405=VERTEX_POINT('',#1168);
#406=VERTEX_POINT('',#1173);
#407=VERTEX_POINT('',#1175);
#408=VERTEX_POINT('',#1179);
#409=VERTEX_POINT('',#1180);
#410=VERTEX_POINT('',#1185);
#411=VERTEX_POINT('',#1187);
#412=VERTEX_POINT('',#1191);
#413=VERTEX_POINT('',#1192);
#414=VERTEX_POINT('',#1197);
#415=VERTEX_POINT('',#1198);
#416=VERTEX_POINT('',#1203);
#417=VERTEX_POINT('',#1205);
#418=VERTEX_POINT('',#1209);
#419=VERTEX_POINT('',#1211);
#420=VERTEX_POINT('',#1217);
#421=VERTEX_POINT('',#1219);
#422=VERTEX_POINT('',#1228);
#423=VERTEX_POINT('',#1230);
#424=VERTEX_POINT('',#1239);
#425=VERTEX_POINT('',#1243);
#426=VERTEX_POINT('',#1247);
#427=VERTEX_POINT('',#1251);
#428=VERTEX_POINT('',#1262);
#429=VERTEX_POINT('',#1264);
#430=VERTEX_POINT('',#1277);
#431=VERTEX_POINT('',#1279);
#432=LINE('',#1072,#512);
#433=LINE('',#1075,#513);
#434=LINE('',#1077,#514);
#435=LINE('',#1079,#515);
#436=LINE('',#1081,#516);
#437=LINE('',#1083,#517);
#438=LINE('',#1093,#518);
#439=LINE('',#1096,#519);
#440=LINE('',#1098,#520);
#441=LINE('',#1100,#521);
#442=LINE('',#1102,#522);
#443=LINE('',#1104,#523);
#444=LINE('',#1105,#524);
#445=LINE('',#1107,#525);
#446=LINE('',#1109,#526);
#447=LINE('',#1111,#527);
#448=LINE('',#1113,#528);
#449=LINE('',#1115,#529);
#450=LINE('',#1117,#530);
#451=LINE('',#1119,#531);
#452=LINE('',#1121,#532);
#453=LINE('',#1124,#533);
#454=LINE('',#1126,#534);
#455=LINE('',#1128,#535);
#456=LINE('',#1130,#536);
#457=LINE('',#1134,#537);
#458=LINE('',#1138,#538);
#459=LINE('',#1142,#539);
#460=LINE('',#1145,#540);
#461=LINE('',#1150,#541);
#462=LINE('',#1154,#542);
#463=LINE('',#1158,#543);
#464=LINE('',#1161,#544);
#465=LINE('',#1164,#545);
#466=LINE('',#1165,#546);
#467=LINE('',#1167,#547);
#468=LINE('',#1169,#548);
#469=LINE('',#1170,#549);
#470=LINE('',#1172,#550);
#471=LINE('',#1174,#551);
#472=LINE('',#1176,#552);
#473=LINE('',#1178,#553);
#474=LINE('',#1181,#554);
#475=LINE('',#1182,#555);
#476=LINE('',#1184,#556);
#477=LINE('',#1186,#557);
#478=LINE('',#1188,#558);
#479=LINE('',#1190,#559);
#480=LINE('',#1193,#560);
#481=LINE('',#1194,#561);
#482=LINE('',#1196,#562);
#483=LINE('',#1199,#563);
#484=LINE('',#1200,#564);
#485=LINE('',#1202,#565);
#486=LINE('',#1204,#566);
#487=LINE('',#1206,#567);
#488=LINE('',#1210,#568);
#489=LINE('',#1218,#569);
#490=LINE('',#1223,#570);
#491=LINE('',#1225,#571);
#492=LINE('',#1227,#572);
#493=LINE('',#1229,#573);
#494=LINE('',#1231,#574);
#495=LINE('',#1233,#575);
#496=LINE('',#1235,#576);
#497=LINE('',#1236,#577);
#498=LINE('',#1256,#578);
#499=LINE('',#1258,#579);
#500=LINE('',#1261,#580);
#501=LINE('',#1263,#581);
#502=LINE('',#1265,#582);
#503=LINE('',#1266,#583);
#504=LINE('',#1267,#584);
#505=LINE('',#1269,#585);
#506=LINE('',#1270,#586);
#507=LINE('',#1276,#587);
#508=LINE('',#1278,#588);
#509=LINE('',#1280,#589);
#510=LINE('',#1282,#590);
#511=LINE('',#1283,#591);
#512=VECTOR('',#858,1.);
#513=VECTOR('',#859,1.);
#514=VECTOR('',#860,1.);
#515=VECTOR('',#861,1.);
#516=VECTOR('',#862,1.);
#517=VECTOR('',#863,1.);
#518=VECTOR('',#874,1.);
#519=VECTOR('',#875,1.);
#520=VECTOR('',#876,1.);
#521=VECTOR('',#877,1.);
#522=VECTOR('',#878,1.);
#523=VECTOR('',#879,1.);
#524=VECTOR('',#880,1.);
#525=VECTOR('',#883,1.);
#526=VECTOR('',#884,1.);
#527=VECTOR('',#885,1.);
#528=VECTOR('',#886,1.);
#529=VECTOR('',#887,1.);
#530=VECTOR('',#888,1.);
#531=VECTOR('',#889,1.);
#532=VECTOR('',#892,1.);
#533=VECTOR('',#893,1.);
#534=VECTOR('',#894,1.);
#535=VECTOR('',#895,1.);
#536=VECTOR('',#896,1.);
#537=VECTOR('',#899,1.);
#538=VECTOR('',#902,1.);
#539=VECTOR('',#905,1.);
#540=VECTOR('',#908,1.);
#541=VECTOR('',#911,1.);
#542=VECTOR('',#914,1.);
#543=VECTOR('',#917,1.);
#544=VECTOR('',#920,1.);
#545=VECTOR('',#921,1.);
#546=VECTOR('',#922,1.);
#547=VECTOR('',#923,1.);
#548=VECTOR('',#924,1.);
#549=VECTOR('',#925,1.);
#550=VECTOR('',#928,1.);
#551=VECTOR('',#929,1.);
#552=VECTOR('',#930,1.);
#553=VECTOR('',#933,1.);
#554=VECTOR('',#934,1.);
#555=VECTOR('',#935,1.);
#556=VECTOR('',#938,1.);
#557=VECTOR('',#939,1.);
#558=VECTOR('',#940,1.);
#559=VECTOR('',#943,1.);
#560=VECTOR('',#944,1.);
#561=VECTOR('',#945,1.);
#562=VECTOR('',#948,1.);
#563=VECTOR('',#949,1.);
#564=VECTOR('',#950,1.);
#565=VECTOR('',#953,1.);
#566=VECTOR('',#954,1.);
#567=VECTOR('',#955,1.);
#568=VECTOR('',#960,1.);
#569=VECTOR('',#971,1.);
#570=VECTOR('',#978,1.);
#571=VECTOR('',#981,1.);
#572=VECTOR('',#984,1.);
#573=VECTOR('',#985,1.);
#574=VECTOR('',#986,1.);
#575=VECTOR('',#989,1.);
#576=VECTOR('',#992,1.);
#577=VECTOR('',#993,1.);
#578=VECTOR('',#1024,1.);
#579=VECTOR('',#1027,1.);
#580=VECTOR('',#1032,1.);
#581=VECTOR('',#1033,1.);
#582=VECTOR('',#1034,1.);
#583=VECTOR('',#1035,1.);
#584=VECTOR('',#1036,1.);
#585=VECTOR('',#1039,1.);
#586=VECTOR('',#1040,1.);
#587=VECTOR('',#1051,1.);
#588=VECTOR('',#1052,1.);
#589=VECTOR('',#1053,1.);
#590=VECTOR('',#1056,1.);
#591=VECTOR('',#1057,1.);
#592=EDGE_LOOP('',(#48,#49,#50,#51,#52,#53));
#593=EDGE_LOOP('',(#54));
#594=EDGE_LOOP('',(#55));
#595=EDGE_LOOP('',(#56));
#596=EDGE_LOOP('',(#57));
#597=EDGE_LOOP('',(#58,#59,#60,#61,#62,#63,#64,#65));
#598=EDGE_LOOP('',(#66,#67,#68,#69,#70,#71,#72,#73));
#599=EDGE_LOOP('',(#74,#75,#76,#77,#78,#79,#80,#81,#82,#83,#84,#85));
#600=EDGE_LOOP('',(#86,#87,#88,#89,#90,#91,#92,#93));
#601=EDGE_LOOP('',(#94,#95,#96,#97,#98,#99,#100,#101));
#602=EDGE_LOOP('',(#102,#103,#104,#105));
#603=EDGE_LOOP('',(#106,#107,#108,#109));
#604=EDGE_LOOP('',(#110,#111,#112,#113));
#605=EDGE_LOOP('',(#114,#115,#116,#117));
#606=EDGE_LOOP('',(#118,#119,#120,#121));
#607=EDGE_LOOP('',(#122,#123,#124,#125));
#608=EDGE_LOOP('',(#126,#127,#128,#129,#130,#131,#132,#133));
#609=EDGE_LOOP('',(#134,#135,#136,#137,#138,#139,#140,#141));
#610=EDGE_LOOP('',(#142,#143,#144,#145));
#611=EDGE_LOOP('',(#146,#147,#148,#149));
#612=EDGE_LOOP('',(#150,#151,#152,#153));
#613=EDGE_LOOP('',(#154,#155,#156,#157));
#614=EDGE_LOOP('',(#158,#159,#160,#161,#162,#163));
#615=EDGE_LOOP('',(#164));
#616=EDGE_LOOP('',(#165));
#617=EDGE_LOOP('',(#166));
#618=EDGE_LOOP('',(#167));
#619=EDGE_LOOP('',(#168));
#620=EDGE_LOOP('',(#169));
#621=EDGE_LOOP('',(#170));
#622=EDGE_LOOP('',(#171));
#623=EDGE_LOOP('',(#172));
#624=EDGE_LOOP('',(#173));
#625=EDGE_LOOP('',(#174));
#626=EDGE_LOOP('',(#175));
#627=EDGE_LOOP('',(#176,#177,#178,#179));
#628=EDGE_LOOP('',(#180,#181,#182,#183));
#629=EDGE_LOOP('',(#184,#185,#186,#187));
#630=EDGE_LOOP('',(#188,#189,#190,#191));
#631=EDGE_LOOP('',(#192,#193,#194,#195));
#632=EDGE_LOOP('',(#196,#197,#198,#199,#200,#201,#202,#203));
#633=EDGE_LOOP('',(#204,#205,#206,#207));
#634=EDGE_LOOP('',(#208,#209,#210,#211));
#635=EDGE_LOOP('',(#212,#213,#214,#215));
#636=EDGE_LOOP('',(#216,#217,#218,#219));
#637=EDGE_LOOP('',(#220,#221,#222,#223));
#638=EDGE_LOOP('',(#224,#225,#226,#227));
#639=EDGE_LOOP('',(#228,#229,#230,#231));
#640=EDGE_LOOP('',(#232,#233,#234,#235));
#641=EDGE_LOOP('',(#236,#237,#238,#239));
#642=EDGE_LOOP('',(#240,#241,#242,#243));
#643=EDGE_LOOP('',(#244,#245,#246,#247));
#644=EDGE_LOOP('',(#248,#249,#250,#251));
#645=EDGE_LOOP('',(#252,#253,#254,#255));
#646=FACE_BOUND('',#592,.T.);
#647=FACE_BOUND('',#593,.T.);
#648=FACE_BOUND('',#594,.T.);
#649=FACE_BOUND('',#595,.T.);
#650=FACE_BOUND('',#596,.T.);
#651=FACE_BOUND('',#597,.T.);
#652=FACE_BOUND('',#598,.T.);
#653=FACE_BOUND('',#599,.T.);
#654=FACE_BOUND('',#600,.T.);
#655=FACE_BOUND('',#601,.T.);
#656=FACE_BOUND('',#602,.T.);
#657=FACE_BOUND('',#603,.T.);
#658=FACE_BOUND('',#604,.T.);
#659=FACE_BOUND('',#605,.T.);
#660=FACE_BOUND('',#606,.T.);
#661=FACE_BOUND('',#607,.T.);
#662=FACE_BOUND('',#608,.T.);
#663=FACE_BOUND('',#609,.T.);
#664=FACE_BOUND('',#610,.T.);
#665=FACE_BOUND('',#611,.T.);
#666=FACE_BOUND('',#612,.T.);
#667=FACE_BOUND('',#613,.T.);
#668=FACE_BOUND('',#614,.T.);
#669=FACE_BOUND('',#615,.T.);
#670=FACE_BOUND('',#616,.T.);
#671=FACE_BOUND('',#617,.T.);
#672=FACE_BOUND('',#618,.T.);
#673=FACE_BOUND('',#619,.T.);
#674=FACE_BOUND('',#620,.T.);
#675=FACE_BOUND('',#621,.T.);
#676=FACE_BOUND('',#622,.T.);
#677=FACE_BOUND('',#623,.T.);
#678=FACE_BOUND('',#624,.T.);
#679=FACE_BOUND('',#625,.T.);
#680=FACE_BOUND('',#626,.T.);
#681=FACE_BOUND('',#627,.T.);
#682=FACE_BOUND('',#628,.T.);
#683=FACE_BOUND('',#629,.T.);
#684=FACE_BOUND('',#630,.T.);
#685=FACE_BOUND('',#631,.T.);
#686=FACE_BOUND('',#632,.T.);
#687=FACE_BOUND('',#633,.T.);
#688=FACE_BOUND('',#634,.T.);
#689=FACE_BOUND('',#635,.T.);
#690=FACE_BOUND('',#636,.T.);
#691=FACE_BOUND('',#637,.T.);
#692=FACE_BOUND('',#638,.T.);
#693=FACE_BOUND('',#639,.T.);
#694=FACE_BOUND('',#640,.T.);
#695=FACE_BOUND('',#641,.T.);
#696=FACE_BOUND('',#642,.T.);
#697=FACE_BOUND('',#643,.T.);
#698=FACE_BOUND('',#644,.T.);
#699=FACE_BOUND('',#645,.T.);
#700=PLANE('',#787);
#701=PLANE('',#788);
#702=PLANE('',#793);
#703=PLANE('',#794);
#704=PLANE('',#803);
#705=PLANE('',#804);
#706=PLANE('',#805);
#707=PLANE('',#806);
#708=PLANE('',#807);
#709=PLANE('',#808);
#710=PLANE('',#809);
#711=PLANE('',#818);
#712=PLANE('',#819);
#713=PLANE('',#820);
#714=PLANE('',#821);
#715=PLANE('',#822);
#716=PLANE('',#825);
#717=PLANE('',#828);
#718=PLANE('',#831);
#719=PLANE('',#834);
#720=PLANE('',#835);
#721=PLANE('',#836);
#722=PLANE('',#837);
#723=PLANE('',#838);
#724=PLANE('',#839);
#725=PLANE('',#840);
#726=PLANE('',#841);
#727=PLANE('',#846);
#728=PLANE('',#847);
#729=PLANE('',#848);
#730=PLANE('',#849);
#731=ADVANCED_FACE('',(#646),#700,.T.);
#732=ADVANCED_FACE('',(#647,#648,#649,#650,#651),#701,.T.);
#733=ADVANCED_FACE('',(#652),#702,.F.);
#734=ADVANCED_FACE('',(#653,#654,#655),#703,.T.);
#735=ADVANCED_FACE('',(#656),#704,.T.);
#736=ADVANCED_FACE('',(#657),#705,.F.);
#737=ADVANCED_FACE('',(#658),#706,.T.);
#738=ADVANCED_FACE('',(#659),#707,.T.);
#739=ADVANCED_FACE('',(#660),#708,.F.);
#740=ADVANCED_FACE('',(#661),#709,.T.);
#741=ADVANCED_FACE('',(#662,#663),#710,.F.);
#742=ADVANCED_FACE('',(#664),#711,.F.);
#743=ADVANCED_FACE('',(#665),#712,.T.);
#744=ADVANCED_FACE('',(#666),#713,.F.);
#745=ADVANCED_FACE('',(#667),#714,.T.);
#746=ADVANCED_FACE('',(#668),#715,.T.);
#747=ADVANCED_FACE('',(#669,#670),#12,.F.);
#748=ADVANCED_FACE('',(#671),#716,.T.);
#749=ADVANCED_FACE('',(#672,#673),#13,.F.);
#750=ADVANCED_FACE('',(#674),#717,.T.);
#751=ADVANCED_FACE('',(#675,#676),#14,.F.);
#752=ADVANCED_FACE('',(#677),#718,.T.);
#753=ADVANCED_FACE('',(#678,#679),#15,.F.);
#754=ADVANCED_FACE('',(#680),#719,.T.);
#755=ADVANCED_FACE('',(#681),#720,.F.);
#756=ADVANCED_FACE('',(#682),#721,.T.);
#757=ADVANCED_FACE('',(#683),#722,.T.);
#758=ADVANCED_FACE('',(#684),#723,.F.);
#759=ADVANCED_FACE('',(#685),#724,.T.);
#760=ADVANCED_FACE('',(#686),#725,.T.);
#761=ADVANCED_FACE('',(#687),#726,.F.);
#762=ADVANCED_FACE('',(#688),#16,.F.);
#763=ADVANCED_FACE('',(#689),#17,.F.);
#764=ADVANCED_FACE('',(#690),#18,.F.);
#765=ADVANCED_FACE('',(#691),#19,.F.);
#766=ADVANCED_FACE('',(#692),#727,.T.);
#767=ADVANCED_FACE('',(#693),#728,.F.);
#768=ADVANCED_FACE('',(#694),#729,.T.);
#769=ADVANCED_FACE('',(#695),#730,.F.);
#770=ADVANCED_FACE('',(#696),#20,.T.);
#771=ADVANCED_FACE('',(#697),#21,.T.);
#772=ADVANCED_FACE('',(#698),#22,.T.);
#773=ADVANCED_FACE('',(#699),#23,.T.);
#774=CLOSED_SHELL('',(#731,#732,#733,#734,#735,#736,#737,#738,#739,#740,
#741,#742,#743,#744,#745,#746,#747,#748,#749,#750,#751,#752,#753,#754,#755,
#756,#757,#758,#759,#760,#761,#762,#763,#764,#765,#766,#767,#768,#769,#770,
#771,#772,#773));
#775=STYLED_ITEM('',(#776),#783);
#776=PRESENTATION_STYLE_ASSIGNMENT((#777));
#777=SURFACE_STYLE_USAGE(.BOTH.,#778);
#778=SURFACE_SIDE_STYLE('',(#779));
#779=SURFACE_STYLE_FILL_AREA(#780);
#780=FILL_AREA_STYLE('',(#781));
#781=FILL_AREA_STYLE_COLOUR('',#782);
#782=COLOUR_RGB('',0.615686274509804,0.811764705882353,0.929411764705882);
#783=MANIFOLD_SOLID_BREP('Part 1',#774);
#784=SHAPE_DEFINITION_REPRESENTATION(#1296,#785);
#785=SHAPE_REPRESENTATION('Part 1',(#786),#1291);
#786=AXIS2_PLACEMENT_3D('',#1070,#854,#855);
#787=AXIS2_PLACEMENT_3D('',#1071,#856,#857);
#788=AXIS2_PLACEMENT_3D('',#1084,#864,#865);
#789=AXIS2_PLACEMENT_3D('',#1085,#866,#867);
#790=AXIS2_PLACEMENT_3D('',#1087,#868,#869);
#791=AXIS2_PLACEMENT_3D('',#1089,#870,#871);
#792=AXIS2_PLACEMENT_3D('',#1091,#872,#873);
#793=AXIS2_PLACEMENT_3D('',#1106,#881,#882);
#794=AXIS2_PLACEMENT_3D('',#1120,#890,#891);
#795=AXIS2_PLACEMENT_3D('',#1132,#897,#898);
#796=AXIS2_PLACEMENT_3D('',#1136,#900,#901);
#797=AXIS2_PLACEMENT_3D('',#1140,#903,#904);
#798=AXIS2_PLACEMENT_3D('',#1144,#906,#907);
#799=AXIS2_PLACEMENT_3D('',#1148,#909,#910);
#800=AXIS2_PLACEMENT_3D('',#1152,#912,#913);
#801=AXIS2_PLACEMENT_3D('',#1156,#915,#916);
#802=AXIS2_PLACEMENT_3D('',#1160,#918,#919);
#803=AXIS2_PLACEMENT_3D('',#1171,#926,#927);
#804=AXIS2_PLACEMENT_3D('',#1177,#931,#932);
#805=AXIS2_PLACEMENT_3D('',#1183,#936,#937);
#806=AXIS2_PLACEMENT_3D('',#1189,#941,#942);
#807=AXIS2_PLACEMENT_3D('',#1195,#946,#947);
#808=AXIS2_PLACEMENT_3D('',#1201,#951,#952);
#809=AXIS2_PLACEMENT_3D('',#1207,#956,#957);
#810=AXIS2_PLACEMENT_3D('',#1208,#958,#959);
#811=AXIS2_PLACEMENT_3D('',#1212,#961,#962);
#812=AXIS2_PLACEMENT_3D('',#1213,#963,#964);
#813=AXIS2_PLACEMENT_3D('',#1214,#965,#966);
#814=AXIS2_PLACEMENT_3D('',#1215,#967,#968);
#815=AXIS2_PLACEMENT_3D('',#1216,#969,#970);
#816=AXIS2_PLACEMENT_3D('',#1220,#972,#973);
#817=AXIS2_PLACEMENT_3D('',#1221,#974,#975);
#818=AXIS2_PLACEMENT_3D('',#1222,#976,#977);
#819=AXIS2_PLACEMENT_3D('',#1224,#979,#980);
#820=AXIS2_PLACEMENT_3D('',#1226,#982,#983);
#821=AXIS2_PLACEMENT_3D('',#1232,#987,#988);
#822=AXIS2_PLACEMENT_3D('',#1234,#990,#991);
#823=AXIS2_PLACEMENT_3D('',#1237,#994,#995);
#824=AXIS2_PLACEMENT_3D('',#1238,#996,#997);
#825=AXIS2_PLACEMENT_3D('',#1240,#998,#999);
#826=AXIS2_PLACEMENT_3D('',#1241,#1000,#1001);
#827=AXIS2_PLACEMENT_3D('',#1242,#1002,#1003);
#828=AXIS2_PLACEMENT_3D('',#1244,#1004,#1005);
#829=AXIS2_PLACEMENT_3D('',#1245,#1006,#1007);
#830=AXIS2_PLACEMENT_3D('',#1246,#1008,#1009);
#831=AXIS2_PLACEMENT_3D('',#1248,#1010,#1011);
#832=AXIS2_PLACEMENT_3D('',#1249,#1012,#1013);
#833=AXIS2_PLACEMENT_3D('',#1250,#1014,#1015);
#834=AXIS2_PLACEMENT_3D('',#1252,#1016,#1017);
#835=AXIS2_PLACEMENT_3D('',#1253,#1018,#1019);
#836=AXIS2_PLACEMENT_3D('',#1254,#1020,#1021);
#837=AXIS2_PLACEMENT_3D('',#1255,#1022,#1023);
#838=AXIS2_PLACEMENT_3D('',#1257,#1025,#1026);
#839=AXIS2_PLACEMENT_3D('',#1259,#1028,#1029);
#840=AXIS2_PLACEMENT_3D('',#1260,#1030,#1031);
#841=AXIS2_PLACEMENT_3D('',#1268,#1037,#1038);
#842=AXIS2_PLACEMENT_3D('',#1271,#1041,#1042);
#843=AXIS2_PLACEMENT_3D('',#1272,#1043,#1044);
#844=AXIS2_PLACEMENT_3D('',#1273,#1045,#1046);
#845=AXIS2_PLACEMENT_3D('',#1274,#1047,#1048);
#846=AXIS2_PLACEMENT_3D('',#1275,#1049,#1050);
#847=AXIS2_PLACEMENT_3D('',#1281,#1054,#1055);
#848=AXIS2_PLACEMENT_3D('',#1284,#1058,#1059);
#849=AXIS2_PLACEMENT_3D('',#1285,#1060,#1061);
#850=AXIS2_PLACEMENT_3D('',#1286,#1062,#1063);
#851=AXIS2_PLACEMENT_3D('',#1287,#1064,#1065);
#852=AXIS2_PLACEMENT_3D('',#1288,#1066,#1067);
#853=AXIS2_PLACEMENT_3D('',#1289,#1068,#1069);
#854=DIRECTION('',(0.,0.,1.));
#855=DIRECTION('',(1.,0.,0.));
#856=DIRECTION('',(0.,0.,1.));
#857=DIRECTION('',(1.,0.,0.));
#858=DIRECTION('',(-1.,0.,0.));
#859=DIRECTION('',(9.63735264431559E-17,-1.,0.));
#860=DIRECTION('',(-1.,-1.07302483050112E-16,0.));
#861=DIRECTION('',(0.,-1.,0.));
#862=DIRECTION('',(-1.,-1.5770213417971E-16,0.));
#863=DIRECTION('',(2.89120579329468E-16,-1.,0.));
#864=DIRECTION('',(1.07302483050112E-16,-1.,0.));
#865=DIRECTION('',(1.,1.07302483050112E-16,0.));
#866=DIRECTION('',(1.07302483050112E-16,-1.,0.));
#867=DIRECTION('',(1.,1.07302483050112E-16,0.));
#868=DIRECTION('',(1.07302483050112E-16,-1.,0.));
#869=DIRECTION('',(1.,1.07302483050112E-16,0.));
#870=DIRECTION('',(1.07302483050112E-16,-1.,0.));
#871=DIRECTION('',(1.,1.07302483050112E-16,0.));
#872=DIRECTION('',(1.07302483050112E-16,-1.,0.));
#873=DIRECTION('',(1.,1.07302483050112E-16,0.));
#874=DIRECTION('',(-1.,-1.07302483050112E-16,0.));
#875=DIRECTION('',(0.,0.,1.));
#876=DIRECTION('',(-1.,-1.07302483050112E-16,0.));
#877=DIRECTION('',(0.,0.,-1.));
#878=DIRECTION('',(-1.,-1.07302483050112E-16,0.));
#879=DIRECTION('',(0.,0.,-1.));
#880=DIRECTION('',(0.,0.,1.));
#881=DIRECTION('',(0.,-0.939122852120321,-0.343581531263532));
#882=DIRECTION('',(-1.,0.,0.));
#883=DIRECTION('',(-3.3112163788606E-17,0.343581531263532,-0.939122852120321));
#884=DIRECTION('',(-0.223272140344553,-0.33490821051683,0.915415775412668));
#885=DIRECTION('',(1.,0.,0.));
#886=DIRECTION('',(0.223272140344554,-0.33490821051683,0.915415775412668));
#887=DIRECTION('',(-1.,0.,0.));
#888=DIRECTION('',(-3.3112163788606E-17,0.343581531263532,-0.939122852120321));
#889=DIRECTION('',(-1.,0.,0.));
#890=DIRECTION('',(0.,0.,1.));
#891=DIRECTION('',(1.,0.,0.));
#892=DIRECTION('',(-1.,0.,0.));
#893=DIRECTION('',(0.,-1.,0.));
#894=DIRECTION('',(-1.,0.,0.));
#895=DIRECTION('',(0.,-1.,0.));
#896=DIRECTION('',(-1.,0.,0.));
#897=DIRECTION('',(0.,0.,1.));
#898=DIRECTION('',(1.,0.,0.));
#899=DIRECTION('',(0.,-1.,0.));
#900=DIRECTION('',(0.,0.,1.));
#901=DIRECTION('',(1.,0.,0.));
#902=DIRECTION('',(-1.,0.,0.));
#903=DIRECTION('',(0.,0.,1.));
#904=DIRECTION('',(1.,0.,0.));
#905=DIRECTION('',(0.,-1.,0.));
#906=DIRECTION('',(0.,0.,1.));
#907=DIRECTION('',(1.,0.,0.));
#908=DIRECTION('',(1.,0.,0.));
#909=DIRECTION('',(0.,0.,1.));
#910=DIRECTION('',(1.,0.,0.));
#911=DIRECTION('',(6.93889390390723E-17,-1.,0.));
#912=DIRECTION('',(0.,0.,1.));
#913=DIRECTION('',(1.,0.,0.));
#914=DIRECTION('',(1.,0.,0.));
#915=DIRECTION('',(0.,0.,1.));
#916=DIRECTION('',(1.,0.,0.));
#917=DIRECTION('',(-1.38777878078145E-16,-1.,0.));
#918=DIRECTION('',(0.,0.,1.));
#919=DIRECTION('',(1.,0.,0.));
#920=DIRECTION('',(1.,0.,0.));
#921=DIRECTION('',(-2.89120579329468E-16,1.,0.));
#922=DIRECTION('',(2.89120579329468E-16,-1.,0.));
#923=DIRECTION('',(-1.,-1.5770213417971E-16,0.));
#924=DIRECTION('',(0.,-1.,0.));
#925=DIRECTION('',(0.,-1.,0.));
#926=DIRECTION('',(0.,1.,0.));
#927=DIRECTION('',(0.,0.,1.));
#928=DIRECTION('',(0.,0.,-1.));
#929=DIRECTION('',(1.,0.,0.));
#930=DIRECTION('',(0.,0.,-1.));
#931=DIRECTION('',(1.,-1.38777878078145E-16,0.));
#932=DIRECTION('',(1.38777878078145E-16,1.,0.));
#933=DIRECTION('',(-1.38777878078145E-16,-1.,0.));
#934=DIRECTION('',(0.,0.,-1.));
#935=DIRECTION('',(0.,0.,-1.));
#936=DIRECTION('',(1.,0.,0.));
#937=DIRECTION('',(0.,0.,-1.));
#938=DIRECTION('',(0.,0.,-1.));
#939=DIRECTION('',(0.,-1.,0.));
#940=DIRECTION('',(0.,0.,-1.));
#941=DIRECTION('',(0.,-1.,0.));
#942=DIRECTION('',(0.,0.,-1.));
#943=DIRECTION('',(-1.,0.,0.));
#944=DIRECTION('',(0.,0.,-1.));
#945=DIRECTION('',(0.,0.,-1.));
#946=DIRECTION('',(1.,0.,0.));
#947=DIRECTION('',(0.,0.,-1.));
#948=DIRECTION('',(0.,-1.,0.));
#949=DIRECTION('',(0.,0.,-1.));
#950=DIRECTION('',(0.,0.,-1.));
#951=DIRECTION('',(1.,6.93889390390723E-17,0.));
#952=DIRECTION('',(-6.93889390390723E-17,1.,0.));
#953=DIRECTION('',(0.,0.,-1.));
#954=DIRECTION('',(6.93889390390723E-17,-1.,0.));
#955=DIRECTION('',(0.,0.,-1.));
#956=DIRECTION('',(0.,0.,1.));
#957=DIRECTION('',(1.,0.,0.));
#958=DIRECTION('',(0.,0.,1.));
#959=DIRECTION('',(1.,0.,0.));
#960=DIRECTION('',(1.,0.,0.));
#961=DIRECTION('',(0.,0.,1.));
#962=DIRECTION('',(1.,0.,0.));
#963=DIRECTION('',(0.,0.,1.));
#964=DIRECTION('',(1.,0.,0.));
#965=DIRECTION('',(0.,0.,1.));
#966=DIRECTION('',(1.,0.,0.));
#967=DIRECTION('',(0.,0.,1.));
#968=DIRECTION('',(1.,0.,0.));
#969=DIRECTION('',(0.,0.,1.));
#970=DIRECTION('',(1.,0.,0.));
#971=DIRECTION('',(1.,0.,0.));
#972=DIRECTION('',(0.,0.,1.));
#973=DIRECTION('',(1.,0.,0.));
#974=DIRECTION('',(0.,0.,1.));
#975=DIRECTION('',(1.,0.,0.));
#976=DIRECTION('',(1.,0.,0.));
#977=DIRECTION('',(0.,0.,-1.));
#978=DIRECTION('',(0.,0.,-1.));
#979=DIRECTION('',(1.5770213417971E-16,-1.,0.));
#980=DIRECTION('',(1.,1.5770213417971E-16,0.));
#981=DIRECTION('',(0.236956180191007,3.73684953231938E-17,-0.97152033878313));
#982=DIRECTION('',(0.,1.,0.));
#983=DIRECTION('',(0.,0.,1.));
#984=DIRECTION('',(0.,0.,-1.));
#985=DIRECTION('',(1.,0.,0.));
#986=DIRECTION('',(-0.236956180191007,0.,-0.97152033878313));
#987=DIRECTION('',(1.,0.,0.));
#988=DIRECTION('',(0.,0.,-1.));
#989=DIRECTION('',(0.,-1.,0.));
#990=DIRECTION('',(0.,0.,1.));
#991=DIRECTION('',(1.,0.,0.));
#992=DIRECTION('',(9.63735264431559E-17,-1.,0.));
#993=DIRECTION('',(2.89120579329468E-16,-1.,0.));
#994=DIRECTION('',(1.07302483050112E-16,-1.,0.));
#995=DIRECTION('',(1.,1.07302483050112E-16,0.));
#996=DIRECTION('',(1.07302483050112E-16,-1.,0.));
#997=DIRECTION('',(1.,1.07302483050112E-16,0.));
#998=DIRECTION('',(1.07302483050112E-16,-1.,0.));
#999=DIRECTION('',(1.,1.07302483050112E-16,0.));
#1000=DIRECTION('',(1.07302483050112E-16,-1.,0.));
#1001=DIRECTION('',(1.,1.07302483050112E-16,0.));
#1002=DIRECTION('',(1.07302483050112E-16,-1.,0.));
#1003=DIRECTION('',(1.,1.07302483050112E-16,0.));
#1004=DIRECTION('',(1.07302483050112E-16,-1.,0.));
#1005=DIRECTION('',(1.,1.07302483050112E-16,0.));
#1006=DIRECTION('',(1.07302483050112E-16,-1.,0.));
#1007=DIRECTION('',(1.,1.07302483050112E-16,0.));
#1008=DIRECTION('',(1.07302483050112E-16,-1.,0.));
#1009=DIRECTION('',(1.,1.07302483050112E-16,0.));
#1010=DIRECTION('',(1.07302483050112E-16,-1.,0.));
#1011=DIRECTION('',(1.,1.07302483050112E-16,0.));
#1012=DIRECTION('',(1.07302483050112E-16,-1.,0.));
#1013=DIRECTION('',(1.,1.07302483050112E-16,0.));
#1014=DIRECTION('',(1.07302483050112E-16,-1.,0.));
#1015=DIRECTION('',(1.,1.07302483050112E-16,0.));
#1016=DIRECTION('',(1.07302483050112E-16,-1.,0.));
#1017=DIRECTION('',(1.,1.07302483050112E-16,0.));
#1018=DIRECTION('',(0.97152033878313,2.80886523179339E-16,-0.236956180191007));
#1019=DIRECTION('',(2.89120579329468E-16,-1.,0.));
#1020=DIRECTION('',(0.97152033878313,2.80886523179339E-16,0.236956180191007));
#1021=DIRECTION('',(-2.89120579329468E-16,1.,0.));
#1022=DIRECTION('',(-1.,-9.63735264431559E-17,0.));
#1023=DIRECTION('',(9.63735264431559E-17,-1.,0.));
#1024=DIRECTION('',(9.63735264431559E-17,-1.,0.));
#1025=DIRECTION('',(-1.,-9.63735264431559E-17,0.));
#1026=DIRECTION('',(9.63735264431559E-17,-1.,0.));
#1027=DIRECTION('',(9.63735264431559E-17,-1.,0.));
#1028=DIRECTION('',(0.,0.,1.));
#1029=DIRECTION('',(1.,0.,0.));
#1030=DIRECTION('',(0.,1.,0.));
#1031=DIRECTION('',(0.,0.,1.));
#1032=DIRECTION('',(0.236956180191007,0.,0.97152033878313));
#1033=DIRECTION('',(-1.,0.,0.));
#1034=DIRECTION('',(-0.236956180191007,0.,0.97152033878313));
#1035=DIRECTION('',(0.,0.,-1.));
#1036=DIRECTION('',(0.,0.,-1.));
#1037=DIRECTION('',(0.,1.,0.));
#1038=DIRECTION('',(0.,0.,1.));
#1039=DIRECTION('',(0.,0.,-1.));
#1040=DIRECTION('',(0.,0.,-1.));
#1041=DIRECTION('',(0.,0.,-1.));
#1042=DIRECTION('',(-1.,0.,0.));
#1043=DIRECTION('',(0.,0.,1.));
#1044=DIRECTION('',(1.,0.,0.));
#1045=DIRECTION('',(0.,0.,-1.));
#1046=DIRECTION('',(-1.,0.,0.));
#1047=DIRECTION('',(0.,0.,1.));
#1048=DIRECTION('',(1.,0.,0.));
#1049=DIRECTION('',(0.,0.,1.));
#1050=DIRECTION('',(1.,0.,0.));
#1051=DIRECTION('',(0.,-1.,0.));
#1052=DIRECTION('',(1.,0.,0.));
#1053=DIRECTION('',(0.,1.,0.));
#1054=DIRECTION('',(0.,0.939122852120321,-0.343581531263532));
#1055=DIRECTION('',(-1.,0.,0.));
#1056=DIRECTION('',(0.223272140344554,0.33490821051683,0.915415775412668));
#1057=DIRECTION('',(-0.223272140344554,0.33490821051683,0.915415775412668));
#1058=DIRECTION('',(-0.97152033878313,0.,0.236956180191007));
#1059=DIRECTION('',(0.,1.,0.));
#1060=DIRECTION('',(-0.97152033878313,0.,-0.236956180191007));
#1061=DIRECTION('',(0.,-1.,0.));
#1062=DIRECTION('',(0.,0.,1.));
#1063=DIRECTION('',(1.,0.,0.));
#1064=DIRECTION('',(0.,0.,-1.));
#1065=DIRECTION('',(-1.,0.,0.));
#1066=DIRECTION('',(0.,0.,-1.));
#1067=DIRECTION('',(-1.,0.,0.));
#1068=DIRECTION('',(0.,0.,1.));
#1069=DIRECTION('',(1.,0.,0.));
#1070=CARTESIAN_POINT('',(0.,0.,0.));
#1071=CARTESIAN_POINT('',(-1.38777878078145E-17,-0.0075,0.0455));
#1072=CARTESIAN_POINT('',(-3.46944695195361E-18,0.0135,0.0455));
#1073=CARTESIAN_POINT('',(0.027,0.0135,0.0455));
#1074=CARTESIAN_POINT('',(0.0035,0.0135,0.0455));
#1075=CARTESIAN_POINT('',(0.0035,0.009,0.0455));
#1076=CARTESIAN_POINT('',(0.0035,0.0045,0.0455));
#1077=CARTESIAN_POINT('',(-3.46944695195361E-18,0.0045,0.0455));
#1078=CARTESIAN_POINT('',(0.02425,0.0045,0.0455));
#1079=CARTESIAN_POINT('',(0.02425,0.003,0.0455));
#1080=CARTESIAN_POINT('',(0.02425,0.0015,0.0455));
#1081=CARTESIAN_POINT('',(0.025625,0.0015,0.0455));
#1082=CARTESIAN_POINT('',(0.027,0.0015,0.0455));
#1083=CARTESIAN_POINT('',(0.027,0.0075,0.0455));
#1084=CARTESIAN_POINT('',(-3.46944695195361E-18,0.0045,0.0455));
#1085=CARTESIAN_POINT('',(0.018,0.0045,0.0355));
#1086=CARTESIAN_POINT('',(0.0203,0.0045,0.0355));
#1087=CARTESIAN_POINT('',(0.018,0.0045,0.0135));
#1088=CARTESIAN_POINT('',(0.0203,0.0045,0.0135));
#1089=CARTESIAN_POINT('',(-0.018,0.0045,0.0135));
#1090=CARTESIAN_POINT('',(-0.0157,0.0045,0.0135));
#1091=CARTESIAN_POINT('',(-0.018,0.0045,0.0355));
#1092=CARTESIAN_POINT('',(-0.0157,0.0045,0.0355));
#1093=CARTESIAN_POINT('',(-3.46944695195361E-18,0.0045,0.0425));
#1094=CARTESIAN_POINT('',(0.0035,0.0045,0.0425));
#1095=CARTESIAN_POINT('',(-0.0035,0.0045,0.0425));
#1096=CARTESIAN_POINT('',(-0.0035,0.0045,0.0425));
#1097=CARTESIAN_POINT('',(-0.0035,0.0045,0.0455));
#1098=CARTESIAN_POINT('',(-3.46944695195361E-18,0.0045,0.0455));
#1099=CARTESIAN_POINT('',(-0.02425,0.0045,0.0455));
#1100=CARTESIAN_POINT('',(-0.02425,0.0045,0.0455));
#1101=CARTESIAN_POINT('',(-0.02425,0.0045,0.0045));
#1102=CARTESIAN_POINT('',(-3.46944695195361E-18,0.0045,0.0045));
#1103=CARTESIAN_POINT('',(0.02425,0.0045,0.0045));
#1104=CARTESIAN_POINT('',(0.02425,0.0045,0.0455));
#1105=CARTESIAN_POINT('',(0.0035,0.0045,0.0425));
#1106=CARTESIAN_POINT('',(-3.46944695195361E-18,0.0135,0.0455));
#1107=CARTESIAN_POINT('',(0.0035,0.0135,0.0455));
#1108=CARTESIAN_POINT('',(0.0035,0.0145975609756098,0.0425));
#1109=CARTESIAN_POINT('',(0.0256540378863409,0.0114810568295115,0.051018444666002));
#1110=CARTESIAN_POINT('',(0.037,0.0285,0.0045));
#1111=CARTESIAN_POINT('',(-1.38777878078145E-17,0.0285,0.0045));
#1112=CARTESIAN_POINT('',(-0.037,0.0285,0.0045));
#1113=CARTESIAN_POINT('',(-0.025654037886341,0.0114810568295115,0.051018444666002));
#1114=CARTESIAN_POINT('',(-0.027,0.0135,0.0455));
#1115=CARTESIAN_POINT('',(-3.46944695195361E-18,0.0135,0.0455));
#1116=CARTESIAN_POINT('',(-0.0035,0.0135,0.0455));
#1117=CARTESIAN_POINT('',(-0.0035,0.0135,0.0455));
#1118=CARTESIAN_POINT('',(-0.0035,0.0145975609756098,0.0425));
#1119=CARTESIAN_POINT('',(-3.46944695195361E-18,0.0145975609756098,0.0425));
#1120=CARTESIAN_POINT('',(-1.38777878078145E-17,-0.0075,0.0045));
#1121=CARTESIAN_POINT('',(6.93889390390723E-18,-0.065,0.0045));
#1122=CARTESIAN_POINT('',(0.037,-0.065,0.0045));
#1123=CARTESIAN_POINT('',(0.025,-0.065,0.0045));
#1124=CARTESIAN_POINT('',(0.037,-0.0785,0.0045));
#1125=CARTESIAN_POINT('',(0.037,-0.092,0.0045));
#1126=CARTESIAN_POINT('',(0.,-0.092,0.0045));
#1127=CARTESIAN_POINT('',(-0.037,-0.092,0.0045));
#1128=CARTESIAN_POINT('',(-0.037,-0.0785,0.0045));
#1129=CARTESIAN_POINT('',(-0.037,-0.065,0.0045));
#1130=CARTESIAN_POINT('',(6.93889390390723E-18,-0.065,0.0045));
#1131=CARTESIAN_POINT('',(-0.025,-0.065,0.0045));
#1132=CARTESIAN_POINT('',(-0.025,-0.063,0.0045));
#1133=CARTESIAN_POINT('',(-0.027,-0.063,0.0045));
#1134=CARTESIAN_POINT('',(-0.027,-0.03175,0.0045));
#1135=CARTESIAN_POINT('',(-0.027,-0.0155,0.0045));
#1136=CARTESIAN_POINT('',(-0.025,-0.0155,0.0045));
#1137=CARTESIAN_POINT('',(-0.025,-0.0135,0.0045));
#1138=CARTESIAN_POINT('',(0.,-0.0135,0.0045));
#1139=CARTESIAN_POINT('',(0.025,-0.0135,0.0045));
#1140=CARTESIAN_POINT('',(0.025,-0.0155,0.0045));
#1141=CARTESIAN_POINT('',(0.027,-0.0155,0.0045));
#1142=CARTESIAN_POINT('',(0.027,-0.03175,0.0045));
#1143=CARTESIAN_POINT('',(0.027,-0.063,0.0045));
#1144=CARTESIAN_POINT('',(0.025,-0.063,0.0045));
#1145=CARTESIAN_POINT('',(-2.77555756156289E-17,-0.115,0.0045));
#1146=CARTESIAN_POINT('',(-0.037,-0.115,0.0045));
#1147=CARTESIAN_POINT('',(0.037,-0.115,0.0045));
#1148=CARTESIAN_POINT('',(0.037,-0.105,0.0045));
#1149=CARTESIAN_POINT('',(0.047,-0.105,0.0045));
#1150=CARTESIAN_POINT('',(0.047,0.,0.0045));
#1151=CARTESIAN_POINT('',(0.047,0.04,0.0045));
#1152=CARTESIAN_POINT('',(0.037,0.04,0.0045));
#1153=CARTESIAN_POINT('',(0.037,0.05,0.0045));
#1154=CARTESIAN_POINT('',(0.037,0.05,0.0045));
#1155=CARTESIAN_POINT('',(-0.037,0.05,0.0045));
#1156=CARTESIAN_POINT('',(-0.037,0.04,0.0045));
#1157=CARTESIAN_POINT('',(-0.047,0.04,0.0045));
#1158=CARTESIAN_POINT('',(-0.047,0.,0.0045));
#1159=CARTESIAN_POINT('',(-0.047,-0.105,0.0045));
#1160=CARTESIAN_POINT('',(-0.037,-0.105,0.0045));
#1161=CARTESIAN_POINT('',(-0.025625,0.0015,0.0045));
#1162=CARTESIAN_POINT('',(-0.037,0.0015,0.0045));
#1163=CARTESIAN_POINT('',(-0.02425,0.0015,0.0045));
#1164=CARTESIAN_POINT('',(-0.037,-0.0075,0.0045));
#1165=CARTESIAN_POINT('',(0.037,0.0015,0.0045));
#1166=CARTESIAN_POINT('',(0.037,0.0015,0.0045));
#1167=CARTESIAN_POINT('',(0.025625,0.0015,0.0045));
#1168=CARTESIAN_POINT('',(0.02425,0.0015,0.0045));
#1169=CARTESIAN_POINT('',(0.02425,0.003,0.0045));
#1170=CARTESIAN_POINT('',(-0.02425,0.003,0.0045));
#1171=CARTESIAN_POINT('',(0.037,0.05,0.0045));
#1172=CARTESIAN_POINT('',(0.037,0.05,0.0045));
#1173=CARTESIAN_POINT('',(0.037,0.05,0.));
#1174=CARTESIAN_POINT('',(0.037,0.05,0.));
#1175=CARTESIAN_POINT('',(-0.037,0.05,0.));
#1176=CARTESIAN_POINT('',(-0.037,0.05,0.0045));
#1177=CARTESIAN_POINT('',(-0.047,0.,0.0045));
#1178=CARTESIAN_POINT('',(-0.047,0.,0.));
#1179=CARTESIAN_POINT('',(-0.047,0.04,0.));
#1180=CARTESIAN_POINT('',(-0.047,-0.105,0.));
#1181=CARTESIAN_POINT('',(-0.047,-0.105,0.0045));
#1182=CARTESIAN_POINT('',(-0.047,0.04,0.));
#1183=CARTESIAN_POINT('',(-0.027,-0.03175,0.0045));
#1184=CARTESIAN_POINT('',(-0.027,-0.063,0.));
#1185=CARTESIAN_POINT('',(-0.027,-0.063,0.));
#1186=CARTESIAN_POINT('',(-0.027,-0.03175,0.));
#1187=CARTESIAN_POINT('',(-0.027,-0.0155,0.));
#1188=CARTESIAN_POINT('',(-0.027,-0.0155,0.0045));
#1189=CARTESIAN_POINT('',(0.,-0.0135,0.0045));
#1190=CARTESIAN_POINT('',(0.,-0.0135,0.));
#1191=CARTESIAN_POINT('',(0.025,-0.0135,0.));
#1192=CARTESIAN_POINT('',(-0.025,-0.0135,0.));
#1193=CARTESIAN_POINT('',(0.025,-0.0135,0.0045));
#1194=CARTESIAN_POINT('',(-0.025,-0.0135,0.));
#1195=CARTESIAN_POINT('',(0.027,-0.03175,0.0045));
#1196=CARTESIAN_POINT('',(0.027,-0.03175,0.));
#1197=CARTESIAN_POINT('',(0.027,-0.0155,0.));
#1198=CARTESIAN_POINT('',(0.027,-0.063,0.));
#1199=CARTESIAN_POINT('',(0.027,-0.063,0.0045));
#1200=CARTESIAN_POINT('',(0.027,-0.0155,0.0045));
#1201=CARTESIAN_POINT('',(0.047,0.,0.0045));
#1202=CARTESIAN_POINT('',(0.047,-0.105,0.));
#1203=CARTESIAN_POINT('',(0.047,-0.105,0.));
#1204=CARTESIAN_POINT('',(0.047,0.,0.));
#1205=CARTESIAN_POINT('',(0.047,0.04,0.));
#1206=CARTESIAN_POINT('',(0.047,0.04,0.0045));
#1207=CARTESIAN_POINT('',(-1.38777878078145E-17,-0.0075,0.));
#1208=CARTESIAN_POINT('',(0.037,-0.105,0.));
#1209=CARTESIAN_POINT('',(0.037,-0.115,0.));
#1210=CARTESIAN_POINT('',(-2.77555756156289E-17,-0.115,0.));
#1211=CARTESIAN_POINT('',(-0.037,-0.115,0.));
#1212=CARTESIAN_POINT('',(-0.037,-0.105,0.));
#1213=CARTESIAN_POINT('',(-0.037,0.04,0.));
#1214=CARTESIAN_POINT('',(0.037,0.04,0.));
#1215=CARTESIAN_POINT('',(-0.025,-0.0155,0.));
#1216=CARTESIAN_POINT('',(-0.025,-0.063,0.));
#1217=CARTESIAN_POINT('',(-0.025,-0.065,0.));
#1218=CARTESIAN_POINT('',(-2.77555756156289E-17,-0.065,0.));
#1219=CARTESIAN_POINT('',(0.025,-0.065,0.));
#1220=CARTESIAN_POINT('',(0.025,-0.063,0.));
#1221=CARTESIAN_POINT('',(0.025,-0.0155,0.));
#1222=CARTESIAN_POINT('',(0.02425,0.003,0.0455));
#1223=CARTESIAN_POINT('',(0.02425,0.0015,0.0455));
#1224=CARTESIAN_POINT('',(0.025625,0.0015,0.0455));
#1225=CARTESIAN_POINT('',(0.037,0.0015,0.0045));
#1226=CARTESIAN_POINT('',(-0.025625,0.0015,0.0455));
#1227=CARTESIAN_POINT('',(-0.02425,0.0015,0.0455));
#1228=CARTESIAN_POINT('',(-0.02425,0.0015,0.0455));
#1229=CARTESIAN_POINT('',(-0.025625,0.0015,0.0455));
#1230=CARTESIAN_POINT('',(-0.027,0.0015,0.0455));
#1231=CARTESIAN_POINT('',(-0.0269227961819202,0.0015,0.0458165356541269));
#1232=CARTESIAN_POINT('',(-0.02425,0.003,0.0455));
#1233=CARTESIAN_POINT('',(-0.02425,0.003,0.0455));
#1234=CARTESIAN_POINT('',(-1.38777878078145E-17,-0.0075,0.0455));
#1235=CARTESIAN_POINT('',(-0.0035,0.009,0.0455));
#1236=CARTESIAN_POINT('',(-0.027,0.0075,0.0455));
#1237=CARTESIAN_POINT('',(-0.018,0.0105,0.0355));
#1238=CARTESIAN_POINT('',(-0.018,0.0105,0.0355));
#1239=CARTESIAN_POINT('',(-0.0157,0.0105,0.0355));
#1240=CARTESIAN_POINT('',(-4.59612302397979E-18,0.0105,0.025));
#1241=CARTESIAN_POINT('',(-0.018,0.0105,0.0135));
#1242=CARTESIAN_POINT('',(-0.018,0.0105,0.0135));
#1243=CARTESIAN_POINT('',(-0.0157,0.0105,0.0135));
#1244=CARTESIAN_POINT('',(-4.59612302397979E-18,0.0105,0.025));
#1245=CARTESIAN_POINT('',(0.018,0.0105,0.0135));
#1246=CARTESIAN_POINT('',(0.018,0.0105,0.0135));
#1247=CARTESIAN_POINT('',(0.0203,0.0105,0.0135));
#1248=CARTESIAN_POINT('',(-4.59612302397979E-18,0.0105,0.025));
#1249=CARTESIAN_POINT('',(0.018,0.0105,0.0355));
#1250=CARTESIAN_POINT('',(0.018,0.0105,0.0355));
#1251=CARTESIAN_POINT('',(0.0203,0.0105,0.0355));
#1252=CARTESIAN_POINT('',(-4.59612302397979E-18,0.0105,0.025));
#1253=CARTESIAN_POINT('',(-0.027,0.0075,0.0455));
#1254=CARTESIAN_POINT('',(0.037,-0.0075,0.0045));
#1255=CARTESIAN_POINT('',(0.0035,0.009,0.0425));
#1256=CARTESIAN_POINT('',(0.0035,0.009,0.0425));
#1257=CARTESIAN_POINT('',(-0.0035,0.009,0.0425));
#1258=CARTESIAN_POINT('',(-0.0035,0.009,0.0425));
#1259=CARTESIAN_POINT('',(-3.46944695195361E-18,0.0085,0.0425));
#1260=CARTESIAN_POINT('',(-2.77555756156289E-17,-0.065,0.0045));
#1261=CARTESIAN_POINT('',(-0.0349225154407636,-0.065,0.0130176866928692));
#1262=CARTESIAN_POINT('',(-0.027,-0.065,0.0455));
#1263=CARTESIAN_POINT('',(6.93889390390723E-18,-0.065,0.0455));
#1264=CARTESIAN_POINT('',(0.027,-0.065,0.0455));
#1265=CARTESIAN_POINT('',(0.0349225154407636,-0.065,0.0130176866928692));
#1266=CARTESIAN_POINT('',(0.025,-0.065,0.0045));
#1267=CARTESIAN_POINT('',(-0.025,-0.065,0.0045));
#1268=CARTESIAN_POINT('',(-2.77555756156289E-17,-0.115,0.0045));
#1269=CARTESIAN_POINT('',(0.037,-0.115,0.0045));
#1270=CARTESIAN_POINT('',(-0.037,-0.115,0.0045));
#1271=CARTESIAN_POINT('',(0.025,-0.063,0.0045));
#1272=CARTESIAN_POINT('',(-0.025,-0.063,0.0045));
#1273=CARTESIAN_POINT('',(0.025,-0.0155,0.0045));
#1274=CARTESIAN_POINT('',(-0.025,-0.0155,0.0045));
#1275=CARTESIAN_POINT('',(-1.38777878078145E-17,-0.0325,0.0455));
#1276=CARTESIAN_POINT('',(-0.027,-0.077,0.0455));
#1277=CARTESIAN_POINT('',(-0.027,-0.077,0.0455));
#1278=CARTESIAN_POINT('',(-1.38777878078145E-17,-0.077,0.0455));
#1279=CARTESIAN_POINT('',(0.027,-0.077,0.0455));
#1280=CARTESIAN_POINT('',(0.027,-0.0325,0.0455));
#1281=CARTESIAN_POINT('',(0.,-0.092,0.0045));
#1282=CARTESIAN_POINT('',(-0.0351555333998006,-0.0892333000997009,0.0120623130608175));
#1283=CARTESIAN_POINT('',(0.0351555333998006,-0.0892333000997009,0.0120623130608175));
#1284=CARTESIAN_POINT('',(-0.027,-0.0325,0.0455));
#1285=CARTESIAN_POINT('',(0.037,-0.0785,0.0045));
#1286=CARTESIAN_POINT('',(0.037,-0.105,0.0045));
#1287=CARTESIAN_POINT('',(-0.037,-0.105,0.0045));
#1288=CARTESIAN_POINT('',(0.037,0.04,0.0045));
#1289=CARTESIAN_POINT('',(-0.037,0.04,0.0045));
#1290=MECHANICAL_DESIGN_GEOMETRIC_PRESENTATION_REPRESENTATION('',(#775),
#1291);
#1291=(
GEOMETRIC_REPRESENTATION_CONTEXT(3)
GLOBAL_UNCERTAINTY_ASSIGNED_CONTEXT((#1292))
GLOBAL_UNIT_ASSIGNED_CONTEXT((#1295,#1294,#1293))
REPRESENTATION_CONTEXT('Part 1','TOP_LEVEL_ASSEMBLY_PART')
);
#1292=UNCERTAINTY_MEASURE_WITH_UNIT(LENGTH_MEASURE(1.E-8),#1295,
'DISTANCE_ACCURACY_VALUE','Maximum Tolerance applied to model');
#1293=(
NAMED_UNIT(*)
SI_UNIT($,.STERADIAN.)
SOLID_ANGLE_UNIT()
);
#1294=(
NAMED_UNIT(*)
PLANE_ANGLE_UNIT()
SI_UNIT($,.RADIAN.)
);
#1295=(
LENGTH_UNIT()
NAMED_UNIT(*)
SI_UNIT($,.METRE.)
);
#1296=PRODUCT_DEFINITION_SHAPE('','',#1297);
#1297=PRODUCT_DEFINITION('','',#1299,#1298);
#1298=PRODUCT_DEFINITION_CONTEXT('',#1305,'design');
#1299=PRODUCT_DEFINITION_FORMATION_WITH_SPECIFIED_SOURCE('','',#1301,
 .NOT_KNOWN.);
#1300=PRODUCT_RELATED_PRODUCT_CATEGORY('','',(#1301));
#1301=PRODUCT('Part 1','Part 1','Part 1',(#1303));
#1302=PRODUCT_CATEGORY('','');
#1303=PRODUCT_CONTEXT('',#1305,'mechanical');
#1304=APPLICATION_PROTOCOL_DEFINITION('international standard',
'ap242_managed_model_based_3d_engineering',2020,#1305);
#1305=APPLICATION_CONTEXT('managed model based 3d engineering');
ENDSEC;
END-ISO-10303-21;
