ISO-10303-21;
HEADER;
/* Generated by software containing ST-Developer
 * from STEP Tools, Inc. (www.steptools.com) 
 */
/* OPTION: using custom renumber hook */

FILE_DESCRIPTION(
/* description */ ('STEP AP242 Edition 2',
'CAx-IF Rec.Pracs.---Representation and Presentation of Product Manufa
cturing Information (PMI)---4.0---2014-10-13',
'CAx-IF Rec.Pracs.---3D Tessellated Geometry---0.4---2014-09-14','2;1',
'CAx-IF Rec.Pracs.---User Defined Attributes---1.5---2016-08-15'),
/* implementation_level */ '2;1');

FILE_NAME(
/* name */ 'EndEffectorCap',
/* time_stamp */ '2026-08-02T02:27:02Z',
/* author */ (''),
/* organization */ (''),
/* preprocessor_version */ 'ST-DEVELOPER v20',
/* originating_system */ 'ONSHAPE BY PTC INC, 1.218',
/* authorisation */ '  ');

FILE_SCHEMA (('AP242_MANAGED_MODEL_BASED_3D_ENGINEERING_MIM_LF { 1 0 10303 442 3 1 4 }'));
ENDSEC;

DATA;
#10=SHAPE_REPRESENTATION_RELATIONSHIP('','',#977,#11);
#11=ADVANCED_BREP_SHAPE_REPRESENTATION('',(#975),#1755);
#12=ELLIPSE('',#1081,0.00206155281280883,0.002);
#13=ELLIPSE('',#1082,0.00206155281280883,0.002);
#14=ELLIPSE('',#1084,0.00206155281280883,0.002);
#15=ELLIPSE('',#1086,0.00206155281280883,0.002);
#16=ELLIPSE('',#1087,0.00206155281280883,0.002);
#17=ELLIPSE('',#1088,0.00206155281280883,0.002);
#18=ELLIPSE('',#1090,0.00206155281280883,0.002);
#19=ELLIPSE('',#1092,0.00206155281280883,0.002);
#20=(
BOUNDED_SURFACE()
B_SPLINE_SURFACE(3,2,((#1658,#1659,#1660),(#1661,#1662,#1663),(#1664,#1665,
#1666),(#1667,#1668,#1669),(#1670,#1671,#1672),(#1673,#1674,#1675),(#1676,
#1677,#1678)),.UNSPECIFIED.,.F.,.F.,.F.)
B_SPLINE_SURFACE_WITH_KNOTS((4,1,1,1,4),(3,3),(6.28318530717959,6.67588438887831,
7.06858347057703,7.46128255227576,7.85398163397448),(0.,1.),
 .UNSPECIFIED.)
GEOMETRIC_REPRESENTATION_ITEM()
RATIONAL_B_SPLINE_SURFACE(((1.,0.707106781186546,1.),(1.,0.707106782482809,
1.),(1.,0.746571860232464,1.),(1.,0.869029034553777,1.),(1.,0.973464424259062,
1.),(1.,0.999999999884295,1.),(1.,1.,1.)))
REPRESENTATION_ITEM('')
SURFACE()
);
#21=(
BOUNDED_SURFACE()
B_SPLINE_SURFACE(3,2,((#1685,#1686,#1687),(#1688,#1689,#1690),(#1691,#1692,
#1693),(#1694,#1695,#1696),(#1697,#1698,#1699),(#1700,#1701,#1702),(#1703,
#1704,#1705)),.UNSPECIFIED.,.F.,.F.,.F.)
B_SPLINE_SURFACE_WITH_KNOTS((4,1,1,1,4),(3,3),(6.28318530717959,6.67588438887831,
7.06858347057703,7.46128255227576,7.85398163397448),(0.,1.),
 .UNSPECIFIED.)
GEOMETRIC_REPRESENTATION_ITEM()
RATIONAL_B_SPLINE_SURFACE(((1.,0.707106781186546,1.),(1.,0.707106782482809,
1.),(1.,0.746571860232464,1.),(1.,0.869029034553777,1.),(1.,0.973464424259062,
1.),(1.,0.999999999884295,1.),(1.,1.,1.)))
REPRESENTATION_ITEM('')
SURFACE()
);
#22=(
BOUNDED_SURFACE()
B_SPLINE_SURFACE(3,2,((#1707,#1708,#1709),(#1710,#1711,#1712),(#1713,#1714,
#1715),(#1716,#1717,#1718),(#1719,#1720,#1721),(#1722,#1723,#1724),(#1725,
#1726,#1727)),.UNSPECIFIED.,.F.,.F.,.F.)
B_SPLINE_SURFACE_WITH_KNOTS((4,1,1,1,4),(3,3),(6.28318530717959,6.67588438887831,
7.06858347057703,7.46128255227576,7.85398163397448),(0.,1.),
 .UNSPECIFIED.)
GEOMETRIC_REPRESENTATION_ITEM()
RATIONAL_B_SPLINE_SURFACE(((1.,0.707106781186546,1.),(1.,0.707106782482809,
1.),(1.,0.746571860232464,1.),(1.,0.869029034553777,1.),(1.,0.973464424259062,
1.),(1.,0.999999999884295,1.),(1.,1.,1.)))
REPRESENTATION_ITEM('')
SURFACE()
);
#23=(
BOUNDED_SURFACE()
B_SPLINE_SURFACE(3,2,((#1733,#1734,#1735),(#1736,#1737,#1738),(#1739,#1740,
#1741),(#1742,#1743,#1744),(#1745,#1746,#1747),(#1748,#1749,#1750),(#1751,
#1752,#1753)),.UNSPECIFIED.,.F.,.F.,.F.)
B_SPLINE_SURFACE_WITH_KNOTS((4,1,1,1,4),(3,3),(6.28318530717959,6.67588438887831,
7.06858347057703,7.46128255227576,7.85398163397448),(0.,1.),
 .UNSPECIFIED.)
GEOMETRIC_REPRESENTATION_ITEM()
RATIONAL_B_SPLINE_SURFACE(((1.,0.707106781186546,1.),(1.,0.707106782482809,
1.),(1.,0.746571860232464,1.),(1.,0.869029034553777,1.),(1.,0.973464424259062,
1.),(1.,0.999999999884295,1.),(1.,1.,1.)))
REPRESENTATION_ITEM('')
SURFACE()
);
#24=CYLINDRICAL_SURFACE('',#1029,0.0015);
#25=CYLINDRICAL_SURFACE('',#1032,0.0015);
#26=CYLINDRICAL_SURFACE('',#1035,0.00375);
#27=CYLINDRICAL_SURFACE('',#1038,0.00375);
#28=CYLINDRICAL_SURFACE('',#1041,0.003);
#29=CYLINDRICAL_SURFACE('',#1044,0.003);
#30=CYLINDRICAL_SURFACE('',#1061,0.00025);
#31=CYLINDRICAL_SURFACE('',#1062,0.00025);
#32=CYLINDRICAL_SURFACE('',#1063,0.00025);
#33=CYLINDRICAL_SURFACE('',#1064,0.00025);
#34=CYLINDRICAL_SURFACE('',#1065,0.00025);
#35=CYLINDRICAL_SURFACE('',#1066,0.00025);
#36=CYLINDRICAL_SURFACE('',#1067,0.00025);
#37=CYLINDRICAL_SURFACE('',#1068,0.00025);
#38=CYLINDRICAL_SURFACE('',#1069,0.00025);
#39=CYLINDRICAL_SURFACE('',#1070,0.00025);
#40=CYLINDRICAL_SURFACE('',#1071,0.00025);
#41=CYLINDRICAL_SURFACE('',#1072,0.00025);
#42=CYLINDRICAL_SURFACE('',#1073,0.00025);
#43=CYLINDRICAL_SURFACE('',#1074,0.00025);
#44=CYLINDRICAL_SURFACE('',#1075,0.00025);
#45=CYLINDRICAL_SURFACE('',#1076,0.00025);
#46=CYLINDRICAL_SURFACE('',#1077,0.0027);
#47=CYLINDRICAL_SURFACE('',#1078,0.0027);
#48=CYLINDRICAL_SURFACE('',#1079,0.0027);
#49=CYLINDRICAL_SURFACE('',#1080,0.0027);
#50=CYLINDRICAL_SURFACE('',#1083,0.002);
#51=CYLINDRICAL_SURFACE('',#1085,0.002);
#52=CYLINDRICAL_SURFACE('',#1089,0.002);
#53=CYLINDRICAL_SURFACE('',#1091,0.002);
#54=LINE('',#1400,#124);
#55=LINE('',#1406,#125);
#56=LINE('',#1410,#126);
#57=LINE('',#1414,#127);
#58=LINE('',#1420,#128);
#59=LINE('',#1425,#129);
#60=LINE('',#1430,#130);
#61=LINE('',#1434,#131);
#62=LINE('',#1438,#132);
#63=LINE('',#1441,#133);
#64=LINE('',#1446,#134);
#65=LINE('',#1450,#135);
#66=LINE('',#1454,#136);
#67=LINE('',#1457,#137);
#68=LINE('',#1464,#138);
#69=LINE('',#1470,#139);
#70=LINE('',#1476,#140);
#71=LINE('',#1480,#141);
#72=LINE('',#1484,#142);
#73=LINE('',#1487,#143);
#74=LINE('',#1489,#144);
#75=LINE('',#1491,#145);
#76=LINE('',#1492,#146);
#77=LINE('',#1499,#147);
#78=LINE('',#1505,#148);
#79=LINE('',#1511,#149);
#80=LINE('',#1515,#150);
#81=LINE('',#1518,#151);
#82=LINE('',#1523,#152);
#83=LINE('',#1527,#153);
#84=LINE('',#1531,#154);
#85=LINE('',#1543,#155);
#86=LINE('',#1549,#156);
#87=LINE('',#1553,#157);
#88=LINE('',#1557,#158);
#89=LINE('',#1563,#159);
#90=LINE('',#1591,#160);
#91=LINE('',#1592,#161);
#92=LINE('',#1594,#162);
#93=LINE('',#1595,#163);
#94=LINE('',#1597,#164);
#95=LINE('',#1598,#165);
#96=LINE('',#1600,#166);
#97=LINE('',#1601,#167);
#98=LINE('',#1603,#168);
#99=LINE('',#1604,#169);
#100=LINE('',#1606,#170);
#101=LINE('',#1607,#171);
#102=LINE('',#1609,#172);
#103=LINE('',#1610,#173);
#104=LINE('',#1612,#174);
#105=LINE('',#1613,#175);
#106=LINE('',#1615,#176);
#107=LINE('',#1616,#177);
#108=LINE('',#1618,#178);
#109=LINE('',#1619,#179);
#110=LINE('',#1621,#180);
#111=LINE('',#1622,#181);
#112=LINE('',#1624,#182);
#113=LINE('',#1625,#183);
#114=LINE('',#1627,#184);
#115=LINE('',#1628,#185);
#116=LINE('',#1630,#186);
#117=LINE('',#1631,#187);
#118=LINE('',#1639,#188);
#119=LINE('',#1642,#189);
#120=LINE('',#1647,#190);
#121=LINE('',#1650,#191);
#122=LINE('',#1653,#192);
#123=LINE('',#1656,#193);
#124=VECTOR('',#1101,1.);
#125=VECTOR('',#1106,1.);
#126=VECTOR('',#1109,1.);
#127=VECTOR('',#1112,1.);
#128=VECTOR('',#1117,1.);
#129=VECTOR('',#1122,1.);
#130=VECTOR('',#1125,1.);
#131=VECTOR('',#1128,1.);
#132=VECTOR('',#1131,1.);
#133=VECTOR('',#1134,1.);
#134=VECTOR('',#1137,1.);
#135=VECTOR('',#1140,1.);
#136=VECTOR('',#1143,1.);
#137=VECTOR('',#1146,1.);
#138=VECTOR('',#1151,1.);
#139=VECTOR('',#1156,1.);
#140=VECTOR('',#1161,1.);
#141=VECTOR('',#1164,1.);
#142=VECTOR('',#1169,1.);
#143=VECTOR('',#1170,1.);
#144=VECTOR('',#1171,1.);
#145=VECTOR('',#1172,1.);
#146=VECTOR('',#1173,1.);
#147=VECTOR('',#1178,1.);
#148=VECTOR('',#1183,1.);
#149=VECTOR('',#1188,1.);
#150=VECTOR('',#1191,1.);
#151=VECTOR('',#1194,1.);
#152=VECTOR('',#1197,1.);
#153=VECTOR('',#1200,1.);
#154=VECTOR('',#1203,1.);
#155=VECTOR('',#1214,1.);
#156=VECTOR('',#1219,1.);
#157=VECTOR('',#1222,1.);
#158=VECTOR('',#1225,1.);
#159=VECTOR('',#1230,1.);
#160=VECTOR('',#1269,1.);
#161=VECTOR('',#1270,1.);
#162=VECTOR('',#1273,1.);
#163=VECTOR('',#1274,1.);
#164=VECTOR('',#1277,1.);
#165=VECTOR('',#1278,1.);
#166=VECTOR('',#1281,1.);
#167=VECTOR('',#1282,1.);
#168=VECTOR('',#1285,1.);
#169=VECTOR('',#1286,1.);
#170=VECTOR('',#1289,1.);
#171=VECTOR('',#1290,1.);
#172=VECTOR('',#1293,1.);
#173=VECTOR('',#1294,1.);
#174=VECTOR('',#1297,1.);
#175=VECTOR('',#1298,1.);
#176=VECTOR('',#1301,1.);
#177=VECTOR('',#1302,1.);
#178=VECTOR('',#1305,1.);
#179=VECTOR('',#1306,1.);
#180=VECTOR('',#1309,1.);
#181=VECTOR('',#1310,1.);
#182=VECTOR('',#1313,1.);
#183=VECTOR('',#1314,1.);
#184=VECTOR('',#1317,1.);
#185=VECTOR('',#1318,1.);
#186=VECTOR('',#1321,1.);
#187=VECTOR('',#1322,1.);
#188=VECTOR('',#1337,1.);
#189=VECTOR('',#1342,1.);
#190=VECTOR('',#1351,1.);
#191=VECTOR('',#1356,1.);
#192=VECTOR('',#1361,1.);
#193=VECTOR('',#1366,1.);
#194=ORIENTED_EDGE('',*,*,#462,.T.);
#195=ORIENTED_EDGE('',*,*,#463,.T.);
#196=ORIENTED_EDGE('',*,*,#464,.T.);
#197=ORIENTED_EDGE('',*,*,#465,.T.);
#198=ORIENTED_EDGE('',*,*,#466,.T.);
#199=ORIENTED_EDGE('',*,*,#467,.F.);
#200=ORIENTED_EDGE('',*,*,#468,.T.);
#201=ORIENTED_EDGE('',*,*,#469,.T.);
#202=ORIENTED_EDGE('',*,*,#470,.T.);
#203=ORIENTED_EDGE('',*,*,#471,.T.);
#204=ORIENTED_EDGE('',*,*,#472,.T.);
#205=ORIENTED_EDGE('',*,*,#473,.T.);
#206=ORIENTED_EDGE('',*,*,#474,.F.);
#207=ORIENTED_EDGE('',*,*,#475,.F.);
#208=ORIENTED_EDGE('',*,*,#476,.F.);
#209=ORIENTED_EDGE('',*,*,#477,.F.);
#210=ORIENTED_EDGE('',*,*,#478,.T.);
#211=ORIENTED_EDGE('',*,*,#479,.T.);
#212=ORIENTED_EDGE('',*,*,#480,.T.);
#213=ORIENTED_EDGE('',*,*,#481,.T.);
#214=ORIENTED_EDGE('',*,*,#482,.T.);
#215=ORIENTED_EDGE('',*,*,#483,.F.);
#216=ORIENTED_EDGE('',*,*,#484,.T.);
#217=ORIENTED_EDGE('',*,*,#485,.F.);
#218=ORIENTED_EDGE('',*,*,#486,.T.);
#219=ORIENTED_EDGE('',*,*,#487,.T.);
#220=ORIENTED_EDGE('',*,*,#488,.T.);
#221=ORIENTED_EDGE('',*,*,#489,.T.);
#222=ORIENTED_EDGE('',*,*,#490,.T.);
#223=ORIENTED_EDGE('',*,*,#491,.F.);
#224=ORIENTED_EDGE('',*,*,#492,.T.);
#225=ORIENTED_EDGE('',*,*,#493,.F.);
#226=ORIENTED_EDGE('',*,*,#494,.T.);
#227=ORIENTED_EDGE('',*,*,#495,.T.);
#228=ORIENTED_EDGE('',*,*,#496,.F.);
#229=ORIENTED_EDGE('',*,*,#497,.T.);
#230=ORIENTED_EDGE('',*,*,#498,.T.);
#231=ORIENTED_EDGE('',*,*,#499,.T.);
#232=ORIENTED_EDGE('',*,*,#500,.T.);
#233=ORIENTED_EDGE('',*,*,#501,.T.);
#234=ORIENTED_EDGE('',*,*,#502,.T.);
#235=ORIENTED_EDGE('',*,*,#503,.T.);
#236=ORIENTED_EDGE('',*,*,#504,.T.);
#237=ORIENTED_EDGE('',*,*,#505,.T.);
#238=ORIENTED_EDGE('',*,*,#506,.T.);
#239=ORIENTED_EDGE('',*,*,#507,.T.);
#240=ORIENTED_EDGE('',*,*,#508,.T.);
#241=ORIENTED_EDGE('',*,*,#509,.T.);
#242=ORIENTED_EDGE('',*,*,#510,.T.);
#243=ORIENTED_EDGE('',*,*,#511,.T.);
#244=ORIENTED_EDGE('',*,*,#512,.T.);
#245=ORIENTED_EDGE('',*,*,#513,.F.);
#246=ORIENTED_EDGE('',*,*,#514,.T.);
#247=ORIENTED_EDGE('',*,*,#515,.T.);
#248=ORIENTED_EDGE('',*,*,#516,.T.);
#249=ORIENTED_EDGE('',*,*,#517,.T.);
#250=ORIENTED_EDGE('',*,*,#518,.T.);
#251=ORIENTED_EDGE('',*,*,#519,.F.);
#252=ORIENTED_EDGE('',*,*,#520,.T.);
#253=ORIENTED_EDGE('',*,*,#521,.F.);
#254=ORIENTED_EDGE('',*,*,#522,.T.);
#255=ORIENTED_EDGE('',*,*,#523,.F.);
#256=ORIENTED_EDGE('',*,*,#524,.T.);
#257=ORIENTED_EDGE('',*,*,#525,.T.);
#258=ORIENTED_EDGE('',*,*,#526,.T.);
#259=ORIENTED_EDGE('',*,*,#527,.T.);
#260=ORIENTED_EDGE('',*,*,#528,.T.);
#261=ORIENTED_EDGE('',*,*,#529,.F.);
#262=ORIENTED_EDGE('',*,*,#530,.T.);
#263=ORIENTED_EDGE('',*,*,#531,.F.);
#264=ORIENTED_EDGE('',*,*,#532,.F.);
#265=ORIENTED_EDGE('',*,*,#533,.T.);
#266=ORIENTED_EDGE('',*,*,#534,.T.);
#267=ORIENTED_EDGE('',*,*,#535,.T.);
#268=ORIENTED_EDGE('',*,*,#536,.T.);
#269=ORIENTED_EDGE('',*,*,#537,.T.);
#270=ORIENTED_EDGE('',*,*,#538,.T.);
#271=ORIENTED_EDGE('',*,*,#539,.T.);
#272=ORIENTED_EDGE('',*,*,#540,.F.);
#273=ORIENTED_EDGE('',*,*,#541,.T.);
#274=ORIENTED_EDGE('',*,*,#542,.F.);
#275=ORIENTED_EDGE('',*,*,#543,.T.);
#276=ORIENTED_EDGE('',*,*,#544,.T.);
#277=ORIENTED_EDGE('',*,*,#545,.F.);
#278=ORIENTED_EDGE('',*,*,#546,.T.);
#279=ORIENTED_EDGE('',*,*,#547,.T.);
#280=ORIENTED_EDGE('',*,*,#548,.T.);
#281=ORIENTED_EDGE('',*,*,#549,.T.);
#282=ORIENTED_EDGE('',*,*,#550,.F.);
#283=ORIENTED_EDGE('',*,*,#476,.T.);
#284=ORIENTED_EDGE('',*,*,#546,.F.);
#285=ORIENTED_EDGE('',*,*,#550,.T.);
#286=ORIENTED_EDGE('',*,*,#551,.F.);
#287=ORIENTED_EDGE('',*,*,#475,.T.);
#288=ORIENTED_EDGE('',*,*,#548,.F.);
#289=ORIENTED_EDGE('',*,*,#551,.T.);
#290=ORIENTED_EDGE('',*,*,#552,.F.);
#291=ORIENTED_EDGE('',*,*,#532,.T.);
#292=ORIENTED_EDGE('',*,*,#549,.F.);
#293=ORIENTED_EDGE('',*,*,#552,.T.);
#294=ORIENTED_EDGE('',*,*,#553,.F.);
#295=ORIENTED_EDGE('',*,*,#531,.T.);
#296=ORIENTED_EDGE('',*,*,#547,.F.);
#297=ORIENTED_EDGE('',*,*,#553,.T.);
#298=ORIENTED_EDGE('',*,*,#523,.T.);
#299=ORIENTED_EDGE('',*,*,#554,.T.);
#300=ORIENTED_EDGE('',*,*,#487,.F.);
#301=ORIENTED_EDGE('',*,*,#555,.T.);
#302=ORIENTED_EDGE('',*,*,#485,.T.);
#303=ORIENTED_EDGE('',*,*,#556,.T.);
#304=ORIENTED_EDGE('',*,*,#525,.F.);
#305=ORIENTED_EDGE('',*,*,#557,.T.);
#306=ORIENTED_EDGE('',*,*,#491,.T.);
#307=ORIENTED_EDGE('',*,*,#558,.T.);
#308=ORIENTED_EDGE('',*,*,#527,.F.);
#309=ORIENTED_EDGE('',*,*,#559,.T.);
#310=ORIENTED_EDGE('',*,*,#489,.F.);
#311=ORIENTED_EDGE('',*,*,#560,.T.);
#312=ORIENTED_EDGE('',*,*,#529,.T.);
#313=ORIENTED_EDGE('',*,*,#561,.T.);
#314=ORIENTED_EDGE('',*,*,#499,.F.);
#315=ORIENTED_EDGE('',*,*,#562,.T.);
#316=ORIENTED_EDGE('',*,*,#545,.T.);
#317=ORIENTED_EDGE('',*,*,#563,.T.);
#318=ORIENTED_EDGE('',*,*,#535,.F.);
#319=ORIENTED_EDGE('',*,*,#564,.T.);
#320=ORIENTED_EDGE('',*,*,#496,.T.);
#321=ORIENTED_EDGE('',*,*,#565,.T.);
#322=ORIENTED_EDGE('',*,*,#493,.T.);
#323=ORIENTED_EDGE('',*,*,#566,.T.);
#324=ORIENTED_EDGE('',*,*,#538,.F.);
#325=ORIENTED_EDGE('',*,*,#567,.T.);
#326=ORIENTED_EDGE('',*,*,#504,.F.);
#327=ORIENTED_EDGE('',*,*,#568,.T.);
#328=ORIENTED_EDGE('',*,*,#540,.T.);
#329=ORIENTED_EDGE('',*,*,#569,.T.);
#330=ORIENTED_EDGE('',*,*,#542,.T.);
#331=ORIENTED_EDGE('',*,*,#570,.T.);
#332=ORIENTED_EDGE('',*,*,#502,.F.);
#333=ORIENTED_EDGE('',*,*,#571,.T.);
#334=ORIENTED_EDGE('',*,*,#471,.F.);
#335=ORIENTED_EDGE('',*,*,#572,.T.);
#336=ORIENTED_EDGE('',*,*,#519,.T.);
#337=ORIENTED_EDGE('',*,*,#573,.T.);
#338=ORIENTED_EDGE('',*,*,#521,.T.);
#339=ORIENTED_EDGE('',*,*,#574,.T.);
#340=ORIENTED_EDGE('',*,*,#469,.F.);
#341=ORIENTED_EDGE('',*,*,#575,.T.);
#342=ORIENTED_EDGE('',*,*,#510,.F.);
#343=ORIENTED_EDGE('',*,*,#576,.T.);
#344=ORIENTED_EDGE('',*,*,#467,.T.);
#345=ORIENTED_EDGE('',*,*,#577,.T.);
#346=ORIENTED_EDGE('',*,*,#464,.F.);
#347=ORIENTED_EDGE('',*,*,#578,.T.);
#348=ORIENTED_EDGE('',*,*,#513,.T.);
#349=ORIENTED_EDGE('',*,*,#579,.T.);
#350=ORIENTED_EDGE('',*,*,#516,.F.);
#351=ORIENTED_EDGE('',*,*,#580,.T.);
#352=ORIENTED_EDGE('',*,*,#474,.T.);
#353=ORIENTED_EDGE('',*,*,#581,.T.);
#354=ORIENTED_EDGE('',*,*,#530,.F.);
#355=ORIENTED_EDGE('',*,*,#560,.F.);
#356=ORIENTED_EDGE('',*,*,#488,.F.);
#357=ORIENTED_EDGE('',*,*,#554,.F.);
#358=ORIENTED_EDGE('',*,*,#528,.F.);
#359=ORIENTED_EDGE('',*,*,#558,.F.);
#360=ORIENTED_EDGE('',*,*,#490,.F.);
#361=ORIENTED_EDGE('',*,*,#561,.F.);
#362=ORIENTED_EDGE('',*,*,#526,.F.);
#363=ORIENTED_EDGE('',*,*,#556,.F.);
#364=ORIENTED_EDGE('',*,*,#492,.F.);
#365=ORIENTED_EDGE('',*,*,#559,.F.);
#366=ORIENTED_EDGE('',*,*,#524,.F.);
#367=ORIENTED_EDGE('',*,*,#555,.F.);
#368=ORIENTED_EDGE('',*,*,#486,.F.);
#369=ORIENTED_EDGE('',*,*,#557,.F.);
#370=ORIENTED_EDGE('',*,*,#520,.F.);
#371=ORIENTED_EDGE('',*,*,#572,.F.);
#372=ORIENTED_EDGE('',*,*,#470,.F.);
#373=ORIENTED_EDGE('',*,*,#574,.F.);
#374=ORIENTED_EDGE('',*,*,#522,.F.);
#375=ORIENTED_EDGE('',*,*,#575,.F.);
#376=ORIENTED_EDGE('',*,*,#468,.F.);
#377=ORIENTED_EDGE('',*,*,#576,.F.);
#378=ORIENTED_EDGE('',*,*,#582,.F.);
#379=ORIENTED_EDGE('',*,*,#511,.F.);
#380=ORIENTED_EDGE('',*,*,#577,.F.);
#381=ORIENTED_EDGE('',*,*,#466,.F.);
#382=ORIENTED_EDGE('',*,*,#512,.F.);
#383=ORIENTED_EDGE('',*,*,#582,.T.);
#384=ORIENTED_EDGE('',*,*,#465,.F.);
#385=ORIENTED_EDGE('',*,*,#579,.F.);
#386=ORIENTED_EDGE('',*,*,#573,.F.);
#387=ORIENTED_EDGE('',*,*,#518,.F.);
#388=ORIENTED_EDGE('',*,*,#583,.F.);
#389=ORIENTED_EDGE('',*,*,#472,.F.);
#390=ORIENTED_EDGE('',*,*,#517,.F.);
#391=ORIENTED_EDGE('',*,*,#581,.F.);
#392=ORIENTED_EDGE('',*,*,#473,.F.);
#393=ORIENTED_EDGE('',*,*,#583,.T.);
#394=ORIENTED_EDGE('',*,*,#541,.F.);
#395=ORIENTED_EDGE('',*,*,#568,.F.);
#396=ORIENTED_EDGE('',*,*,#503,.F.);
#397=ORIENTED_EDGE('',*,*,#570,.F.);
#398=ORIENTED_EDGE('',*,*,#539,.F.);
#399=ORIENTED_EDGE('',*,*,#566,.F.);
#400=ORIENTED_EDGE('',*,*,#505,.F.);
#401=ORIENTED_EDGE('',*,*,#569,.F.);
#402=ORIENTED_EDGE('',*,*,#567,.F.);
#403=ORIENTED_EDGE('',*,*,#537,.F.);
#404=ORIENTED_EDGE('',*,*,#584,.F.);
#405=ORIENTED_EDGE('',*,*,#494,.F.);
#406=ORIENTED_EDGE('',*,*,#536,.F.);
#407=ORIENTED_EDGE('',*,*,#565,.F.);
#408=ORIENTED_EDGE('',*,*,#495,.F.);
#409=ORIENTED_EDGE('',*,*,#584,.T.);
#410=ORIENTED_EDGE('',*,*,#563,.F.);
#411=ORIENTED_EDGE('',*,*,#544,.F.);
#412=ORIENTED_EDGE('',*,*,#585,.F.);
#413=ORIENTED_EDGE('',*,*,#500,.F.);
#414=ORIENTED_EDGE('',*,*,#543,.F.);
#415=ORIENTED_EDGE('',*,*,#571,.F.);
#416=ORIENTED_EDGE('',*,*,#501,.F.);
#417=ORIENTED_EDGE('',*,*,#585,.T.);
#418=ORIENTED_EDGE('',*,*,#586,.F.);
#419=ORIENTED_EDGE('',*,*,#514,.F.);
#420=ORIENTED_EDGE('',*,*,#578,.F.);
#421=ORIENTED_EDGE('',*,*,#463,.F.);
#422=ORIENTED_EDGE('',*,*,#515,.F.);
#423=ORIENTED_EDGE('',*,*,#586,.T.);
#424=ORIENTED_EDGE('',*,*,#462,.F.);
#425=ORIENTED_EDGE('',*,*,#580,.F.);
#426=ORIENTED_EDGE('',*,*,#564,.F.);
#427=ORIENTED_EDGE('',*,*,#534,.F.);
#428=ORIENTED_EDGE('',*,*,#587,.F.);
#429=ORIENTED_EDGE('',*,*,#497,.F.);
#430=ORIENTED_EDGE('',*,*,#533,.F.);
#431=ORIENTED_EDGE('',*,*,#562,.F.);
#432=ORIENTED_EDGE('',*,*,#498,.F.);
#433=ORIENTED_EDGE('',*,*,#587,.T.);
#434=ORIENTED_EDGE('',*,*,#588,.F.);
#435=ORIENTED_EDGE('',*,*,#482,.F.);
#436=ORIENTED_EDGE('',*,*,#589,.F.);
#437=ORIENTED_EDGE('',*,*,#589,.T.);
#438=ORIENTED_EDGE('',*,*,#481,.F.);
#439=ORIENTED_EDGE('',*,*,#590,.F.);
#440=ORIENTED_EDGE('',*,*,#506,.F.);
#441=ORIENTED_EDGE('',*,*,#588,.T.);
#442=ORIENTED_EDGE('',*,*,#509,.F.);
#443=ORIENTED_EDGE('',*,*,#591,.F.);
#444=ORIENTED_EDGE('',*,*,#483,.T.);
#445=ORIENTED_EDGE('',*,*,#590,.T.);
#446=ORIENTED_EDGE('',*,*,#480,.F.);
#447=ORIENTED_EDGE('',*,*,#592,.F.);
#448=ORIENTED_EDGE('',*,*,#484,.F.);
#449=ORIENTED_EDGE('',*,*,#591,.T.);
#450=ORIENTED_EDGE('',*,*,#593,.F.);
#451=ORIENTED_EDGE('',*,*,#592,.T.);
#452=ORIENTED_EDGE('',*,*,#479,.F.);
#453=ORIENTED_EDGE('',*,*,#594,.F.);
#454=ORIENTED_EDGE('',*,*,#507,.F.);
#455=ORIENTED_EDGE('',*,*,#593,.T.);
#456=ORIENTED_EDGE('',*,*,#508,.F.);
#457=ORIENTED_EDGE('',*,*,#595,.F.);
#458=ORIENTED_EDGE('',*,*,#477,.T.);
#459=ORIENTED_EDGE('',*,*,#478,.F.);
#460=ORIENTED_EDGE('',*,*,#595,.T.);
#461=ORIENTED_EDGE('',*,*,#594,.T.);
#462=EDGE_CURVE('',#596,#597,#688,.F.);
#463=EDGE_CURVE('',#597,#598,#689,.F.);
#464=EDGE_CURVE('',#598,#599,#54,.T.);
#465=EDGE_CURVE('',#599,#600,#690,.F.);
#466=EDGE_CURVE('',#600,#601,#691,.T.);
#467=EDGE_CURVE('',#602,#601,#55,.T.);
#468=EDGE_CURVE('',#602,#603,#692,.F.);
#469=EDGE_CURVE('',#603,#604,#56,.T.);
#470=EDGE_CURVE('',#604,#605,#693,.F.);
#471=EDGE_CURVE('',#605,#606,#57,.T.);
#472=EDGE_CURVE('',#606,#607,#694,.T.);
#473=EDGE_CURVE('',#607,#608,#695,.F.);
#474=EDGE_CURVE('',#596,#608,#58,.T.);
#475=EDGE_CURVE('',#609,#609,#696,.T.);
#476=EDGE_CURVE('',#610,#610,#697,.T.);
#477=EDGE_CURVE('',#611,#612,#59,.T.);
#478=EDGE_CURVE('',#611,#613,#698,.T.);
#479=EDGE_CURVE('',#613,#614,#60,.T.);
#480=EDGE_CURVE('',#614,#615,#699,.T.);
#481=EDGE_CURVE('',#615,#616,#61,.T.);
#482=EDGE_CURVE('',#616,#617,#700,.T.);
#483=EDGE_CURVE('',#618,#617,#62,.T.);
#484=EDGE_CURVE('',#618,#612,#701,.T.);
#485=EDGE_CURVE('',#619,#620,#63,.T.);
#486=EDGE_CURVE('',#619,#621,#702,.F.);
#487=EDGE_CURVE('',#621,#622,#64,.T.);
#488=EDGE_CURVE('',#622,#623,#703,.F.);
#489=EDGE_CURVE('',#623,#624,#65,.T.);
#490=EDGE_CURVE('',#624,#625,#704,.F.);
#491=EDGE_CURVE('',#626,#625,#66,.T.);
#492=EDGE_CURVE('',#626,#620,#705,.F.);
#493=EDGE_CURVE('',#627,#628,#67,.T.);
#494=EDGE_CURVE('',#627,#629,#706,.T.);
#495=EDGE_CURVE('',#629,#630,#707,.F.);
#496=EDGE_CURVE('',#631,#630,#68,.T.);
#497=EDGE_CURVE('',#631,#632,#708,.F.);
#498=EDGE_CURVE('',#632,#633,#709,.F.);
#499=EDGE_CURVE('',#633,#634,#69,.T.);
#500=EDGE_CURVE('',#634,#635,#710,.F.);
#501=EDGE_CURVE('',#635,#636,#711,.T.);
#502=EDGE_CURVE('',#636,#637,#70,.T.);
#503=EDGE_CURVE('',#637,#638,#712,.F.);
#504=EDGE_CURVE('',#638,#639,#71,.T.);
#505=EDGE_CURVE('',#639,#628,#713,.F.);
#506=EDGE_CURVE('',#640,#641,#72,.F.);
#507=EDGE_CURVE('',#641,#642,#73,.F.);
#508=EDGE_CURVE('',#642,#643,#74,.T.);
#509=EDGE_CURVE('',#643,#640,#75,.T.);
#510=EDGE_CURVE('',#644,#645,#76,.T.);
#511=EDGE_CURVE('',#645,#646,#714,.F.);
#512=EDGE_CURVE('',#646,#647,#715,.T.);
#513=EDGE_CURVE('',#648,#647,#77,.T.);
#514=EDGE_CURVE('',#648,#649,#716,.T.);
#515=EDGE_CURVE('',#649,#650,#717,.T.);
#516=EDGE_CURVE('',#650,#651,#78,.T.);
#517=EDGE_CURVE('',#651,#652,#718,.T.);
#518=EDGE_CURVE('',#652,#653,#719,.F.);
#519=EDGE_CURVE('',#654,#653,#79,.T.);
#520=EDGE_CURVE('',#654,#655,#720,.T.);
#521=EDGE_CURVE('',#656,#655,#80,.T.);
#522=EDGE_CURVE('',#656,#644,#721,.T.);
#523=EDGE_CURVE('',#657,#658,#81,.T.);
#524=EDGE_CURVE('',#657,#659,#722,.T.);
#525=EDGE_CURVE('',#659,#660,#82,.T.);
#526=EDGE_CURVE('',#660,#661,#723,.T.);
#527=EDGE_CURVE('',#661,#662,#83,.T.);
#528=EDGE_CURVE('',#662,#663,#724,.T.);
#529=EDGE_CURVE('',#664,#663,#84,.T.);
#530=EDGE_CURVE('',#664,#658,#725,.T.);
#531=EDGE_CURVE('',#665,#665,#726,.T.);
#532=EDGE_CURVE('',#666,#666,#727,.T.);
#533=EDGE_CURVE('',#667,#668,#728,.T.);
#534=EDGE_CURVE('',#668,#669,#729,.T.);
#535=EDGE_CURVE('',#669,#670,#85,.T.);
#536=EDGE_CURVE('',#670,#671,#730,.T.);
#537=EDGE_CURVE('',#671,#672,#731,.F.);
#538=EDGE_CURVE('',#672,#673,#86,.T.);
#539=EDGE_CURVE('',#673,#674,#732,.T.);
#540=EDGE_CURVE('',#675,#674,#87,.T.);
#541=EDGE_CURVE('',#675,#676,#733,.T.);
#542=EDGE_CURVE('',#677,#676,#88,.T.);
#543=EDGE_CURVE('',#677,#678,#734,.F.);
#544=EDGE_CURVE('',#678,#679,#735,.T.);
#545=EDGE_CURVE('',#667,#679,#89,.T.);
#546=EDGE_CURVE('',#680,#680,#736,.T.);
#547=EDGE_CURVE('',#681,#681,#737,.T.);
#548=EDGE_CURVE('',#682,#682,#738,.T.);
#549=EDGE_CURVE('',#683,#683,#739,.T.);
#550=EDGE_CURVE('',#684,#684,#740,.T.);
#551=EDGE_CURVE('',#685,#685,#741,.T.);
#552=EDGE_CURVE('',#686,#686,#742,.T.);
#553=EDGE_CURVE('',#687,#687,#743,.T.);
#554=EDGE_CURVE('',#658,#622,#90,.T.);
#555=EDGE_CURVE('',#621,#657,#91,.F.);
#556=EDGE_CURVE('',#620,#660,#92,.F.);
#557=EDGE_CURVE('',#659,#619,#93,.T.);
#558=EDGE_CURVE('',#625,#662,#94,.F.);
#559=EDGE_CURVE('',#661,#626,#95,.T.);
#560=EDGE_CURVE('',#623,#664,#96,.F.);
#561=EDGE_CURVE('',#663,#624,#97,.T.);
#562=EDGE_CURVE('',#633,#667,#98,.F.);
#563=EDGE_CURVE('',#679,#634,#99,.T.);
#564=EDGE_CURVE('',#669,#631,#100,.T.);
#565=EDGE_CURVE('',#630,#670,#101,.F.);
#566=EDGE_CURVE('',#628,#673,#102,.F.);
#567=EDGE_CURVE('',#672,#627,#103,.T.);
#568=EDGE_CURVE('',#638,#675,#104,.F.);
#569=EDGE_CURVE('',#674,#639,#105,.T.);
#570=EDGE_CURVE('',#676,#637,#106,.T.);
#571=EDGE_CURVE('',#636,#677,#107,.F.);
#572=EDGE_CURVE('',#605,#654,#108,.F.);
#573=EDGE_CURVE('',#653,#606,#109,.T.);
#574=EDGE_CURVE('',#655,#604,#110,.T.);
#575=EDGE_CURVE('',#603,#656,#111,.F.);
#576=EDGE_CURVE('',#644,#602,#112,.T.);
#577=EDGE_CURVE('',#601,#645,#113,.F.);
#578=EDGE_CURVE('',#598,#648,#114,.F.);
#579=EDGE_CURVE('',#647,#599,#115,.T.);
#580=EDGE_CURVE('',#650,#596,#116,.T.);
#581=EDGE_CURVE('',#608,#651,#117,.F.);
#582=EDGE_CURVE('',#646,#600,#118,.T.);
#583=EDGE_CURVE('',#607,#652,#119,.F.);
#584=EDGE_CURVE('',#629,#671,#120,.F.);
#585=EDGE_CURVE('',#635,#678,#121,.F.);
#586=EDGE_CURVE('',#649,#597,#122,.F.);
#587=EDGE_CURVE('',#632,#668,#123,.T.);
#588=EDGE_CURVE('',#617,#640,#12,.F.);
#589=EDGE_CURVE('',#640,#616,#13,.T.);
#590=EDGE_CURVE('',#641,#615,#14,.T.);
#591=EDGE_CURVE('',#618,#643,#15,.F.);
#592=EDGE_CURVE('',#641,#614,#16,.T.);
#593=EDGE_CURVE('',#612,#643,#17,.F.);
#594=EDGE_CURVE('',#642,#613,#18,.T.);
#595=EDGE_CURVE('',#611,#642,#19,.F.);
#596=VERTEX_POINT('',#1396);
#597=VERTEX_POINT('',#1397);
#598=VERTEX_POINT('',#1399);
#599=VERTEX_POINT('',#1401);
#600=VERTEX_POINT('',#1403);
#601=VERTEX_POINT('',#1405);
#602=VERTEX_POINT('',#1407);
#603=VERTEX_POINT('',#1409);
#604=VERTEX_POINT('',#1411);
#605=VERTEX_POINT('',#1413);
#606=VERTEX_POINT('',#1415);
#607=VERTEX_POINT('',#1417);
#608=VERTEX_POINT('',#1419);
#609=VERTEX_POINT('',#1422);
#610=VERTEX_POINT('',#1424);
#611=VERTEX_POINT('',#1426);
#612=VERTEX_POINT('',#1427);
#613=VERTEX_POINT('',#1429);
#614=VERTEX_POINT('',#1431);
#615=VERTEX_POINT('',#1433);
#616=VERTEX_POINT('',#1435);
#617=VERTEX_POINT('',#1437);
#618=VERTEX_POINT('',#1439);
#619=VERTEX_POINT('',#1442);
#620=VERTEX_POINT('',#1443);
#621=VERTEX_POINT('',#1445);
#622=VERTEX_POINT('',#1447);
#623=VERTEX_POINT('',#1449);
#624=VERTEX_POINT('',#1451);
#625=VERTEX_POINT('',#1453);
#626=VERTEX_POINT('',#1455);
#627=VERTEX_POINT('',#1458);
#628=VERTEX_POINT('',#1459);
#629=VERTEX_POINT('',#1461);
#630=VERTEX_POINT('',#1463);
#631=VERTEX_POINT('',#1465);
#632=VERTEX_POINT('',#1467);
#633=VERTEX_POINT('',#1469);
#634=VERTEX_POINT('',#1471);
#635=VERTEX_POINT('',#1473);
#636=VERTEX_POINT('',#1475);
#637=VERTEX_POINT('',#1477);
#638=VERTEX_POINT('',#1479);
#639=VERTEX_POINT('',#1481);
#640=VERTEX_POINT('',#1485);
#641=VERTEX_POINT('',#1486);
#642=VERTEX_POINT('',#1488);
#643=VERTEX_POINT('',#1490);
#644=VERTEX_POINT('',#1493);
#645=VERTEX_POINT('',#1494);
#646=VERTEX_POINT('',#1496);
#647=VERTEX_POINT('',#1498);
#648=VERTEX_POINT('',#1500);
#649=VERTEX_POINT('',#1502);
#650=VERTEX_POINT('',#1504);
#651=VERTEX_POINT('',#1506);
#652=VERTEX_POINT('',#1508);
#653=VERTEX_POINT('',#1510);
#654=VERTEX_POINT('',#1512);
#655=VERTEX_POINT('',#1514);
#656=VERTEX_POINT('',#1516);
#657=VERTEX_POINT('',#1519);
#658=VERTEX_POINT('',#1520);
#659=VERTEX_POINT('',#1522);
#660=VERTEX_POINT('',#1524);
#661=VERTEX_POINT('',#1526);
#662=VERTEX_POINT('',#1528);
#663=VERTEX_POINT('',#1530);
#664=VERTEX_POINT('',#1532);
#665=VERTEX_POINT('',#1535);
#666=VERTEX_POINT('',#1537);
#667=VERTEX_POINT('',#1539);
#668=VERTEX_POINT('',#1540);
#669=VERTEX_POINT('',#1542);
#670=VERTEX_POINT('',#1544);
#671=VERTEX_POINT('',#1546);
#672=VERTEX_POINT('',#1548);
#673=VERTEX_POINT('',#1550);
#674=VERTEX_POINT('',#1552);
#675=VERTEX_POINT('',#1554);
#676=VERTEX_POINT('',#1556);
#677=VERTEX_POINT('',#1558);
#678=VERTEX_POINT('',#1560);
#679=VERTEX_POINT('',#1562);
#680=VERTEX_POINT('',#1566);
#681=VERTEX_POINT('',#1568);
#682=VERTEX_POINT('',#1571);
#683=VERTEX_POINT('',#1573);
#684=VERTEX_POINT('',#1576);
#685=VERTEX_POINT('',#1580);
#686=VERTEX_POINT('',#1584);
#687=VERTEX_POINT('',#1588);
#688=CIRCLE('',#980,0.0027);
#689=CIRCLE('',#981,0.0027);
#690=CIRCLE('',#982,0.00025);
#691=CIRCLE('',#983,0.00025);
#692=CIRCLE('',#984,0.00025);
#693=CIRCLE('',#985,0.00025);
#694=CIRCLE('',#986,0.00025);
#695=CIRCLE('',#987,0.00025);
#696=CIRCLE('',#988,0.00375);
#697=CIRCLE('',#989,0.00375);
#698=CIRCLE('',#990,0.0015);
#699=CIRCLE('',#991,0.0015);
#700=CIRCLE('',#992,0.0015);
#701=CIRCLE('',#993,0.0015);
#702=CIRCLE('',#994,0.00025);
#703=CIRCLE('',#995,0.00025);
#704=CIRCLE('',#996,0.00025);
#705=CIRCLE('',#997,0.00025);
#706=CIRCLE('',#998,0.00025);
#707=CIRCLE('',#999,0.00025);
#708=CIRCLE('',#1000,0.0027);
#709=CIRCLE('',#1001,0.0027);
#710=CIRCLE('',#1002,0.00025);
#711=CIRCLE('',#1003,0.00025);
#712=CIRCLE('',#1004,0.00025);
#713=CIRCLE('',#1005,0.00025);
#714=CIRCLE('',#1007,0.00025);
#715=CIRCLE('',#1008,0.00025);
#716=CIRCLE('',#1009,0.0027);
#717=CIRCLE('',#1010,0.0027);
#718=CIRCLE('',#1011,0.00025);
#719=CIRCLE('',#1012,0.00025);
#720=CIRCLE('',#1013,0.00025);
#721=CIRCLE('',#1014,0.00025);
#722=CIRCLE('',#1015,0.00025);
#723=CIRCLE('',#1016,0.00025);
#724=CIRCLE('',#1017,0.00025);
#725=CIRCLE('',#1018,0.00025);
#726=CIRCLE('',#1019,0.003);
#727=CIRCLE('',#1020,0.003);
#728=CIRCLE('',#1021,0.0027);
#729=CIRCLE('',#1022,0.0027);
#730=CIRCLE('',#1023,0.00025);
#731=CIRCLE('',#1024,0.00025);
#732=CIRCLE('',#1025,0.00025);
#733=CIRCLE('',#1026,0.00025);
#734=CIRCLE('',#1027,0.00025);
#735=CIRCLE('',#1028,0.00025);
#736=CIRCLE('',#1030,0.0015);
#737=CIRCLE('',#1031,0.0015);
#738=CIRCLE('',#1033,0.0015);
#739=CIRCLE('',#1034,0.0015);
#740=CIRCLE('',#1036,0.00375);
#741=CIRCLE('',#1039,0.00375);
#742=CIRCLE('',#1042,0.003);
#743=CIRCLE('',#1045,0.003);
#744=EDGE_LOOP('',(#194,#195,#196,#197,#198,#199,#200,#201,#202,#203,#204,
#205,#206));
#745=EDGE_LOOP('',(#207));
#746=EDGE_LOOP('',(#208));
#747=EDGE_LOOP('',(#209,#210,#211,#212,#213,#214,#215,#216));
#748=EDGE_LOOP('',(#217,#218,#219,#220,#221,#222,#223,#224));
#749=EDGE_LOOP('',(#225,#226,#227,#228,#229,#230,#231,#232,#233,#234,#235,
#236,#237));
#750=EDGE_LOOP('',(#238,#239,#240,#241));
#751=EDGE_LOOP('',(#242,#243,#244,#245,#246,#247,#248,#249,#250,#251,#252,
#253,#254));
#752=EDGE_LOOP('',(#255,#256,#257,#258,#259,#260,#261,#262));
#753=EDGE_LOOP('',(#263));
#754=EDGE_LOOP('',(#264));
#755=EDGE_LOOP('',(#265,#266,#267,#268,#269,#270,#271,#272,#273,#274,#275,
#276,#277));
#756=EDGE_LOOP('',(#278));
#757=EDGE_LOOP('',(#279));
#758=EDGE_LOOP('',(#280));
#759=EDGE_LOOP('',(#281));
#760=EDGE_LOOP('',(#282));
#761=EDGE_LOOP('',(#283));
#762=EDGE_LOOP('',(#284));
#763=EDGE_LOOP('',(#285));
#764=EDGE_LOOP('',(#286));
#765=EDGE_LOOP('',(#287));
#766=EDGE_LOOP('',(#288));
#767=EDGE_LOOP('',(#289));
#768=EDGE_LOOP('',(#290));
#769=EDGE_LOOP('',(#291));
#770=EDGE_LOOP('',(#292));
#771=EDGE_LOOP('',(#293));
#772=EDGE_LOOP('',(#294));
#773=EDGE_LOOP('',(#295));
#774=EDGE_LOOP('',(#296));
#775=EDGE_LOOP('',(#297));
#776=EDGE_LOOP('',(#298,#299,#300,#301));
#777=EDGE_LOOP('',(#302,#303,#304,#305));
#778=EDGE_LOOP('',(#306,#307,#308,#309));
#779=EDGE_LOOP('',(#310,#311,#312,#313));
#780=EDGE_LOOP('',(#314,#315,#316,#317));
#781=EDGE_LOOP('',(#318,#319,#320,#321));
#782=EDGE_LOOP('',(#322,#323,#324,#325));
#783=EDGE_LOOP('',(#326,#327,#328,#329));
#784=EDGE_LOOP('',(#330,#331,#332,#333));
#785=EDGE_LOOP('',(#334,#335,#336,#337));
#786=EDGE_LOOP('',(#338,#339,#340,#341));
#787=EDGE_LOOP('',(#342,#343,#344,#345));
#788=EDGE_LOOP('',(#346,#347,#348,#349));
#789=EDGE_LOOP('',(#350,#351,#352,#353));
#790=EDGE_LOOP('',(#354,#355,#356,#357));
#791=EDGE_LOOP('',(#358,#359,#360,#361));
#792=EDGE_LOOP('',(#362,#363,#364,#365));
#793=EDGE_LOOP('',(#366,#367,#368,#369));
#794=EDGE_LOOP('',(#370,#371,#372,#373));
#795=EDGE_LOOP('',(#374,#375,#376,#377));
#796=EDGE_LOOP('',(#378,#379,#380,#381));
#797=EDGE_LOOP('',(#382,#383,#384,#385));
#798=EDGE_LOOP('',(#386,#387,#388,#389));
#799=EDGE_LOOP('',(#390,#391,#392,#393));
#800=EDGE_LOOP('',(#394,#395,#396,#397));
#801=EDGE_LOOP('',(#398,#399,#400,#401));
#802=EDGE_LOOP('',(#402,#403,#404,#405));
#803=EDGE_LOOP('',(#406,#407,#408,#409));
#804=EDGE_LOOP('',(#410,#411,#412,#413));
#805=EDGE_LOOP('',(#414,#415,#416,#417));
#806=EDGE_LOOP('',(#418,#419,#420,#421));
#807=EDGE_LOOP('',(#422,#423,#424,#425));
#808=EDGE_LOOP('',(#426,#427,#428,#429));
#809=EDGE_LOOP('',(#430,#431,#432,#433));
#810=EDGE_LOOP('',(#434,#435,#436));
#811=EDGE_LOOP('',(#437,#438,#439,#440));
#812=EDGE_LOOP('',(#441,#442,#443,#444));
#813=EDGE_LOOP('',(#445,#446,#447));
#814=EDGE_LOOP('',(#448,#449,#450));
#815=EDGE_LOOP('',(#451,#452,#453,#454));
#816=EDGE_LOOP('',(#455,#456,#457,#458));
#817=EDGE_LOOP('',(#459,#460,#461));
#818=FACE_BOUND('',#744,.T.);
#819=FACE_BOUND('',#745,.T.);
#820=FACE_BOUND('',#746,.T.);
#821=FACE_BOUND('',#747,.T.);
#822=FACE_BOUND('',#748,.T.);
#823=FACE_BOUND('',#749,.T.);
#824=FACE_BOUND('',#750,.T.);
#825=FACE_BOUND('',#751,.T.);
#826=FACE_BOUND('',#752,.T.);
#827=FACE_BOUND('',#753,.T.);
#828=FACE_BOUND('',#754,.T.);
#829=FACE_BOUND('',#755,.T.);
#830=FACE_BOUND('',#756,.T.);
#831=FACE_BOUND('',#757,.T.);
#832=FACE_BOUND('',#758,.T.);
#833=FACE_BOUND('',#759,.T.);
#834=FACE_BOUND('',#760,.T.);
#835=FACE_BOUND('',#761,.T.);
#836=FACE_BOUND('',#762,.T.);
#837=FACE_BOUND('',#763,.T.);
#838=FACE_BOUND('',#764,.T.);
#839=FACE_BOUND('',#765,.T.);
#840=FACE_BOUND('',#766,.T.);
#841=FACE_BOUND('',#767,.T.);
#842=FACE_BOUND('',#768,.T.);
#843=FACE_BOUND('',#769,.T.);
#844=FACE_BOUND('',#770,.T.);
#845=FACE_BOUND('',#771,.T.);
#846=FACE_BOUND('',#772,.T.);
#847=FACE_BOUND('',#773,.T.);
#848=FACE_BOUND('',#774,.T.);
#849=FACE_BOUND('',#775,.T.);
#850=FACE_BOUND('',#776,.T.);
#851=FACE_BOUND('',#777,.T.);
#852=FACE_BOUND('',#778,.T.);
#853=FACE_BOUND('',#779,.T.);
#854=FACE_BOUND('',#780,.T.);
#855=FACE_BOUND('',#781,.T.);
#856=FACE_BOUND('',#782,.T.);
#857=FACE_BOUND('',#783,.T.);
#858=FACE_BOUND('',#784,.T.);
#859=FACE_BOUND('',#785,.T.);
#860=FACE_BOUND('',#786,.T.);
#861=FACE_BOUND('',#787,.T.);
#862=FACE_BOUND('',#788,.T.);
#863=FACE_BOUND('',#789,.T.);
#864=FACE_BOUND('',#790,.T.);
#865=FACE_BOUND('',#791,.T.);
#866=FACE_BOUND('',#792,.T.);
#867=FACE_BOUND('',#793,.T.);
#868=FACE_BOUND('',#794,.T.);
#869=FACE_BOUND('',#795,.T.);
#870=FACE_BOUND('',#796,.T.);
#871=FACE_BOUND('',#797,.T.);
#872=FACE_BOUND('',#798,.T.);
#873=FACE_BOUND('',#799,.T.);
#874=FACE_BOUND('',#800,.T.);
#875=FACE_BOUND('',#801,.T.);
#876=FACE_BOUND('',#802,.T.);
#877=FACE_BOUND('',#803,.T.);
#878=FACE_BOUND('',#804,.T.);
#879=FACE_BOUND('',#805,.T.);
#880=FACE_BOUND('',#806,.T.);
#881=FACE_BOUND('',#807,.T.);
#882=FACE_BOUND('',#808,.T.);
#883=FACE_BOUND('',#809,.T.);
#884=FACE_BOUND('',#810,.T.);
#885=FACE_BOUND('',#811,.T.);
#886=FACE_BOUND('',#812,.T.);
#887=FACE_BOUND('',#813,.T.);
#888=FACE_BOUND('',#814,.T.);
#889=FACE_BOUND('',#815,.T.);
#890=FACE_BOUND('',#816,.T.);
#891=FACE_BOUND('',#817,.T.);
#892=PLANE('',#979);
#893=PLANE('',#1006);
#894=PLANE('',#1037);
#895=PLANE('',#1040);
#896=PLANE('',#1043);
#897=PLANE('',#1046);
#898=PLANE('',#1047);
#899=PLANE('',#1048);
#900=PLANE('',#1049);
#901=PLANE('',#1050);
#902=PLANE('',#1051);
#903=PLANE('',#1052);
#904=PLANE('',#1053);
#905=PLANE('',#1054);
#906=PLANE('',#1055);
#907=PLANE('',#1056);
#908=PLANE('',#1057);
#909=PLANE('',#1058);
#910=PLANE('',#1059);
#911=PLANE('',#1060);
#912=ADVANCED_FACE('',(#818,#819,#820,#821,#822,#823),#892,.T.);
#913=ADVANCED_FACE('',(#824,#825,#826,#827,#828,#829),#893,.F.);
#914=ADVANCED_FACE('',(#830,#831),#24,.F.);
#915=ADVANCED_FACE('',(#832,#833),#25,.F.);
#916=ADVANCED_FACE('',(#834,#835),#26,.T.);
#917=ADVANCED_FACE('',(#836,#837),#894,.T.);
#918=ADVANCED_FACE('',(#838,#839),#27,.T.);
#919=ADVANCED_FACE('',(#840,#841),#895,.T.);
#920=ADVANCED_FACE('',(#842,#843),#28,.F.);
#921=ADVANCED_FACE('',(#844,#845),#896,.T.);
#922=ADVANCED_FACE('',(#846,#847),#29,.F.);
#923=ADVANCED_FACE('',(#848,#849),#897,.T.);
#924=ADVANCED_FACE('',(#850),#898,.T.);
#925=ADVANCED_FACE('',(#851),#899,.F.);
#926=ADVANCED_FACE('',(#852),#900,.F.);
#927=ADVANCED_FACE('',(#853),#901,.T.);
#928=ADVANCED_FACE('',(#854),#902,.T.);
#929=ADVANCED_FACE('',(#855),#903,.F.);
#930=ADVANCED_FACE('',(#856),#904,.F.);
#931=ADVANCED_FACE('',(#857),#905,.T.);
#932=ADVANCED_FACE('',(#858),#906,.T.);
#933=ADVANCED_FACE('',(#859),#907,.T.);
#934=ADVANCED_FACE('',(#860),#908,.T.);
#935=ADVANCED_FACE('',(#861),#909,.F.);
#936=ADVANCED_FACE('',(#862),#910,.T.);
#937=ADVANCED_FACE('',(#863),#911,.F.);
#938=ADVANCED_FACE('',(#864),#30,.F.);
#939=ADVANCED_FACE('',(#865),#31,.F.);
#940=ADVANCED_FACE('',(#866),#32,.F.);
#941=ADVANCED_FACE('',(#867),#33,.F.);
#942=ADVANCED_FACE('',(#868),#34,.F.);
#943=ADVANCED_FACE('',(#869),#35,.F.);
#944=ADVANCED_FACE('',(#870),#36,.T.);
#945=ADVANCED_FACE('',(#871),#37,.F.);
#946=ADVANCED_FACE('',(#872),#38,.T.);
#947=ADVANCED_FACE('',(#873),#39,.F.);
#948=ADVANCED_FACE('',(#874),#40,.F.);
#949=ADVANCED_FACE('',(#875),#41,.F.);
#950=ADVANCED_FACE('',(#876),#42,.T.);
#951=ADVANCED_FACE('',(#877),#43,.F.);
#952=ADVANCED_FACE('',(#878),#44,.F.);
#953=ADVANCED_FACE('',(#879),#45,.T.);
#954=ADVANCED_FACE('',(#880),#46,.F.);
#955=ADVANCED_FACE('',(#881),#47,.F.);
#956=ADVANCED_FACE('',(#882),#48,.F.);
#957=ADVANCED_FACE('',(#883),#49,.F.);
#958=ADVANCED_FACE('',(#884),#20,.T.);
#959=ADVANCED_FACE('',(#885),#50,.T.);
#960=ADVANCED_FACE('',(#886),#51,.T.);
#961=ADVANCED_FACE('',(#887),#21,.T.);
#962=ADVANCED_FACE('',(#888),#22,.T.);
#963=ADVANCED_FACE('',(#889),#52,.T.);
#964=ADVANCED_FACE('',(#890),#53,.T.);
#965=ADVANCED_FACE('',(#891),#23,.T.);
#966=CLOSED_SHELL('',(#912,#913,#914,#915,#916,#917,#918,#919,#920,#921,
#922,#923,#924,#925,#926,#927,#928,#929,#930,#931,#932,#933,#934,#935,#936,
#937,#938,#939,#940,#941,#942,#943,#944,#945,#946,#947,#948,#949,#950,#951,
#952,#953,#954,#955,#956,#957,#958,#959,#960,#961,#962,#963,#964,#965));
#967=STYLED_ITEM('',(#968),#975);
#968=PRESENTATION_STYLE_ASSIGNMENT((#969));
#969=SURFACE_STYLE_USAGE(.BOTH.,#970);
#970=SURFACE_SIDE_STYLE('',(#971));
#971=SURFACE_STYLE_FILL_AREA(#972);
#972=FILL_AREA_STYLE('',(#973));
#973=FILL_AREA_STYLE_COLOUR('',#974);
#974=COLOUR_RGB('',0.615686274509804,0.811764705882353,0.929411764705882);
#975=MANIFOLD_SOLID_BREP('Part 1',#966);
#976=SHAPE_DEFINITION_REPRESENTATION(#1760,#977);
#977=SHAPE_REPRESENTATION('Part 1',(#978),#1755);
#978=AXIS2_PLACEMENT_3D('',#1393,#1093,#1094);
#979=AXIS2_PLACEMENT_3D('',#1394,#1095,#1096);
#980=AXIS2_PLACEMENT_3D('',#1395,#1097,#1098);
#981=AXIS2_PLACEMENT_3D('',#1398,#1099,#1100);
#982=AXIS2_PLACEMENT_3D('',#1402,#1102,#1103);
#983=AXIS2_PLACEMENT_3D('',#1404,#1104,#1105);
#984=AXIS2_PLACEMENT_3D('',#1408,#1107,#1108);
#985=AXIS2_PLACEMENT_3D('',#1412,#1110,#1111);
#986=AXIS2_PLACEMENT_3D('',#1416,#1113,#1114);
#987=AXIS2_PLACEMENT_3D('',#1418,#1115,#1116);
#988=AXIS2_PLACEMENT_3D('',#1421,#1118,#1119);
#989=AXIS2_PLACEMENT_3D('',#1423,#1120,#1121);
#990=AXIS2_PLACEMENT_3D('',#1428,#1123,#1124);
#991=AXIS2_PLACEMENT_3D('',#1432,#1126,#1127);
#992=AXIS2_PLACEMENT_3D('',#1436,#1129,#1130);
#993=AXIS2_PLACEMENT_3D('',#1440,#1132,#1133);
#994=AXIS2_PLACEMENT_3D('',#1444,#1135,#1136);
#995=AXIS2_PLACEMENT_3D('',#1448,#1138,#1139);
#996=AXIS2_PLACEMENT_3D('',#1452,#1141,#1142);
#997=AXIS2_PLACEMENT_3D('',#1456,#1144,#1145);
#998=AXIS2_PLACEMENT_3D('',#1460,#1147,#1148);
#999=AXIS2_PLACEMENT_3D('',#1462,#1149,#1150);
#1000=AXIS2_PLACEMENT_3D('',#1466,#1152,#1153);
#1001=AXIS2_PLACEMENT_3D('',#1468,#1154,#1155);
#1002=AXIS2_PLACEMENT_3D('',#1472,#1157,#1158);
#1003=AXIS2_PLACEMENT_3D('',#1474,#1159,#1160);
#1004=AXIS2_PLACEMENT_3D('',#1478,#1162,#1163);
#1005=AXIS2_PLACEMENT_3D('',#1482,#1165,#1166);
#1006=AXIS2_PLACEMENT_3D('',#1483,#1167,#1168);
#1007=AXIS2_PLACEMENT_3D('',#1495,#1174,#1175);
#1008=AXIS2_PLACEMENT_3D('',#1497,#1176,#1177);
#1009=AXIS2_PLACEMENT_3D('',#1501,#1179,#1180);
#1010=AXIS2_PLACEMENT_3D('',#1503,#1181,#1182);
#1011=AXIS2_PLACEMENT_3D('',#1507,#1184,#1185);
#1012=AXIS2_PLACEMENT_3D('',#1509,#1186,#1187);
#1013=AXIS2_PLACEMENT_3D('',#1513,#1189,#1190);
#1014=AXIS2_PLACEMENT_3D('',#1517,#1192,#1193);
#1015=AXIS2_PLACEMENT_3D('',#1521,#1195,#1196);
#1016=AXIS2_PLACEMENT_3D('',#1525,#1198,#1199);
#1017=AXIS2_PLACEMENT_3D('',#1529,#1201,#1202);
#1018=AXIS2_PLACEMENT_3D('',#1533,#1204,#1205);
#1019=AXIS2_PLACEMENT_3D('',#1534,#1206,#1207);
#1020=AXIS2_PLACEMENT_3D('',#1536,#1208,#1209);
#1021=AXIS2_PLACEMENT_3D('',#1538,#1210,#1211);
#1022=AXIS2_PLACEMENT_3D('',#1541,#1212,#1213);
#1023=AXIS2_PLACEMENT_3D('',#1545,#1215,#1216);
#1024=AXIS2_PLACEMENT_3D('',#1547,#1217,#1218);
#1025=AXIS2_PLACEMENT_3D('',#1551,#1220,#1221);
#1026=AXIS2_PLACEMENT_3D('',#1555,#1223,#1224);
#1027=AXIS2_PLACEMENT_3D('',#1559,#1226,#1227);
#1028=AXIS2_PLACEMENT_3D('',#1561,#1228,#1229);
#1029=AXIS2_PLACEMENT_3D('',#1564,#1231,#1232);
#1030=AXIS2_PLACEMENT_3D('',#1565,#1233,#1234);
#1031=AXIS2_PLACEMENT_3D('',#1567,#1235,#1236);
#1032=AXIS2_PLACEMENT_3D('',#1569,#1237,#1238);
#1033=AXIS2_PLACEMENT_3D('',#1570,#1239,#1240);
#1034=AXIS2_PLACEMENT_3D('',#1572,#1241,#1242);
#1035=AXIS2_PLACEMENT_3D('',#1574,#1243,#1244);
#1036=AXIS2_PLACEMENT_3D('',#1575,#1245,#1246);
#1037=AXIS2_PLACEMENT_3D('',#1577,#1247,#1248);
#1038=AXIS2_PLACEMENT_3D('',#1578,#1249,#1250);
#1039=AXIS2_PLACEMENT_3D('',#1579,#1251,#1252);
#1040=AXIS2_PLACEMENT_3D('',#1581,#1253,#1254);
#1041=AXIS2_PLACEMENT_3D('',#1582,#1255,#1256);
#1042=AXIS2_PLACEMENT_3D('',#1583,#1257,#1258);
#1043=AXIS2_PLACEMENT_3D('',#1585,#1259,#1260);
#1044=AXIS2_PLACEMENT_3D('',#1586,#1261,#1262);
#1045=AXIS2_PLACEMENT_3D('',#1587,#1263,#1264);
#1046=AXIS2_PLACEMENT_3D('',#1589,#1265,#1266);
#1047=AXIS2_PLACEMENT_3D('',#1590,#1267,#1268);
#1048=AXIS2_PLACEMENT_3D('',#1593,#1271,#1272);
#1049=AXIS2_PLACEMENT_3D('',#1596,#1275,#1276);
#1050=AXIS2_PLACEMENT_3D('',#1599,#1279,#1280);
#1051=AXIS2_PLACEMENT_3D('',#1602,#1283,#1284);
#1052=AXIS2_PLACEMENT_3D('',#1605,#1287,#1288);
#1053=AXIS2_PLACEMENT_3D('',#1608,#1291,#1292);
#1054=AXIS2_PLACEMENT_3D('',#1611,#1295,#1296);
#1055=AXIS2_PLACEMENT_3D('',#1614,#1299,#1300);
#1056=AXIS2_PLACEMENT_3D('',#1617,#1303,#1304);
#1057=AXIS2_PLACEMENT_3D('',#1620,#1307,#1308);
#1058=AXIS2_PLACEMENT_3D('',#1623,#1311,#1312);
#1059=AXIS2_PLACEMENT_3D('',#1626,#1315,#1316);
#1060=AXIS2_PLACEMENT_3D('',#1629,#1319,#1320);
#1061=AXIS2_PLACEMENT_3D('',#1632,#1323,#1324);
#1062=AXIS2_PLACEMENT_3D('',#1633,#1325,#1326);
#1063=AXIS2_PLACEMENT_3D('',#1634,#1327,#1328);
#1064=AXIS2_PLACEMENT_3D('',#1635,#1329,#1330);
#1065=AXIS2_PLACEMENT_3D('',#1636,#1331,#1332);
#1066=AXIS2_PLACEMENT_3D('',#1637,#1333,#1334);
#1067=AXIS2_PLACEMENT_3D('',#1638,#1335,#1336);
#1068=AXIS2_PLACEMENT_3D('',#1640,#1338,#1339);
#1069=AXIS2_PLACEMENT_3D('',#1641,#1340,#1341);
#1070=AXIS2_PLACEMENT_3D('',#1643,#1343,#1344);
#1071=AXIS2_PLACEMENT_3D('',#1644,#1345,#1346);
#1072=AXIS2_PLACEMENT_3D('',#1645,#1347,#1348);
#1073=AXIS2_PLACEMENT_3D('',#1646,#1349,#1350);
#1074=AXIS2_PLACEMENT_3D('',#1648,#1352,#1353);
#1075=AXIS2_PLACEMENT_3D('',#1649,#1354,#1355);
#1076=AXIS2_PLACEMENT_3D('',#1651,#1357,#1358);
#1077=AXIS2_PLACEMENT_3D('',#1652,#1359,#1360);
#1078=AXIS2_PLACEMENT_3D('',#1654,#1362,#1363);
#1079=AXIS2_PLACEMENT_3D('',#1655,#1364,#1365);
#1080=AXIS2_PLACEMENT_3D('',#1657,#1367,#1368);
#1081=AXIS2_PLACEMENT_3D('',#1679,#1369,#1370);
#1082=AXIS2_PLACEMENT_3D('',#1680,#1371,#1372);
#1083=AXIS2_PLACEMENT_3D('',#1681,#1373,#1374);
#1084=AXIS2_PLACEMENT_3D('',#1682,#1375,#1376);
#1085=AXIS2_PLACEMENT_3D('',#1683,#1377,#1378);
#1086=AXIS2_PLACEMENT_3D('',#1684,#1379,#1380);
#1087=AXIS2_PLACEMENT_3D('',#1706,#1381,#1382);
#1088=AXIS2_PLACEMENT_3D('',#1728,#1383,#1384);
#1089=AXIS2_PLACEMENT_3D('',#1729,#1385,#1386);
#1090=AXIS2_PLACEMENT_3D('',#1730,#1387,#1388);
#1091=AXIS2_PLACEMENT_3D('',#1731,#1389,#1390);
#1092=AXIS2_PLACEMENT_3D('',#1732,#1391,#1392);
#1093=DIRECTION('',(0.,0.,1.));
#1094=DIRECTION('',(1.,0.,0.));
#1095=DIRECTION('',(0.,0.,1.));
#1096=DIRECTION('',(1.,0.,0.));
#1097=DIRECTION('',(0.,0.,1.));
#1098=DIRECTION('',(1.,0.,0.));
#1099=DIRECTION('',(0.,0.,1.));
#1100=DIRECTION('',(1.,0.,0.));
#1101=DIRECTION('',(-1.,-1.33440267382831E-16,0.));
#1102=DIRECTION('',(0.,0.,1.));
#1103=DIRECTION('',(1.,0.,0.));
#1104=DIRECTION('',(0.,0.,1.));
#1105=DIRECTION('',(1.,0.,0.));
#1106=DIRECTION('',(1.,0.,0.));
#1107=DIRECTION('',(0.,0.,1.));
#1108=DIRECTION('',(1.,0.,0.));
#1109=DIRECTION('',(0.,1.,0.));
#1110=DIRECTION('',(0.,0.,1.));
#1111=DIRECTION('',(1.,0.,0.));
#1112=DIRECTION('',(1.,0.,0.));
#1113=DIRECTION('',(0.,0.,1.));
#1114=DIRECTION('',(1.,0.,0.));
#1115=DIRECTION('',(0.,0.,1.));
#1116=DIRECTION('',(1.,0.,0.));
#1117=DIRECTION('',(-1.,-1.33440267382831E-16,0.));
#1118=DIRECTION('',(0.,0.,1.));
#1119=DIRECTION('',(1.,0.,0.));
#1120=DIRECTION('',(0.,0.,1.));
#1121=DIRECTION('',(1.,0.,0.));
#1122=DIRECTION('',(1.,0.,0.));
#1123=DIRECTION('',(0.,0.,1.));
#1124=DIRECTION('',(1.,0.,0.));
#1125=DIRECTION('',(0.,-1.,0.));
#1126=DIRECTION('',(0.,0.,1.));
#1127=DIRECTION('',(1.,0.,0.));
#1128=DIRECTION('',(1.,0.,0.));
#1129=DIRECTION('',(0.,0.,1.));
#1130=DIRECTION('',(1.,0.,0.));
#1131=DIRECTION('',(0.,-1.,0.));
#1132=DIRECTION('',(0.,0.,1.));
#1133=DIRECTION('',(1.,0.,0.));
#1134=DIRECTION('',(0.,-1.,0.));
#1135=DIRECTION('',(0.,0.,1.));
#1136=DIRECTION('',(1.,0.,0.));
#1137=DIRECTION('',(1.,0.,0.));
#1138=DIRECTION('',(0.,0.,1.));
#1139=DIRECTION('',(1.,0.,0.));
#1140=DIRECTION('',(0.,-1.,0.));
#1141=DIRECTION('',(0.,0.,1.));
#1142=DIRECTION('',(1.,0.,0.));
#1143=DIRECTION('',(1.,0.,0.));
#1144=DIRECTION('',(0.,0.,1.));
#1145=DIRECTION('',(1.,0.,0.));
#1146=DIRECTION('',(1.,1.73472347597683E-15,0.));
#1147=DIRECTION('',(0.,0.,1.));
#1148=DIRECTION('',(1.,0.,0.));
#1149=DIRECTION('',(0.,0.,1.));
#1150=DIRECTION('',(1.,0.,0.));
#1151=DIRECTION('',(1.,0.,0.));
#1152=DIRECTION('',(0.,0.,1.));
#1153=DIRECTION('',(1.,0.,0.));
#1154=DIRECTION('',(0.,0.,1.));
#1155=DIRECTION('',(1.,0.,0.));
#1156=DIRECTION('',(1.,0.,0.));
#1157=DIRECTION('',(0.,0.,1.));
#1158=DIRECTION('',(1.,0.,0.));
#1159=DIRECTION('',(0.,0.,1.));
#1160=DIRECTION('',(1.,0.,0.));
#1161=DIRECTION('',(1.,0.,0.));
#1162=DIRECTION('',(0.,0.,1.));
#1163=DIRECTION('',(1.,0.,0.));
#1164=DIRECTION('',(1.08420217248551E-16,-1.,0.));
#1165=DIRECTION('',(0.,0.,1.));
#1166=DIRECTION('',(1.,0.,0.));
#1167=DIRECTION('',(0.,0.,1.));
#1168=DIRECTION('',(1.,0.,0.));
#1169=DIRECTION('',(1.,0.,0.));
#1170=DIRECTION('',(0.,-1.,0.));
#1171=DIRECTION('',(1.,0.,0.));
#1172=DIRECTION('',(0.,-1.,0.));
#1173=DIRECTION('',(1.,0.,0.));
#1174=DIRECTION('',(0.,0.,1.));
#1175=DIRECTION('',(1.,0.,0.));
#1176=DIRECTION('',(0.,0.,1.));
#1177=DIRECTION('',(1.,0.,0.));
#1178=DIRECTION('',(-1.,-1.33440267382831E-16,0.));
#1179=DIRECTION('',(0.,0.,1.));
#1180=DIRECTION('',(1.,0.,0.));
#1181=DIRECTION('',(0.,0.,1.));
#1182=DIRECTION('',(1.,0.,0.));
#1183=DIRECTION('',(-1.,-1.33440267382831E-16,0.));
#1184=DIRECTION('',(0.,0.,1.));
#1185=DIRECTION('',(1.,0.,0.));
#1186=DIRECTION('',(0.,0.,1.));
#1187=DIRECTION('',(1.,0.,0.));
#1188=DIRECTION('',(1.,0.,0.));
#1189=DIRECTION('',(0.,0.,1.));
#1190=DIRECTION('',(1.,0.,0.));
#1191=DIRECTION('',(0.,1.,0.));
#1192=DIRECTION('',(0.,0.,1.));
#1193=DIRECTION('',(1.,0.,0.));
#1194=DIRECTION('',(1.,0.,0.));
#1195=DIRECTION('',(0.,0.,1.));
#1196=DIRECTION('',(1.,0.,0.));
#1197=DIRECTION('',(0.,-1.,0.));
#1198=DIRECTION('',(0.,0.,1.));
#1199=DIRECTION('',(1.,0.,0.));
#1200=DIRECTION('',(1.,0.,0.));
#1201=DIRECTION('',(0.,0.,1.));
#1202=DIRECTION('',(1.,0.,0.));
#1203=DIRECTION('',(0.,-1.,0.));
#1204=DIRECTION('',(0.,0.,1.));
#1205=DIRECTION('',(1.,0.,0.));
#1206=DIRECTION('',(0.,0.,-1.));
#1207=DIRECTION('',(-1.,0.,0.));
#1208=DIRECTION('',(0.,0.,-1.));
#1209=DIRECTION('',(-1.,0.,0.));
#1210=DIRECTION('',(0.,0.,1.));
#1211=DIRECTION('',(1.,0.,0.));
#1212=DIRECTION('',(0.,0.,1.));
#1213=DIRECTION('',(1.,0.,0.));
#1214=DIRECTION('',(1.,0.,0.));
#1215=DIRECTION('',(0.,0.,1.));
#1216=DIRECTION('',(1.,0.,0.));
#1217=DIRECTION('',(0.,0.,1.));
#1218=DIRECTION('',(1.,0.,0.));
#1219=DIRECTION('',(1.,1.73472347597683E-15,0.));
#1220=DIRECTION('',(0.,0.,1.));
#1221=DIRECTION('',(1.,0.,0.));
#1222=DIRECTION('',(1.08420217248551E-16,-1.,0.));
#1223=DIRECTION('',(0.,0.,1.));
#1224=DIRECTION('',(1.,0.,0.));
#1225=DIRECTION('',(1.,0.,0.));
#1226=DIRECTION('',(0.,0.,1.));
#1227=DIRECTION('',(1.,0.,0.));
#1228=DIRECTION('',(0.,0.,1.));
#1229=DIRECTION('',(1.,0.,0.));
#1230=DIRECTION('',(1.,0.,0.));
#1231=DIRECTION('',(0.,0.,-1.));
#1232=DIRECTION('',(-1.,0.,0.));
#1233=DIRECTION('',(0.,0.,1.));
#1234=DIRECTION('',(1.,0.,0.));
#1235=DIRECTION('',(0.,0.,-1.));
#1236=DIRECTION('',(-1.,0.,0.));
#1237=DIRECTION('',(0.,0.,-1.));
#1238=DIRECTION('',(-1.,0.,0.));
#1239=DIRECTION('',(0.,0.,1.));
#1240=DIRECTION('',(1.,0.,0.));
#1241=DIRECTION('',(0.,0.,-1.));
#1242=DIRECTION('',(-1.,0.,0.));
#1243=DIRECTION('',(0.,0.,-1.));
#1244=DIRECTION('',(-1.,0.,0.));
#1245=DIRECTION('',(0.,0.,1.));
#1246=DIRECTION('',(1.,0.,0.));
#1247=DIRECTION('',(0.,0.,1.));
#1248=DIRECTION('',(1.,0.,0.));
#1249=DIRECTION('',(0.,0.,-1.));
#1250=DIRECTION('',(-1.,0.,0.));
#1251=DIRECTION('',(0.,0.,1.));
#1252=DIRECTION('',(1.,0.,0.));
#1253=DIRECTION('',(0.,0.,1.));
#1254=DIRECTION('',(1.,0.,0.));
#1255=DIRECTION('',(0.,0.,-1.));
#1256=DIRECTION('',(-1.,0.,0.));
#1257=DIRECTION('',(0.,0.,-1.));
#1258=DIRECTION('',(-1.,0.,0.));
#1259=DIRECTION('',(0.,0.,-1.));
#1260=DIRECTION('',(1.,0.,0.));
#1261=DIRECTION('',(0.,0.,-1.));
#1262=DIRECTION('',(-1.,0.,0.));
#1263=DIRECTION('',(0.,0.,-1.));
#1264=DIRECTION('',(-1.,0.,0.));
#1265=DIRECTION('',(0.,0.,-1.));
#1266=DIRECTION('',(1.,0.,0.));
#1267=DIRECTION('',(0.,-1.,0.));
#1268=DIRECTION('',(0.,0.,-1.));
#1269=DIRECTION('',(0.,0.,1.));
#1270=DIRECTION('',(0.,0.,1.));
#1271=DIRECTION('',(-1.,0.,0.));
#1272=DIRECTION('',(0.,0.,1.));
#1273=DIRECTION('',(0.,0.,1.));
#1274=DIRECTION('',(0.,0.,1.));
#1275=DIRECTION('',(0.,-1.,0.));
#1276=DIRECTION('',(0.,0.,-1.));
#1277=DIRECTION('',(0.,0.,1.));
#1278=DIRECTION('',(0.,0.,1.));
#1279=DIRECTION('',(-1.,0.,0.));
#1280=DIRECTION('',(0.,0.,1.));
#1281=DIRECTION('',(0.,0.,1.));
#1282=DIRECTION('',(0.,0.,1.));
#1283=DIRECTION('',(0.,-1.,0.));
#1284=DIRECTION('',(0.,0.,-1.));
#1285=DIRECTION('',(0.,0.,1.));
#1286=DIRECTION('',(0.,0.,1.));
#1287=DIRECTION('',(0.,-1.,0.));
#1288=DIRECTION('',(0.,0.,-1.));
#1289=DIRECTION('',(0.,0.,1.));
#1290=DIRECTION('',(0.,0.,1.));
#1291=DIRECTION('',(1.73472347597683E-15,-1.,0.));
#1292=DIRECTION('',(1.,1.73472347597683E-15,0.));
#1293=DIRECTION('',(0.,0.,1.));
#1294=DIRECTION('',(0.,0.,1.));
#1295=DIRECTION('',(-1.,-1.08420217248551E-16,0.));
#1296=DIRECTION('',(1.08420217248551E-16,-1.,0.));
#1297=DIRECTION('',(0.,0.,1.));
#1298=DIRECTION('',(0.,0.,1.));
#1299=DIRECTION('',(0.,-1.,0.));
#1300=DIRECTION('',(0.,0.,-1.));
#1301=DIRECTION('',(0.,0.,1.));
#1302=DIRECTION('',(0.,0.,1.));
#1303=DIRECTION('',(0.,-1.,0.));
#1304=DIRECTION('',(0.,0.,-1.));
#1305=DIRECTION('',(0.,0.,1.));
#1306=DIRECTION('',(0.,0.,1.));
#1307=DIRECTION('',(1.,0.,0.));
#1308=DIRECTION('',(0.,0.,-1.));
#1309=DIRECTION('',(0.,0.,1.));
#1310=DIRECTION('',(0.,0.,1.));
#1311=DIRECTION('',(0.,-1.,0.));
#1312=DIRECTION('',(0.,0.,-1.));
#1313=DIRECTION('',(0.,0.,1.));
#1314=DIRECTION('',(0.,0.,1.));
#1315=DIRECTION('',(-1.33440267382831E-16,1.,0.));
#1316=DIRECTION('',(-1.,-1.33440267382831E-16,0.));
#1317=DIRECTION('',(0.,0.,1.));
#1318=DIRECTION('',(0.,0.,1.));
#1319=DIRECTION('',(-1.33440267382831E-16,1.,0.));
#1320=DIRECTION('',(-1.,-1.33440267382831E-16,0.));
#1321=DIRECTION('',(0.,0.,1.));
#1322=DIRECTION('',(0.,0.,1.));
#1323=DIRECTION('',(0.,0.,-1.));
#1324=DIRECTION('',(-1.,0.,0.));
#1325=DIRECTION('',(0.,0.,1.));
#1326=DIRECTION('',(1.,0.,0.));
#1327=DIRECTION('',(0.,0.,-1.));
#1328=DIRECTION('',(-1.,0.,0.));
#1329=DIRECTION('',(0.,0.,1.));
#1330=DIRECTION('',(1.,0.,0.));
#1331=DIRECTION('',(0.,0.,-1.));
#1332=DIRECTION('',(-1.,0.,0.));
#1333=DIRECTION('',(0.,0.,1.));
#1334=DIRECTION('',(1.,0.,0.));
#1335=DIRECTION('',(0.,0.,1.));
#1336=DIRECTION('',(1.,0.,0.));
#1337=DIRECTION('',(0.,0.,1.));
#1338=DIRECTION('',(0.,0.,1.));
#1339=DIRECTION('',(1.,0.,0.));
#1340=DIRECTION('',(0.,0.,-1.));
#1341=DIRECTION('',(-1.,0.,0.));
#1342=DIRECTION('',(0.,0.,1.));
#1343=DIRECTION('',(0.,0.,-1.));
#1344=DIRECTION('',(-1.,0.,0.));
#1345=DIRECTION('',(0.,0.,-1.));
#1346=DIRECTION('',(-1.,0.,0.));
#1347=DIRECTION('',(0.,0.,1.));
#1348=DIRECTION('',(1.,0.,0.));
#1349=DIRECTION('',(0.,0.,-1.));
#1350=DIRECTION('',(-1.,0.,0.));
#1351=DIRECTION('',(0.,0.,1.));
#1352=DIRECTION('',(0.,0.,1.));
#1353=DIRECTION('',(1.,0.,0.));
#1354=DIRECTION('',(0.,0.,-1.));
#1355=DIRECTION('',(-1.,0.,0.));
#1356=DIRECTION('',(0.,0.,1.));
#1357=DIRECTION('',(0.,0.,1.));
#1358=DIRECTION('',(1.,0.,0.));
#1359=DIRECTION('',(0.,0.,-1.));
#1360=DIRECTION('',(-1.,0.,0.));
#1361=DIRECTION('',(0.,0.,-1.));
#1362=DIRECTION('',(0.,0.,1.));
#1363=DIRECTION('',(1.,0.,0.));
#1364=DIRECTION('',(0.,0.,-1.));
#1365=DIRECTION('',(-1.,0.,0.));
#1366=DIRECTION('',(0.,0.,-1.));
#1367=DIRECTION('',(0.,0.,1.));
#1368=DIRECTION('',(1.,0.,0.));
#1369=DIRECTION('',(-0.242535625036333,-0.970142500145332,0.));
#1370=DIRECTION('',(0.970142500145332,-0.242535625036333,0.));
#1371=DIRECTION('',(-0.970142500145332,-0.242535625036333,0.));
#1372=DIRECTION('',(0.242535625036333,-0.970142500145332,0.));
#1373=DIRECTION('',(1.,0.,0.));
#1374=DIRECTION('',(0.,0.,-1.));
#1375=DIRECTION('',(-0.970142500145332,0.242535625036333,0.));
#1376=DIRECTION('',(-0.242535625036333,-0.970142500145332,0.));
#1377=DIRECTION('',(0.,1.,0.));
#1378=DIRECTION('',(0.,0.,1.));
#1379=DIRECTION('',(0.242535625036333,-0.970142500145332,0.));
#1380=DIRECTION('',(0.970142500145332,0.242535625036333,0.));
#1381=DIRECTION('',(-0.242535625036333,0.970142500145332,0.));
#1382=DIRECTION('',(-0.970142500145332,-0.242535625036333,0.));
#1383=DIRECTION('',(0.970142500145332,-0.242535625036333,0.));
#1384=DIRECTION('',(0.242535625036333,0.970142500145332,0.));
#1385=DIRECTION('',(0.,-1.,0.));
#1386=DIRECTION('',(0.,0.,-1.));
#1387=DIRECTION('',(0.242535625036333,0.970142500145332,0.));
#1388=DIRECTION('',(-0.970142500145332,0.242535625036333,0.));
#1389=DIRECTION('',(-1.,0.,0.));
#1390=DIRECTION('',(0.,0.,1.));
#1391=DIRECTION('',(0.970142500145332,0.242535625036333,0.));
#1392=DIRECTION('',(-0.242535625036333,0.970142500145332,0.));
#1393=CARTESIAN_POINT('',(0.,0.,0.));
#1394=CARTESIAN_POINT('',(0.,0.,0.002));
#1395=CARTESIAN_POINT('',(0.0393,-0.0107,0.002));
#1396=CARTESIAN_POINT('',(0.0393,-0.008,0.002));
#1397=CARTESIAN_POINT('',(0.0419925824035672,-0.0105,0.002));
#1398=CARTESIAN_POINT('',(0.0393,-0.0103,0.002));
#1399=CARTESIAN_POINT('',(0.0393,-0.013,0.002));
#1400=CARTESIAN_POINT('',(0.029,-0.013,0.002));
#1401=CARTESIAN_POINT('',(0.01625,-0.013,0.002));
#1402=CARTESIAN_POINT('',(0.01625,-0.01275,0.002));
#1403=CARTESIAN_POINT('',(0.016,-0.01275,0.002));
#1404=CARTESIAN_POINT('',(0.01575,-0.01275,0.002));
#1405=CARTESIAN_POINT('',(0.01575,-0.0125,0.002));
#1406=CARTESIAN_POINT('',(0.0155,-0.0125,0.002));
#1407=CARTESIAN_POINT('',(0.00025,-0.0125,0.002));
#1408=CARTESIAN_POINT('',(0.00025,-0.01225,0.002));
#1409=CARTESIAN_POINT('',(0.,-0.01225,0.002));
#1410=CARTESIAN_POINT('',(0.,-0.0105,0.002));
#1411=CARTESIAN_POINT('',(0.,-0.00875,0.002));
#1412=CARTESIAN_POINT('',(0.00025,-0.00875,0.002));
#1413=CARTESIAN_POINT('',(0.00025,-0.0085,0.002));
#1414=CARTESIAN_POINT('',(0.0155,-0.0085,0.002));
#1415=CARTESIAN_POINT('',(0.01575,-0.0085,0.002));
#1416=CARTESIAN_POINT('',(0.01575,-0.00825,0.002));
#1417=CARTESIAN_POINT('',(0.016,-0.00825,0.002));
#1418=CARTESIAN_POINT('',(0.01625,-0.00825,0.002));
#1419=CARTESIAN_POINT('',(0.01625,-0.008,0.002));
#1420=CARTESIAN_POINT('',(0.029,-0.008,0.002));
#1421=CARTESIAN_POINT('',(-0.038,2.29621274840129E-19,0.002));
#1422=CARTESIAN_POINT('',(-0.03425,2.29621274840129E-19,0.002));
#1423=CARTESIAN_POINT('',(0.038,7.88955835255949E-20,0.002));
#1424=CARTESIAN_POINT('',(0.04175,7.88955835255949E-20,0.002));
#1425=CARTESIAN_POINT('',(-6.93889390390723E-18,0.016,0.002));
#1426=CARTESIAN_POINT('',(-0.0435,0.016,0.002));
#1427=CARTESIAN_POINT('',(0.0435,0.016,0.002));
#1428=CARTESIAN_POINT('',(-0.0435,0.0145,0.002));
#1429=CARTESIAN_POINT('',(-0.045,0.0145,0.002));
#1430=CARTESIAN_POINT('',(-0.045,-1.7347234759768E-18,0.002));
#1431=CARTESIAN_POINT('',(-0.045,-0.0145,0.002));
#1432=CARTESIAN_POINT('',(-0.0435,-0.0145,0.002));
#1433=CARTESIAN_POINT('',(-0.0435,-0.016,0.002));
#1434=CARTESIAN_POINT('',(-6.93889390390723E-18,-0.016,0.002));
#1435=CARTESIAN_POINT('',(0.0435,-0.016,0.002));
#1436=CARTESIAN_POINT('',(0.0435,-0.0145,0.002));
#1437=CARTESIAN_POINT('',(0.045,-0.0145,0.002));
#1438=CARTESIAN_POINT('',(0.045,0.,0.002));
#1439=CARTESIAN_POINT('',(0.045,0.0145,0.002));
#1440=CARTESIAN_POINT('',(0.0435,0.0145,0.002));
#1441=CARTESIAN_POINT('',(-0.011,-4.33680868994202E-19,0.002));
#1442=CARTESIAN_POINT('',(-0.011,0.00225,0.002));
#1443=CARTESIAN_POINT('',(-0.011,-0.00225,0.002));
#1444=CARTESIAN_POINT('',(-0.01075,0.00225,0.002));
#1445=CARTESIAN_POINT('',(-0.01075,0.0025,0.002));
#1446=CARTESIAN_POINT('',(0.,0.0025,0.002));
#1447=CARTESIAN_POINT('',(0.01075,0.0025,0.002));
#1448=CARTESIAN_POINT('',(0.01075,0.00225,0.002));
#1449=CARTESIAN_POINT('',(0.011,0.00225,0.002));
#1450=CARTESIAN_POINT('',(0.011,-4.33680868994202E-19,0.002));
#1451=CARTESIAN_POINT('',(0.011,-0.00225,0.002));
#1452=CARTESIAN_POINT('',(0.01075,-0.00225,0.002));
#1453=CARTESIAN_POINT('',(0.01075,-0.0025,0.002));
#1454=CARTESIAN_POINT('',(0.,-0.0025,0.002));
#1455=CARTESIAN_POINT('',(-0.01075,-0.0025,0.002));
#1456=CARTESIAN_POINT('',(-0.01075,-0.00225,0.002));
#1457=CARTESIAN_POINT('',(-0.0155,0.0085,0.002));
#1458=CARTESIAN_POINT('',(-0.01575,0.0085,0.002));
#1459=CARTESIAN_POINT('',(-0.00025,0.0085,0.002));
#1460=CARTESIAN_POINT('',(-0.01575,0.00825,0.002));
#1461=CARTESIAN_POINT('',(-0.016,0.00825,0.002));
#1462=CARTESIAN_POINT('',(-0.01625,0.00825,0.002));
#1463=CARTESIAN_POINT('',(-0.01625,0.008,0.002));
#1464=CARTESIAN_POINT('',(-0.029,0.008,0.002));
#1465=CARTESIAN_POINT('',(-0.0393,0.008,0.002));
#1466=CARTESIAN_POINT('',(-0.0393,0.0107,0.002));
#1467=CARTESIAN_POINT('',(-0.0419925824035672,0.0105,0.002));
#1468=CARTESIAN_POINT('',(-0.0393,0.0103,0.002));
#1469=CARTESIAN_POINT('',(-0.0393,0.013,0.002));
#1470=CARTESIAN_POINT('',(-0.029,0.013,0.002));
#1471=CARTESIAN_POINT('',(-0.01625,0.013,0.002));
#1472=CARTESIAN_POINT('',(-0.01625,0.01275,0.002));
#1473=CARTESIAN_POINT('',(-0.016,0.01275,0.002));
#1474=CARTESIAN_POINT('',(-0.01575,0.01275,0.002));
#1475=CARTESIAN_POINT('',(-0.01575,0.0125,0.002));
#1476=CARTESIAN_POINT('',(-0.0155,0.0125,0.002));
#1477=CARTESIAN_POINT('',(-0.00025,0.0125,0.002));
#1478=CARTESIAN_POINT('',(-0.00025,0.01225,0.002));
#1479=CARTESIAN_POINT('',(2.71050543121375E-20,0.01225,0.002));
#1480=CARTESIAN_POINT('',(2.16840434497101E-19,0.0105,0.002));
#1481=CARTESIAN_POINT('',(4.06575814682061E-19,0.00875,0.002));
#1482=CARTESIAN_POINT('',(-0.00025,0.00875,0.002));
#1483=CARTESIAN_POINT('',(0.,0.,0.));
#1484=CARTESIAN_POINT('',(0.,-0.014,0.));
#1485=CARTESIAN_POINT('',(0.043,-0.014,0.));
#1486=CARTESIAN_POINT('',(-0.043,-0.014,0.));
#1487=CARTESIAN_POINT('',(-0.043,0.,0.));
#1488=CARTESIAN_POINT('',(-0.043,0.014,0.));
#1489=CARTESIAN_POINT('',(0.0435,0.014,0.));
#1490=CARTESIAN_POINT('',(0.043,0.014,0.));
#1491=CARTESIAN_POINT('',(0.043,-0.0145,0.));
#1492=CARTESIAN_POINT('',(0.0155,-0.0125,0.));
#1493=CARTESIAN_POINT('',(0.00025,-0.0125,0.));
#1494=CARTESIAN_POINT('',(0.01575,-0.0125,0.));
#1495=CARTESIAN_POINT('',(0.01575,-0.01275,0.));
#1496=CARTESIAN_POINT('',(0.016,-0.01275,0.));
#1497=CARTESIAN_POINT('',(0.01625,-0.01275,0.));
#1498=CARTESIAN_POINT('',(0.01625,-0.013,0.));
#1499=CARTESIAN_POINT('',(0.029,-0.013,0.));
#1500=CARTESIAN_POINT('',(0.0393,-0.013,0.));
#1501=CARTESIAN_POINT('',(0.0393,-0.0103,0.));
#1502=CARTESIAN_POINT('',(0.0419925824035672,-0.0105,0.));
#1503=CARTESIAN_POINT('',(0.0393,-0.0107,0.));
#1504=CARTESIAN_POINT('',(0.0393,-0.008,0.));
#1505=CARTESIAN_POINT('',(0.029,-0.008,0.));
#1506=CARTESIAN_POINT('',(0.01625,-0.008,0.));
#1507=CARTESIAN_POINT('',(0.01625,-0.00825,0.));
#1508=CARTESIAN_POINT('',(0.016,-0.00825,0.));
#1509=CARTESIAN_POINT('',(0.01575,-0.00825,0.));
#1510=CARTESIAN_POINT('',(0.01575,-0.0085,0.));
#1511=CARTESIAN_POINT('',(0.0155,-0.0085,0.));
#1512=CARTESIAN_POINT('',(0.00025,-0.0085,0.));
#1513=CARTESIAN_POINT('',(0.00025,-0.00875,0.));
#1514=CARTESIAN_POINT('',(0.,-0.00875,0.));
#1515=CARTESIAN_POINT('',(0.,-0.0105,0.));
#1516=CARTESIAN_POINT('',(0.,-0.01225,0.));
#1517=CARTESIAN_POINT('',(0.00025,-0.01225,0.));
#1518=CARTESIAN_POINT('',(0.,0.0025,0.));
#1519=CARTESIAN_POINT('',(-0.01075,0.0025,0.));
#1520=CARTESIAN_POINT('',(0.01075,0.0025,0.));
#1521=CARTESIAN_POINT('',(-0.01075,0.00225,0.));
#1522=CARTESIAN_POINT('',(-0.011,0.00225,0.));
#1523=CARTESIAN_POINT('',(-0.011,-4.33680868994202E-19,0.));
#1524=CARTESIAN_POINT('',(-0.011,-0.00225,0.));
#1525=CARTESIAN_POINT('',(-0.01075,-0.00225,0.));
#1526=CARTESIAN_POINT('',(-0.01075,-0.0025,0.));
#1527=CARTESIAN_POINT('',(0.,-0.0025,0.));
#1528=CARTESIAN_POINT('',(0.01075,-0.0025,0.));
#1529=CARTESIAN_POINT('',(0.01075,-0.00225,0.));
#1530=CARTESIAN_POINT('',(0.011,-0.00225,0.));
#1531=CARTESIAN_POINT('',(0.011,-4.33680868994202E-19,0.));
#1532=CARTESIAN_POINT('',(0.011,0.00225,0.));
#1533=CARTESIAN_POINT('',(0.01075,0.00225,0.));
#1534=CARTESIAN_POINT('',(0.038,-4.25503767654715E-19,0.));
#1535=CARTESIAN_POINT('',(0.035,-4.25503767654715E-19,0.));
#1536=CARTESIAN_POINT('',(-0.038,-1.83697019872103E-19,0.));
#1537=CARTESIAN_POINT('',(-0.041,-1.83697019872103E-19,0.));
#1538=CARTESIAN_POINT('',(-0.0393,0.0103,0.));
#1539=CARTESIAN_POINT('',(-0.0393,0.013,0.));
#1540=CARTESIAN_POINT('',(-0.0419925824035672,0.0105,0.));
#1541=CARTESIAN_POINT('',(-0.0393,0.0107,0.));
#1542=CARTESIAN_POINT('',(-0.0393,0.008,0.));
#1543=CARTESIAN_POINT('',(-0.029,0.008,0.));
#1544=CARTESIAN_POINT('',(-0.01625,0.008,0.));
#1545=CARTESIAN_POINT('',(-0.01625,0.00825,0.));
#1546=CARTESIAN_POINT('',(-0.016,0.00825,0.));
#1547=CARTESIAN_POINT('',(-0.01575,0.00825,0.));
#1548=CARTESIAN_POINT('',(-0.01575,0.0085,0.));
#1549=CARTESIAN_POINT('',(-0.0155,0.0085,0.));
#1550=CARTESIAN_POINT('',(-0.00025,0.0085,0.));
#1551=CARTESIAN_POINT('',(-0.00025,0.00875,0.));
#1552=CARTESIAN_POINT('',(4.06575814682061E-19,0.00875,0.));
#1553=CARTESIAN_POINT('',(2.16840434497101E-19,0.0105,0.));
#1554=CARTESIAN_POINT('',(2.71050543121375E-20,0.01225,0.));
#1555=CARTESIAN_POINT('',(-0.00025,0.01225,0.));
#1556=CARTESIAN_POINT('',(-0.00025,0.0125,0.));
#1557=CARTESIAN_POINT('',(-0.0155,0.0125,0.));
#1558=CARTESIAN_POINT('',(-0.01575,0.0125,0.));
#1559=CARTESIAN_POINT('',(-0.01575,0.01275,0.));
#1560=CARTESIAN_POINT('',(-0.016,0.01275,0.));
#1561=CARTESIAN_POINT('',(-0.01625,0.01275,0.));
#1562=CARTESIAN_POINT('',(-0.01625,0.013,0.));
#1563=CARTESIAN_POINT('',(-0.029,0.013,0.));
#1564=CARTESIAN_POINT('',(0.038,-5.88771813784823E-20,0.0058));
#1565=CARTESIAN_POINT('',(0.038,-5.88771813784823E-20,0.0058));
#1566=CARTESIAN_POINT('',(0.0395,-5.88771813784823E-20,0.0058));
#1567=CARTESIAN_POINT('',(0.038,-5.88771813784823E-20,0.004));
#1568=CARTESIAN_POINT('',(0.0365,-5.88771813784823E-20,0.004));
#1569=CARTESIAN_POINT('',(-0.038,9.18485099360515E-20,0.0058));
#1570=CARTESIAN_POINT('',(-0.038,9.18485099360515E-20,0.0058));
#1571=CARTESIAN_POINT('',(-0.0365,9.18485099360515E-20,0.0058));
#1572=CARTESIAN_POINT('',(-0.038,9.18485099360515E-20,0.004));
#1573=CARTESIAN_POINT('',(-0.0395,9.18485099360515E-20,0.004));
#1574=CARTESIAN_POINT('',(0.038,7.88955835255949E-20,0.0058));
#1575=CARTESIAN_POINT('',(0.038,7.88955835255949E-20,0.0058));
#1576=CARTESIAN_POINT('',(0.04175,7.88955835255949E-20,0.0058));
#1577=CARTESIAN_POINT('',(0.,0.,0.0058));
#1578=CARTESIAN_POINT('',(-0.038,2.29621274840129E-19,0.0058));
#1579=CARTESIAN_POINT('',(-0.038,2.29621274840129E-19,0.0058));
#1580=CARTESIAN_POINT('',(-0.03425,2.29621274840129E-19,0.0058));
#1581=CARTESIAN_POINT('',(0.,0.,0.0058));
#1582=CARTESIAN_POINT('',(-0.038,-1.83697019872103E-19,0.004));
#1583=CARTESIAN_POINT('',(-0.038,-1.83697019872103E-19,0.004));
#1584=CARTESIAN_POINT('',(-0.041,-1.83697019872103E-19,0.004));
#1585=CARTESIAN_POINT('',(0.,0.,0.004));
#1586=CARTESIAN_POINT('',(0.038,-4.25503767654715E-19,0.004));
#1587=CARTESIAN_POINT('',(0.038,-4.25503767654715E-19,0.004));
#1588=CARTESIAN_POINT('',(0.035,-4.25503767654715E-19,0.004));
#1589=CARTESIAN_POINT('',(0.,0.,0.004));
#1590=CARTESIAN_POINT('',(0.,0.0025,0.));
#1591=CARTESIAN_POINT('',(0.01075,0.0025,0.002));
#1592=CARTESIAN_POINT('',(-0.01075,0.0025,0.));
#1593=CARTESIAN_POINT('',(-0.011,-4.33680868994202E-19,0.));
#1594=CARTESIAN_POINT('',(-0.011,-0.00225,0.));
#1595=CARTESIAN_POINT('',(-0.011,0.00225,0.));
#1596=CARTESIAN_POINT('',(0.,-0.0025,0.));
#1597=CARTESIAN_POINT('',(0.01075,-0.0025,0.));
#1598=CARTESIAN_POINT('',(-0.01075,-0.0025,0.002));
#1599=CARTESIAN_POINT('',(0.011,-4.33680868994202E-19,0.));
#1600=CARTESIAN_POINT('',(0.011,0.00225,0.));
#1601=CARTESIAN_POINT('',(0.011,-0.00225,0.));
#1602=CARTESIAN_POINT('',(-0.029,0.013,0.));
#1603=CARTESIAN_POINT('',(-0.0393,0.013,0.));
#1604=CARTESIAN_POINT('',(-0.01625,0.013,0.002));
#1605=CARTESIAN_POINT('',(-0.029,0.008,0.));
#1606=CARTESIAN_POINT('',(-0.0393,0.008,0.002));
#1607=CARTESIAN_POINT('',(-0.01625,0.008,0.));
#1608=CARTESIAN_POINT('',(-0.0155,0.0085,0.));
#1609=CARTESIAN_POINT('',(-0.00025,0.0085,0.));
#1610=CARTESIAN_POINT('',(-0.01575,0.0085,0.002));
#1611=CARTESIAN_POINT('',(2.16840434497101E-19,0.0105,0.));
#1612=CARTESIAN_POINT('',(2.71050543121375E-20,0.01225,0.));
#1613=CARTESIAN_POINT('',(4.06575814682061E-19,0.00875,0.));
#1614=CARTESIAN_POINT('',(-0.0155,0.0125,0.));
#1615=CARTESIAN_POINT('',(-0.00025,0.0125,0.002));
#1616=CARTESIAN_POINT('',(-0.01575,0.0125,0.));
#1617=CARTESIAN_POINT('',(0.0155,-0.0085,0.));
#1618=CARTESIAN_POINT('',(0.00025,-0.0085,0.));
#1619=CARTESIAN_POINT('',(0.01575,-0.0085,0.002));
#1620=CARTESIAN_POINT('',(0.,-0.0105,0.));
#1621=CARTESIAN_POINT('',(0.,-0.00875,0.002));
#1622=CARTESIAN_POINT('',(0.,-0.01225,0.));
#1623=CARTESIAN_POINT('',(0.0155,-0.0125,0.));
#1624=CARTESIAN_POINT('',(0.00025,-0.0125,0.));
#1625=CARTESIAN_POINT('',(0.01575,-0.0125,0.));
#1626=CARTESIAN_POINT('',(0.029,-0.013,0.));
#1627=CARTESIAN_POINT('',(0.0393,-0.013,0.));
#1628=CARTESIAN_POINT('',(0.01625,-0.013,0.));
#1629=CARTESIAN_POINT('',(0.029,-0.008,0.));
#1630=CARTESIAN_POINT('',(0.0393,-0.008,0.));
#1631=CARTESIAN_POINT('',(0.01625,-0.008,0.));
#1632=CARTESIAN_POINT('',(0.01075,0.00225,0.));
#1633=CARTESIAN_POINT('',(0.01075,-0.00225,0.));
#1634=CARTESIAN_POINT('',(-0.01075,-0.00225,0.));
#1635=CARTESIAN_POINT('',(-0.01075,0.00225,0.));
#1636=CARTESIAN_POINT('',(0.00025,-0.00875,0.));
#1637=CARTESIAN_POINT('',(0.00025,-0.01225,0.));
#1638=CARTESIAN_POINT('',(0.01575,-0.01275,0.));
#1639=CARTESIAN_POINT('',(0.016,-0.01275,0.));
#1640=CARTESIAN_POINT('',(0.01625,-0.01275,0.));
#1641=CARTESIAN_POINT('',(0.01575,-0.00825,0.));
#1642=CARTESIAN_POINT('',(0.016,-0.00825,0.));
#1643=CARTESIAN_POINT('',(0.01625,-0.00825,0.));
#1644=CARTESIAN_POINT('',(-0.00025,0.01225,0.));
#1645=CARTESIAN_POINT('',(-0.00025,0.00875,0.));
#1646=CARTESIAN_POINT('',(-0.01575,0.00825,0.));
#1647=CARTESIAN_POINT('',(-0.016,0.00825,0.));
#1648=CARTESIAN_POINT('',(-0.01625,0.00825,0.));
#1649=CARTESIAN_POINT('',(-0.01625,0.01275,0.));
#1650=CARTESIAN_POINT('',(-0.016,0.01275,0.));
#1651=CARTESIAN_POINT('',(-0.01575,0.01275,0.));
#1652=CARTESIAN_POINT('',(0.0393,-0.0103,0.));
#1653=CARTESIAN_POINT('',(0.0419925824035672,-0.0105,0.001));
#1654=CARTESIAN_POINT('',(0.0393,-0.0107,0.));
#1655=CARTESIAN_POINT('',(-0.0393,0.0107,0.));
#1656=CARTESIAN_POINT('',(-0.0419925824035672,0.0105,0.001));
#1657=CARTESIAN_POINT('',(-0.0393,0.0103,0.));
#1658=CARTESIAN_POINT('',(0.0435,-0.016,0.002));
#1659=CARTESIAN_POINT('',(0.045,-0.016,0.002));
#1660=CARTESIAN_POINT('',(0.045,-0.0145,0.002));
#1661=CARTESIAN_POINT('',(0.0434999999998692,-0.016,0.00173820026313549));
#1662=CARTESIAN_POINT('',(0.0449999999900514,-0.01599999999005,0.00154184915237951));
#1663=CARTESIAN_POINT('',(0.045,-0.0144999999998692,0.00173820026313549));
#1664=CARTESIAN_POINT('',(0.0434739656197441,-0.0158958624787336,0.00121472404380009));
#1665=CARTESIAN_POINT('',(0.0447364106559355,-0.015736410655936,0.000715530551737554));
#1666=CARTESIAN_POINT('',(0.0448958624787336,-0.0144739656197442,0.00121472404380009));
#1667=CARTESIAN_POINT('',(0.0433627589286256,-0.015451035714568,0.000548964263615402));
#1668=CARTESIAN_POINT('',(0.044071389723207,-0.0150713897232071,0.000186495047689893));
#1669=CARTESIAN_POINT('',(0.0444510357145679,-0.0143627589286256,0.000548964263615392));
#1670=CARTESIAN_POINT('',(0.043196319009313,-0.0147852760372331,0.000104137527499762));
#1671=CARTESIAN_POINT('',(0.0435040980115414,-0.0145040980115406,2.49057791289186E-5));
#1672=CARTESIAN_POINT('',(0.0437852760372334,-0.0141963190093129,0.000104137527499767));
#1673=CARTESIAN_POINT('',(0.0430654498905827,-0.0142617995623316,-6.50521303491303E-19));
#1674=CARTESIAN_POINT('',(0.0431636246937474,-0.0141636246937492,2.46491987824575E-12));
#1675=CARTESIAN_POINT('',(0.043261799562331,-0.0140654498905829,-6.50521303491303E-19));
#1676=CARTESIAN_POINT('',(0.043,-0.014,-6.50521303491303E-19));
#1677=CARTESIAN_POINT('',(0.043,-0.014,-6.50521303491303E-19));
#1678=CARTESIAN_POINT('',(0.043,-0.014,-6.50521303491303E-19));
#1679=CARTESIAN_POINT('',(0.043,-0.014,0.002));
#1680=CARTESIAN_POINT('',(0.043,-0.014,0.002));
#1681=CARTESIAN_POINT('',(-6.93889390390723E-18,-0.014,0.002));
#1682=CARTESIAN_POINT('',(-0.043,-0.014,0.002));
#1683=CARTESIAN_POINT('',(0.043,0.,0.002));
#1684=CARTESIAN_POINT('',(0.043,0.014,0.002));
#1685=CARTESIAN_POINT('',(-0.045,-0.0145,0.002));
#1686=CARTESIAN_POINT('',(-0.045,-0.016,0.002));
#1687=CARTESIAN_POINT('',(-0.0435,-0.016,0.002));
#1688=CARTESIAN_POINT('',(-0.045,-0.0144999999998692,0.00173820026313549));
#1689=CARTESIAN_POINT('',(-0.0449999999900514,-0.0159999999900501,0.00154184915237951));
#1690=CARTESIAN_POINT('',(-0.0434999999998692,-0.016,0.00173820026313549));
#1691=CARTESIAN_POINT('',(-0.0448958624787336,-0.0144739656197442,0.00121472404380009));
#1692=CARTESIAN_POINT('',(-0.0447364106559355,-0.015736410655936,0.000715530551737553));
#1693=CARTESIAN_POINT('',(-0.0434739656197441,-0.0158958624787336,0.00121472404380009));
#1694=CARTESIAN_POINT('',(-0.0444510357145679,-0.0143627589286256,0.000548964263615392));
#1695=CARTESIAN_POINT('',(-0.044071389723207,-0.0150713897232071,0.000186495047689893));
#1696=CARTESIAN_POINT('',(-0.0433627589286256,-0.015451035714568,0.000548964263615402));
#1697=CARTESIAN_POINT('',(-0.0437852760372334,-0.0141963190093129,0.000104137527499767));
#1698=CARTESIAN_POINT('',(-0.0435040980115414,-0.0145040980115406,2.49057791289186E-5));
#1699=CARTESIAN_POINT('',(-0.043196319009313,-0.0147852760372331,0.000104137527499762));
#1700=CARTESIAN_POINT('',(-0.043261799562331,-0.0140654498905829,-6.50521303491303E-19));
#1701=CARTESIAN_POINT('',(-0.0431636246937474,-0.0141636246937492,2.46491987824575E-12));
#1702=CARTESIAN_POINT('',(-0.0430654498905827,-0.0142617995623316,-6.50521303491303E-19));
#1703=CARTESIAN_POINT('',(-0.043,-0.014,-6.50521303491303E-19));
#1704=CARTESIAN_POINT('',(-0.043,-0.014,-6.50521303491303E-19));
#1705=CARTESIAN_POINT('',(-0.043,-0.014,-6.50521303491303E-19));
#1706=CARTESIAN_POINT('',(-0.043,-0.014,0.002));
#1707=CARTESIAN_POINT('',(0.045,0.0145,0.002));
#1708=CARTESIAN_POINT('',(0.045,0.016,0.002));
#1709=CARTESIAN_POINT('',(0.0435,0.016,0.002));
#1710=CARTESIAN_POINT('',(0.045,0.0144999999998692,0.00173820026313549));
#1711=CARTESIAN_POINT('',(0.0449999999900514,0.0159999999900501,0.00154184915237951));
#1712=CARTESIAN_POINT('',(0.0434999999998692,0.016,0.00173820026313549));
#1713=CARTESIAN_POINT('',(0.0448958624787336,0.0144739656197442,0.00121472404380009));
#1714=CARTESIAN_POINT('',(0.0447364106559355,0.015736410655936,0.000715530551737553));
#1715=CARTESIAN_POINT('',(0.0434739656197441,0.0158958624787336,0.00121472404380009));
#1716=CARTESIAN_POINT('',(0.0444510357145679,0.0143627589286256,0.000548964263615392));
#1717=CARTESIAN_POINT('',(0.044071389723207,0.0150713897232071,0.000186495047689893));
#1718=CARTESIAN_POINT('',(0.0433627589286256,0.015451035714568,0.000548964263615402));
#1719=CARTESIAN_POINT('',(0.0437852760372334,0.0141963190093129,0.000104137527499767));
#1720=CARTESIAN_POINT('',(0.0435040980115414,0.0145040980115406,2.49057791289186E-5));
#1721=CARTESIAN_POINT('',(0.043196319009313,0.0147852760372331,0.000104137527499762));
#1722=CARTESIAN_POINT('',(0.043261799562331,0.0140654498905829,-6.50521303491303E-19));
#1723=CARTESIAN_POINT('',(0.0431636246937474,0.0141636246937492,2.46491987824575E-12));
#1724=CARTESIAN_POINT('',(0.0430654498905827,0.0142617995623316,-6.50521303491303E-19));
#1725=CARTESIAN_POINT('',(0.043,0.014,-6.50521303491303E-19));
#1726=CARTESIAN_POINT('',(0.043,0.014,-6.50521303491303E-19));
#1727=CARTESIAN_POINT('',(0.043,0.014,-6.50521303491303E-19));
#1728=CARTESIAN_POINT('',(0.043,0.014,0.002));
#1729=CARTESIAN_POINT('',(-0.043,-1.7347234759768E-18,0.002));
#1730=CARTESIAN_POINT('',(-0.043,0.014,0.002));
#1731=CARTESIAN_POINT('',(0.,0.014,0.002));
#1732=CARTESIAN_POINT('',(-0.043,0.014,0.002));
#1733=CARTESIAN_POINT('',(-0.0435,0.016,0.002));
#1734=CARTESIAN_POINT('',(-0.045,0.016,0.002));
#1735=CARTESIAN_POINT('',(-0.045,0.0145,0.002));
#1736=CARTESIAN_POINT('',(-0.0434999999998692,0.016,0.00173820026313549));
#1737=CARTESIAN_POINT('',(-0.0449999999900514,0.01599999999005,0.00154184915237951));
#1738=CARTESIAN_POINT('',(-0.045,0.0144999999998692,0.00173820026313549));
#1739=CARTESIAN_POINT('',(-0.0434739656197441,0.0158958624787336,0.00121472404380009));
#1740=CARTESIAN_POINT('',(-0.0447364106559355,0.015736410655936,0.000715530551737554));
#1741=CARTESIAN_POINT('',(-0.0448958624787336,0.0144739656197442,0.00121472404380009));
#1742=CARTESIAN_POINT('',(-0.0433627589286256,0.015451035714568,0.000548964263615402));
#1743=CARTESIAN_POINT('',(-0.044071389723207,0.0150713897232071,0.000186495047689893));
#1744=CARTESIAN_POINT('',(-0.0444510357145679,0.0143627589286256,0.000548964263615392));
#1745=CARTESIAN_POINT('',(-0.043196319009313,0.0147852760372331,0.000104137527499762));
#1746=CARTESIAN_POINT('',(-0.0435040980115414,0.0145040980115406,2.49057791289186E-5));
#1747=CARTESIAN_POINT('',(-0.0437852760372334,0.0141963190093129,0.000104137527499767));
#1748=CARTESIAN_POINT('',(-0.0430654498905827,0.0142617995623316,-6.50521303491303E-19));
#1749=CARTESIAN_POINT('',(-0.0431636246937474,0.0141636246937492,2.46491987824575E-12));
#1750=CARTESIAN_POINT('',(-0.043261799562331,0.0140654498905829,-6.50521303491303E-19));
#1751=CARTESIAN_POINT('',(-0.043,0.014,-6.50521303491303E-19));
#1752=CARTESIAN_POINT('',(-0.043,0.014,-6.50521303491303E-19));
#1753=CARTESIAN_POINT('',(-0.043,0.014,-6.50521303491303E-19));
#1754=MECHANICAL_DESIGN_GEOMETRIC_PRESENTATION_REPRESENTATION('',(#967),
#1755);
#1755=(
GEOMETRIC_REPRESENTATION_CONTEXT(3)
GLOBAL_UNCERTAINTY_ASSIGNED_CONTEXT((#1756))
GLOBAL_UNIT_ASSIGNED_CONTEXT((#1759,#1758,#1757))
REPRESENTATION_CONTEXT('Part 1','TOP_LEVEL_ASSEMBLY_PART')
);
#1756=UNCERTAINTY_MEASURE_WITH_UNIT(LENGTH_MEASURE(2.E-5),#1759,
'DISTANCE_ACCURACY_VALUE','Maximum Tolerance applied to model');
#1757=(
NAMED_UNIT(*)
SI_UNIT($,.STERADIAN.)
SOLID_ANGLE_UNIT()
);
#1758=(
NAMED_UNIT(*)
PLANE_ANGLE_UNIT()
SI_UNIT($,.RADIAN.)
);
#1759=(
LENGTH_UNIT()
NAMED_UNIT(*)
SI_UNIT($,.METRE.)
);
#1760=PRODUCT_DEFINITION_SHAPE('','',#1761);
#1761=PRODUCT_DEFINITION('','',#1763,#1762);
#1762=PRODUCT_DEFINITION_CONTEXT('',#1769,'design');
#1763=PRODUCT_DEFINITION_FORMATION_WITH_SPECIFIED_SOURCE('','',#1765,
 .NOT_KNOWN.);
#1764=PRODUCT_RELATED_PRODUCT_CATEGORY('','',(#1765));
#1765=PRODUCT('Part 1','Part 1','Part 1',(#1767));
#1766=PRODUCT_CATEGORY('','');
#1767=PRODUCT_CONTEXT('',#1769,'mechanical');
#1768=APPLICATION_PROTOCOL_DEFINITION('international standard',
'ap242_managed_model_based_3d_engineering',2020,#1769);
#1769=APPLICATION_CONTEXT('managed model based 3d engineering');
ENDSEC;
END-ISO-10303-21;
