ISO-10303-21;
HEADER;
/* Generated by software containing ST-Developer
 * from STEP Tools, Inc. (www.steptools.com) 
 */
/* OPTION: using custom renumber hook */

FILE_DESCRIPTION(
/* description */ ('STEP AP242 Edition 2',
'CAx-IF Rec.Pracs.---Representation and Presentation of Product Manufa
cturing Information (PMI)---4.0---2014-10-13',
'CAx-IF Rec.Pracs.---3D Tessellated Geometry---0.4---2014-09-14','2;1',
'CAx-IF Rec.Pracs.---User Defined Attributes---1.5---2016-08-15'),
/* implementation_level */ '2;1');

FILE_NAME(
/* name */ 'Wrist Bracket',
/* time_stamp */ '2026-08-02T02:26:41Z',
/* author */ (''),
/* organization */ (''),
/* preprocessor_version */ 'ST-DEVELOPER v20',
/* originating_system */ 'ONSHAPE BY PTC INC, 1.218',
/* authorisation */ '  ');

FILE_SCHEMA (('AP242_MANAGED_MODEL_BASED_3D_ENGINEERING_MIM_LF { 1 0 10303 442 3 1 4 }'));
ENDSEC;

DATA;
#10=SHAPE_REPRESENTATION_RELATIONSHIP('','',#961,#11);
#11=ADVANCED_BREP_SHAPE_REPRESENTATION('',(#959),#1633);
#12=CYLINDRICAL_SURFACE('',#1018,0.001);
#13=CYLINDRICAL_SURFACE('',#1021,0.001);
#14=CYLINDRICAL_SURFACE('',#1024,0.001);
#15=CYLINDRICAL_SURFACE('',#1027,0.001);
#16=CYLINDRICAL_SURFACE('',#1039,0.004);
#17=CYLINDRICAL_SURFACE('',#1040,0.001);
#18=CYLINDRICAL_SURFACE('',#1041,0.001);
#19=CYLINDRICAL_SURFACE('',#1042,0.001);
#20=CYLINDRICAL_SURFACE('',#1043,0.001);
#21=CYLINDRICAL_SURFACE('',#1044,0.001);
#22=CYLINDRICAL_SURFACE('',#1045,0.001);
#23=CYLINDRICAL_SURFACE('',#1046,0.001);
#24=CYLINDRICAL_SURFACE('',#1047,0.001);
#25=CYLINDRICAL_SURFACE('',#1048,0.004);
#26=CYLINDRICAL_SURFACE('',#1049,0.001);
#27=CYLINDRICAL_SURFACE('',#1050,0.001);
#28=CYLINDRICAL_SURFACE('',#1051,0.001);
#29=CYLINDRICAL_SURFACE('',#1052,0.001);
#30=CYLINDRICAL_SURFACE('',#1053,0.0095);
#31=CYLINDRICAL_SURFACE('',#1054,0.0095);
#32=CYLINDRICAL_SURFACE('',#1055,0.002);
#33=CYLINDRICAL_SURFACE('',#1058,0.002);
#34=CYLINDRICAL_SURFACE('',#1061,0.002);
#35=CYLINDRICAL_SURFACE('',#1064,0.002);
#36=CYLINDRICAL_SURFACE('',#1075,0.005);
#37=CYLINDRICAL_SURFACE('',#1076,0.005);
#38=CYLINDRICAL_SURFACE('',#1077,0.005);
#39=CYLINDRICAL_SURFACE('',#1078,0.005);
#40=CYLINDRICAL_SURFACE('',#1079,0.004);
#41=CYLINDRICAL_SURFACE('',#1080,0.004);
#42=CYLINDRICAL_SURFACE('',#1081,0.004);
#43=CYLINDRICAL_SURFACE('',#1082,0.004);
#44=CIRCLE('',#964,0.004);
#45=CIRCLE('',#965,0.005);
#46=CIRCLE('',#966,0.0095);
#47=CIRCLE('',#967,0.005);
#48=CIRCLE('',#968,0.004);
#49=CIRCLE('',#969,0.001);
#50=CIRCLE('',#970,0.001);
#51=CIRCLE('',#971,0.001);
#52=CIRCLE('',#972,0.001);
#53=CIRCLE('',#973,0.001);
#54=CIRCLE('',#974,0.001);
#55=CIRCLE('',#975,0.001);
#56=CIRCLE('',#976,0.001);
#57=CIRCLE('',#977,0.004);
#58=CIRCLE('',#979,0.004);
#59=CIRCLE('',#980,0.001);
#60=CIRCLE('',#981,0.001);
#61=CIRCLE('',#982,0.001);
#62=CIRCLE('',#983,0.001);
#63=CIRCLE('',#984,0.002);
#64=CIRCLE('',#985,0.002);
#65=CIRCLE('',#986,0.002);
#66=CIRCLE('',#987,0.002);
#67=CIRCLE('',#988,0.004);
#68=CIRCLE('',#989,0.005);
#69=CIRCLE('',#990,0.0095);
#70=CIRCLE('',#991,0.005);
#71=CIRCLE('',#992,0.004);
#72=CIRCLE('',#994,0.004);
#73=CIRCLE('',#995,0.005);
#74=CIRCLE('',#996,0.0095);
#75=CIRCLE('',#997,0.005);
#76=CIRCLE('',#998,0.004);
#77=CIRCLE('',#1000,0.004);
#78=CIRCLE('',#1001,0.005);
#79=CIRCLE('',#1002,0.0095);
#80=CIRCLE('',#1003,0.005);
#81=CIRCLE('',#1004,0.004);
#82=CIRCLE('',#1008,0.001);
#83=CIRCLE('',#1009,0.001);
#84=CIRCLE('',#1010,0.001);
#85=CIRCLE('',#1011,0.001);
#86=CIRCLE('',#1012,0.001);
#87=CIRCLE('',#1013,0.001);
#88=CIRCLE('',#1014,0.001);
#89=CIRCLE('',#1015,0.001);
#90=CIRCLE('',#1016,0.004);
#91=CIRCLE('',#1017,0.0095);
#92=CIRCLE('',#1019,0.001);
#93=CIRCLE('',#1020,0.001);
#94=CIRCLE('',#1022,0.001);
#95=CIRCLE('',#1023,0.001);
#96=CIRCLE('',#1025,0.001);
#97=CIRCLE('',#1026,0.001);
#98=CIRCLE('',#1028,0.001);
#99=CIRCLE('',#1029,0.001);
#100=CIRCLE('',#1033,0.001);
#101=CIRCLE('',#1034,0.001);
#102=CIRCLE('',#1035,0.001);
#103=CIRCLE('',#1036,0.001);
#104=CIRCLE('',#1037,0.004);
#105=CIRCLE('',#1038,0.0095);
#106=CIRCLE('',#1056,0.002);
#107=CIRCLE('',#1059,0.002);
#108=CIRCLE('',#1062,0.002);
#109=CIRCLE('',#1065,0.002);
#110=ORIENTED_EDGE('',*,*,#338,.F.);
#111=ORIENTED_EDGE('',*,*,#339,.T.);
#112=ORIENTED_EDGE('',*,*,#340,.T.);
#113=ORIENTED_EDGE('',*,*,#341,.F.);
#114=ORIENTED_EDGE('',*,*,#342,.T.);
#115=ORIENTED_EDGE('',*,*,#343,.T.);
#116=ORIENTED_EDGE('',*,*,#344,.T.);
#117=ORIENTED_EDGE('',*,*,#345,.T.);
#118=ORIENTED_EDGE('',*,*,#346,.T.);
#119=ORIENTED_EDGE('',*,*,#347,.T.);
#120=ORIENTED_EDGE('',*,*,#348,.F.);
#121=ORIENTED_EDGE('',*,*,#349,.T.);
#122=ORIENTED_EDGE('',*,*,#350,.F.);
#123=ORIENTED_EDGE('',*,*,#351,.F.);
#124=ORIENTED_EDGE('',*,*,#352,.F.);
#125=ORIENTED_EDGE('',*,*,#353,.F.);
#126=ORIENTED_EDGE('',*,*,#354,.F.);
#127=ORIENTED_EDGE('',*,*,#355,.F.);
#128=ORIENTED_EDGE('',*,*,#356,.F.);
#129=ORIENTED_EDGE('',*,*,#357,.F.);
#130=ORIENTED_EDGE('',*,*,#358,.F.);
#131=ORIENTED_EDGE('',*,*,#359,.F.);
#132=ORIENTED_EDGE('',*,*,#360,.F.);
#133=ORIENTED_EDGE('',*,*,#361,.F.);
#134=ORIENTED_EDGE('',*,*,#362,.F.);
#135=ORIENTED_EDGE('',*,*,#363,.F.);
#136=ORIENTED_EDGE('',*,*,#364,.F.);
#137=ORIENTED_EDGE('',*,*,#365,.F.);
#138=ORIENTED_EDGE('',*,*,#366,.F.);
#139=ORIENTED_EDGE('',*,*,#367,.F.);
#140=ORIENTED_EDGE('',*,*,#368,.F.);
#141=ORIENTED_EDGE('',*,*,#369,.T.);
#142=ORIENTED_EDGE('',*,*,#370,.T.);
#143=ORIENTED_EDGE('',*,*,#371,.T.);
#144=ORIENTED_EDGE('',*,*,#372,.T.);
#145=ORIENTED_EDGE('',*,*,#373,.T.);
#146=ORIENTED_EDGE('',*,*,#374,.T.);
#147=ORIENTED_EDGE('',*,*,#375,.F.);
#148=ORIENTED_EDGE('',*,*,#376,.T.);
#149=ORIENTED_EDGE('',*,*,#377,.F.);
#150=ORIENTED_EDGE('',*,*,#378,.T.);
#151=ORIENTED_EDGE('',*,*,#379,.F.);
#152=ORIENTED_EDGE('',*,*,#380,.F.);
#153=ORIENTED_EDGE('',*,*,#381,.T.);
#154=ORIENTED_EDGE('',*,*,#382,.T.);
#155=ORIENTED_EDGE('',*,*,#383,.T.);
#156=ORIENTED_EDGE('',*,*,#384,.T.);
#157=ORIENTED_EDGE('',*,*,#385,.T.);
#158=ORIENTED_EDGE('',*,*,#386,.F.);
#159=ORIENTED_EDGE('',*,*,#387,.T.);
#160=ORIENTED_EDGE('',*,*,#388,.F.);
#161=ORIENTED_EDGE('',*,*,#389,.T.);
#162=ORIENTED_EDGE('',*,*,#390,.F.);
#163=ORIENTED_EDGE('',*,*,#391,.T.);
#164=ORIENTED_EDGE('',*,*,#392,.F.);
#165=ORIENTED_EDGE('',*,*,#393,.T.);
#166=ORIENTED_EDGE('',*,*,#394,.F.);
#167=ORIENTED_EDGE('',*,*,#395,.T.);
#168=ORIENTED_EDGE('',*,*,#396,.T.);
#169=ORIENTED_EDGE('',*,*,#397,.T.);
#170=ORIENTED_EDGE('',*,*,#398,.T.);
#171=ORIENTED_EDGE('',*,*,#399,.F.);
#172=ORIENTED_EDGE('',*,*,#400,.F.);
#173=ORIENTED_EDGE('',*,*,#368,.T.);
#174=ORIENTED_EDGE('',*,*,#401,.F.);
#175=ORIENTED_EDGE('',*,*,#339,.F.);
#176=ORIENTED_EDGE('',*,*,#402,.F.);
#177=ORIENTED_EDGE('',*,*,#403,.T.);
#178=ORIENTED_EDGE('',*,*,#378,.F.);
#179=ORIENTED_EDGE('',*,*,#404,.T.);
#180=ORIENTED_EDGE('',*,*,#405,.F.);
#181=ORIENTED_EDGE('',*,*,#406,.T.);
#182=ORIENTED_EDGE('',*,*,#341,.T.);
#183=ORIENTED_EDGE('',*,*,#407,.T.);
#184=ORIENTED_EDGE('',*,*,#408,.F.);
#185=ORIENTED_EDGE('',*,*,#409,.F.);
#186=ORIENTED_EDGE('',*,*,#410,.F.);
#187=ORIENTED_EDGE('',*,*,#411,.F.);
#188=ORIENTED_EDGE('',*,*,#412,.F.);
#189=ORIENTED_EDGE('',*,*,#413,.F.);
#190=ORIENTED_EDGE('',*,*,#414,.F.);
#191=ORIENTED_EDGE('',*,*,#415,.F.);
#192=ORIENTED_EDGE('',*,*,#416,.F.);
#193=ORIENTED_EDGE('',*,*,#417,.T.);
#194=ORIENTED_EDGE('',*,*,#418,.F.);
#195=ORIENTED_EDGE('',*,*,#419,.T.);
#196=ORIENTED_EDGE('',*,*,#420,.F.);
#197=ORIENTED_EDGE('',*,*,#421,.T.);
#198=ORIENTED_EDGE('',*,*,#422,.F.);
#199=ORIENTED_EDGE('',*,*,#423,.T.);
#200=ORIENTED_EDGE('',*,*,#424,.F.);
#201=ORIENTED_EDGE('',*,*,#425,.T.);
#202=ORIENTED_EDGE('',*,*,#403,.F.);
#203=ORIENTED_EDGE('',*,*,#399,.T.);
#204=ORIENTED_EDGE('',*,*,#405,.T.);
#205=ORIENTED_EDGE('',*,*,#381,.F.);
#206=ORIENTED_EDGE('',*,*,#407,.F.);
#207=ORIENTED_EDGE('',*,*,#340,.F.);
#208=ORIENTED_EDGE('',*,*,#401,.T.);
#209=ORIENTED_EDGE('',*,*,#379,.T.);
#210=ORIENTED_EDGE('',*,*,#424,.T.);
#211=ORIENTED_EDGE('',*,*,#426,.T.);
#212=ORIENTED_EDGE('',*,*,#422,.T.);
#213=ORIENTED_EDGE('',*,*,#427,.T.);
#214=ORIENTED_EDGE('',*,*,#420,.T.);
#215=ORIENTED_EDGE('',*,*,#428,.T.);
#216=ORIENTED_EDGE('',*,*,#418,.T.);
#217=ORIENTED_EDGE('',*,*,#429,.T.);
#218=ORIENTED_EDGE('',*,*,#430,.T.);
#219=ORIENTED_EDGE('',*,*,#431,.T.);
#220=ORIENTED_EDGE('',*,*,#358,.T.);
#221=ORIENTED_EDGE('',*,*,#416,.T.);
#222=ORIENTED_EDGE('',*,*,#357,.T.);
#223=ORIENTED_EDGE('',*,*,#415,.T.);
#224=ORIENTED_EDGE('',*,*,#356,.T.);
#225=ORIENTED_EDGE('',*,*,#414,.T.);
#226=ORIENTED_EDGE('',*,*,#355,.T.);
#227=ORIENTED_EDGE('',*,*,#413,.T.);
#228=ORIENTED_EDGE('',*,*,#354,.T.);
#229=ORIENTED_EDGE('',*,*,#412,.T.);
#230=ORIENTED_EDGE('',*,*,#353,.T.);
#231=ORIENTED_EDGE('',*,*,#411,.T.);
#232=ORIENTED_EDGE('',*,*,#352,.T.);
#233=ORIENTED_EDGE('',*,*,#410,.T.);
#234=ORIENTED_EDGE('',*,*,#351,.T.);
#235=ORIENTED_EDGE('',*,*,#409,.T.);
#236=ORIENTED_EDGE('',*,*,#350,.T.);
#237=ORIENTED_EDGE('',*,*,#408,.T.);
#238=ORIENTED_EDGE('',*,*,#359,.T.);
#239=ORIENTED_EDGE('',*,*,#430,.F.);
#240=ORIENTED_EDGE('',*,*,#360,.T.);
#241=ORIENTED_EDGE('',*,*,#429,.F.);
#242=ORIENTED_EDGE('',*,*,#361,.T.);
#243=ORIENTED_EDGE('',*,*,#428,.F.);
#244=ORIENTED_EDGE('',*,*,#362,.T.);
#245=ORIENTED_EDGE('',*,*,#427,.F.);
#246=ORIENTED_EDGE('',*,*,#363,.T.);
#247=ORIENTED_EDGE('',*,*,#426,.F.);
#248=ORIENTED_EDGE('',*,*,#346,.F.);
#249=ORIENTED_EDGE('',*,*,#432,.T.);
#250=ORIENTED_EDGE('',*,*,#394,.T.);
#251=ORIENTED_EDGE('',*,*,#433,.T.);
#252=ORIENTED_EDGE('',*,*,#417,.F.);
#253=ORIENTED_EDGE('',*,*,#386,.T.);
#254=ORIENTED_EDGE('',*,*,#434,.T.);
#255=ORIENTED_EDGE('',*,*,#373,.F.);
#256=ORIENTED_EDGE('',*,*,#435,.T.);
#257=ORIENTED_EDGE('',*,*,#431,.F.);
#258=ORIENTED_EDGE('',*,*,#436,.F.);
#259=ORIENTED_EDGE('',*,*,#364,.T.);
#260=ORIENTED_EDGE('',*,*,#425,.F.);
#261=ORIENTED_EDGE('',*,*,#436,.T.);
#262=ORIENTED_EDGE('',*,*,#437,.F.);
#263=ORIENTED_EDGE('',*,*,#367,.T.);
#264=ORIENTED_EDGE('',*,*,#423,.F.);
#265=ORIENTED_EDGE('',*,*,#437,.T.);
#266=ORIENTED_EDGE('',*,*,#438,.F.);
#267=ORIENTED_EDGE('',*,*,#366,.T.);
#268=ORIENTED_EDGE('',*,*,#421,.F.);
#269=ORIENTED_EDGE('',*,*,#438,.T.);
#270=ORIENTED_EDGE('',*,*,#439,.F.);
#271=ORIENTED_EDGE('',*,*,#365,.T.);
#272=ORIENTED_EDGE('',*,*,#419,.F.);
#273=ORIENTED_EDGE('',*,*,#439,.T.);
#274=ORIENTED_EDGE('',*,*,#398,.F.);
#275=ORIENTED_EDGE('',*,*,#440,.T.);
#276=ORIENTED_EDGE('',*,*,#342,.F.);
#277=ORIENTED_EDGE('',*,*,#406,.F.);
#278=ORIENTED_EDGE('',*,*,#344,.F.);
#279=ORIENTED_EDGE('',*,*,#441,.T.);
#280=ORIENTED_EDGE('',*,*,#396,.F.);
#281=ORIENTED_EDGE('',*,*,#442,.T.);
#282=ORIENTED_EDGE('',*,*,#392,.T.);
#283=ORIENTED_EDGE('',*,*,#443,.T.);
#284=ORIENTED_EDGE('',*,*,#348,.T.);
#285=ORIENTED_EDGE('',*,*,#444,.T.);
#286=ORIENTED_EDGE('',*,*,#338,.T.);
#287=ORIENTED_EDGE('',*,*,#445,.T.);
#288=ORIENTED_EDGE('',*,*,#390,.T.);
#289=ORIENTED_EDGE('',*,*,#402,.T.);
#290=ORIENTED_EDGE('',*,*,#384,.F.);
#291=ORIENTED_EDGE('',*,*,#446,.T.);
#292=ORIENTED_EDGE('',*,*,#375,.T.);
#293=ORIENTED_EDGE('',*,*,#447,.T.);
#294=ORIENTED_EDGE('',*,*,#377,.T.);
#295=ORIENTED_EDGE('',*,*,#448,.T.);
#296=ORIENTED_EDGE('',*,*,#382,.F.);
#297=ORIENTED_EDGE('',*,*,#404,.F.);
#298=ORIENTED_EDGE('',*,*,#380,.T.);
#299=ORIENTED_EDGE('',*,*,#449,.T.);
#300=ORIENTED_EDGE('',*,*,#369,.F.);
#301=ORIENTED_EDGE('',*,*,#400,.T.);
#302=ORIENTED_EDGE('',*,*,#371,.F.);
#303=ORIENTED_EDGE('',*,*,#450,.T.);
#304=ORIENTED_EDGE('',*,*,#388,.T.);
#305=ORIENTED_EDGE('',*,*,#451,.T.);
#306=ORIENTED_EDGE('',*,*,#374,.F.);
#307=ORIENTED_EDGE('',*,*,#434,.F.);
#308=ORIENTED_EDGE('',*,*,#385,.F.);
#309=ORIENTED_EDGE('',*,*,#447,.F.);
#310=ORIENTED_EDGE('',*,*,#372,.F.);
#311=ORIENTED_EDGE('',*,*,#451,.F.);
#312=ORIENTED_EDGE('',*,*,#387,.F.);
#313=ORIENTED_EDGE('',*,*,#435,.F.);
#314=ORIENTED_EDGE('',*,*,#395,.F.);
#315=ORIENTED_EDGE('',*,*,#432,.F.);
#316=ORIENTED_EDGE('',*,*,#345,.F.);
#317=ORIENTED_EDGE('',*,*,#442,.F.);
#318=ORIENTED_EDGE('',*,*,#393,.F.);
#319=ORIENTED_EDGE('',*,*,#444,.F.);
#320=ORIENTED_EDGE('',*,*,#347,.F.);
#321=ORIENTED_EDGE('',*,*,#433,.F.);
#322=ORIENTED_EDGE('',*,*,#376,.F.);
#323=ORIENTED_EDGE('',*,*,#446,.F.);
#324=ORIENTED_EDGE('',*,*,#383,.F.);
#325=ORIENTED_EDGE('',*,*,#448,.F.);
#326=ORIENTED_EDGE('',*,*,#370,.F.);
#327=ORIENTED_EDGE('',*,*,#449,.F.);
#328=ORIENTED_EDGE('',*,*,#389,.F.);
#329=ORIENTED_EDGE('',*,*,#450,.F.);
#330=ORIENTED_EDGE('',*,*,#397,.F.);
#331=ORIENTED_EDGE('',*,*,#441,.F.);
#332=ORIENTED_EDGE('',*,*,#343,.F.);
#333=ORIENTED_EDGE('',*,*,#440,.F.);
#334=ORIENTED_EDGE('',*,*,#391,.F.);
#335=ORIENTED_EDGE('',*,*,#445,.F.);
#336=ORIENTED_EDGE('',*,*,#349,.F.);
#337=ORIENTED_EDGE('',*,*,#443,.F.);
#338=EDGE_CURVE('',#452,#453,#542,.T.);
#339=EDGE_CURVE('',#452,#454,#543,.T.);
#340=EDGE_CURVE('',#454,#455,#544,.T.);
#341=EDGE_CURVE('',#456,#455,#545,.T.);
#342=EDGE_CURVE('',#456,#457,#546,.T.);
#343=EDGE_CURVE('',#457,#458,#44,.F.);
#344=EDGE_CURVE('',#458,#459,#547,.T.);
#345=EDGE_CURVE('',#459,#460,#45,.F.);
#346=EDGE_CURVE('',#460,#461,#46,.T.);
#347=EDGE_CURVE('',#461,#462,#47,.F.);
#348=EDGE_CURVE('',#463,#462,#548,.T.);
#349=EDGE_CURVE('',#463,#453,#48,.F.);
#350=EDGE_CURVE('',#464,#464,#49,.T.);
#351=EDGE_CURVE('',#465,#465,#50,.T.);
#352=EDGE_CURVE('',#466,#466,#51,.T.);
#353=EDGE_CURVE('',#467,#467,#52,.T.);
#354=EDGE_CURVE('',#468,#468,#53,.T.);
#355=EDGE_CURVE('',#469,#469,#54,.T.);
#356=EDGE_CURVE('',#470,#470,#55,.T.);
#357=EDGE_CURVE('',#471,#471,#56,.T.);
#358=EDGE_CURVE('',#472,#472,#57,.T.);
#359=EDGE_CURVE('',#473,#473,#58,.T.);
#360=EDGE_CURVE('',#474,#474,#59,.T.);
#361=EDGE_CURVE('',#475,#475,#60,.T.);
#362=EDGE_CURVE('',#476,#476,#61,.T.);
#363=EDGE_CURVE('',#477,#477,#62,.T.);
#364=EDGE_CURVE('',#478,#478,#63,.T.);
#365=EDGE_CURVE('',#479,#479,#64,.T.);
#366=EDGE_CURVE('',#480,#480,#65,.T.);
#367=EDGE_CURVE('',#481,#481,#66,.T.);
#368=EDGE_CURVE('',#482,#483,#549,.T.);
#369=EDGE_CURVE('',#482,#484,#550,.T.);
#370=EDGE_CURVE('',#484,#485,#67,.T.);
#371=EDGE_CURVE('',#485,#486,#551,.T.);
#372=EDGE_CURVE('',#486,#487,#68,.T.);
#373=EDGE_CURVE('',#487,#488,#69,.F.);
#374=EDGE_CURVE('',#488,#489,#70,.T.);
#375=EDGE_CURVE('',#490,#489,#552,.T.);
#376=EDGE_CURVE('',#490,#491,#71,.T.);
#377=EDGE_CURVE('',#492,#491,#553,.T.);
#378=EDGE_CURVE('',#492,#493,#554,.T.);
#379=EDGE_CURVE('',#483,#493,#555,.T.);
#380=EDGE_CURVE('',#494,#495,#556,.T.);
#381=EDGE_CURVE('',#494,#496,#557,.T.);
#382=EDGE_CURVE('',#496,#497,#558,.T.);
#383=EDGE_CURVE('',#497,#498,#72,.F.);
#384=EDGE_CURVE('',#498,#499,#559,.T.);
#385=EDGE_CURVE('',#499,#500,#73,.F.);
#386=EDGE_CURVE('',#501,#500,#74,.T.);
#387=EDGE_CURVE('',#501,#502,#75,.F.);
#388=EDGE_CURVE('',#503,#502,#560,.T.);
#389=EDGE_CURVE('',#503,#495,#76,.F.);
#390=EDGE_CURVE('',#504,#505,#561,.T.);
#391=EDGE_CURVE('',#504,#506,#77,.F.);
#392=EDGE_CURVE('',#507,#506,#562,.T.);
#393=EDGE_CURVE('',#507,#508,#78,.F.);
#394=EDGE_CURVE('',#509,#508,#79,.T.);
#395=EDGE_CURVE('',#509,#510,#80,.F.);
#396=EDGE_CURVE('',#510,#511,#563,.T.);
#397=EDGE_CURVE('',#511,#512,#81,.F.);
#398=EDGE_CURVE('',#512,#513,#564,.T.);
#399=EDGE_CURVE('',#505,#513,#565,.T.);
#400=EDGE_CURVE('',#482,#494,#566,.T.);
#401=EDGE_CURVE('',#454,#483,#567,.T.);
#402=EDGE_CURVE('',#505,#452,#568,.T.);
#403=EDGE_CURVE('',#505,#494,#569,.T.);
#404=EDGE_CURVE('',#492,#496,#570,.T.);
#405=EDGE_CURVE('',#513,#496,#571,.T.);
#406=EDGE_CURVE('',#513,#456,#572,.T.);
#407=EDGE_CURVE('',#455,#493,#573,.T.);
#408=EDGE_CURVE('',#514,#514,#82,.T.);
#409=EDGE_CURVE('',#515,#515,#83,.T.);
#410=EDGE_CURVE('',#516,#516,#84,.T.);
#411=EDGE_CURVE('',#517,#517,#85,.T.);
#412=EDGE_CURVE('',#518,#518,#86,.T.);
#413=EDGE_CURVE('',#519,#519,#87,.T.);
#414=EDGE_CURVE('',#520,#520,#88,.T.);
#415=EDGE_CURVE('',#521,#521,#89,.T.);
#416=EDGE_CURVE('',#522,#522,#90,.T.);
#417=EDGE_CURVE('',#523,#523,#91,.T.);
#418=EDGE_CURVE('',#524,#524,#92,.T.);
#419=EDGE_CURVE('',#525,#525,#93,.T.);
#420=EDGE_CURVE('',#526,#526,#94,.T.);
#421=EDGE_CURVE('',#527,#527,#95,.T.);
#422=EDGE_CURVE('',#528,#528,#96,.T.);
#423=EDGE_CURVE('',#529,#529,#97,.T.);
#424=EDGE_CURVE('',#530,#530,#98,.T.);
#425=EDGE_CURVE('',#531,#531,#99,.T.);
#426=EDGE_CURVE('',#532,#532,#100,.T.);
#427=EDGE_CURVE('',#533,#533,#101,.T.);
#428=EDGE_CURVE('',#534,#534,#102,.T.);
#429=EDGE_CURVE('',#535,#535,#103,.T.);
#430=EDGE_CURVE('',#536,#536,#104,.T.);
#431=EDGE_CURVE('',#537,#537,#105,.F.);
#432=EDGE_CURVE('',#460,#509,#574,.T.);
#433=EDGE_CURVE('',#508,#461,#575,.F.);
#434=EDGE_CURVE('',#500,#488,#576,.T.);
#435=EDGE_CURVE('',#487,#501,#577,.F.);
#436=EDGE_CURVE('',#538,#538,#106,.T.);
#437=EDGE_CURVE('',#539,#539,#107,.T.);
#438=EDGE_CURVE('',#540,#540,#108,.T.);
#439=EDGE_CURVE('',#541,#541,#109,.T.);
#440=EDGE_CURVE('',#512,#457,#578,.T.);
#441=EDGE_CURVE('',#458,#511,#579,.F.);
#442=EDGE_CURVE('',#510,#459,#580,.T.);
#443=EDGE_CURVE('',#506,#463,#581,.T.);
#444=EDGE_CURVE('',#462,#507,#582,.T.);
#445=EDGE_CURVE('',#453,#504,#583,.F.);
#446=EDGE_CURVE('',#498,#490,#584,.F.);
#447=EDGE_CURVE('',#489,#499,#585,.T.);
#448=EDGE_CURVE('',#491,#497,#586,.T.);
#449=EDGE_CURVE('',#495,#484,#587,.F.);
#450=EDGE_CURVE('',#485,#503,#588,.T.);
#451=EDGE_CURVE('',#502,#486,#589,.T.);
#452=VERTEX_POINT('',#1376);
#453=VERTEX_POINT('',#1377);
#454=VERTEX_POINT('',#1379);
#455=VERTEX_POINT('',#1381);
#456=VERTEX_POINT('',#1383);
#457=VERTEX_POINT('',#1385);
#458=VERTEX_POINT('',#1387);
#459=VERTEX_POINT('',#1389);
#460=VERTEX_POINT('',#1391);
#461=VERTEX_POINT('',#1393);
#462=VERTEX_POINT('',#1395);
#463=VERTEX_POINT('',#1397);
#464=VERTEX_POINT('',#1400);
#465=VERTEX_POINT('',#1402);
#466=VERTEX_POINT('',#1404);
#467=VERTEX_POINT('',#1406);
#468=VERTEX_POINT('',#1408);
#469=VERTEX_POINT('',#1410);
#470=VERTEX_POINT('',#1412);
#471=VERTEX_POINT('',#1414);
#472=VERTEX_POINT('',#1416);
#473=VERTEX_POINT('',#1419);
#474=VERTEX_POINT('',#1421);
#475=VERTEX_POINT('',#1423);
#476=VERTEX_POINT('',#1425);
#477=VERTEX_POINT('',#1427);
#478=VERTEX_POINT('',#1429);
#479=VERTEX_POINT('',#1431);
#480=VERTEX_POINT('',#1433);
#481=VERTEX_POINT('',#1435);
#482=VERTEX_POINT('',#1437);
#483=VERTEX_POINT('',#1438);
#484=VERTEX_POINT('',#1440);
#485=VERTEX_POINT('',#1442);
#486=VERTEX_POINT('',#1444);
#487=VERTEX_POINT('',#1446);
#488=VERTEX_POINT('',#1448);
#489=VERTEX_POINT('',#1450);
#490=VERTEX_POINT('',#1452);
#491=VERTEX_POINT('',#1454);
#492=VERTEX_POINT('',#1456);
#493=VERTEX_POINT('',#1458);
#494=VERTEX_POINT('',#1462);
#495=VERTEX_POINT('',#1463);
#496=VERTEX_POINT('',#1465);
#497=VERTEX_POINT('',#1467);
#498=VERTEX_POINT('',#1469);
#499=VERTEX_POINT('',#1471);
#500=VERTEX_POINT('',#1473);
#501=VERTEX_POINT('',#1475);
#502=VERTEX_POINT('',#1477);
#503=VERTEX_POINT('',#1479);
#504=VERTEX_POINT('',#1483);
#505=VERTEX_POINT('',#1484);
#506=VERTEX_POINT('',#1486);
#507=VERTEX_POINT('',#1488);
#508=VERTEX_POINT('',#1490);
#509=VERTEX_POINT('',#1492);
#510=VERTEX_POINT('',#1494);
#511=VERTEX_POINT('',#1496);
#512=VERTEX_POINT('',#1498);
#513=VERTEX_POINT('',#1500);
#514=VERTEX_POINT('',#1514);
#515=VERTEX_POINT('',#1516);
#516=VERTEX_POINT('',#1518);
#517=VERTEX_POINT('',#1520);
#518=VERTEX_POINT('',#1522);
#519=VERTEX_POINT('',#1524);
#520=VERTEX_POINT('',#1526);
#521=VERTEX_POINT('',#1528);
#522=VERTEX_POINT('',#1530);
#523=VERTEX_POINT('',#1532);
#524=VERTEX_POINT('',#1535);
#525=VERTEX_POINT('',#1537);
#526=VERTEX_POINT('',#1540);
#527=VERTEX_POINT('',#1542);
#528=VERTEX_POINT('',#1545);
#529=VERTEX_POINT('',#1547);
#530=VERTEX_POINT('',#1550);
#531=VERTEX_POINT('',#1552);
#532=VERTEX_POINT('',#1557);
#533=VERTEX_POINT('',#1559);
#534=VERTEX_POINT('',#1561);
#535=VERTEX_POINT('',#1563);
#536=VERTEX_POINT('',#1565);
#537=VERTEX_POINT('',#1567);
#538=VERTEX_POINT('',#1590);
#539=VERTEX_POINT('',#1594);
#540=VERTEX_POINT('',#1598);
#541=VERTEX_POINT('',#1602);
#542=LINE('',#1375,#590);
#543=LINE('',#1378,#591);
#544=LINE('',#1380,#592);
#545=LINE('',#1382,#593);
#546=LINE('',#1384,#594);
#547=LINE('',#1388,#595);
#548=LINE('',#1396,#596);
#549=LINE('',#1436,#597);
#550=LINE('',#1439,#598);
#551=LINE('',#1443,#599);
#552=LINE('',#1451,#600);
#553=LINE('',#1455,#601);
#554=LINE('',#1457,#602);
#555=LINE('',#1459,#603);
#556=LINE('',#1461,#604);
#557=LINE('',#1464,#605);
#558=LINE('',#1466,#606);
#559=LINE('',#1470,#607);
#560=LINE('',#1478,#608);
#561=LINE('',#1482,#609);
#562=LINE('',#1487,#610);
#563=LINE('',#1495,#611);
#564=LINE('',#1499,#612);
#565=LINE('',#1501,#613);
#566=LINE('',#1503,#614);
#567=LINE('',#1504,#615);
#568=LINE('',#1505,#616);
#569=LINE('',#1506,#617);
#570=LINE('',#1508,#618);
#571=LINE('',#1509,#619);
#572=LINE('',#1510,#620);
#573=LINE('',#1511,#621);
#574=LINE('',#1583,#622);
#575=LINE('',#1584,#623);
#576=LINE('',#1586,#624);
#577=LINE('',#1587,#625);
#578=LINE('',#1605,#626);
#579=LINE('',#1607,#627);
#580=LINE('',#1608,#628);
#581=LINE('',#1610,#629);
#582=LINE('',#1611,#630);
#583=LINE('',#1613,#631);
#584=LINE('',#1615,#632);
#585=LINE('',#1616,#633);
#586=LINE('',#1618,#634);
#587=LINE('',#1620,#635);
#588=LINE('',#1622,#636);
#589=LINE('',#1623,#637);
#590=VECTOR('',#1087,1.);
#591=VECTOR('',#1088,1.);
#592=VECTOR('',#1089,1.);
#593=VECTOR('',#1090,1.);
#594=VECTOR('',#1091,1.);
#595=VECTOR('',#1094,1.);
#596=VECTOR('',#1101,1.);
#597=VECTOR('',#1142,1.);
#598=VECTOR('',#1143,1.);
#599=VECTOR('',#1146,1.);
#600=VECTOR('',#1153,1.);
#601=VECTOR('',#1156,1.);
#602=VECTOR('',#1157,1.);
#603=VECTOR('',#1158,1.);
#604=VECTOR('',#1161,1.);
#605=VECTOR('',#1162,1.);
#606=VECTOR('',#1163,1.);
#607=VECTOR('',#1166,1.);
#608=VECTOR('',#1173,1.);
#609=VECTOR('',#1178,1.);
#610=VECTOR('',#1181,1.);
#611=VECTOR('',#1188,1.);
#612=VECTOR('',#1191,1.);
#613=VECTOR('',#1192,1.);
#614=VECTOR('',#1195,1.);
#615=VECTOR('',#1196,1.);
#616=VECTOR('',#1197,1.);
#617=VECTOR('',#1198,1.);
#618=VECTOR('',#1201,1.);
#619=VECTOR('',#1202,1.);
#620=VECTOR('',#1203,1.);
#621=VECTOR('',#1204,1.);
#622=VECTOR('',#1299,1.);
#623=VECTOR('',#1300,1.);
#624=VECTOR('',#1303,1.);
#625=VECTOR('',#1304,1.);
#626=VECTOR('',#1331,1.);
#627=VECTOR('',#1334,1.);
#628=VECTOR('',#1335,1.);
#629=VECTOR('',#1338,1.);
#630=VECTOR('',#1339,1.);
#631=VECTOR('',#1342,1.);
#632=VECTOR('',#1345,1.);
#633=VECTOR('',#1346,1.);
#634=VECTOR('',#1349,1.);
#635=VECTOR('',#1352,1.);
#636=VECTOR('',#1355,1.);
#637=VECTOR('',#1356,1.);
#638=EDGE_LOOP('',(#110,#111,#112,#113,#114,#115,#116,#117,#118,#119,#120,
#121));
#639=EDGE_LOOP('',(#122));
#640=EDGE_LOOP('',(#123));
#641=EDGE_LOOP('',(#124));
#642=EDGE_LOOP('',(#125));
#643=EDGE_LOOP('',(#126));
#644=EDGE_LOOP('',(#127));
#645=EDGE_LOOP('',(#128));
#646=EDGE_LOOP('',(#129));
#647=EDGE_LOOP('',(#130));
#648=EDGE_LOOP('',(#131));
#649=EDGE_LOOP('',(#132));
#650=EDGE_LOOP('',(#133));
#651=EDGE_LOOP('',(#134));
#652=EDGE_LOOP('',(#135));
#653=EDGE_LOOP('',(#136));
#654=EDGE_LOOP('',(#137));
#655=EDGE_LOOP('',(#138));
#656=EDGE_LOOP('',(#139));
#657=EDGE_LOOP('',(#140,#141,#142,#143,#144,#145,#146,#147,#148,#149,#150,
#151));
#658=EDGE_LOOP('',(#152,#153,#154,#155,#156,#157,#158,#159,#160,#161));
#659=EDGE_LOOP('',(#162,#163,#164,#165,#166,#167,#168,#169,#170,#171));
#660=EDGE_LOOP('',(#172,#173,#174,#175,#176,#177));
#661=EDGE_LOOP('',(#178,#179,#180,#181,#182,#183));
#662=EDGE_LOOP('',(#184));
#663=EDGE_LOOP('',(#185));
#664=EDGE_LOOP('',(#186));
#665=EDGE_LOOP('',(#187));
#666=EDGE_LOOP('',(#188));
#667=EDGE_LOOP('',(#189));
#668=EDGE_LOOP('',(#190));
#669=EDGE_LOOP('',(#191));
#670=EDGE_LOOP('',(#192));
#671=EDGE_LOOP('',(#193));
#672=EDGE_LOOP('',(#194));
#673=EDGE_LOOP('',(#195));
#674=EDGE_LOOP('',(#196));
#675=EDGE_LOOP('',(#197));
#676=EDGE_LOOP('',(#198));
#677=EDGE_LOOP('',(#199));
#678=EDGE_LOOP('',(#200));
#679=EDGE_LOOP('',(#201));
#680=EDGE_LOOP('',(#202,#203,#204,#205));
#681=EDGE_LOOP('',(#206,#207,#208,#209));
#682=EDGE_LOOP('',(#210));
#683=EDGE_LOOP('',(#211));
#684=EDGE_LOOP('',(#212));
#685=EDGE_LOOP('',(#213));
#686=EDGE_LOOP('',(#214));
#687=EDGE_LOOP('',(#215));
#688=EDGE_LOOP('',(#216));
#689=EDGE_LOOP('',(#217));
#690=EDGE_LOOP('',(#218));
#691=EDGE_LOOP('',(#219));
#692=EDGE_LOOP('',(#220));
#693=EDGE_LOOP('',(#221));
#694=EDGE_LOOP('',(#222));
#695=EDGE_LOOP('',(#223));
#696=EDGE_LOOP('',(#224));
#697=EDGE_LOOP('',(#225));
#698=EDGE_LOOP('',(#226));
#699=EDGE_LOOP('',(#227));
#700=EDGE_LOOP('',(#228));
#701=EDGE_LOOP('',(#229));
#702=EDGE_LOOP('',(#230));
#703=EDGE_LOOP('',(#231));
#704=EDGE_LOOP('',(#232));
#705=EDGE_LOOP('',(#233));
#706=EDGE_LOOP('',(#234));
#707=EDGE_LOOP('',(#235));
#708=EDGE_LOOP('',(#236));
#709=EDGE_LOOP('',(#237));
#710=EDGE_LOOP('',(#238));
#711=EDGE_LOOP('',(#239));
#712=EDGE_LOOP('',(#240));
#713=EDGE_LOOP('',(#241));
#714=EDGE_LOOP('',(#242));
#715=EDGE_LOOP('',(#243));
#716=EDGE_LOOP('',(#244));
#717=EDGE_LOOP('',(#245));
#718=EDGE_LOOP('',(#246));
#719=EDGE_LOOP('',(#247));
#720=EDGE_LOOP('',(#248,#249,#250,#251));
#721=EDGE_LOOP('',(#252));
#722=EDGE_LOOP('',(#253,#254,#255,#256));
#723=EDGE_LOOP('',(#257));
#724=EDGE_LOOP('',(#258));
#725=EDGE_LOOP('',(#259));
#726=EDGE_LOOP('',(#260));
#727=EDGE_LOOP('',(#261));
#728=EDGE_LOOP('',(#262));
#729=EDGE_LOOP('',(#263));
#730=EDGE_LOOP('',(#264));
#731=EDGE_LOOP('',(#265));
#732=EDGE_LOOP('',(#266));
#733=EDGE_LOOP('',(#267));
#734=EDGE_LOOP('',(#268));
#735=EDGE_LOOP('',(#269));
#736=EDGE_LOOP('',(#270));
#737=EDGE_LOOP('',(#271));
#738=EDGE_LOOP('',(#272));
#739=EDGE_LOOP('',(#273));
#740=EDGE_LOOP('',(#274,#275,#276,#277));
#741=EDGE_LOOP('',(#278,#279,#280,#281));
#742=EDGE_LOOP('',(#282,#283,#284,#285));
#743=EDGE_LOOP('',(#286,#287,#288,#289));
#744=EDGE_LOOP('',(#290,#291,#292,#293));
#745=EDGE_LOOP('',(#294,#295,#296,#297));
#746=EDGE_LOOP('',(#298,#299,#300,#301));
#747=EDGE_LOOP('',(#302,#303,#304,#305));
#748=EDGE_LOOP('',(#306,#307,#308,#309));
#749=EDGE_LOOP('',(#310,#311,#312,#313));
#750=EDGE_LOOP('',(#314,#315,#316,#317));
#751=EDGE_LOOP('',(#318,#319,#320,#321));
#752=EDGE_LOOP('',(#322,#323,#324,#325));
#753=EDGE_LOOP('',(#326,#327,#328,#329));
#754=EDGE_LOOP('',(#330,#331,#332,#333));
#755=EDGE_LOOP('',(#334,#335,#336,#337));
#756=FACE_BOUND('',#638,.T.);
#757=FACE_BOUND('',#639,.T.);
#758=FACE_BOUND('',#640,.T.);
#759=FACE_BOUND('',#641,.T.);
#760=FACE_BOUND('',#642,.T.);
#761=FACE_BOUND('',#643,.T.);
#762=FACE_BOUND('',#644,.T.);
#763=FACE_BOUND('',#645,.T.);
#764=FACE_BOUND('',#646,.T.);
#765=FACE_BOUND('',#647,.T.);
#766=FACE_BOUND('',#648,.T.);
#767=FACE_BOUND('',#649,.T.);
#768=FACE_BOUND('',#650,.T.);
#769=FACE_BOUND('',#651,.T.);
#770=FACE_BOUND('',#652,.T.);
#771=FACE_BOUND('',#653,.T.);
#772=FACE_BOUND('',#654,.T.);
#773=FACE_BOUND('',#655,.T.);
#774=FACE_BOUND('',#656,.T.);
#775=FACE_BOUND('',#657,.T.);
#776=FACE_BOUND('',#658,.T.);
#777=FACE_BOUND('',#659,.T.);
#778=FACE_BOUND('',#660,.T.);
#779=FACE_BOUND('',#661,.T.);
#780=FACE_BOUND('',#662,.T.);
#781=FACE_BOUND('',#663,.T.);
#782=FACE_BOUND('',#664,.T.);
#783=FACE_BOUND('',#665,.T.);
#784=FACE_BOUND('',#666,.T.);
#785=FACE_BOUND('',#667,.T.);
#786=FACE_BOUND('',#668,.T.);
#787=FACE_BOUND('',#669,.T.);
#788=FACE_BOUND('',#670,.T.);
#789=FACE_BOUND('',#671,.T.);
#790=FACE_BOUND('',#672,.T.);
#791=FACE_BOUND('',#673,.T.);
#792=FACE_BOUND('',#674,.T.);
#793=FACE_BOUND('',#675,.T.);
#794=FACE_BOUND('',#676,.T.);
#795=FACE_BOUND('',#677,.T.);
#796=FACE_BOUND('',#678,.T.);
#797=FACE_BOUND('',#679,.T.);
#798=FACE_BOUND('',#680,.T.);
#799=FACE_BOUND('',#681,.T.);
#800=FACE_BOUND('',#682,.T.);
#801=FACE_BOUND('',#683,.T.);
#802=FACE_BOUND('',#684,.T.);
#803=FACE_BOUND('',#685,.T.);
#804=FACE_BOUND('',#686,.T.);
#805=FACE_BOUND('',#687,.T.);
#806=FACE_BOUND('',#688,.T.);
#807=FACE_BOUND('',#689,.T.);
#808=FACE_BOUND('',#690,.T.);
#809=FACE_BOUND('',#691,.T.);
#810=FACE_BOUND('',#692,.T.);
#811=FACE_BOUND('',#693,.T.);
#812=FACE_BOUND('',#694,.T.);
#813=FACE_BOUND('',#695,.T.);
#814=FACE_BOUND('',#696,.T.);
#815=FACE_BOUND('',#697,.T.);
#816=FACE_BOUND('',#698,.T.);
#817=FACE_BOUND('',#699,.T.);
#818=FACE_BOUND('',#700,.T.);
#819=FACE_BOUND('',#701,.T.);
#820=FACE_BOUND('',#702,.T.);
#821=FACE_BOUND('',#703,.T.);
#822=FACE_BOUND('',#704,.T.);
#823=FACE_BOUND('',#705,.T.);
#824=FACE_BOUND('',#706,.T.);
#825=FACE_BOUND('',#707,.T.);
#826=FACE_BOUND('',#708,.T.);
#827=FACE_BOUND('',#709,.T.);
#828=FACE_BOUND('',#710,.T.);
#829=FACE_BOUND('',#711,.T.);
#830=FACE_BOUND('',#712,.T.);
#831=FACE_BOUND('',#713,.T.);
#832=FACE_BOUND('',#714,.T.);
#833=FACE_BOUND('',#715,.T.);
#834=FACE_BOUND('',#716,.T.);
#835=FACE_BOUND('',#717,.T.);
#836=FACE_BOUND('',#718,.T.);
#837=FACE_BOUND('',#719,.T.);
#838=FACE_BOUND('',#720,.T.);
#839=FACE_BOUND('',#721,.T.);
#840=FACE_BOUND('',#722,.T.);
#841=FACE_BOUND('',#723,.T.);
#842=FACE_BOUND('',#724,.T.);
#843=FACE_BOUND('',#725,.T.);
#844=FACE_BOUND('',#726,.T.);
#845=FACE_BOUND('',#727,.T.);
#846=FACE_BOUND('',#728,.T.);
#847=FACE_BOUND('',#729,.T.);
#848=FACE_BOUND('',#730,.T.);
#849=FACE_BOUND('',#731,.T.);
#850=FACE_BOUND('',#732,.T.);
#851=FACE_BOUND('',#733,.T.);
#852=FACE_BOUND('',#734,.T.);
#853=FACE_BOUND('',#735,.T.);
#854=FACE_BOUND('',#736,.T.);
#855=FACE_BOUND('',#737,.T.);
#856=FACE_BOUND('',#738,.T.);
#857=FACE_BOUND('',#739,.T.);
#858=FACE_BOUND('',#740,.T.);
#859=FACE_BOUND('',#741,.T.);
#860=FACE_BOUND('',#742,.T.);
#861=FACE_BOUND('',#743,.T.);
#862=FACE_BOUND('',#744,.T.);
#863=FACE_BOUND('',#745,.T.);
#864=FACE_BOUND('',#746,.T.);
#865=FACE_BOUND('',#747,.T.);
#866=FACE_BOUND('',#748,.T.);
#867=FACE_BOUND('',#749,.T.);
#868=FACE_BOUND('',#750,.T.);
#869=FACE_BOUND('',#751,.T.);
#870=FACE_BOUND('',#752,.T.);
#871=FACE_BOUND('',#753,.T.);
#872=FACE_BOUND('',#754,.T.);
#873=FACE_BOUND('',#755,.T.);
#874=PLANE('',#963);
#875=PLANE('',#978);
#876=PLANE('',#993);
#877=PLANE('',#999);
#878=PLANE('',#1005);
#879=PLANE('',#1006);
#880=PLANE('',#1007);
#881=PLANE('',#1030);
#882=PLANE('',#1031);
#883=PLANE('',#1032);
#884=PLANE('',#1057);
#885=PLANE('',#1060);
#886=PLANE('',#1063);
#887=PLANE('',#1066);
#888=PLANE('',#1067);
#889=PLANE('',#1068);
#890=PLANE('',#1069);
#891=PLANE('',#1070);
#892=PLANE('',#1071);
#893=PLANE('',#1072);
#894=PLANE('',#1073);
#895=PLANE('',#1074);
#896=ADVANCED_FACE('',(#756,#757,#758,#759,#760,#761,#762,#763,#764,#765),
#874,.T.);
#897=ADVANCED_FACE('',(#766,#767,#768,#769,#770,#771,#772,#773,#774,#775),
#875,.F.);
#898=ADVANCED_FACE('',(#776),#876,.T.);
#899=ADVANCED_FACE('',(#777),#877,.T.);
#900=ADVANCED_FACE('',(#778),#878,.T.);
#901=ADVANCED_FACE('',(#779),#879,.F.);
#902=ADVANCED_FACE('',(#780,#781,#782,#783,#784,#785,#786,#787,#788,#789),
#880,.T.);
#903=ADVANCED_FACE('',(#790,#791),#12,.F.);
#904=ADVANCED_FACE('',(#792,#793),#13,.F.);
#905=ADVANCED_FACE('',(#794,#795),#14,.F.);
#906=ADVANCED_FACE('',(#796,#797),#15,.F.);
#907=ADVANCED_FACE('',(#798),#881,.F.);
#908=ADVANCED_FACE('',(#799),#882,.T.);
#909=ADVANCED_FACE('',(#800,#801,#802,#803,#804,#805,#806,#807,#808,#809),
#883,.F.);
#910=ADVANCED_FACE('',(#810,#811),#16,.F.);
#911=ADVANCED_FACE('',(#812,#813),#17,.F.);
#912=ADVANCED_FACE('',(#814,#815),#18,.F.);
#913=ADVANCED_FACE('',(#816,#817),#19,.F.);
#914=ADVANCED_FACE('',(#818,#819),#20,.F.);
#915=ADVANCED_FACE('',(#820,#821),#21,.F.);
#916=ADVANCED_FACE('',(#822,#823),#22,.F.);
#917=ADVANCED_FACE('',(#824,#825),#23,.F.);
#918=ADVANCED_FACE('',(#826,#827),#24,.F.);
#919=ADVANCED_FACE('',(#828,#829),#25,.F.);
#920=ADVANCED_FACE('',(#830,#831),#26,.F.);
#921=ADVANCED_FACE('',(#832,#833),#27,.F.);
#922=ADVANCED_FACE('',(#834,#835),#28,.F.);
#923=ADVANCED_FACE('',(#836,#837),#29,.F.);
#924=ADVANCED_FACE('',(#838,#839),#30,.T.);
#925=ADVANCED_FACE('',(#840,#841),#31,.T.);
#926=ADVANCED_FACE('',(#842,#843),#32,.F.);
#927=ADVANCED_FACE('',(#844,#845),#884,.T.);
#928=ADVANCED_FACE('',(#846,#847),#33,.F.);
#929=ADVANCED_FACE('',(#848,#849),#885,.T.);
#930=ADVANCED_FACE('',(#850,#851),#34,.F.);
#931=ADVANCED_FACE('',(#852,#853),#886,.T.);
#932=ADVANCED_FACE('',(#854,#855),#35,.F.);
#933=ADVANCED_FACE('',(#856,#857),#887,.T.);
#934=ADVANCED_FACE('',(#858),#888,.T.);
#935=ADVANCED_FACE('',(#859),#889,.T.);
#936=ADVANCED_FACE('',(#860),#890,.F.);
#937=ADVANCED_FACE('',(#861),#891,.F.);
#938=ADVANCED_FACE('',(#862),#892,.T.);
#939=ADVANCED_FACE('',(#863),#893,.T.);
#940=ADVANCED_FACE('',(#864),#894,.F.);
#941=ADVANCED_FACE('',(#865),#895,.F.);
#942=ADVANCED_FACE('',(#866),#36,.F.);
#943=ADVANCED_FACE('',(#867),#37,.F.);
#944=ADVANCED_FACE('',(#868),#38,.F.);
#945=ADVANCED_FACE('',(#869),#39,.F.);
#946=ADVANCED_FACE('',(#870),#40,.F.);
#947=ADVANCED_FACE('',(#871),#41,.F.);
#948=ADVANCED_FACE('',(#872),#42,.F.);
#949=ADVANCED_FACE('',(#873),#43,.F.);
#950=CLOSED_SHELL('',(#896,#897,#898,#899,#900,#901,#902,#903,#904,#905,
#906,#907,#908,#909,#910,#911,#912,#913,#914,#915,#916,#917,#918,#919,#920,
#921,#922,#923,#924,#925,#926,#927,#928,#929,#930,#931,#932,#933,#934,#935,
#936,#937,#938,#939,#940,#941,#942,#943,#944,#945,#946,#947,#948,#949));
#951=STYLED_ITEM('',(#952),#959);
#952=PRESENTATION_STYLE_ASSIGNMENT((#953));
#953=SURFACE_STYLE_USAGE(.BOTH.,#954);
#954=SURFACE_SIDE_STYLE('',(#955));
#955=SURFACE_STYLE_FILL_AREA(#956);
#956=FILL_AREA_STYLE('',(#957));
#957=FILL_AREA_STYLE_COLOUR('',#958);
#958=COLOUR_RGB('',0.615686274509804,0.811764705882353,0.929411764705882);
#959=MANIFOLD_SOLID_BREP('Part 1',#950);
#960=SHAPE_DEFINITION_REPRESENTATION(#1638,#961);
#961=SHAPE_REPRESENTATION('Part 1',(#962),#1633);
#962=AXIS2_PLACEMENT_3D('',#1373,#1083,#1084);
#963=AXIS2_PLACEMENT_3D('',#1374,#1085,#1086);
#964=AXIS2_PLACEMENT_3D('',#1386,#1092,#1093);
#965=AXIS2_PLACEMENT_3D('',#1390,#1095,#1096);
#966=AXIS2_PLACEMENT_3D('',#1392,#1097,#1098);
#967=AXIS2_PLACEMENT_3D('',#1394,#1099,#1100);
#968=AXIS2_PLACEMENT_3D('',#1398,#1102,#1103);
#969=AXIS2_PLACEMENT_3D('',#1399,#1104,#1105);
#970=AXIS2_PLACEMENT_3D('',#1401,#1106,#1107);
#971=AXIS2_PLACEMENT_3D('',#1403,#1108,#1109);
#972=AXIS2_PLACEMENT_3D('',#1405,#1110,#1111);
#973=AXIS2_PLACEMENT_3D('',#1407,#1112,#1113);
#974=AXIS2_PLACEMENT_3D('',#1409,#1114,#1115);
#975=AXIS2_PLACEMENT_3D('',#1411,#1116,#1117);
#976=AXIS2_PLACEMENT_3D('',#1413,#1118,#1119);
#977=AXIS2_PLACEMENT_3D('',#1415,#1120,#1121);
#978=AXIS2_PLACEMENT_3D('',#1417,#1122,#1123);
#979=AXIS2_PLACEMENT_3D('',#1418,#1124,#1125);
#980=AXIS2_PLACEMENT_3D('',#1420,#1126,#1127);
#981=AXIS2_PLACEMENT_3D('',#1422,#1128,#1129);
#982=AXIS2_PLACEMENT_3D('',#1424,#1130,#1131);
#983=AXIS2_PLACEMENT_3D('',#1426,#1132,#1133);
#984=AXIS2_PLACEMENT_3D('',#1428,#1134,#1135);
#985=AXIS2_PLACEMENT_3D('',#1430,#1136,#1137);
#986=AXIS2_PLACEMENT_3D('',#1432,#1138,#1139);
#987=AXIS2_PLACEMENT_3D('',#1434,#1140,#1141);
#988=AXIS2_PLACEMENT_3D('',#1441,#1144,#1145);
#989=AXIS2_PLACEMENT_3D('',#1445,#1147,#1148);
#990=AXIS2_PLACEMENT_3D('',#1447,#1149,#1150);
#991=AXIS2_PLACEMENT_3D('',#1449,#1151,#1152);
#992=AXIS2_PLACEMENT_3D('',#1453,#1154,#1155);
#993=AXIS2_PLACEMENT_3D('',#1460,#1159,#1160);
#994=AXIS2_PLACEMENT_3D('',#1468,#1164,#1165);
#995=AXIS2_PLACEMENT_3D('',#1472,#1167,#1168);
#996=AXIS2_PLACEMENT_3D('',#1474,#1169,#1170);
#997=AXIS2_PLACEMENT_3D('',#1476,#1171,#1172);
#998=AXIS2_PLACEMENT_3D('',#1480,#1174,#1175);
#999=AXIS2_PLACEMENT_3D('',#1481,#1176,#1177);
#1000=AXIS2_PLACEMENT_3D('',#1485,#1179,#1180);
#1001=AXIS2_PLACEMENT_3D('',#1489,#1182,#1183);
#1002=AXIS2_PLACEMENT_3D('',#1491,#1184,#1185);
#1003=AXIS2_PLACEMENT_3D('',#1493,#1186,#1187);
#1004=AXIS2_PLACEMENT_3D('',#1497,#1189,#1190);
#1005=AXIS2_PLACEMENT_3D('',#1502,#1193,#1194);
#1006=AXIS2_PLACEMENT_3D('',#1507,#1199,#1200);
#1007=AXIS2_PLACEMENT_3D('',#1512,#1205,#1206);
#1008=AXIS2_PLACEMENT_3D('',#1513,#1207,#1208);
#1009=AXIS2_PLACEMENT_3D('',#1515,#1209,#1210);
#1010=AXIS2_PLACEMENT_3D('',#1517,#1211,#1212);
#1011=AXIS2_PLACEMENT_3D('',#1519,#1213,#1214);
#1012=AXIS2_PLACEMENT_3D('',#1521,#1215,#1216);
#1013=AXIS2_PLACEMENT_3D('',#1523,#1217,#1218);
#1014=AXIS2_PLACEMENT_3D('',#1525,#1219,#1220);
#1015=AXIS2_PLACEMENT_3D('',#1527,#1221,#1222);
#1016=AXIS2_PLACEMENT_3D('',#1529,#1223,#1224);
#1017=AXIS2_PLACEMENT_3D('',#1531,#1225,#1226);
#1018=AXIS2_PLACEMENT_3D('',#1533,#1227,#1228);
#1019=AXIS2_PLACEMENT_3D('',#1534,#1229,#1230);
#1020=AXIS2_PLACEMENT_3D('',#1536,#1231,#1232);
#1021=AXIS2_PLACEMENT_3D('',#1538,#1233,#1234);
#1022=AXIS2_PLACEMENT_3D('',#1539,#1235,#1236);
#1023=AXIS2_PLACEMENT_3D('',#1541,#1237,#1238);
#1024=AXIS2_PLACEMENT_3D('',#1543,#1239,#1240);
#1025=AXIS2_PLACEMENT_3D('',#1544,#1241,#1242);
#1026=AXIS2_PLACEMENT_3D('',#1546,#1243,#1244);
#1027=AXIS2_PLACEMENT_3D('',#1548,#1245,#1246);
#1028=AXIS2_PLACEMENT_3D('',#1549,#1247,#1248);
#1029=AXIS2_PLACEMENT_3D('',#1551,#1249,#1250);
#1030=AXIS2_PLACEMENT_3D('',#1553,#1251,#1252);
#1031=AXIS2_PLACEMENT_3D('',#1554,#1253,#1254);
#1032=AXIS2_PLACEMENT_3D('',#1555,#1255,#1256);
#1033=AXIS2_PLACEMENT_3D('',#1556,#1257,#1258);
#1034=AXIS2_PLACEMENT_3D('',#1558,#1259,#1260);
#1035=AXIS2_PLACEMENT_3D('',#1560,#1261,#1262);
#1036=AXIS2_PLACEMENT_3D('',#1562,#1263,#1264);
#1037=AXIS2_PLACEMENT_3D('',#1564,#1265,#1266);
#1038=AXIS2_PLACEMENT_3D('',#1566,#1267,#1268);
#1039=AXIS2_PLACEMENT_3D('',#1568,#1269,#1270);
#1040=AXIS2_PLACEMENT_3D('',#1569,#1271,#1272);
#1041=AXIS2_PLACEMENT_3D('',#1570,#1273,#1274);
#1042=AXIS2_PLACEMENT_3D('',#1571,#1275,#1276);
#1043=AXIS2_PLACEMENT_3D('',#1572,#1277,#1278);
#1044=AXIS2_PLACEMENT_3D('',#1573,#1279,#1280);
#1045=AXIS2_PLACEMENT_3D('',#1574,#1281,#1282);
#1046=AXIS2_PLACEMENT_3D('',#1575,#1283,#1284);
#1047=AXIS2_PLACEMENT_3D('',#1576,#1285,#1286);
#1048=AXIS2_PLACEMENT_3D('',#1577,#1287,#1288);
#1049=AXIS2_PLACEMENT_3D('',#1578,#1289,#1290);
#1050=AXIS2_PLACEMENT_3D('',#1579,#1291,#1292);
#1051=AXIS2_PLACEMENT_3D('',#1580,#1293,#1294);
#1052=AXIS2_PLACEMENT_3D('',#1581,#1295,#1296);
#1053=AXIS2_PLACEMENT_3D('',#1582,#1297,#1298);
#1054=AXIS2_PLACEMENT_3D('',#1585,#1301,#1302);
#1055=AXIS2_PLACEMENT_3D('',#1588,#1305,#1306);
#1056=AXIS2_PLACEMENT_3D('',#1589,#1307,#1308);
#1057=AXIS2_PLACEMENT_3D('',#1591,#1309,#1310);
#1058=AXIS2_PLACEMENT_3D('',#1592,#1311,#1312);
#1059=AXIS2_PLACEMENT_3D('',#1593,#1313,#1314);
#1060=AXIS2_PLACEMENT_3D('',#1595,#1315,#1316);
#1061=AXIS2_PLACEMENT_3D('',#1596,#1317,#1318);
#1062=AXIS2_PLACEMENT_3D('',#1597,#1319,#1320);
#1063=AXIS2_PLACEMENT_3D('',#1599,#1321,#1322);
#1064=AXIS2_PLACEMENT_3D('',#1600,#1323,#1324);
#1065=AXIS2_PLACEMENT_3D('',#1601,#1325,#1326);
#1066=AXIS2_PLACEMENT_3D('',#1603,#1327,#1328);
#1067=AXIS2_PLACEMENT_3D('',#1604,#1329,#1330);
#1068=AXIS2_PLACEMENT_3D('',#1606,#1332,#1333);
#1069=AXIS2_PLACEMENT_3D('',#1609,#1336,#1337);
#1070=AXIS2_PLACEMENT_3D('',#1612,#1340,#1341);
#1071=AXIS2_PLACEMENT_3D('',#1614,#1343,#1344);
#1072=AXIS2_PLACEMENT_3D('',#1617,#1347,#1348);
#1073=AXIS2_PLACEMENT_3D('',#1619,#1350,#1351);
#1074=AXIS2_PLACEMENT_3D('',#1621,#1353,#1354);
#1075=AXIS2_PLACEMENT_3D('',#1624,#1357,#1358);
#1076=AXIS2_PLACEMENT_3D('',#1625,#1359,#1360);
#1077=AXIS2_PLACEMENT_3D('',#1626,#1361,#1362);
#1078=AXIS2_PLACEMENT_3D('',#1627,#1363,#1364);
#1079=AXIS2_PLACEMENT_3D('',#1628,#1365,#1366);
#1080=AXIS2_PLACEMENT_3D('',#1629,#1367,#1368);
#1081=AXIS2_PLACEMENT_3D('',#1630,#1369,#1370);
#1082=AXIS2_PLACEMENT_3D('',#1631,#1371,#1372);
#1083=DIRECTION('',(0.,0.,1.));
#1084=DIRECTION('',(1.,0.,0.));
#1085=DIRECTION('',(0.,1.,0.));
#1086=DIRECTION('',(0.,0.,1.));
#1087=DIRECTION('',(-0.399652626942729,0.,-0.916666666666666));
#1088=DIRECTION('',(1.,0.,0.));
#1089=DIRECTION('',(0.,0.,-1.));
#1090=DIRECTION('',(1.,0.,0.));
#1091=DIRECTION('',(-0.399652626942727,0.,0.916666666666666));
#1092=DIRECTION('',(0.,1.,0.));
#1093=DIRECTION('',(0.,0.,1.));
#1094=DIRECTION('',(-1.,0.,2.2843054017753E-16));
#1095=DIRECTION('',(0.,1.,0.));
#1096=DIRECTION('',(0.,0.,1.));
#1097=DIRECTION('',(0.,1.,0.));
#1098=DIRECTION('',(0.,0.,1.));
#1099=DIRECTION('',(0.,1.,0.));
#1100=DIRECTION('',(0.,0.,1.));
#1101=DIRECTION('',(-1.,0.,0.));
#1102=DIRECTION('',(0.,1.,0.));
#1103=DIRECTION('',(0.,0.,1.));
#1104=DIRECTION('',(0.,1.,0.));
#1105=DIRECTION('',(0.,0.,1.));
#1106=DIRECTION('',(0.,1.,0.));
#1107=DIRECTION('',(0.,0.,1.));
#1108=DIRECTION('',(0.,1.,0.));
#1109=DIRECTION('',(0.,0.,1.));
#1110=DIRECTION('',(0.,1.,0.));
#1111=DIRECTION('',(0.,0.,1.));
#1112=DIRECTION('',(0.,1.,0.));
#1113=DIRECTION('',(0.,0.,1.));
#1114=DIRECTION('',(0.,1.,0.));
#1115=DIRECTION('',(0.,0.,1.));
#1116=DIRECTION('',(0.,1.,0.));
#1117=DIRECTION('',(0.,0.,1.));
#1118=DIRECTION('',(0.,1.,0.));
#1119=DIRECTION('',(0.,0.,1.));
#1120=DIRECTION('',(0.,1.,0.));
#1121=DIRECTION('',(0.,0.,1.));
#1122=DIRECTION('',(0.,1.,0.));
#1123=DIRECTION('',(0.,0.,1.));
#1124=DIRECTION('',(0.,-1.,0.));
#1125=DIRECTION('',(0.,0.,-1.));
#1126=DIRECTION('',(0.,-1.,0.));
#1127=DIRECTION('',(0.,0.,-1.));
#1128=DIRECTION('',(0.,-1.,0.));
#1129=DIRECTION('',(0.,0.,-1.));
#1130=DIRECTION('',(0.,-1.,0.));
#1131=DIRECTION('',(0.,0.,-1.));
#1132=DIRECTION('',(0.,-1.,0.));
#1133=DIRECTION('',(0.,0.,-1.));
#1134=DIRECTION('',(0.,-1.,0.));
#1135=DIRECTION('',(0.,0.,-1.));
#1136=DIRECTION('',(0.,-1.,0.));
#1137=DIRECTION('',(0.,0.,-1.));
#1138=DIRECTION('',(0.,-1.,0.));
#1139=DIRECTION('',(0.,0.,-1.));
#1140=DIRECTION('',(0.,-1.,0.));
#1141=DIRECTION('',(0.,0.,-1.));
#1142=DIRECTION('',(1.,0.,0.));
#1143=DIRECTION('',(-0.399652626942729,0.,-0.916666666666666));
#1144=DIRECTION('',(0.,1.,0.));
#1145=DIRECTION('',(0.,0.,1.));
#1146=DIRECTION('',(-1.,0.,0.));
#1147=DIRECTION('',(0.,1.,0.));
#1148=DIRECTION('',(0.,0.,1.));
#1149=DIRECTION('',(0.,1.,0.));
#1150=DIRECTION('',(0.,0.,1.));
#1151=DIRECTION('',(0.,1.,0.));
#1152=DIRECTION('',(0.,0.,1.));
#1153=DIRECTION('',(-1.,0.,2.2843054017753E-16));
#1154=DIRECTION('',(0.,1.,0.));
#1155=DIRECTION('',(0.,0.,1.));
#1156=DIRECTION('',(-0.399652626942727,0.,0.916666666666667));
#1157=DIRECTION('',(1.,0.,0.));
#1158=DIRECTION('',(0.,0.,-1.));
#1159=DIRECTION('',(1.83480367651393E-16,1.,-3.65204942310907E-16));
#1160=DIRECTION('',(-1.,1.83480367651393E-16,-6.7007937083311E-32));
#1161=DIRECTION('',(-0.399652626942729,-2.61442786194034E-16,-0.916666666666666));
#1162=DIRECTION('',(-6.7007937083311E-32,-3.65204942310907E-16,-1.));
#1163=DIRECTION('',(-0.399652626942727,4.08099608042628E-16,0.916666666666667));
#1164=DIRECTION('',(1.83480367651393E-16,1.,-3.65204942310907E-16));
#1165=DIRECTION('',(0.,3.65204942310907E-16,1.));
#1166=DIRECTION('',(-1.,1.83480367651393E-16,2.2843054017753E-16));
#1167=DIRECTION('',(1.83480367651393E-16,1.,-3.65204942310907E-16));
#1168=DIRECTION('',(0.,3.65204942310907E-16,1.));
#1169=DIRECTION('',(1.83480367651393E-16,1.,-3.65204942310907E-16));
#1170=DIRECTION('',(0.,3.65204942310907E-16,1.));
#1171=DIRECTION('',(1.83480367651393E-16,1.,-3.65204942310907E-16));
#1172=DIRECTION('',(0.,3.65204942310907E-16,1.));
#1173=DIRECTION('',(-1.,1.83480367651393E-16,0.));
#1174=DIRECTION('',(1.83480367651393E-16,1.,-3.65204942310907E-16));
#1175=DIRECTION('',(0.,3.65204942310907E-16,1.));
#1176=DIRECTION('',(-1.83480367651393E-16,-1.,0.));
#1177=DIRECTION('',(1.,-1.83480367651393E-16,0.));
#1178=DIRECTION('',(0.399652626942729,-7.33284109242969E-17,0.916666666666666));
#1179=DIRECTION('',(-1.83480367651393E-16,-1.,0.));
#1180=DIRECTION('',(1.,-1.83480367651393E-16,0.));
#1181=DIRECTION('',(1.,-1.83480367651393E-16,0.));
#1182=DIRECTION('',(-1.83480367651393E-16,-1.,0.));
#1183=DIRECTION('',(1.,-1.83480367651393E-16,0.));
#1184=DIRECTION('',(-1.83480367651393E-16,-1.,0.));
#1185=DIRECTION('',(1.,-1.83480367651393E-16,0.));
#1186=DIRECTION('',(-1.83480367651393E-16,-1.,0.));
#1187=DIRECTION('',(1.,-1.83480367651393E-16,0.));
#1188=DIRECTION('',(1.,-1.83480367651393E-16,-2.2843054017753E-16));
#1189=DIRECTION('',(-1.83480367651393E-16,-1.,0.));
#1190=DIRECTION('',(1.,-1.83480367651393E-16,0.));
#1191=DIRECTION('',(0.399652626942727,-7.33284109242966E-17,-0.916666666666667));
#1192=DIRECTION('',(0.,0.,-1.));
#1193=DIRECTION('',(0.,0.,1.));
#1194=DIRECTION('',(1.,0.,0.));
#1195=DIRECTION('',(0.,1.,0.));
#1196=DIRECTION('',(-1.83480367651393E-16,-1.,0.));
#1197=DIRECTION('',(0.,1.,0.));
#1198=DIRECTION('',(-1.83480367651393E-16,-1.,0.));
#1199=DIRECTION('',(0.,0.,1.));
#1200=DIRECTION('',(1.,0.,0.));
#1201=DIRECTION('',(0.,1.,0.));
#1202=DIRECTION('',(-1.83480367651393E-16,-1.,0.));
#1203=DIRECTION('',(0.,1.,0.));
#1204=DIRECTION('',(-1.83480367651393E-16,-1.,0.));
#1205=DIRECTION('',(-1.83480367651393E-16,-1.,0.));
#1206=DIRECTION('',(1.,-1.83480367651393E-16,0.));
#1207=DIRECTION('',(-1.83480367651393E-16,-1.,0.));
#1208=DIRECTION('',(1.,-1.83480367651393E-16,0.));
#1209=DIRECTION('',(-1.83480367651393E-16,-1.,0.));
#1210=DIRECTION('',(1.,-1.83480367651393E-16,0.));
#1211=DIRECTION('',(-1.83480367651393E-16,-1.,0.));
#1212=DIRECTION('',(1.,-1.83480367651393E-16,0.));
#1213=DIRECTION('',(-1.83480367651393E-16,-1.,0.));
#1214=DIRECTION('',(1.,-1.83480367651393E-16,0.));
#1215=DIRECTION('',(-1.83480367651393E-16,-1.,0.));
#1216=DIRECTION('',(1.,-1.83480367651393E-16,0.));
#1217=DIRECTION('',(-1.83480367651393E-16,-1.,0.));
#1218=DIRECTION('',(1.,-1.83480367651393E-16,0.));
#1219=DIRECTION('',(-1.83480367651393E-16,-1.,0.));
#1220=DIRECTION('',(1.,-1.83480367651393E-16,0.));
#1221=DIRECTION('',(-1.83480367651393E-16,-1.,0.));
#1222=DIRECTION('',(1.,-1.83480367651393E-16,0.));
#1223=DIRECTION('',(-1.83480367651393E-16,-1.,0.));
#1224=DIRECTION('',(1.,-1.83480367651393E-16,0.));
#1225=DIRECTION('',(-1.83480367651393E-16,-1.,0.));
#1226=DIRECTION('',(1.,-1.83480367651393E-16,0.));
#1227=DIRECTION('',(0.,-1.,0.));
#1228=DIRECTION('',(0.,0.,-1.));
#1229=DIRECTION('',(-1.83480367651393E-16,-1.,3.65204942310907E-16));
#1230=DIRECTION('',(0.,-3.65204942310907E-16,-1.));
#1231=DIRECTION('',(0.,-1.,0.));
#1232=DIRECTION('',(0.,0.,-1.));
#1233=DIRECTION('',(0.,-1.,0.));
#1234=DIRECTION('',(0.,0.,-1.));
#1235=DIRECTION('',(-1.83480367651393E-16,-1.,3.65204942310907E-16));
#1236=DIRECTION('',(0.,-3.65204942310907E-16,-1.));
#1237=DIRECTION('',(0.,-1.,0.));
#1238=DIRECTION('',(0.,0.,-1.));
#1239=DIRECTION('',(0.,-1.,0.));
#1240=DIRECTION('',(0.,0.,-1.));
#1241=DIRECTION('',(-1.83480367651393E-16,-1.,3.65204942310907E-16));
#1242=DIRECTION('',(0.,-3.65204942310907E-16,-1.));
#1243=DIRECTION('',(0.,-1.,0.));
#1244=DIRECTION('',(0.,0.,-1.));
#1245=DIRECTION('',(0.,-1.,0.));
#1246=DIRECTION('',(0.,0.,-1.));
#1247=DIRECTION('',(-1.83480367651393E-16,-1.,3.65204942310907E-16));
#1248=DIRECTION('',(0.,-3.65204942310907E-16,-1.));
#1249=DIRECTION('',(0.,-1.,0.));
#1250=DIRECTION('',(0.,0.,-1.));
#1251=DIRECTION('',(1.,-1.83480367651393E-16,0.));
#1252=DIRECTION('',(1.83480367651393E-16,1.,0.));
#1253=DIRECTION('',(1.,-1.83480367651393E-16,0.));
#1254=DIRECTION('',(1.83480367651393E-16,1.,0.));
#1255=DIRECTION('',(-1.83480367651393E-16,-1.,3.65204942310907E-16));
#1256=DIRECTION('',(0.,-3.65204942310907E-16,-1.));
#1257=DIRECTION('',(-1.83480367651393E-16,-1.,3.65204942310907E-16));
#1258=DIRECTION('',(0.,-3.65204942310907E-16,-1.));
#1259=DIRECTION('',(-1.83480367651393E-16,-1.,3.65204942310907E-16));
#1260=DIRECTION('',(0.,-3.65204942310907E-16,-1.));
#1261=DIRECTION('',(-1.83480367651393E-16,-1.,3.65204942310907E-16));
#1262=DIRECTION('',(0.,-3.65204942310907E-16,-1.));
#1263=DIRECTION('',(-1.83480367651393E-16,-1.,3.65204942310907E-16));
#1264=DIRECTION('',(0.,-3.65204942310907E-16,-1.));
#1265=DIRECTION('',(-1.83480367651393E-16,-1.,3.65204942310907E-16));
#1266=DIRECTION('',(0.,-3.65204942310907E-16,-1.));
#1267=DIRECTION('',(-1.83480367651393E-16,-1.,3.65204942310907E-16));
#1268=DIRECTION('',(0.,-3.65204942310907E-16,-1.));
#1269=DIRECTION('',(0.,-1.,0.));
#1270=DIRECTION('',(0.,0.,-1.));
#1271=DIRECTION('',(0.,-1.,0.));
#1272=DIRECTION('',(0.,0.,-1.));
#1273=DIRECTION('',(0.,-1.,0.));
#1274=DIRECTION('',(0.,0.,-1.));
#1275=DIRECTION('',(0.,-1.,0.));
#1276=DIRECTION('',(0.,0.,-1.));
#1277=DIRECTION('',(0.,-1.,0.));
#1278=DIRECTION('',(0.,0.,-1.));
#1279=DIRECTION('',(0.,-1.,0.));
#1280=DIRECTION('',(0.,0.,-1.));
#1281=DIRECTION('',(0.,-1.,0.));
#1282=DIRECTION('',(0.,0.,-1.));
#1283=DIRECTION('',(0.,-1.,0.));
#1284=DIRECTION('',(0.,0.,-1.));
#1285=DIRECTION('',(0.,-1.,0.));
#1286=DIRECTION('',(0.,0.,-1.));
#1287=DIRECTION('',(0.,-1.,0.));
#1288=DIRECTION('',(0.,0.,-1.));
#1289=DIRECTION('',(0.,-1.,0.));
#1290=DIRECTION('',(0.,0.,-1.));
#1291=DIRECTION('',(0.,-1.,0.));
#1292=DIRECTION('',(0.,0.,-1.));
#1293=DIRECTION('',(0.,-1.,0.));
#1294=DIRECTION('',(0.,0.,-1.));
#1295=DIRECTION('',(0.,-1.,0.));
#1296=DIRECTION('',(0.,0.,-1.));
#1297=DIRECTION('',(-1.83480367651393E-16,-1.,0.));
#1298=DIRECTION('',(1.,-1.83480367651393E-16,0.));
#1299=DIRECTION('',(-1.83480367651393E-16,-1.,0.));
#1300=DIRECTION('',(-1.83480367651393E-16,-1.,0.));
#1301=DIRECTION('',(-1.83480367651393E-16,-1.,0.));
#1302=DIRECTION('',(1.,-1.83480367651393E-16,0.));
#1303=DIRECTION('',(-1.83480367651393E-16,-1.,0.));
#1304=DIRECTION('',(-1.83480367651393E-16,-1.,0.));
#1305=DIRECTION('',(0.,-1.,0.));
#1306=DIRECTION('',(0.,0.,-1.));
#1307=DIRECTION('',(0.,-1.,0.));
#1308=DIRECTION('',(0.,0.,-1.));
#1309=DIRECTION('',(0.,-1.,0.));
#1310=DIRECTION('',(1.,0.,0.));
#1311=DIRECTION('',(0.,-1.,0.));
#1312=DIRECTION('',(0.,0.,-1.));
#1313=DIRECTION('',(0.,-1.,0.));
#1314=DIRECTION('',(0.,0.,-1.));
#1315=DIRECTION('',(0.,-1.,0.));
#1316=DIRECTION('',(1.,0.,0.));
#1317=DIRECTION('',(0.,-1.,0.));
#1318=DIRECTION('',(0.,0.,-1.));
#1319=DIRECTION('',(0.,-1.,0.));
#1320=DIRECTION('',(0.,0.,-1.));
#1321=DIRECTION('',(0.,-1.,0.));
#1322=DIRECTION('',(1.,0.,0.));
#1323=DIRECTION('',(0.,-1.,0.));
#1324=DIRECTION('',(0.,0.,-1.));
#1325=DIRECTION('',(0.,-1.,0.));
#1326=DIRECTION('',(0.,0.,-1.));
#1327=DIRECTION('',(0.,-1.,0.));
#1328=DIRECTION('',(1.,0.,0.));
#1329=DIRECTION('',(-0.916666666666667,0.,-0.399652626942727));
#1330=DIRECTION('',(-0.399652626942727,0.,0.916666666666667));
#1331=DIRECTION('',(0.,1.,0.));
#1332=DIRECTION('',(-2.2843054017753E-16,0.,-1.));
#1333=DIRECTION('',(-1.,0.,2.2843054017753E-16));
#1334=DIRECTION('',(0.,1.,0.));
#1335=DIRECTION('',(1.83480367651393E-16,1.,-4.19125194945796E-32));
#1336=DIRECTION('',(0.,0.,-1.));
#1337=DIRECTION('',(-1.,0.,0.));
#1338=DIRECTION('',(0.,1.,0.));
#1339=DIRECTION('',(-1.83480367651393E-16,-1.,0.));
#1340=DIRECTION('',(0.916666666666666,0.,-0.399652626942729));
#1341=DIRECTION('',(-0.399652626942729,0.,-0.916666666666666));
#1342=DIRECTION('',(0.,1.,0.));
#1343=DIRECTION('',(-2.2843054017753E-16,0.,-1.));
#1344=DIRECTION('',(-1.,0.,2.2843054017753E-16));
#1345=DIRECTION('',(0.,1.,0.));
#1346=DIRECTION('',(1.83480367651393E-16,1.,-4.19125194945796E-32));
#1347=DIRECTION('',(-0.916666666666667,0.,-0.399652626942727));
#1348=DIRECTION('',(-0.399652626942727,0.,0.916666666666667));
#1349=DIRECTION('',(0.,1.,0.));
#1350=DIRECTION('',(0.916666666666666,0.,-0.399652626942729));
#1351=DIRECTION('',(-0.399652626942729,0.,-0.916666666666666));
#1352=DIRECTION('',(0.,1.,0.));
#1353=DIRECTION('',(0.,0.,-1.));
#1354=DIRECTION('',(-1.,0.,0.));
#1355=DIRECTION('',(0.,1.,0.));
#1356=DIRECTION('',(-1.83480367651393E-16,-1.,0.));
#1357=DIRECTION('',(-1.83480367651393E-16,-1.,0.));
#1358=DIRECTION('',(1.,-1.83480367651393E-16,0.));
#1359=DIRECTION('',(-1.83480367651393E-16,-1.,0.));
#1360=DIRECTION('',(1.,-1.83480367651393E-16,0.));
#1361=DIRECTION('',(-1.83480367651393E-16,-1.,0.));
#1362=DIRECTION('',(1.,-1.83480367651393E-16,0.));
#1363=DIRECTION('',(-1.83480367651393E-16,-1.,0.));
#1364=DIRECTION('',(1.,-1.83480367651393E-16,0.));
#1365=DIRECTION('',(0.,-1.,0.));
#1366=DIRECTION('',(0.,0.,-1.));
#1367=DIRECTION('',(0.,-1.,0.));
#1368=DIRECTION('',(0.,0.,-1.));
#1369=DIRECTION('',(0.,-1.,0.));
#1370=DIRECTION('',(0.,0.,-1.));
#1371=DIRECTION('',(0.,-1.,0.));
#1372=DIRECTION('',(0.,0.,-1.));
#1373=CARTESIAN_POINT('',(0.,0.,0.));
#1374=CARTESIAN_POINT('',(1.99493199737333E-17,0.026,0.019));
#1375=CARTESIAN_POINT('',(-0.00269895788082816,0.026,0.01625));
#1376=CARTESIAN_POINT('',(-0.00149999999999998,0.026,0.019));
#1377=CARTESIAN_POINT('',(-0.00285094672287597,0.026,0.0159013894922291));
#1378=CARTESIAN_POINT('',(1.99493199737333E-17,0.026,0.019));
#1379=CARTESIAN_POINT('',(0.0015,0.026,0.019));
#1380=CARTESIAN_POINT('',(0.0015,0.026,0.019));
#1381=CARTESIAN_POINT('',(0.0015,0.026,0.));
#1382=CARTESIAN_POINT('',(1.99493199737333E-17,0.026,0.));
#1383=CARTESIAN_POINT('',(-0.00149999999999998,0.026,2.16840434497101E-19));
#1384=CARTESIAN_POINT('',(-0.00269895788082816,0.026,0.00275));
#1385=CARTESIAN_POINT('',(-0.00285094672287596,0.026,0.00309861050777091));
#1386=CARTESIAN_POINT('',(-0.00651761338954262,0.026,0.0015));
#1387=CARTESIAN_POINT('',(-0.00651761338954262,0.026,0.0055));
#1388=CARTESIAN_POINT('',(-0.0133905358959246,0.026,0.0055));
#1389=CARTESIAN_POINT('',(-0.0201311829990979,0.026,0.0055));
#1390=CARTESIAN_POINT('',(-0.0201311829990979,0.026,0.0005));
#1391=CARTESIAN_POINT('',(-0.0240514647235469,0.026,0.00360344827586207));
#1392=CARTESIAN_POINT('',(-0.0315,0.026,0.0095));
#1393=CARTESIAN_POINT('',(-0.0240514647235469,0.026,0.015396551724138));
#1394=CARTESIAN_POINT('',(-0.0201311829990979,0.026,0.0185));
#1395=CARTESIAN_POINT('',(-0.0201311829990979,0.026,0.0135));
#1396=CARTESIAN_POINT('',(-0.0133905358959246,0.026,0.0135));
#1397=CARTESIAN_POINT('',(-0.00651761338954263,0.026,0.0135));
#1398=CARTESIAN_POINT('',(-0.00651761338954263,0.026,0.0175));
#1399=CARTESIAN_POINT('',(-0.0364497474683058,0.026,0.0144497474683058));
#1400=CARTESIAN_POINT('',(-0.0364497474683058,0.026,0.0154497474683058));
#1401=CARTESIAN_POINT('',(-0.0315,0.026,0.0165));
#1402=CARTESIAN_POINT('',(-0.0315,0.026,0.0175));
#1403=CARTESIAN_POINT('',(-0.0265502525316942,0.026,0.0144497474683058));
#1404=CARTESIAN_POINT('',(-0.0265502525316942,0.026,0.0154497474683058));
#1405=CARTESIAN_POINT('',(-0.0245,0.026,0.0095));
#1406=CARTESIAN_POINT('',(-0.0245,0.026,0.0105));
#1407=CARTESIAN_POINT('',(-0.0265502525316942,0.026,0.00455025253169417));
#1408=CARTESIAN_POINT('',(-0.0265502525316942,0.026,0.00555025253169417));
#1409=CARTESIAN_POINT('',(-0.0315,0.026,0.0025));
#1410=CARTESIAN_POINT('',(-0.0315,0.026,0.0035));
#1411=CARTESIAN_POINT('',(-0.0364497474683058,0.026,0.00455025253169418));
#1412=CARTESIAN_POINT('',(-0.0364497474683058,0.026,0.00555025253169418));
#1413=CARTESIAN_POINT('',(-0.0385,0.026,0.0095));
#1414=CARTESIAN_POINT('',(-0.0385,0.026,0.0105));
#1415=CARTESIAN_POINT('',(-0.0315,0.026,0.0095));
#1416=CARTESIAN_POINT('',(-0.0315,0.026,0.0135));
#1417=CARTESIAN_POINT('',(1.06251812903579E-17,-0.026,0.019));
#1418=CARTESIAN_POINT('',(-0.0315,-0.026,0.0095));
#1419=CARTESIAN_POINT('',(-0.0315,-0.026,0.0055));
#1420=CARTESIAN_POINT('',(-0.0385,-0.026,0.0095));
#1421=CARTESIAN_POINT('',(-0.0385,-0.026,0.0085));
#1422=CARTESIAN_POINT('',(-0.0315,-0.026,0.0025));
#1423=CARTESIAN_POINT('',(-0.0315,-0.026,0.0015));
#1424=CARTESIAN_POINT('',(-0.0245,-0.026,0.0095));
#1425=CARTESIAN_POINT('',(-0.0245,-0.026,0.0085));
#1426=CARTESIAN_POINT('',(-0.0315,-0.026,0.0165));
#1427=CARTESIAN_POINT('',(-0.0315,-0.026,0.0155));
#1428=CARTESIAN_POINT('',(-0.0364497474683058,-0.026,0.0144497474683058));
#1429=CARTESIAN_POINT('',(-0.0364497474683058,-0.026,0.0124497474683058));
#1430=CARTESIAN_POINT('',(-0.0364497474683058,-0.026,0.00455025253169418));
#1431=CARTESIAN_POINT('',(-0.0364497474683058,-0.026,0.00255025253169418));
#1432=CARTESIAN_POINT('',(-0.0265502525316942,-0.026,0.00455025253169417));
#1433=CARTESIAN_POINT('',(-0.0265502525316942,-0.026,0.00255025253169417));
#1434=CARTESIAN_POINT('',(-0.0265502525316942,-0.026,0.0144497474683058));
#1435=CARTESIAN_POINT('',(-0.0265502525316942,-0.026,0.0124497474683058));
#1436=CARTESIAN_POINT('',(1.06251812903579E-17,-0.026,0.019));
#1437=CARTESIAN_POINT('',(-0.00149999999999998,-0.026,0.019));
#1438=CARTESIAN_POINT('',(0.0015,-0.026,0.019));
#1439=CARTESIAN_POINT('',(-0.00126041666666664,-0.026,0.0195495223620462));
#1440=CARTESIAN_POINT('',(-0.00285094672287597,-0.026,0.0159013894922291));
#1441=CARTESIAN_POINT('',(-0.00651761338954263,-0.026,0.0175));
#1442=CARTESIAN_POINT('',(-0.00651761338954263,-0.026,0.0135));
#1443=CARTESIAN_POINT('',(1.06251812903579E-17,-0.026,0.0135));
#1444=CARTESIAN_POINT('',(-0.0201311829990979,-0.026,0.0135));
#1445=CARTESIAN_POINT('',(-0.0201311829990979,-0.026,0.0185));
#1446=CARTESIAN_POINT('',(-0.0240514647235469,-0.026,0.015396551724138));
#1447=CARTESIAN_POINT('',(-0.0315,-0.026,0.0095));
#1448=CARTESIAN_POINT('',(-0.0240514647235469,-0.026,0.00360344827586207));
#1449=CARTESIAN_POINT('',(-0.0201311829990979,-0.026,0.0005));
#1450=CARTESIAN_POINT('',(-0.0201311829990979,-0.026,0.0055));
#1451=CARTESIAN_POINT('',(7.54136899796128E-18,-0.026,0.0055));
#1452=CARTESIAN_POINT('',(-0.00651761338954262,-0.026,0.0055));
#1453=CARTESIAN_POINT('',(-0.00651761338954262,-0.026,0.0015));
#1454=CARTESIAN_POINT('',(-0.00285094672287596,-0.026,0.00309861050777091));
#1455=CARTESIAN_POINT('',(-0.00822103325258581,-0.026,0.0154157554157315));
#1456=CARTESIAN_POINT('',(-0.00149999999999998,-0.026,2.16840434497101E-19));
#1457=CARTESIAN_POINT('',(1.06251812903579E-17,-0.026,0.));
#1458=CARTESIAN_POINT('',(0.0015,-0.026,0.));
#1459=CARTESIAN_POINT('',(0.0015,-0.026,0.019));
#1460=CARTESIAN_POINT('',(-0.02125,-0.023,0.0095));
#1461=CARTESIAN_POINT('',(-0.00813482218184849,-0.023,0.00378198334416882));
#1462=CARTESIAN_POINT('',(-0.00149999999999998,-0.023,0.019));
#1463=CARTESIAN_POINT('',(-0.00285094672287597,-0.023,0.0159013894922291));
#1464=CARTESIAN_POINT('',(-0.0015,-0.023,0.0095));
#1465=CARTESIAN_POINT('',(-0.00149999999999998,-0.023,2.16840434497101E-19));
#1466=CARTESIAN_POINT('',(-0.00813482218184847,-0.023,0.0152180166558312));
#1467=CARTESIAN_POINT('',(-0.00285094672287596,-0.023,0.00309861050777091));
#1468=CARTESIAN_POINT('',(-0.00651761338954262,-0.023,0.0015));
#1469=CARTESIAN_POINT('',(-0.00651761338954262,-0.023,0.0055));
#1470=CARTESIAN_POINT('',(-0.02125,-0.023,0.0055));
#1471=CARTESIAN_POINT('',(-0.0201311829990979,-0.023,0.0055));
#1472=CARTESIAN_POINT('',(-0.0201311829990979,-0.023,0.0005));
#1473=CARTESIAN_POINT('',(-0.0240514647235469,-0.023,0.00360344827586207));
#1474=CARTESIAN_POINT('',(-0.0315,-0.023,0.0095));
#1475=CARTESIAN_POINT('',(-0.0240514647235469,-0.023,0.015396551724138));
#1476=CARTESIAN_POINT('',(-0.0201311829990979,-0.023,0.0185));
#1477=CARTESIAN_POINT('',(-0.0201311829990979,-0.023,0.0135));
#1478=CARTESIAN_POINT('',(-0.02125,-0.023,0.0135));
#1479=CARTESIAN_POINT('',(-0.00651761338954263,-0.023,0.0135));
#1480=CARTESIAN_POINT('',(-0.00651761338954263,-0.023,0.0175));
#1481=CARTESIAN_POINT('',(-0.02125,0.0235,0.0095));
#1482=CARTESIAN_POINT('',(-0.00813482218184849,0.0235,0.00378198334416881));
#1483=CARTESIAN_POINT('',(-0.00285094672287597,0.0235,0.0159013894922291));
#1484=CARTESIAN_POINT('',(-0.00149999999999998,0.0235,0.019));
#1485=CARTESIAN_POINT('',(-0.00651761338954263,0.0235,0.0175));
#1486=CARTESIAN_POINT('',(-0.00651761338954263,0.0235,0.0135));
#1487=CARTESIAN_POINT('',(-0.02125,0.0235,0.0135));
#1488=CARTESIAN_POINT('',(-0.0201311829990979,0.0235,0.0135));
#1489=CARTESIAN_POINT('',(-0.0201311829990979,0.0235,0.0185));
#1490=CARTESIAN_POINT('',(-0.0240514647235469,0.0235,0.015396551724138));
#1491=CARTESIAN_POINT('',(-0.0315,0.0235,0.0095));
#1492=CARTESIAN_POINT('',(-0.0240514647235469,0.0235,0.00360344827586208));
#1493=CARTESIAN_POINT('',(-0.0201311829990979,0.0235,0.0005));
#1494=CARTESIAN_POINT('',(-0.0201311829990979,0.0235,0.0055));
#1495=CARTESIAN_POINT('',(-0.02125,0.0235,0.0055));
#1496=CARTESIAN_POINT('',(-0.00651761338954262,0.0235,0.0055));
#1497=CARTESIAN_POINT('',(-0.00651761338954262,0.0235,0.0015));
#1498=CARTESIAN_POINT('',(-0.00285094672287596,0.0235,0.00309861050777091));
#1499=CARTESIAN_POINT('',(-0.00813482218184846,0.0235,0.0152180166558312));
#1500=CARTESIAN_POINT('',(-0.00149999999999998,0.0235,0.));
#1501=CARTESIAN_POINT('',(-0.00149999999999998,0.0235,0.0095));
#1502=CARTESIAN_POINT('',(1.56125112837912E-17,0.,0.019));
#1503=CARTESIAN_POINT('',(-0.00149999999999998,-0.074,0.019));
#1504=CARTESIAN_POINT('',(0.0015,1.7347234759768E-18,0.019));
#1505=CARTESIAN_POINT('',(-0.00149999999999998,-0.074,0.019));
#1506=CARTESIAN_POINT('',(-0.00149999999999998,0.,0.019));
#1507=CARTESIAN_POINT('',(1.56125112837912E-17,0.,0.));
#1508=CARTESIAN_POINT('',(-0.00149999999999998,-0.074,2.16840434497101E-19));
#1509=CARTESIAN_POINT('',(-0.00149999999999998,0.,0.));
#1510=CARTESIAN_POINT('',(-0.00149999999999998,-0.074,2.16840434497101E-19));
#1511=CARTESIAN_POINT('',(0.0015,1.7347234759768E-18,0.));
#1512=CARTESIAN_POINT('',(-0.041,0.0215,0.0095));
#1513=CARTESIAN_POINT('',(-0.0364497474683058,0.0215,0.0144497474683058));
#1514=CARTESIAN_POINT('',(-0.0354497474683058,0.0215,0.0144497474683058));
#1515=CARTESIAN_POINT('',(-0.0315,0.0215,0.0165));
#1516=CARTESIAN_POINT('',(-0.0305,0.0215,0.0165));
#1517=CARTESIAN_POINT('',(-0.0265502525316942,0.0215,0.0144497474683058));
#1518=CARTESIAN_POINT('',(-0.0255502525316941,0.0215,0.0144497474683058));
#1519=CARTESIAN_POINT('',(-0.0245,0.0215,0.0095));
#1520=CARTESIAN_POINT('',(-0.0235,0.0215,0.0095));
#1521=CARTESIAN_POINT('',(-0.0265502525316942,0.0215,0.00455025253169417));
#1522=CARTESIAN_POINT('',(-0.0255502525316941,0.0215,0.00455025253169417));
#1523=CARTESIAN_POINT('',(-0.0315,0.0215,0.0025));
#1524=CARTESIAN_POINT('',(-0.0305,0.0215,0.0025));
#1525=CARTESIAN_POINT('',(-0.0364497474683058,0.0215,0.00455025253169418));
#1526=CARTESIAN_POINT('',(-0.0354497474683058,0.0215,0.00455025253169418));
#1527=CARTESIAN_POINT('',(-0.0385,0.0215,0.0095));
#1528=CARTESIAN_POINT('',(-0.0375,0.0215,0.0095));
#1529=CARTESIAN_POINT('',(-0.0315,0.0215,0.0095));
#1530=CARTESIAN_POINT('',(-0.0275,0.0215,0.0095));
#1531=CARTESIAN_POINT('',(-0.0315,0.0215,0.0095));
#1532=CARTESIAN_POINT('',(-0.022,0.0215,0.0095));
#1533=CARTESIAN_POINT('',(-0.0364497474683058,0.074,0.00455025253169418));
#1534=CARTESIAN_POINT('',(-0.0364497474683058,-0.014,0.00455025253169418));
#1535=CARTESIAN_POINT('',(-0.0364497474683058,-0.014,0.00355025253169418));
#1536=CARTESIAN_POINT('',(-0.0364497474683058,-0.0235,0.00455025253169418));
#1537=CARTESIAN_POINT('',(-0.0364497474683058,-0.0235,0.00355025253169418));
#1538=CARTESIAN_POINT('',(-0.0265502525316942,0.074,0.00455025253169417));
#1539=CARTESIAN_POINT('',(-0.0265502525316942,-0.014,0.00455025253169417));
#1540=CARTESIAN_POINT('',(-0.0265502525316942,-0.014,0.00355025253169417));
#1541=CARTESIAN_POINT('',(-0.0265502525316942,-0.0235,0.00455025253169417));
#1542=CARTESIAN_POINT('',(-0.0265502525316942,-0.0235,0.00355025253169417));
#1543=CARTESIAN_POINT('',(-0.0265502525316942,0.074,0.0144497474683058));
#1544=CARTESIAN_POINT('',(-0.0265502525316942,-0.014,0.0144497474683058));
#1545=CARTESIAN_POINT('',(-0.0265502525316942,-0.014,0.0134497474683058));
#1546=CARTESIAN_POINT('',(-0.0265502525316942,-0.0235,0.0144497474683058));
#1547=CARTESIAN_POINT('',(-0.0265502525316942,-0.0235,0.0134497474683058));
#1548=CARTESIAN_POINT('',(-0.0364497474683058,0.074,0.0144497474683058));
#1549=CARTESIAN_POINT('',(-0.0364497474683058,-0.014,0.0144497474683058));
#1550=CARTESIAN_POINT('',(-0.0364497474683058,-0.014,0.0134497474683058));
#1551=CARTESIAN_POINT('',(-0.0364497474683058,-0.0235,0.0144497474683058));
#1552=CARTESIAN_POINT('',(-0.0364497474683058,-0.0235,0.0134497474683058));
#1553=CARTESIAN_POINT('',(-0.00149999999999998,0.,0.019));
#1554=CARTESIAN_POINT('',(0.0015,1.7347234759768E-18,0.019));
#1555=CARTESIAN_POINT('',(-0.041,-0.014,0.0095));
#1556=CARTESIAN_POINT('',(-0.0315,-0.014,0.0165));
#1557=CARTESIAN_POINT('',(-0.0315,-0.014,0.0155));
#1558=CARTESIAN_POINT('',(-0.0245,-0.014,0.0095));
#1559=CARTESIAN_POINT('',(-0.0245,-0.014,0.0085));
#1560=CARTESIAN_POINT('',(-0.0315,-0.014,0.0025));
#1561=CARTESIAN_POINT('',(-0.0315,-0.014,0.0015));
#1562=CARTESIAN_POINT('',(-0.0385,-0.014,0.0095));
#1563=CARTESIAN_POINT('',(-0.0385,-0.014,0.0085));
#1564=CARTESIAN_POINT('',(-0.0315,-0.014,0.0095));
#1565=CARTESIAN_POINT('',(-0.0315,-0.014,0.0055));
#1566=CARTESIAN_POINT('',(-0.0315,-0.014,0.0095));
#1567=CARTESIAN_POINT('',(-0.0315,-0.014,0.));
#1568=CARTESIAN_POINT('',(-0.0315,0.074,0.0095));
#1569=CARTESIAN_POINT('',(-0.0385,0.074,0.0095));
#1570=CARTESIAN_POINT('',(-0.0364497474683058,0.074,0.00455025253169418));
#1571=CARTESIAN_POINT('',(-0.0315,0.074,0.0025));
#1572=CARTESIAN_POINT('',(-0.0265502525316942,0.074,0.00455025253169417));
#1573=CARTESIAN_POINT('',(-0.0245,0.074,0.0095));
#1574=CARTESIAN_POINT('',(-0.0265502525316942,0.074,0.0144497474683058));
#1575=CARTESIAN_POINT('',(-0.0315,0.074,0.0165));
#1576=CARTESIAN_POINT('',(-0.0364497474683058,0.074,0.0144497474683058));
#1577=CARTESIAN_POINT('',(-0.0315,0.074,0.0095));
#1578=CARTESIAN_POINT('',(-0.0385,0.074,0.0095));
#1579=CARTESIAN_POINT('',(-0.0315,0.074,0.0025));
#1580=CARTESIAN_POINT('',(-0.0245,0.074,0.0095));
#1581=CARTESIAN_POINT('',(-0.0315,0.074,0.0165));
#1582=CARTESIAN_POINT('',(-0.0315,5.77963158101888E-18,0.0095));
#1583=CARTESIAN_POINT('',(-0.0240514647235469,4.4129715900309E-18,0.00360344827586207));
#1584=CARTESIAN_POINT('',(-0.0240514647235469,4.4129715900309E-18,0.015396551724138));
#1585=CARTESIAN_POINT('',(-0.0315,5.77963158101888E-18,0.0095));
#1586=CARTESIAN_POINT('',(-0.0240514647235469,4.4129715900309E-18,0.00360344827586207));
#1587=CARTESIAN_POINT('',(-0.0240514647235469,4.4129715900309E-18,0.015396551724138));
#1588=CARTESIAN_POINT('',(-0.0364497474683058,-0.0235,0.0144497474683058));
#1589=CARTESIAN_POINT('',(-0.0364497474683058,-0.0235,0.0144497474683058));
#1590=CARTESIAN_POINT('',(-0.0364497474683058,-0.0235,0.0124497474683058));
#1591=CARTESIAN_POINT('',(-0.01975,-0.0235,0.0095));
#1592=CARTESIAN_POINT('',(-0.0265502525316942,-0.0235,0.0144497474683058));
#1593=CARTESIAN_POINT('',(-0.0265502525316942,-0.0235,0.0144497474683058));
#1594=CARTESIAN_POINT('',(-0.0265502525316942,-0.0235,0.0124497474683058));
#1595=CARTESIAN_POINT('',(-0.01975,-0.0235,0.0095));
#1596=CARTESIAN_POINT('',(-0.0265502525316942,-0.0235,0.00455025253169417));
#1597=CARTESIAN_POINT('',(-0.0265502525316942,-0.0235,0.00455025253169417));
#1598=CARTESIAN_POINT('',(-0.0265502525316942,-0.0235,0.00255025253169417));
#1599=CARTESIAN_POINT('',(-0.01975,-0.0235,0.0095));
#1600=CARTESIAN_POINT('',(-0.0364497474683058,-0.0235,0.00455025253169418));
#1601=CARTESIAN_POINT('',(-0.0364497474683058,-0.0235,0.00455025253169418));
#1602=CARTESIAN_POINT('',(-0.0364497474683058,-0.0235,0.00255025253169418));
#1603=CARTESIAN_POINT('',(-0.01975,-0.0235,0.0095));
#1604=CARTESIAN_POINT('',(-0.00269895788082816,-0.074,0.00275));
#1605=CARTESIAN_POINT('',(-0.00285094672287596,0.026,0.00309861050777091));
#1606=CARTESIAN_POINT('',(-0.0133905358959246,-0.074,0.0055));
#1607=CARTESIAN_POINT('',(-0.00651761338954262,0.0235,0.0055));
#1608=CARTESIAN_POINT('',(-0.0201311829990979,0.026,0.0055));
#1609=CARTESIAN_POINT('',(-0.0133905358959246,-0.074,0.0135));
#1610=CARTESIAN_POINT('',(-0.00651761338954263,0.026,0.0135));
#1611=CARTESIAN_POINT('',(-0.020131182999098,-0.074,0.0135));
#1612=CARTESIAN_POINT('',(-0.00269895788082816,-0.074,0.01625));
#1613=CARTESIAN_POINT('',(-0.00285094672287597,0.0235,0.0159013894922291));
#1614=CARTESIAN_POINT('',(-0.0133905358959246,-0.074,0.0055));
#1615=CARTESIAN_POINT('',(-0.00651761338954262,-0.026,0.0055));
#1616=CARTESIAN_POINT('',(-0.0201311829990979,-0.023,0.0055));
#1617=CARTESIAN_POINT('',(-0.00269895788082816,-0.074,0.00275));
#1618=CARTESIAN_POINT('',(-0.00285094672287596,-0.023,0.00309861050777091));
#1619=CARTESIAN_POINT('',(-0.00269895788082816,-0.074,0.01625));
#1620=CARTESIAN_POINT('',(-0.00285094672287597,-0.026,0.0159013894922291));
#1621=CARTESIAN_POINT('',(-0.0133905358959246,-0.074,0.0135));
#1622=CARTESIAN_POINT('',(-0.00651761338954263,-0.023,0.0135));
#1623=CARTESIAN_POINT('',(-0.020131182999098,-0.074,0.0135));
#1624=CARTESIAN_POINT('',(-0.0201311829990979,3.69367685793196E-18,0.0005));
#1625=CARTESIAN_POINT('',(-0.0201311829990979,3.69367685793196E-18,0.0185));
#1626=CARTESIAN_POINT('',(-0.0201311829990979,3.69367685793196E-18,0.0005));
#1627=CARTESIAN_POINT('',(-0.0201311829990979,3.69367685793196E-18,0.0185));
#1628=CARTESIAN_POINT('',(-0.00651761338954262,-0.074,0.0015));
#1629=CARTESIAN_POINT('',(-0.00651761338954263,-0.074,0.0175));
#1630=CARTESIAN_POINT('',(-0.00651761338954262,-0.074,0.0015));
#1631=CARTESIAN_POINT('',(-0.00651761338954263,-0.074,0.0175));
#1632=MECHANICAL_DESIGN_GEOMETRIC_PRESENTATION_REPRESENTATION('',(#951),
#1633);
#1633=(
GEOMETRIC_REPRESENTATION_CONTEXT(3)
GLOBAL_UNCERTAINTY_ASSIGNED_CONTEXT((#1634))
GLOBAL_UNIT_ASSIGNED_CONTEXT((#1637,#1636,#1635))
REPRESENTATION_CONTEXT('Part 1','TOP_LEVEL_ASSEMBLY_PART')
);
#1634=UNCERTAINTY_MEASURE_WITH_UNIT(LENGTH_MEASURE(1.E-8),#1637,
'DISTANCE_ACCURACY_VALUE','Maximum Tolerance applied to model');
#1635=(
NAMED_UNIT(*)
SI_UNIT($,.STERADIAN.)
SOLID_ANGLE_UNIT()
);
#1636=(
NAMED_UNIT(*)
PLANE_ANGLE_UNIT()
SI_UNIT($,.RADIAN.)
);
#1637=(
LENGTH_UNIT()
NAMED_UNIT(*)
SI_UNIT($,.METRE.)
);
#1638=PRODUCT_DEFINITION_SHAPE('','',#1639);
#1639=PRODUCT_DEFINITION('','',#1641,#1640);
#1640=PRODUCT_DEFINITION_CONTEXT('',#1647,'design');
#1641=PRODUCT_DEFINITION_FORMATION_WITH_SPECIFIED_SOURCE('','',#1643,
 .NOT_KNOWN.);
#1642=PRODUCT_RELATED_PRODUCT_CATEGORY('','',(#1643));
#1643=PRODUCT('Part 1','Part 1','Part 1',(#1645));
#1644=PRODUCT_CATEGORY('','');
#1645=PRODUCT_CONTEXT('',#1647,'mechanical');
#1646=APPLICATION_PROTOCOL_DEFINITION('international standard',
'ap242_managed_model_based_3d_engineering',2020,#1647);
#1647=APPLICATION_CONTEXT('managed model based 3d engineering');
ENDSEC;
END-ISO-10303-21;
